<svg width="287" height="206" viewBox="0 0 287 206" fill="none" xmlns="http://www.w3.org/2000/svg">
<path d="M82.2135 94.3733C82.2135 94.3733 31.5962 136.153 19.1412 143.384C6.68615 150.614 -4.56045 133.742 1.86763 119.278C8.29571 104.815 16.7319 103.612 16.7319 103.612C16.7319 103.612 -0.945287 73.8832 22.7589 50.5827C46.4631 27.2821 71.7692 23.2659 75.788 34.9161C75.788 34.9161 93.4348 12.0345 128.416 3.17938C160.153 -4.85572 159.35 9.60746 141.673 27.2847C141.673 27.2847 153.725 21.2577 159.351 23.2684C164.971 25.2765 82.2135 94.3733 82.2135 94.3733Z" fill="#F4E8D8"/>
<path d="M230.052 91.5634C230.052 91.5634 127.609 142.181 119.576 147.405C111.541 152.628 109.132 153.833 109.533 157.449C109.934 161.064 125.2 153.432 125.2 153.432C125.2 153.432 113.951 165.885 144.484 160.262C175.015 154.638 212.377 144.996 247.328 123.303C282.279 101.609 290.314 97.5929 285.894 89.5578C281.474 81.5227 267.816 83.1297 260.184 86.7449C252.553 90.36 272.637 77.9075 264.604 76.7016C256.567 75.4932 230.052 91.5634 230.052 91.5634Z" fill="#F4E8D8"/>
<path d="M168.787 52.794C168.787 52.794 168.787 43.7561 151.915 40.1384C135.042 36.5207 135.042 44.3578 136.248 50.9864C137.454 57.615 147.096 61.8344 148.904 61.8344C150.711 61.8344 168.787 52.794 168.787 52.794Z" fill="#48598B"/>
<path d="M146.892 99.1948C146.892 99.1948 142.071 110.444 150.106 117.273C158.142 124.102 172.201 126.915 185.057 117.273C197.913 107.631 166.578 76.2979 146.892 99.1948Z" fill="#273150"/>
<path d="M156.131 55.6064C156.131 55.6064 171.244 37.7413 189.475 41.948C210.366 46.769 217.797 58.6198 221.412 76.6982C221.412 76.6982 232.862 71.2754 236.477 88.1479C240.092 105.02 218.398 112.855 205.745 112.253C193.092 111.649 156.131 55.6064 156.131 55.6064Z" fill="#48598B"/>
<path d="M152.114 58.2196C152.114 58.2196 167.227 40.3546 185.458 44.5612C206.349 49.3823 213.78 61.2331 217.395 79.3115C217.395 79.3115 228.845 73.8887 232.46 90.7612C236.075 107.634 214.382 115.468 201.726 114.866C189.073 114.26 152.114 58.2196 152.114 58.2196Z" fill="#273150"/>
<path d="M141.47 79.9125C141.47 79.9125 132.432 85.9394 128.814 76.899C125.196 67.8586 139.058 60.0266 144.48 60.6282C149.906 61.2325 148.098 72.0779 141.47 79.9125Z" fill="#273150"/>
<path d="M166.778 54.6045C166.778 54.6045 166.778 45.5666 149.906 41.9489C133.033 38.3312 133.033 46.1683 134.239 52.797C135.445 59.4256 145.087 63.645 146.895 63.645C148.7 63.6424 166.778 54.6045 166.778 54.6045Z" fill="#273150"/>
<path d="M163.364 126.113C163.364 126.113 151.513 138.365 144.885 146.2C138.784 153.407 124.999 159.657 122.991 169.3C120.983 178.942 142.072 181.955 148.5 175.527C154.928 169.099 176.22 143.389 179.434 136.56C182.646 129.728 174.21 115.666 163.364 126.113Z" fill="#CE6D3E"/>
<path d="M185.057 122.094C185.057 122.094 178.629 117.273 174.613 117.674C170.597 118.075 158.946 130.731 158.946 130.731C158.946 130.731 163.567 130.931 166.58 133.744C169.594 136.557 173.409 145.194 173.409 145.194C173.409 145.194 189.477 126.915 185.057 122.094Z" fill="#C93F37"/>
<path d="M171.801 175.928C171.801 175.928 158.744 166.354 147.162 163.607C137.101 161.224 132.232 160.794 127.01 163.607C121.788 166.42 117.769 174.656 122.389 176.464C127.007 178.271 171.801 175.928 171.801 175.928Z" fill="#F6874E"/>
<path d="M232.461 182.757C232.461 182.757 234.068 157.047 231.659 140.977C229.25 124.907 225.632 112.855 218.001 108.034C210.367 103.213 196.307 110.847 185.863 115.265C177.345 118.867 173.812 135.752 168.186 145.394C163.375 153.643 159.749 161.465 171.801 175.925C183.852 190.386 225.632 208.868 232.461 182.757Z" fill="#D09435"/>
<path d="M232.463 182.757C232.463 182.757 234.07 157.048 231.66 140.977C229.251 124.907 225.633 112.856 218.002 108.035C210.368 103.214 219.208 140.173 211.574 155.441C206.618 165.352 202.333 175.928 213.582 184.364C228.642 195.659 225.633 208.868 232.463 182.757Z" fill="#F6BE4A"/>
<path d="M167.783 105.623C181.772 121.977 185.46 128.522 185.46 128.522C185.46 128.522 199.924 128.121 199.52 118.479C199.116 108.837 194.006 107.255 187.87 98.3926C180.639 87.9483 163.112 100.162 167.783 105.623Z" fill="#F6874E"/>
<path d="M167.782 105.623C174.611 114.26 184.855 113.658 184.855 113.658C184.855 113.658 203.535 116.971 187.868 98.3924C179.681 88.6792 163.111 100.162 167.782 105.623Z" fill="#CE6D3E"/>
<path d="M157.238 53.9005C157.238 53.9005 143.069 52.654 139.662 74.4896C135.242 102.812 142.071 113.66 169.792 110.646C197.512 107.633 198.114 89.755 196.306 77.102C194.499 64.4438 173.506 49.6811 157.238 53.9005Z" fill="#F6874E"/>
<path d="M157.238 53.9008C157.238 53.9008 143.069 52.6543 139.662 74.4899C135.242 102.812 142.071 113.66 169.792 110.647C169.792 110.647 157.136 96.9882 155.329 84.3326C153.521 71.677 176.22 53.5327 157.238 53.9008Z" fill="#CE6D3E"/>
<path d="M142.271 65.4998C142.271 65.4998 147.819 53.5296 164.97 56.4111C177.524 58.5208 190.982 71.2754 190.982 71.2754L196.306 66.6549C196.306 66.6549 184.651 48.6375 160.55 51.4885C147.395 53.0447 143.729 60.6787 142.271 65.4998Z" fill="#F6BE4A"/>
<path d="M142.271 65.5C142.271 65.5 147.819 53.5298 164.97 56.4113L160.55 51.4912C147.395 53.0449 143.729 60.6789 142.271 65.5Z" fill="#D09435"/>
<path d="M201.127 79.9121C194.499 79.9121 189.477 87.1424 187.87 95.5787C186.441 103.088 184.856 112.451 207.154 111.849C229.449 111.248 213.78 79.9121 201.127 79.9121Z" fill="#273150"/>
<path d="M191.082 88.3489C195.131 88.3489 198.414 83.6944 198.414 77.9528C198.414 72.2111 195.131 67.5566 191.082 67.5566C187.033 67.5566 183.75 72.2111 183.75 77.9528C183.75 83.6944 187.033 88.3489 191.082 88.3489Z" fill="#F6874E"/>
<path d="M163.09 74.5112C164.435 74.1719 165.062 72.0651 164.492 69.8057C163.922 67.5462 162.37 65.9896 161.025 66.329C159.681 66.6683 159.053 68.775 159.623 71.0345C160.194 73.2939 161.746 74.8505 163.09 74.5112Z" fill="#263052"/>
<path d="M148.24 78.5875C148.375 76.6812 147.565 75.0707 146.431 74.9903C145.296 74.9099 144.267 76.3901 144.132 78.2964C143.997 80.2027 144.807 81.8132 145.941 81.8936C147.076 81.974 148.105 80.4938 148.24 78.5875Z" fill="#263052"/>
<path d="M143.008 74.2861L147.628 74.6212" stroke="#273150" stroke-width="2" stroke-miterlimit="10"/>
<path d="M154.392 66.8551C154.392 66.8551 155.664 63.8416 157.941 63.707" stroke="#273150" stroke-width="2" stroke-miterlimit="10"/>
<path d="M184.61 62.6385C184.61 62.6385 191.643 71.1839 198.855 74.8448C204.308 77.6145 208.678 78.1248 208.678 78.1248L207.586 75.9415L210.302 73.847C210.302 73.847 200.109 72.7808 186.735 61.3564L184.61 62.6385Z" fill="#C93F37"/>
<path d="M183.896 61.6408C183.896 61.6408 187.578 72.0775 193.099 77.9877C197.276 82.4559 201.206 84.4335 201.206 84.4335L200.929 82.009L204.196 80.9732C204.196 80.9732 194.986 76.4797 186.331 61.166L183.896 61.6408Z" fill="#C93F37"/>
<path d="M188.368 67.1552C190.967 66.6982 193.44 52.8215 187.251 52.5295C181.424 52.2528 174.819 52.9967 175.915 57.3887C177.015 61.7807 185.771 67.6122 188.368 67.1552Z" fill="#C93F37"/>
<path d="M190.612 59.2624C190.612 59.2624 189.655 53.3116 187.809 53.4436C185.961 53.5756 187.613 56.1169 188.091 60.0367C188.568 63.9565 190.947 61.7732 190.612 59.2624Z" fill="#F7BC4B"/>
<path d="M186.21 64.2787C186.21 64.2787 185.819 61.5394 189.81 58.889C193.801 56.2385 196.837 54.794 199.376 56.368C201.914 57.942 202.793 64.8652 201.343 68.3559C199.893 71.8442 191.013 69.1937 188.776 67.8812C186.54 66.5687 186.21 64.2787 186.21 64.2787Z" fill="#C93F37"/>
<path d="M200.737 61.9608C200.737 61.9608 201.572 67.513 199.089 68.4218C195.4 69.7699 197.726 59.2545 197.941 57.5916C198.157 55.9287 201.402 57.9826 200.737 61.9608Z" fill="#F7BC4B"/>
<path d="M121.282 122.698C121.282 122.698 123.692 113.96 122.488 109.441C121.282 104.922 120.681 103.414 116.461 101.004C112.242 98.5951 107.723 98.8947 108.327 94.0736C108.929 89.2526 110.135 91.6644 115.86 92.5682C121.584 93.472 121.493 97.0059 126.405 98.8947C130.323 100.4 135.443 102.812 138.157 109.138C140.869 115.465 148.401 120.588 141.772 125.107C135.141 129.626 121.884 127.516 121.282 122.698Z" fill="#F6874E"/>
<path d="M187.467 116.872C187.467 116.872 178.226 136.557 175.415 144.592C172.602 152.627 176.217 157.045 182.646 160.663C189.074 164.278 196.705 165.684 203.133 152.828C209.561 139.972 215.185 131.335 212.775 124.907C210.366 118.479 195.502 105.623 187.467 116.872Z" fill="#F6874E"/>
<path d="M187.467 116.872C187.467 116.872 178.226 136.557 175.415 144.592C172.602 152.627 176.217 157.045 182.646 160.663C189.074 164.278 189.074 159.056 195.502 146.199C201.93 133.343 215.187 131.335 212.775 124.907C210.363 118.479 195.502 105.623 187.467 116.872Z" fill="#CE6D3E"/>
<path d="M187.065 118.078C187.065 118.078 194.699 99.9992 197.109 96.384C199.518 92.7689 204.743 90.3571 210.366 92.3678C215.989 94.3759 218.802 108.034 218.802 113.259C218.802 118.481 211.168 134.15 210.767 137.364C210.366 140.578 209.561 125.714 201.526 120.893C193.491 116.072 187.065 118.078 187.065 118.078Z" fill="#C93F37"/>
<path d="M197.109 96.384C199.519 92.7689 204.743 90.3571 210.367 92.3678C215.99 94.3759 218.803 108.034 218.803 113.259C218.803 118.481 211.169 134.15 210.768 137.364C210.367 140.578 213.177 107.636 209.966 103.216C205.401 96.9375 197.109 96.384 197.109 96.384Z" fill="#EE5D4F"/>
<path d="M198.47 147.679C198.47 147.679 194.068 131.383 179.026 132.022C163.984 132.662 170.587 156.945 185.629 158.862C200.671 160.779 198.47 147.679 198.47 147.679Z" fill="#CE6D3E"/>
<path d="M198.716 150.617C198.716 150.617 193.895 131.2 177.423 132.003C160.952 132.805 151.714 125.709 144.882 123.297C139.619 121.439 130.52 129.324 138.555 135.349C146.59 141.376 168.182 162.264 184.654 164.676C201.125 167.088 198.716 150.617 198.716 150.617Z" fill="#F6874E"/>
<path d="M126.405 118.78C126.405 118.78 116.463 114.863 115.258 113.959C114.052 113.055 113.45 108.836 109.533 108.836C105.615 108.836 108.931 113.055 109.231 115.465C109.533 117.874 112.422 120.146 114.554 123.099C115.859 124.906 117.266 128.222 121.285 129.928C128.038 132.797 135.446 135.35 140.868 133.543C146.291 131.735 135.745 116.67 126.405 118.78Z" fill="#F6874E"/>
<path d="M132.028 108.702C132.028 108.702 133.034 120.888 134.841 121.792C136.649 122.696 141.168 123.297 141.168 123.297C141.168 123.297 135.443 126.913 132.731 123.297C130.02 119.685 132.028 108.702 132.028 108.702Z" fill="#CE6D3E"/>
<path d="M125.338 102.342C124.714 101.593 122.464 100.717 120.088 101.842C117.715 102.966 117.715 103.218 117.839 105.591C117.963 107.965 117.839 112.84 118.588 113.591C119.337 114.34 121.713 115.216 123.086 113.591C124.46 111.966 125.087 109.092 125.087 106.716C125.09 104.34 125.963 103.091 125.338 102.342Z" fill="#F6874E"/>
<path d="M128.111 100.87C127.441 100.068 125.032 99.1287 122.488 100.335C119.944 101.541 119.944 101.807 120.079 104.351C120.213 106.895 120.079 112.117 120.881 112.922C121.683 113.724 124.23 114.663 125.702 112.922C127.175 111.18 127.845 108.101 127.845 105.557C127.845 103.013 128.782 101.673 128.111 100.87Z" fill="#CE6D3E"/>
<path d="M128.915 100.87C128.245 100.068 125.836 99.1287 123.292 100.335C120.748 101.541 120.748 101.807 120.883 104.351C121.017 106.895 120.883 112.117 121.685 112.922C122.487 113.724 125.033 114.663 126.506 112.922C127.978 111.18 128.649 108.101 128.649 105.557C128.649 103.013 129.583 101.673 128.915 100.87Z" fill="#F6874E"/>
<path d="M127.04 101.605C124.93 102.207 122.82 108.836 122.82 110.643C122.82 112.451 124.562 114.36 128.276 114.459C131.693 114.55 130.218 109.102 130.218 109.102C130.218 109.102 129.149 101.001 127.04 101.605Z" fill="#CE6D3E"/>
<path d="M145.085 123.901C145.085 123.901 144.684 114.259 143.78 111.85C142.876 109.441 139.261 107.029 135.042 104.62C130.822 102.21 130.221 101.005 128.111 101.606C126.001 102.208 123.892 108.837 123.892 110.644C123.892 112.452 124.694 113.256 128.411 113.356C131.828 113.447 131.289 109.103 131.289 109.103C131.289 109.103 132.627 110.644 132.93 115.463C133.232 120.281 134.338 127.517 145.085 123.901Z" fill="#F6874E"/>
<path d="M51.8838 164.041L67.7509 163.472L91.5541 163.37L97.2789 162.065L64.5369 160.258L51.8838 164.041Z" fill="#634874"/>
<path d="M57.4404 92.2654L73.9118 94.172L103.437 82.3212L103.658 80.8919L89.1772 77L57.4404 92.2654Z" fill="#634874"/>
<path d="M31.5938 55.9593L40.3905 51.0773L40.6444 51.0722L51.7031 44.8752H51.957L62.9294 38.5664L102.902 53.1971V66.8555L63.333 54.3675L31.5938 70.5215V55.9593Z" fill="#29ACE4"/>
<path d="M63.333 54.2329L31.5938 70.5215V55.9593L40.393 51.0722H40.6443L51.7031 44.8752H51.957L62.9294 38.5664" fill="#48598B"/>
<path d="M31.5938 70.5219L76.9914 78.2041L102.902 66.856L63.333 54.2334L51.9747 60.0598L51.7107 60.0522L40.6494 65.8303L40.3879 65.8278L31.5938 70.5219Z" fill="#634874"/>
<path d="M42.4414 134.343L64.8584 137.296L101.294 128.87L87.5852 124.625L42.4414 134.343Z" fill="#634874"/>
<path d="M65.7421 95.8808L51.2129 88.8155L61.7258 81.6182L103.506 93.1364L65.7421 95.8808Z" fill="#634874"/>
<path d="M31.1924 107.13V120.989L65.4755 123.701L100.492 115.866L92.3582 107.834L102.701 105.422L80.2052 91.2607L63.1297 93.2689L31.1924 107.13Z" fill="#634874"/>
<path d="M31.5938 71.2756L62.9294 54.9033L77.7099 59.5721L77.7937 68.3967L91.4622 63.9133L103.641 67.7595V81.4179L63.333 70.5724L31.5938 85.8378V71.2756Z" fill="#29ACE4"/>
<path d="M63.333 70.5724L31.5938 85.8378V71.2756L62.9294 54.9033" fill="#48598B"/>
<path d="M77.8031 68.3963L91.4539 63.9434V78.2034L77.793 80.9834L77.8031 68.3963Z" fill="#48598B"/>
<path d="M31.5938 85.8377L45.7904 86.4724L77.8114 74.4642L63.333 70.5723L31.5938 85.8377Z" fill="#634874"/>
<path d="M51.2129 77.4016V88.8158L63.2643 83.7611V71.5752L51.2129 77.4016Z" fill="#48598B"/>
<path d="M103.506 81.687V93.1367L63.2646 83.8297V71.5752L103.506 81.687Z" fill="#29ACE4"/>
<path d="M31.1924 97.4877V107.765L63.1297 95.7132V84.2305L31.1924 97.4877Z" fill="#48598B"/>
<path d="M63.1299 84.2305V95.7132L76.2881 98.8942V87.4445L63.1299 84.2305Z" fill="#29ACE4"/>
<path d="M89.8802 90.5898L89.5781 102.441L102.701 105.421V93.6719L89.8802 90.5898Z" fill="#29ACE4"/>
<path d="M31.2256 108.635V120.989L42.6753 115.865V104.116L31.2256 108.635Z" fill="#48598B"/>
<path d="M51.4131 101.304V112.753L63.1294 108.635V96.584L51.4131 101.304Z" fill="#48598B"/>
<path d="M63.1299 96.584L100.492 105.924V115.866L63.1299 108.635V96.584Z" fill="#29ACE4"/>
<path d="M53.96 136.272V124.858L87.4586 114.065V126.701L53.96 136.272Z" fill="#48598B"/>
<path d="M87.415 114.071V126.676L101.294 128.887V116.811L87.415 114.071Z" fill="#29ACE4"/>
<path d="M29.8037 142.202L67.6207 148.326L89.6874 142.258L54.1172 133.916L29.8037 142.202Z" fill="#634874"/>
<path d="M40.3746 124.592L40.1055 139.487L63.83 143.109L64.0838 128.161L40.3746 124.592Z" fill="#29ACE4"/>
<path d="M41.0303 139.03L51.2309 136.349L69.9287 138.222L56.8111 140.931L41.0303 139.03Z" fill="#634874"/>
<path d="M30.055 128.291L29.8037 142.203L40.2506 139.537L40.5197 124.579L30.055 128.291Z" fill="#48598B"/>
<path d="M41.3451 124.66L41.0303 139.029L51.2335 136.404L51.4366 121.438L41.3451 124.66Z" fill="#48598B"/>
<path d="M51.4062 121.454L51.1777 136.509L89.764 142.259L89.9722 129.583L51.4062 121.454Z" fill="#29ACE4"/>
<path d="M103.036 153.629L86.2299 158.349L60.2383 156.81L90.8834 151.854L103.036 153.629Z" fill="#634874"/>
<path d="M90.8838 139.585L103.037 141.263V153.629L90.8838 151.855V139.585Z" fill="#29ACE4"/>
<path d="M90.9341 139.603V151.854L70.8984 155.772V144.457L90.9341 139.603Z" fill="#48598B"/>
<path d="M77.609 150.359L46.8623 156.777L31.998 155.739L59.6322 147.562L77.609 150.359Z" fill="#634874"/>
<path d="M64.0014 135.935V148.245L31.998 155.739V144.188L64.0014 135.935Z" fill="#48598B"/>
<path d="M64.001 135.935V148.245L77.5578 150.436V138.164L64.001 135.935Z" fill="#29ACE4"/>
<path d="M101.163 165.279L74.5143 170.771L56.2354 165.716L89.7797 158.92L101.163 165.279Z" fill="#634874"/>
<path d="M51.8838 152.256V164.041L64.5952 161.096V148.877L51.8838 152.256Z" fill="#48598B"/>
<path d="M101.163 154.767V165.28L62.7979 161.697V149.479L101.163 154.767Z" fill="#29ACE4"/>
<path d="M33.2695 166.788V178.705H64.0009L79.1013 175.892L79.0328 164.376L64.336 162.67L33.2695 166.788Z" fill="#48598B"/>
<path d="M60.5205 168.727V179.621H88.6066L102.407 177.049L102.346 166.524L88.9137 164.965L60.5205 168.727Z" fill="#48598B"/>
<path d="M89.1885 164.935V177.326L102.469 177.093V166.128L89.1885 164.935Z" fill="#29ACE4"/>
<path d="M64.6377 162.635V176.194L79.1669 175.938V163.942L64.6377 162.635Z" fill="#29ACE4"/>
<path d="M40.5176 51.0723V65.8249" stroke="#29ACE4" stroke-miterlimit="10"/>
<path d="M51.833 44.875V60.0516" stroke="#29ACE4" stroke-miterlimit="10"/>
<path d="M89.8807 90.5898L76.3213 93.8369V99.8486L87.2861 102.608L89.5786 102.441L89.8807 90.5898Z" fill="#48598B"/>
<path d="M263.797 202.843C263.058 201.584 234.873 175.123 167.782 174.321C113.417 173.671 31.594 175.928 13.5156 181.955C13.5156 181.955 67.5501 178.941 101.295 186.976C135.04 195.011 157.421 199.591 173.809 201.64C186.665 203.247 210.1 205.39 215.723 205.791C242.208 207.682 213.076 195.961 242.406 201.338C260.484 204.651 264.65 204.298 263.797 202.843Z" fill="#866694"/>
<path d="M94.6662 189.586C94.6662 189.586 76.5879 182.757 46.057 184.765C9.61601 187.162 0.336914 182.277 0.336914 182.277C0.336914 182.277 10.3802 196.982 33.9473 192.889C65.9252 187.34 94.6662 189.586 94.6662 189.586Z" fill="#866694"/>
</svg>
