<svg width="327" height="327" viewBox="0 0 327 327" fill="none" xmlns="http://www.w3.org/2000/svg">
<mask id="mask0_805_5363" style="mask-type:alpha" maskUnits="userSpaceOnUse" x="0" y="0" width="327" height="327">
<rect width="327" height="327" rx="12" fill="#F5C466"/>
</mask>
<g mask="url(#mask0_805_5363)">
<path d="M133.79 224.493L118.134 221.744C117.62 216.939 116.578 212.27 115.031 207.794L128.035 198.674C128.913 198.063 129.126 196.841 128.51 195.969L110.454 170.242C109.843 169.359 108.626 169.146 107.753 169.767L94.7495 178.892C91.0694 175.905 87.0306 173.345 82.6911 171.221L85.4402 155.56C85.6245 154.518 84.9117 153.505 83.8596 153.32L52.8915 147.885C51.8394 147.701 50.8309 148.413 50.6467 149.451L47.8975 165.112C43.0925 165.631 38.4185 166.673 33.9384 168.22L24.8181 155.211C24.2169 154.329 22.9999 154.115 22.1223 154.736L-3.61407 172.783C-4.49652 173.393 -4.70985 174.615 -4.08923 175.488L5.03585 188.492C2.06365 192.177 -0.510954 196.211 -2.6298 200.555L-18.2908 197.806C-19.3381 197.622 -20.3514 198.325 -20.5357 199.382L-25.971 230.35C-26.1552 231.397 -25.4425 232.42 -24.3952 232.605L-8.7342 235.354C-8.2251 240.149 -7.1778 244.818 -5.6311 249.298L-18.6399 258.414C-19.5223 259.039 -19.7357 260.242 -19.1151 261.124L-1.05885 286.856C-0.443079 287.728 0.77392 287.942 1.63697 287.331L14.6409 278.215C18.3307 281.178 22.3696 283.753 26.7091 285.876L23.9648 301.523C23.7805 302.57 24.4884 303.579 25.5406 303.763L56.5086 309.198C57.5608 309.382 58.5741 308.674 58.7535 307.627L61.4978 291.981C66.2979 291.462 70.972 290.415 75.4472 288.882L84.5723 301.877C85.1832 302.745 86.4002 302.958 87.273 302.352L113.009 284.305C113.887 283.694 114.1 282.482 113.485 281.6L104.364 268.591C107.346 264.906 109.911 260.872 112.03 256.537L127.686 259.286C128.733 259.471 129.747 258.748 129.931 257.701L135.366 226.733C135.546 225.676 134.838 224.677 133.79 224.493ZM49.0805 260.552C31.4025 257.449 19.5816 240.605 22.6847 222.922C25.7878 205.244 42.6319 193.423 60.3147 196.526C77.9928 199.629 89.8136 216.473 86.7105 234.156C83.6074 251.834 66.7585 263.655 49.0805 260.552Z" fill="#F4E8D8" fill-opacity="0.3"/>
<path d="M346.915 66.4142L320.612 70.3852C317.237 63.0396 313.101 56.1788 308.262 49.8998L324.04 28.503C325.107 27.0678 324.796 25.0168 323.351 23.955L281.008 -7.26034C279.568 -8.33673 277.527 -8.02642 276.475 -6.57668L260.693 14.8202C253.265 12.0371 245.488 10.1219 237.478 9.06491L233.502 -17.2533C233.24 -18.9988 231.572 -20.2303 229.807 -19.9637L177.772 -12.0992C176.007 -11.8326 174.78 -10.1646 175.047 -8.41915L179.023 17.8991C171.677 21.2785 164.817 25.4241 158.528 30.2582L137.131 14.476C135.706 13.3996 133.664 13.7099 132.602 15.1596L101.368 57.4879C100.296 58.9279 100.606 60.9789 102.056 62.0359L123.458 77.8133C120.699 85.2413 118.764 93.0185 117.717 101.033L91.4087 105.009C89.6438 105.276 88.4122 106.924 88.6789 108.704L96.5385 160.734C96.8052 162.489 98.4731 163.74 100.238 163.474L126.546 159.498C129.907 166.834 134.052 173.69 138.886 179.973L123.099 201.361C122.032 202.82 122.338 204.842 123.788 205.918L166.131 237.133C167.571 238.186 169.617 237.88 170.659 236.45L186.441 215.068C193.874 217.807 201.651 219.742 209.671 220.803L213.642 247.097C213.909 248.853 215.572 250.084 217.332 249.817L269.362 241.958C271.127 241.691 272.359 240.028 272.092 238.268L268.121 211.974C275.462 208.595 282.322 204.444 288.606 199.634L309.998 215.402C311.429 216.459 313.475 216.149 314.532 214.718L345.766 172.385C346.833 170.95 346.528 168.909 345.078 167.837L323.686 152.05C326.454 144.617 328.379 136.845 329.436 128.845L355.74 124.874C357.5 124.607 358.722 122.925 358.455 121.169L350.596 69.1391C350.334 67.3597 348.671 66.1475 346.915 66.4142ZM232.522 174.203C199.785 179.149 169.238 156.618 164.293 123.885C159.347 91.1469 181.879 60.6007 214.612 55.6551C247.349 50.7096 277.896 73.241 282.841 105.974C287.787 138.712 265.26 169.258 232.522 174.203Z" fill="#F4E8D8" fill-opacity="0.3"/>
<path d="M16.445 199.247C17.3808 199.247 17.3808 197.792 16.445 197.792C15.5092 197.792 15.5092 199.247 16.445 199.247Z" fill="#F4E8D8" fill-opacity="0.3"/>
<path d="M208.338 206.639C227.973 208.044 275.691 250.269 309.291 286.03C352.755 332.295 406.144 381.395 428 391.189C455.114 403.346 485.489 419.236 498.106 419.236C498.106 419.236 439.685 481.462 415.843 502.491C392.002 523.521 404.632 481.462 373.785 502.491C342.938 523.521 290.589 585.628 290.589 585.628C290.589 585.628 263.475 577.618 223.283 540.758C170.78 492.615 87.277 280.43 98.9613 243.511C110.657 206.58 189.636 201.499 208.338 206.639Z" fill="#992C29"/>
<path d="M208.338 206.638C227.973 208.044 277.097 247.988 310.697 283.75C354.161 330.015 412.925 380.001 434.865 389.629C459.946 400.628 511.208 422.567 523.826 422.567L499.051 440.738C499.051 440.738 442.804 437.359 398.099 388.389C344.013 329.152 254.366 226.392 208.338 206.638Z" fill="#29ACE4"/>
<path d="M118.644 234.933C118.644 234.933 68.8472 235.689 45.644 227.384C22.4408 219.079 28.974 130.755 75.1324 119.118C127.871 105.815 191.243 134.229 226.296 157.066C261.349 179.903 247.113 214.058 196.382 230.149C144.907 246.464 118.644 234.933 118.644 234.933Z" fill="#229BC6"/>
<path d="M229.072 189.413C229.072 217.767 136.886 219.197 108.78 219.197C80.6735 219.197 57.8838 196.206 57.8838 167.852C57.8838 139.498 80.6735 116.507 108.78 116.507C136.886 116.507 229.072 161.059 229.072 189.413Z" fill="#992C29"/>
<path d="M249.44 254.899C249.44 254.899 272.809 309.138 277.783 320.846C287.045 342.643 267.977 353.548 254.899 342.643C241.82 331.739 215.663 281.056 210.76 269.076C205.846 257.085 235.819 239.091 249.44 254.899Z" fill="#CE6D3E"/>
<path d="M256.174 269.631C256.174 269.631 273.6 310.213 277.889 321.153C282.957 334.09 268 341.639 261.302 333.724C253.126 324.071 246.498 257.179 256.174 269.631Z" fill="#F6874E"/>
<path d="M199.773 206.331C208.09 201.18 227.619 211.352 239.02 232.83C251.649 256.624 255.146 266.572 255.146 266.572C255.146 266.572 241.347 264.197 234.542 270.328C223.484 280.288 214.86 291.535 214.86 291.535C214.86 291.535 202.1 265.709 195.295 248.342C188.998 232.204 189.034 212.994 199.773 206.331Z" fill="#C93F37"/>
<path d="M338.602 410.422C344.226 425.474 330.155 431.298 321.743 424.741C313.331 418.196 296.768 394.461 277.416 373.42C255.134 349.212 247.042 337.339 261.231 326.978C275.419 316.605 276.081 317.633 298.93 350.169C314.631 372.522 335.944 403.334 338.602 410.422Z" fill="#CE6D3E"/>
<path d="M320.822 387.502C310.225 402.872 268.863 345.703 268.863 345.703C255.702 328.762 257.096 328.726 263.487 324.591C276.424 318.046 276.648 318.979 291.924 340.091C303.963 356.726 324.154 382.658 320.822 387.502Z" fill="#F6874E"/>
<path d="M234.932 149.375C232.332 186.081 200.044 191.622 162.723 194.954C140.288 196.962 116.387 188.125 100.875 172.802C90.5849 162.642 83.9808 149.623 83.9571 135.032C83.8862 98.4433 125.165 65.7769 162.486 62.4452C199.796 59.1136 237.72 109.939 234.932 149.375Z" fill="#273150"/>
<path d="M163.995 73.3898C174.696 57.8158 175.972 40.1074 166.846 33.837C157.72 27.5665 141.648 35.1085 130.947 50.6826C120.246 66.2566 118.969 83.965 128.096 90.2355C137.222 96.5059 153.294 88.9638 163.995 73.3898Z" fill="#273150"/>
<path d="M133.592 52.9156C135.033 34.5596 128.567 19.0794 119.148 18.3396C109.729 17.5999 100.925 31.8807 99.4836 50.2367C98.0418 68.5927 104.508 84.0729 113.927 84.8126C123.346 85.5524 132.15 71.2717 133.592 52.9156Z" fill="#273150"/>
<path d="M133.547 108.853C140.888 88.7427 134.665 67.9961 119.648 62.5146C104.631 57.033 86.5065 68.8923 79.1657 89.0029C71.8249 109.114 78.0478 129.86 93.0649 135.342C108.082 140.823 126.207 128.964 133.547 108.853Z" fill="#273150"/>
<path d="M114.573 188.46C135.502 178.474 144.455 153.586 134.571 132.869C124.687 112.153 99.7081 103.454 78.7798 113.439C57.8515 123.424 48.8984 148.313 58.7826 169.029C68.6667 189.746 93.6452 198.445 114.573 188.46Z" fill="#273150"/>
<path d="M214.916 132.656C230.855 119.037 230.709 92.7036 214.59 73.8376C198.471 54.9715 172.482 50.7175 156.543 64.3359C140.604 77.9543 140.75 104.288 156.869 123.154C172.988 142.02 198.976 146.274 214.916 132.656Z" fill="#273150"/>
<path d="M234.625 147.189C232.51 177.15 206.152 181.663 175.707 184.38C157.395 186.011 137.89 178.804 125.237 166.305C116.837 158.011 111.461 147.39 111.438 135.481C111.379 105.627 145.061 78.9736 175.518 76.2445C205.952 73.539 236.893 115.019 234.625 147.189Z" fill="#48598B"/>
<path d="M162.621 78.5008C171.814 65.1209 172.906 49.9041 165.06 44.513C157.214 39.122 143.4 45.5983 134.207 58.9781C125.014 72.358 123.922 87.5749 131.768 92.9659C139.614 98.3569 153.428 91.8807 162.621 78.5008Z" fill="#48598B"/>
<path d="M131.4 64.1273C132.383 51.6125 127.975 41.0583 121.555 40.5541C115.135 40.0498 109.134 49.7864 108.151 62.3013C107.168 74.8161 111.576 85.3702 117.996 85.8745C124.416 86.3787 130.417 76.6422 131.4 64.1273Z" fill="#48598B"/>
<path d="M140.956 108.886C148.726 87.5982 144.566 66.5234 131.663 61.8137C118.761 57.1041 102.002 70.543 94.2316 91.8306C86.4612 113.118 90.6216 134.193 103.524 138.903C116.427 143.612 133.185 130.173 140.956 108.886Z" fill="#48598B"/>
<path d="M123.869 180.809C141.853 172.229 149.547 150.842 141.053 133.04C132.56 115.239 111.096 107.764 93.1117 116.344C75.1277 124.925 67.4341 146.312 75.9275 164.113C84.4209 181.915 105.885 189.39 123.869 180.809Z" fill="#48598B"/>
<path d="M207.608 132.849C221.305 121.146 221.179 98.5172 207.328 82.3052C193.476 66.0932 171.144 62.4376 157.447 74.1402C143.75 85.8428 143.875 108.472 157.727 124.684C171.578 140.896 193.911 144.552 207.608 132.849Z" fill="#48598B"/>
<path d="M207.404 335.166C187.45 356.1 128.568 334.421 126.075 314.538C125.011 306.079 121.952 286.432 112.985 250.564C107.373 228.128 106.439 220.78 108.932 217.625C115.477 209.344 140.11 206.402 165.334 202.586C206.932 196.277 209.885 206.236 223.601 225.565C240.307 249.134 246.663 293.981 207.404 335.166Z" fill="#F6BE4A"/>
<path d="M139.626 251.911C119.671 272.845 128.568 334.421 126.075 314.538C125.011 306.079 121.952 286.432 112.985 250.564C107.373 228.128 106.439 220.78 108.932 217.626C115.477 209.344 140.11 206.402 165.334 202.586C206.932 196.277 209.85 206.107 224.346 226.321C241.169 249.796 178.885 210.726 139.626 251.911Z" fill="#D09435"/>
<path d="M127.942 294.915C124.823 306.599 125.402 336.43 126.383 318.59C126.855 310.084 112.985 248.697 112.985 248.697L177.479 226.049L135.102 264.375C135.113 264.375 131.061 283.23 127.942 294.915Z" fill="#D09435"/>
<path d="M119.53 324.828C119.53 324.828 36.7594 440.773 30.8877 456.025C25.0042 471.325 5.85328 490.96 6.68028 498.994C12.1975 483.718 62.5854 488.704 71.6705 485.786C71.6705 485.786 53.2285 473.629 68.7997 468.029C84.3709 462.429 119.908 461.814 140.796 462.169C203.151 463.256 275.348 475.235 296.567 512.545C296.567 512.545 261.041 337.965 211.788 299.994C163.538 262.779 119.53 324.828 119.53 324.828Z" fill="#F6BE4A"/>
<path d="M218.616 235.323C226.791 239.765 234.116 249.028 234.116 249.028C234.116 249.028 232.639 238.584 225.397 228.306C219.939 220.556 199.926 231.106 199.926 231.106C199.926 231.106 213.429 232.512 218.616 235.323Z" fill="#D09435"/>
<path d="M208.74 316.983C196.417 327.179 135.964 324.982 145.084 299.026C149.444 286.597 177.006 271.345 196.807 269.065C229.45 265.308 235.44 294.914 208.74 316.983Z" fill="#FEED7F"/>
<path d="M265.353 457.561L149.444 448.216C120.534 448.216 82.1379 395.867 91.4948 380.91C100.84 365.953 139.484 317.976 139.484 317.976C143.537 298.033 150.46 283.076 179.369 283.076C179.369 283.076 212.402 284.943 226.107 321.094C226.107 321.094 261.632 374.838 267.232 415.975C271.343 446.137 265.353 457.561 265.353 457.561Z" fill="#FEED7F"/>
<path d="M124.007 336.359C124.007 336.359 137.263 315.436 162.912 306.717C162.912 306.717 132.289 310.509 121.396 325.454C110.504 340.399 124.007 336.359 124.007 336.359Z" fill="#F6BE4A"/>
<path d="M176.298 223.556L173.58 223.969C166.693 225.021 160.254 220.295 159.202 213.407L155.185 187.168C154.134 180.28 158.86 173.841 165.747 172.79L168.465 172.376C175.352 171.325 181.791 176.051 182.843 182.938L186.859 209.178C187.923 216.066 183.185 222.504 176.298 223.556Z" fill="#F6874E"/>
<path d="M172.458 192.721L167.921 193.418C161.53 194.399 155.564 190.015 154.583 183.624L150.294 155.565C149.314 149.174 153.697 143.207 160.088 142.227L164.625 141.53C171.017 140.549 176.983 144.932 177.963 151.324L182.252 179.383C183.233 185.774 178.849 191.752 172.458 192.721Z" fill="#CE6D3E"/>
<path d="M78.8651 263.134C70.9141 283.076 58.0838 318.708 54.4922 324.757C50.9007 330.806 50.7825 340.045 60.3521 344.771C69.9098 349.508 77.1284 347.122 81.4406 341.982C85.7528 336.843 110.338 295.222 115.477 278.552C119.518 265.461 116.789 251.095 109.712 247.705C102.635 244.314 86.8161 243.191 78.8651 263.134Z" fill="#F6874E"/>
<path d="M78.8655 263.134C70.9145 283.076 58.0842 318.708 54.4926 324.757C53.3939 326.612 52.6142 329.01 52.4842 330.322C52.2007 333.263 54.339 333.523 57.328 329.967C59.6909 327.155 77.0579 291.89 83.0713 272.432C88.0215 256.4 82.457 254.12 78.8655 263.134Z" fill="#CE6D3E"/>
<path d="M122.022 215.771C111.649 212.179 97.5666 217.791 87.7489 241.632C82.5979 254.155 75.4385 270.92 75.4385 270.92C75.4385 270.92 91.6476 273.471 112.512 286.503C112.512 286.503 119.139 273.412 123.889 261.267C133.86 235.713 130.127 218.571 122.022 215.771Z" fill="#EC5E4D"/>
<path d="M122.022 215.771C111.649 212.179 97.5666 217.791 87.7489 241.632C82.5979 254.155 75.4385 270.92 75.4385 270.92L82.7633 272.479L98.4999 259.164L127.008 251.296C133.34 230.208 129.241 218.275 122.022 215.771Z" fill="#C93F37"/>
<path d="M-5.03941 398.041C-5.03941 398.041 -15.1052 408.437 -11.8208 414.321C-8.72545 419.838 2.35633 424.339 10.2601 417.924C18.1638 411.509 43.5644 394.839 77.3296 349.437C91.7312 330.085 63.7551 316.605 52.5788 328.833C41.4025 341.061 -5.03941 398.041 -5.03941 398.041Z" fill="#F6874E"/>
<path d="M4.87305 387.148L29.8011 372.499L59.9157 324.627C59.9157 324.627 55.7926 325.242 52.5791 328.845C41.5564 341.203 4.87305 387.148 4.87305 387.148Z" fill="#CE6D3E"/>
<path d="M111.425 259.389C111.425 259.389 93.9991 262.874 87.7729 266.666C81.5468 270.459 83.0709 272.432 83.0709 272.432L111.425 259.389Z" fill="#C93F37"/>
<path d="M194.775 221.063C160.419 244.432 82.48 252.537 82.7281 251.804C85.2209 244.302 102.08 207.04 119.53 203.921C131.238 203.886 177.1 204.323 194.775 221.063Z" fill="#229BC6"/>
<path d="M206.778 202.066C195.566 199.573 172.493 218.062 171.24 223.048C169.988 228.034 208.798 220.295 279.376 261.893C303.619 276.177 224.842 206.425 206.778 202.066Z" fill="#29ACE4"/>
<path d="M180.763 223.839C182.55 223.839 184 222.39 184 220.602C184 218.815 182.55 217.365 180.763 217.365C178.975 217.365 177.525 218.815 177.525 220.602C177.525 222.39 178.975 223.839 180.763 223.839Z" fill="#273150"/>
<path d="M210.17 52.2614C213.714 53.4546 213.3 71.0697 204.487 69.9119C196.193 68.825 187.073 66.2849 189.861 61.1693C192.637 56.0656 206.625 51.0681 210.17 52.2614Z" fill="#C93F37"/>
<path d="M211.126 57.9909C211.126 57.9909 209.697 68.6474 206.661 69.0845C203.613 69.5098 206.271 64.5124 206.968 57.5538C207.665 50.5952 211.611 53.5133 211.126 57.9909Z" fill="#F7BC4B"/>
<path d="M188.384 65.5168C188.384 65.5168 203.908 78.7843 218.664 83.8053C229.816 87.5977 238.37 87.7631 238.37 87.7631L235.771 84.2543L240.532 80.2965C240.532 80.2965 220.625 80.1193 192.2 63.0122L188.384 65.5168Z" fill="#C93F37"/>
<path d="M196.004 70.3487C196.004 70.3487 207.606 85.979 220.684 93.4338C230.572 99.0692 238.89 100.711 238.89 100.711L237.283 96.8481L243.013 93.8236C243.013 93.8236 223.578 90.1967 200.411 68.5884L196.004 70.3487Z" fill="#C93F37"/>
<path d="M118.032 141.661C125.224 136.723 126.497 126.084 120.877 117.897C115.256 109.71 104.869 107.076 97.6772 112.013C90.4854 116.951 89.2119 127.59 94.8327 135.777C100.454 143.964 110.84 146.598 118.032 141.661Z" fill="#CE6D3E"/>
<path d="M168.465 68.3875C172.411 75.3342 159.072 83.6751 144.848 91.7561C130.636 99.837 115.903 100.759 111.957 93.7999C108.011 86.8531 116.328 74.6608 130.541 66.5799C144.765 58.5107 164.519 61.4407 168.465 68.3875Z" fill="#273150"/>
<path d="M105.258 116.944C105.778 74.7791 140.075 62.2441 148.593 60.6137C191.077 52.4619 210.192 77.6381 218.309 122.201C224.24 154.762 204.971 163.906 185.69 171.266C162.486 180.127 104.62 169.612 105.258 116.944Z" fill="#CE6D3E"/>
<path d="M119.27 130.543C121.55 98.6087 152.244 87.6214 159.805 86.0146C159.805 86.0146 201.072 96.045 209.023 102.295C216.974 108.544 218.439 129.55 218.439 129.55C222.243 153.923 204.912 161.685 187.627 168.112C166.858 175.827 116.423 170.416 119.27 130.543Z" fill="#F6874E"/>
<path d="M132.219 76.1023C154.548 59.397 190.203 66.1429 190.203 66.1429C190.203 66.1429 156.414 39.2773 125.65 66.5564C98.0519 91.0238 105.672 112.703 109.559 125.651C109.559 125.651 105.826 95.8558 132.219 76.1023Z" fill="#F6BE4A"/>
<path d="M153.898 113.754C156.351 113.314 157.675 109.246 156.854 104.666C156.032 100.087 153.378 96.7318 150.925 97.1717C148.471 97.6116 147.148 101.68 147.969 106.26C148.79 110.839 151.445 114.194 153.898 113.754Z" fill="#273252"/>
<path d="M196.438 107.796C198.488 107.366 199.439 103.631 198.563 99.455C197.687 95.2786 195.315 92.2416 193.265 92.6716C191.215 93.1016 190.264 96.8358 191.14 101.012C192.016 105.189 194.388 108.226 196.438 107.796Z" fill="#273252"/>
<path d="M150.578 81.6313C150.578 81.6313 144.588 82.7301 143.241 88.1882" stroke="#273252" stroke-miterlimit="10" stroke-linecap="round" stroke-linejoin="round"/>
<path d="M195.673 80.131C195.673 80.131 191.762 76.7758 187.71 77.3429" stroke="#273252" stroke-miterlimit="10" stroke-linecap="round" stroke-linejoin="round"/>
</g>
</svg>
