<svg width="351" height="201" viewBox="0 0 351 201" fill="none" xmlns="http://www.w3.org/2000/svg">
<path d="M249.724 186.924C251.6 186.828 274.134 186.156 280.818 188.167C280.818 188.167 305.673 186.906 305.491 192.557C305.491 192.557 332.342 193.545 337.126 195.184C341.911 196.821 311.945 199.282 306.739 198.607C301.533 197.93 284.413 194.098 261.806 193.363C247.397 192.896 211.485 191.867 194.133 193.974C184.263 195.174 239.93 199.173 229.216 199.716C199.67 201.214 117.689 197.852 139.469 191.574C161.247 185.302 249.724 186.924 249.724 186.924Z" fill="#866694"/>
<path d="M197.185 183.278C235.065 184.872 293.439 185.074 305.921 181.02C305.921 181.02 278.929 179.042 278.216 174.917C277.284 169.521 275.208 160.992 252.859 148.619C252.859 148.619 272.111 114.107 243.936 96.497C215.762 78.8872 225.154 99.3137 225.154 99.3137C225.154 99.3137 186.802 48.1665 138.752 36.8594C122.787 33.103 126.543 46.7216 126.543 46.7216C126.543 46.7216 112.455 35.4524 96.4895 38.7389C81.6609 41.7905 57.5184 61.8558 66.1907 95.5472C88.1355 104.843 95.0824 112.604 95.0824 112.604C95.5498 101.66 107.994 96.0246 126.425 101.072C149.413 107.367 147.202 128.895 147.202 128.895C171.956 124.681 177.256 154.723 177.256 154.723C177.256 154.723 176.794 144.729 192.592 157.895C208.391 171.062 197.448 182.897 197.448 182.897L197.185 183.278Z" fill="#F4E8D8"/>
<path d="M223.863 183.837C223.863 183.837 204.066 169.705 189.467 157.539C174.868 145.373 178.817 162.978 178.817 162.978C178.817 162.978 169.086 126.483 146.214 130.375C146.214 130.375 145.727 107.991 128.21 103.126C110.694 98.2604 96.0219 102.641 96.0219 114.807C96.0219 114.807 88.0392 105.884 61.7419 96.0247C42.9953 88.9944 28.4572 89.9897 17.7539 99.7205L22.1342 103.126C22.1342 103.126 5.59039 105.558 0.725006 118.697C-4.14038 131.836 16.7813 138.161 24.5669 140.106C32.3525 142.051 98.5278 160.543 98.5278 160.543C98.5278 160.543 83.7447 159.565 82.2871 161.998C80.827 164.431 99.5434 178.903 122.372 180.007C140.672 180.896 223.863 183.837 223.863 183.837Z" fill="#F4E8D8"/>
<path d="M89.6819 192.997C89.6819 192.997 92.2156 189.155 118.033 190.094C125.063 190.349 143.504 190.178 145.844 192.997C148.183 195.816 170.805 197.89 163.004 197.89C155.203 197.89 92.0237 196.756 89.6819 192.997Z" fill="#866694"/>
<path d="M51.8829 169.751C51.8829 169.751 54.6996 164.115 52.8227 159.422C50.9432 154.726 43.4304 155.195 38.7343 155.665C34.0381 156.135 34.7429 160.243 34.7429 160.243C34.7429 160.243 29.3041 156.312 24.6459 157.072C18.189 158.128 19.01 165.055 19.01 169.281C19.01 173.508 25.1132 181.725 31.9237 174.447C31.9237 174.447 42.0208 184.309 50.4708 177.264C50.4708 177.264 68.3156 180.55 74.8887 179.611L51.8829 169.751Z" fill="#F4E8D8"/>
<path d="M114.945 18.5983C114.945 18.5983 80.1974 12.4951 75.5013 12.4951C70.8052 12.4951 59.536 4.51243 73.6219 0.756034C87.7077 -3.00037 100.856 8.26884 103.676 12.0252C106.495 15.7816 105.555 12.4951 105.555 12.4951C105.555 12.4951 103.208 5.45217 107.435 5.45217C111.661 5.45217 126.684 11.5528 114.945 18.5983Z" fill="#F4E8D8"/>
<path d="M341.021 123.967C341.021 123.967 350.186 129.032 348.966 129.055C344.583 129.133 339.771 131.167 338.01 131.872C336.25 132.576 324.119 122.088 331.281 119.036C333.86 119.86 341.021 123.967 341.021 123.967Z" fill="#229BC6"/>
<path opacity="0.5" d="M341.021 123.967C341.021 123.967 350.186 129.032 348.966 129.055C344.583 129.133 339.771 131.167 338.01 131.872C336.25 132.576 324.119 122.088 331.281 119.036C333.86 119.86 341.021 123.967 341.021 123.967Z" fill="#229BC6"/>
<path d="M335.191 127.019C335.191 127.019 337.381 125.139 342.861 125.296C347.143 125.417 351 126.079 351 126.079C351 126.079 342.547 119.741 336.209 119.387C329.871 119.036 321.77 118.683 321.77 118.683L335.191 127.019Z" fill="#F6BE4A"/>
<path d="M351 126.081C349.424 125.172 347.784 124.376 346.112 123.659C344.44 122.941 342.732 122.3 340.991 121.754C339.246 121.229 337.475 120.769 335.671 120.481C333.868 120.2 332.034 120.074 330.22 120.213C332.039 120.271 333.83 120.529 335.601 120.87L336.922 121.163C337.364 121.254 337.796 121.385 338.235 121.496L338.892 121.663L339.541 121.852C339.973 121.981 340.41 122.1 340.84 122.239L342.131 122.651C342.56 122.79 342.984 122.949 343.414 123.093C343.843 123.234 344.268 123.393 344.692 123.55C345.117 123.704 345.541 123.861 345.963 124.025C346.387 124.184 346.809 124.348 347.228 124.518C347.65 124.682 348.072 124.851 348.489 125.025C349.335 125.354 350.166 125.718 351 126.081Z" fill="#F4E8D8"/>
<path opacity="0.5" d="M335.191 127.019C335.191 127.019 337.381 125.139 342.861 125.296C347.143 125.417 351 126.079 351 126.079C351 126.079 342.547 119.741 336.209 119.387C329.871 119.036 321.77 118.683 321.77 118.683L335.191 127.019Z" fill="#F6874E"/>
<path d="M296.259 94.5431C296.259 94.5431 293.117 89.271 291.344 84.9917C289.646 80.8993 292.627 81.8618 296.11 84.0065C299.763 86.2548 304.07 90.9736 305.182 92.0195C306.291 93.0653 300.299 98.057 296.259 94.5431Z" fill="#1D2538"/>
<path d="M297.822 93.1024C297.822 93.1024 294.7 87.9743 292.548 84.6726C290.13 80.9591 292.338 81.4416 295.824 83.5863C299.477 85.8346 303.764 88.4239 304.873 89.4698C305.982 90.5131 300.308 95.9039 297.822 93.1024Z" fill="#273150"/>
<path d="M279.622 114.967C281.502 112.307 284.389 102.583 286.039 97.7484L290.421 91.5188C290.421 91.5188 300.099 85.4283 309.178 87.53C318.257 89.6318 321.867 94.8635 323.448 99.6L323.767 99.9082C323.767 99.9082 331.868 101.371 336.529 102.361C341.187 103.354 342.908 105.339 341.793 110.356C340.679 115.373 340.162 116.596 337.812 118.794C335.463 120.989 324.899 127.835 319.02 129.826C319.02 129.826 316.562 134.845 313.586 136.879C310.605 138.922 274.858 121.719 279.622 114.967Z" fill="#273150"/>
<path d="M291.662 130.328C291.662 130.328 275.414 121.001 279.312 113.716C282.912 106.986 284.392 102.583 286.042 97.7506C285.87 98.3039 284.223 92.3219 282.912 86.3248C282.26 83.3439 283.616 82.8033 285.986 83.882C288.452 85.0036 294.964 88.5175 294.964 88.5175C294.964 88.5175 300.102 85.4305 309.179 87.5323C309.179 87.5323 299.319 94.0119 296.192 98.3392C293.064 102.667 294.224 119.609 294.224 119.609C294.224 119.609 302.666 125.698 302.189 126.728C300.668 130.005 291.662 130.328 291.662 130.328Z" fill="#1D2538"/>
<path d="M315.537 97.6463C316.53 99.3894 316.394 101.34 315.232 102.001C314.07 102.663 313.019 101.37 312.024 99.6268C311.028 97.8838 310.473 96.3504 311.635 95.6885C312.797 95.0267 314.545 95.9033 315.537 97.6463Z" fill="#121721"/>
<path d="M341.92 105.733C342.504 108.305 342.218 110.829 340.809 111.925C338.015 114.098 333.458 109.902 332.669 107.386C331.881 104.87 331.26 100.813 336.113 102.22C340.175 103.399 341.513 103.942 341.92 105.733Z" fill="#121721"/>
<path d="M308.693 129.047C308.693 129.047 316.524 131.128 319.023 129.825C323.55 128.347 330.421 123.391 330.421 123.391L318.043 126.841L308.693 129.047Z" fill="#1D2538"/>
<path d="M333.448 122.029C333.448 122.029 324.761 118.743 321.767 118.685L333.448 122.029Z" fill="#273150"/>
<path d="M201.411 142.264C199.888 142.175 191.829 142.744 188.666 141.728C185.504 140.715 178.145 138.012 177.089 132.887C177.089 132.887 174.136 136.701 180.825 144.75C187.514 152.798 201.186 150.817 202.343 150.641C207.501 149.85 205.758 142.519 201.411 142.264Z" fill="#1D2538"/>
<path d="M308.387 148.62C308.387 148.62 323.531 156.721 326.699 157.777C329.869 158.833 331.63 165.525 331.277 168.341C330.925 171.158 325.994 177.85 325.994 177.85L305.568 160.594C305.57 160.594 298.174 148.269 308.387 148.62Z" fill="#1D2537"/>
<path d="M226.605 157.492C229.26 155.92 252.582 157.093 252.152 162.026C251.938 164.476 227.964 178.05 227.964 178.05L218.893 185.911C218.893 185.911 220.487 188.793 219.484 190.605C219.249 191.031 215.412 191.127 213.303 190.887C211.757 190.713 209.67 185.156 209.67 185.156C209.587 183.994 209.935 181.877 210.918 181.248L216.624 176.387C217.362 175.917 217.91 175.205 218.178 174.369C219.471 170.335 223.587 159.28 226.605 157.492Z" fill="#1D2538"/>
<path d="M299.348 132.184C299.348 132.184 286.788 124.436 276.009 118.53C266.283 124.315 252.824 124.525 241.405 126.025C234.231 126.968 210.536 132.646 203.44 139.462C198.68 144.034 196.407 155.235 202.03 158.479C211.187 163.761 254.958 161.253 271.762 163.175C283.756 164.547 299.84 160.692 304.514 157.774C307.04 156.198 312.923 146.187 311.456 138.474C310.488 133.394 303.67 134.738 299.348 132.184Z" fill="#273150"/>
<path d="M296.685 126.549C296.685 126.549 286.884 112.061 276.006 118.531C266.281 124.316 252.821 124.525 241.403 126.026C234.229 126.968 210.533 132.647 203.437 139.462C198.678 144.035 196.756 157.348 202.381 160.594C211.539 165.876 230.791 165.484 235.838 160.243C237.353 158.669 255.208 145.803 265.068 141.107C273.22 137.227 267.427 130.825 269.764 129.368C273.955 126.751 307.571 132.98 296.685 126.549Z" fill="#1D2538"/>
<path d="M253.948 137.727C253.948 137.727 259.256 157.719 274.066 163.499C274.066 163.499 271.535 164.689 264.341 163.911C259.394 163.378 245.354 148.921 245.953 138.927C246.885 135.886 253.948 137.727 253.948 137.727Z" fill="#634874"/>
<path d="M279 114.34C279 114.34 276.81 114.653 275.244 118.409C275.244 118.409 281.738 126.079 294.652 132.42C304.15 137.083 314.139 138.055 316.097 135.628C318.054 133.2 319.024 129.825 319.024 129.825C319.024 129.825 308.341 133.395 298.527 129.014C289.759 125.101 284.098 120.11 279 114.34Z" fill="#992C29"/>
<path d="M317.923 133.513C317.923 133.513 307.477 136.845 304.095 136.264L306.737 130.464C306.737 130.464 313.075 130.025 317.923 133.513Z" fill="#C93F37"/>
<path d="M317.865 133.455C317.865 133.455 315.857 141.895 312.896 144.545L303.317 140.748C303.32 140.748 313.503 134.337 317.865 133.455Z" fill="#C93F37"/>
<path d="M317.865 133.455C313.793 133.847 303.32 140.748 303.32 140.748C303.32 140.748 309.86 140.839 311.259 139.96C312.659 139.083 317.865 133.455 317.865 133.455Z" fill="#992C29"/>
<path d="M274.835 137.927C279.2 139.897 301.342 140.683 305.532 154.2C305.654 154.594 305.914 154.928 306.273 155.132C307.334 155.739 308.657 154.983 308.672 153.761C308.728 149.027 303.307 140.918 294.324 136.426C283.53 131.03 275.736 132.829 275.736 132.829C275.736 132.829 274.039 137.568 274.835 137.927Z" fill="#634874"/>
<path d="M206.64 150.755C209.053 148.703 216.843 146.435 224.914 150.393C232.986 154.352 232.056 159.942 232.109 161.198C232.235 164.143 222.335 169.279 220.88 170.209C218.475 171.745 205.061 176.966 201.073 179.947C198.718 181.708 193.474 187.389 194.558 188.202C195.515 188.922 196.71 192.206 195.553 192.724C193.158 193.798 180.717 193.237 182.073 188.864C183.354 184.737 183.564 179.56 184.564 177.345C184.85 176.713 195.5 169.1 195.99 168.289C196.47 167.496 205.195 151.985 206.64 150.755Z" fill="#1D2538"/>
<path d="M286.55 154.607C286.55 154.607 291.832 164.82 295.354 166.932C298.875 169.044 312.964 169.749 317.541 172.214C322.119 174.68 324.233 180.316 324.938 181.372C325.643 182.427 335.856 183.837 338.672 178.201C341.489 172.565 331.63 172.214 329.164 169.749C326.698 167.283 324.587 164.818 322.472 163.057C320.36 161.296 313.669 158.479 313.669 158.479C313.669 158.479 303.544 146.425 299.317 145.72C295.091 145.018 284.085 149.325 286.55 154.607Z" fill="#273150"/>
<path d="M275.902 136.992C273.437 140.493 250.762 142.633 232.652 140.311C230.727 140.063 229.032 139.063 228.011 137.595C225.978 134.673 224.263 128.779 223.101 124.538C221.85 119.978 224.427 112.773 226.498 111.013C230.972 107.208 235.638 108.845 240.615 108.395C249.057 107.633 256.486 108.087 263.193 110.103C271.53 112.609 275.94 119.271 279.128 124.32C282.076 128.984 277.148 135.223 275.902 136.992Z" fill="#BB83C3"/>
<path opacity="0.5" d="M231.629 109.212C226.862 109.1 234.18 124.896 237.158 125.333C240.137 125.771 256.532 127.503 261.394 126.321C273.5 124.222 254.005 109.737 231.629 109.212Z" fill="#634874"/>
<path opacity="0.5" d="M229.363 137.128C228.57 139.74 223.336 127.044 222.967 123.537C222.671 120.741 224.096 115.337 224.566 114.342C225.637 112.079 227.564 122.337 229.163 126.134C230.762 129.931 229.696 136.032 229.363 137.128Z" fill="#634874"/>
<path d="M209.212 44.7923C209.212 44.7923 218.723 34.7634 222.234 25.4268C222.234 25.4268 235.184 29.3019 241.021 28.5339C241.021 28.5339 233.918 44.2113 227.999 47.8995L209.212 44.7923Z" fill="#229BC6"/>
<path d="M241.019 28.5361L232.667 32.1713C231.275 32.775 229.876 33.3611 228.476 33.9345C227.072 34.5004 225.665 35.0663 224.232 35.526L223.992 35.6043L224.076 35.8418L225.126 38.8353L226.157 41.8364C226.498 42.8367 226.827 43.8421 227.152 44.8476C227.468 45.8555 227.781 46.866 227.994 47.9042C227.872 46.8508 227.605 45.8176 227.35 44.7894C227.089 43.7613 226.789 42.7458 226.491 41.7277C226.182 40.7148 225.872 39.7018 225.541 38.6938C225.21 37.6859 224.884 36.6805 224.533 35.6801L224.376 35.9934C225.839 35.5336 227.256 34.9753 228.661 34.3918C230.068 33.8133 231.457 33.1969 232.839 32.5654C234.218 31.9288 235.592 31.2821 236.956 30.6101C237.639 30.2792 238.316 29.9306 238.993 29.587C239.675 29.2435 240.352 28.8974 241.019 28.5361Z" fill="#F4E8D8"/>
<path d="M229.484 33.8114L228.529 31.8536L227.552 29.9085C227.223 29.2618 226.933 28.5949 226.554 27.976C226.178 27.357 225.781 26.7457 225.311 26.1748L225.266 26.2001C225.491 26.9023 225.791 27.5667 226.109 28.2185C226.425 28.8728 226.829 29.4765 227.198 30.103L228.307 31.9749L229.439 33.8367L229.484 33.8114Z" fill="#F4E8D8"/>
<path d="M226.141 40.5732L223.038 41.5812L219.944 42.6119C218.913 42.9579 217.87 43.2636 216.859 43.6678C215.849 44.0669 214.844 44.4863 213.868 44.9839L213.886 45.0319C214.955 44.7945 215.998 44.4787 217.031 44.1427C218.067 43.8093 219.067 43.3798 220.083 42.9933L223.124 41.8186L226.158 40.6212L226.141 40.5732Z" fill="#F4E8D8"/>
<path d="M218.064 71.4072C218.064 71.4072 235.136 86.0211 251.852 92.0813C251.852 92.0813 250.712 99.5209 236.341 103.873C236.341 103.873 208.457 91.9929 202.554 83.1994L218.064 71.4072Z" fill="#229BC6"/>
<path d="M218.464 71.6758L219.51 75.5534C219.858 76.8468 220.217 78.1352 220.581 79.4235L221.667 83.2911C222.023 84.5819 222.407 85.8652 222.776 87.151L222.814 87.2849L222.953 87.3102L230.264 88.6516L237.584 89.9374C240.022 90.3769 242.47 90.7635 244.913 91.1777C246.133 91.3849 247.358 91.5819 248.581 91.7739C249.804 91.9684 251.029 92.1655 252.254 92.3499C251.041 92.0947 249.826 91.8522 248.611 91.6097C247.396 91.3647 246.181 91.1222 244.963 90.8923C242.528 90.43 240.101 89.9425 237.663 89.5029L230.352 88.159L223.034 86.8681L223.211 87.0272C222.824 85.7465 222.453 84.4607 222.056 83.1824L220.879 79.3427C220.487 78.0619 220.093 76.7837 219.687 75.508L218.464 71.6758Z" fill="#F4E8D8"/>
<path d="M234.65 89.7139C234.506 90.9315 234.501 92.1592 234.551 93.3844C234.604 94.6096 234.723 95.8297 234.902 97.0423C235.094 98.2523 235.316 99.4598 235.63 100.642C235.925 101.829 236.302 102.999 236.741 104.138C236.504 102.936 236.233 101.751 236.014 100.556L235.844 99.6619L235.69 98.7651C235.584 98.1689 235.491 97.5677 235.402 96.969L235.268 96.0697L235.152 95.1679C235.071 94.5666 235.008 93.9629 234.943 93.3591C234.819 92.1466 234.713 90.934 234.65 89.7139Z" fill="#F4E8D8"/>
<path d="M221.127 81.4238C219.609 81.6057 218.096 81.7926 216.582 81.9973C215.069 82.1918 213.561 82.4015 212.048 82.5833C210.537 82.7753 209.024 82.9572 207.511 83.1138C205.995 83.2603 204.482 83.4119 202.954 83.47C204.477 83.609 206.015 83.5887 207.541 83.5079C209.07 83.4321 210.593 83.2704 212.111 83.086C213.627 82.8915 215.14 82.6616 216.643 82.3863C218.149 82.1135 219.644 81.7977 221.127 81.4238Z" fill="#F4E8D8"/>
<path d="M270.342 111.996C270.342 111.996 253.492 92.6883 249.349 82.5635C249.349 82.5635 234.854 89.4018 228.097 88.3863C228.097 88.3863 241.763 110.558 248.64 114.709L270.342 111.996Z" fill="#F6874E"/>
<path d="M270.342 111.996C270.342 111.996 253.492 92.6883 249.349 82.5635C249.349 82.5635 234.854 89.4018 228.097 88.3863C228.097 88.3863 241.763 110.558 248.64 114.709L270.342 111.996Z" fill="#F6BE4A"/>
<path d="M249.349 82.5635L246.315 99.2109L270.342 111.996" stroke="#F4E8D8" stroke-width="2" stroke-miterlimit="10"/>
<path d="M255.92 104.672C255.92 104.672 249.478 109.123 248.64 114.708" stroke="#F4E8D8" stroke-width="2" stroke-miterlimit="10"/>
<path d="M247.579 93.6683C247.579 93.6683 237.505 91.5161 228.097 88.3887" stroke="#F4E8D8" stroke-width="2" stroke-miterlimit="10"/>
<path d="M278.259 124.483C278.259 124.483 274.26 122.126 264.019 118.122C263.079 117.756 260.083 115.169 256.845 115.442C245.022 116.437 242.865 121.954 240.046 121.242C238.512 120.562 237.242 112.555 236.224 110.271C234.791 107.055 236.108 101.412 238.611 101.237C238.611 101.237 252.914 101.202 256.943 102.748C260.973 104.294 262.673 107.219 263.438 107.944C264.337 108.798 268.142 107.31 270.832 109.344C277.281 114.214 274.844 112.087 277.807 116.781C281.765 123.051 283.738 126.38 282.374 128.927C280.992 131.503 279.196 134.931 276.195 137.061C273.197 139.19 284.334 128.957 278.259 124.483Z" fill="#634874"/>
<path d="M230.821 103.465C230.452 103.773 232.233 105.395 236.965 105.812C237.824 105.888 238.579 105.822 238.693 105.547C238.771 105.357 239.031 103.854 238.824 103.147C238.741 102.864 238.554 102.897 238.286 102.839C236.459 102.444 235.393 102.748 232.999 101.058L230.821 103.465Z" fill="#BB83C3"/>
<path d="M233.359 115.742C233.167 115.166 236.957 116.141 240.086 114.166C240.357 113.994 240.71 114.416 240.94 114.716L241.837 115.889C242.565 116.841 241.895 117.296 241.077 117.897C238.098 120.09 237.899 120.087 235.757 119.648C234.784 119.448 234.016 118.695 233.801 117.725L233.359 115.742Z" fill="#BB83C3"/>
<path d="M260.982 116.56C263.094 117.437 266.734 118.397 269.061 119.028C271.388 119.66 280.969 122.199 284.402 120.248C284.402 120.248 278.266 129.264 261.505 129.567C261.505 129.567 247.134 126.056 246.434 118.238C246.434 118.235 253.879 113.61 260.982 116.56Z" fill="#229BC6"/>
<path d="M261.503 129.565C261.549 128.529 261.566 127.491 261.581 126.455C261.594 125.417 261.586 124.381 261.574 123.343C261.551 122.304 261.531 121.269 261.465 120.228C261.448 119.968 261.43 119.708 261.402 119.442C261.389 119.308 261.374 119.18 261.344 119.031C261.314 118.892 261.276 118.76 261.23 118.629C261.046 118.109 260.796 117.639 260.472 117.189L260.417 117.111L260.318 117.093C259.497 116.949 258.679 116.82 257.855 116.714C257.032 116.6 256.208 116.507 255.38 116.434C254.554 116.358 253.723 116.307 252.889 116.3C252.472 116.3 252.055 116.307 251.641 116.335C251.227 116.363 250.807 116.416 250.411 116.54C251.229 116.403 252.058 116.461 252.879 116.525C253.7 116.595 254.521 116.694 255.337 116.803C256.971 117.027 258.606 117.293 260.227 117.583L260.073 117.487C260.351 117.881 260.591 118.336 260.75 118.793C260.788 118.909 260.824 119.026 260.849 119.139C260.872 119.245 260.889 119.372 260.902 119.498C260.93 119.748 260.952 120.006 260.97 120.261C261.038 121.289 261.094 122.322 261.142 123.355L261.304 126.458C261.369 127.496 261.427 128.531 261.503 129.565Z" fill="#F4E8D8"/>
<path d="M261.232 121.622C264.552 121.991 267.871 122.309 271.201 122.552C272.865 122.673 274.53 122.777 276.197 122.84C277.865 122.9 279.534 122.943 281.199 122.865C279.532 122.9 277.867 122.815 276.202 122.714C274.54 122.61 272.881 122.463 271.221 122.299C267.904 121.973 264.595 121.574 261.296 121.122L261.232 121.622Z" fill="#F4E8D8"/>
<path d="M257.531 115.719C257.385 115.757 257.243 115.805 257.099 115.848C256.958 115.893 256.816 115.944 256.68 115.999C256.541 116.052 256.382 116.067 256.273 116.171C256.162 116.272 256.061 116.391 256.003 116.585L256.028 116.628C256.225 116.676 256.379 116.651 256.523 116.61C256.67 116.57 256.763 116.441 256.882 116.35C256.998 116.259 257.114 116.166 257.228 116.067C257.339 115.966 257.453 115.87 257.562 115.762L257.531 115.719Z" fill="#F4E8D8"/>
<path d="M256.302 156.817C257.507 156.307 259.169 155.544 260.621 154.867C262.084 154.185 262.539 153.617 261.69 152.417L261.041 151.467C260.391 150.861 259.631 150.83 258.651 151.396L254.607 153.733C253.381 154.44 252.697 155.064 253.445 155.862L254.293 157.012C254.836 157.416 255.561 157.133 256.302 156.817Z" stroke="#866694" stroke-width="4" stroke-miterlimit="10"/>
<path d="M260.909 152.087C260.909 152.087 263.208 163.846 261.076 170.109L254.281 167.31C254.281 167.31 255.18 157.816 254.513 155.949L257.646 154.216L260.909 152.087Z" fill="#634874"/>
<path d="M261.74 152.119L254.078 156.578" stroke="#866694" stroke-width="4" stroke-miterlimit="10"/>
<path d="M338.008 131.872C336.247 132.576 333.213 143.899 331.827 147.68C331.397 148.855 311.931 137.394 310.069 135.941C306.861 133.438 307.017 132.341 307.017 132.341C307.017 132.341 315.389 127.58 323.154 123.219C326.287 121.461 339.769 131.167 338.008 131.872Z" fill="#229BC6"/>
<path opacity="0.5" d="M338.008 131.872C336.247 132.576 331.796 140.124 330.599 141.524C330.599 141.524 325.501 140.524 319.906 137.927C314.31 135.33 308.912 131.331 308.912 131.331C308.912 131.331 315.389 127.58 323.154 123.219C326.287 121.461 339.769 131.167 338.008 131.872Z" fill="#229BC6"/>
<path d="M328.813 139.111C328.813 139.111 312.262 133.829 307.33 127.842C307.33 127.842 319.656 118.685 321.77 118.685C322.753 118.685 326.07 119.591 329.76 120.776C330.526 121.021 331.306 121.279 332.087 121.542C335.623 122.737 339.132 124.06 340.981 124.985C340.981 124.985 335.229 126.003 334.095 127.958C332.329 131.005 328.813 139.111 328.813 139.111Z" fill="#F6BE4A"/>
<path opacity="0.5" d="M307.33 127.842C307.33 127.842 319.656 118.685 321.77 118.685C322.753 118.685 326.07 119.591 329.76 120.776C330.526 121.021 331.306 121.279 332.087 121.542C335.623 122.737 339.132 124.06 340.981 124.985C340.981 124.985 312.259 133.829 307.33 127.842Z" fill="#F6874E"/>
<path d="M331.748 121.267C331.933 121.466 332.087 121.714 332.107 121.971C332.125 122.234 331.912 122.421 331.678 122.522C331.443 122.623 331.17 122.689 330.907 122.757L330.106 122.952L326.885 123.672C324.736 124.154 322.588 124.644 320.456 125.228C319.923 125.377 319.393 125.531 318.865 125.697C318.339 125.859 317.822 126.018 317.291 126.157C316.235 126.44 315.164 126.673 314.088 126.887C311.931 127.299 309.756 127.635 307.568 127.898C309.771 127.822 311.971 127.61 314.154 127.264C315.245 127.092 316.331 126.875 317.407 126.609C317.945 126.483 318.481 126.321 319.011 126.162C319.532 126.001 320.06 125.852 320.59 125.708C322.71 125.132 324.849 124.616 326.984 124.071C328.05 123.795 329.119 123.525 330.18 123.219C330.445 123.141 330.71 123.068 330.975 122.982C331.238 122.891 331.501 122.815 331.763 122.679C331.89 122.605 332.011 122.517 332.102 122.391C332.193 122.267 332.233 122.105 332.211 121.956C332.155 121.663 331.953 121.443 331.748 121.267Z" fill="#F4E8D8"/>
<path d="M325.155 124.187C325.104 125.508 325.309 126.788 325.541 128.054C325.781 129.32 326.084 130.568 326.428 131.803C326.769 133.041 327.14 134.266 327.542 135.484C327.941 136.701 328.36 137.911 328.812 139.111C328.401 137.899 328.022 136.676 327.663 135.448C327.302 134.22 326.973 132.983 326.673 131.742C326.37 130.502 326.11 129.249 325.915 127.991C325.726 126.735 325.571 125.462 325.66 124.219L325.155 124.187Z" fill="#F4E8D8"/>
<path d="M321.77 118.685C318.777 118.627 330.928 115.926 333.451 122.029L321.77 118.685Z" fill="#273150"/>
<path d="M225.583 117.521C225.583 117.521 214.892 124.973 211.833 127.352C208.776 129.732 181.416 112.562 179.289 108.085C179.289 108.085 193.756 97.5032 199.185 94.9619C199.185 94.9644 202.072 111.569 225.583 117.521Z" fill="#F6BE4A"/>
<path opacity="0.5" d="M202.581 116.142C205.279 121.239 181.419 112.565 179.292 108.088C179.292 108.088 193.759 97.5062 199.188 94.9648C199.185 94.9648 199.883 111.044 202.581 116.142Z" fill="#F6874E"/>
<path d="M211.433 127.57L211.337 124.846L211.215 122.123C211.172 121.216 211.17 120.304 211.069 119.403C210.97 118.498 210.849 117.599 210.644 116.702L210.594 116.705C210.521 117.622 210.533 118.531 210.564 119.438C210.591 120.347 210.723 121.247 210.811 122.151L211.084 124.862L211.382 127.572L211.433 127.57Z" fill="#F4E8D8"/>
<path d="M179.289 108.113L183.95 108.194L188.611 108.25C190.164 108.27 191.718 108.318 193.271 108.28C194.047 108.257 194.825 108.237 195.601 108.192L196.765 108.126C197.154 108.093 197.541 108.071 197.93 108.03V107.98C197.541 107.942 197.152 107.924 196.765 107.894L195.601 107.838C194.823 107.803 194.047 107.788 193.269 107.772C191.715 107.747 190.162 107.81 188.608 107.843L183.947 107.939L179.287 108.06L179.289 108.113Z" fill="#F4E8D8"/>
<path d="M199.185 94.9639C198.528 98.6773 198.068 102.434 197.964 106.218C197.944 107.165 197.952 108.115 198.028 109.062C198.103 110.01 198.22 110.965 198.543 111.894C198.712 112.351 198.919 112.826 199.331 113.19C199.718 113.519 200.142 113.751 200.566 113.978C201.423 114.418 202.309 114.766 203.206 115.082C205.005 115.694 206.839 116.171 208.688 116.573C209.613 116.775 210.542 116.952 211.474 117.113C212.407 117.28 213.344 117.409 214.281 117.52C218.03 117.96 221.852 118.134 225.583 117.517C224.646 117.624 223.706 117.679 222.764 117.707C221.824 117.732 220.882 117.709 219.942 117.669C218.063 117.591 216.191 117.404 214.329 117.136C210.613 116.593 206.91 115.83 203.368 114.607C202.484 114.304 201.61 113.966 200.784 113.551C200.377 113.339 199.968 113.114 199.634 112.834C199.326 112.571 199.127 112.157 198.97 111.74C198.664 110.889 198.538 109.954 198.457 109.027C198.381 108.097 198.351 107.16 198.348 106.22C198.348 104.344 198.457 102.462 198.609 100.585C198.75 98.7102 198.955 96.8358 199.185 94.9639Z" fill="#F4E8D8"/>
<path d="M169.088 73.7703C163.745 71.4235 144.38 63.4535 129.809 64.3907C129.809 64.3907 117.443 70.1832 117.913 77.8526C117.913 77.8526 137.19 77.3398 142.958 79.2622C147.535 80.788 158.688 87.5581 158.688 87.5581C158.688 87.5581 159.706 84.7793 160.568 82.4325C161.843 78.9515 166.686 76.491 169.149 75.1218C169.692 74.8161 169.659 74.0204 169.088 73.7703Z" fill="#229BC6"/>
<path opacity="0.5" d="M129.809 64.39C129.809 64.39 118.173 69.839 117.906 77.1648C117.898 77.3922 132.292 77.1648 132.292 77.1648C132.292 77.1648 131.625 69.5687 133.325 68.0706C135.025 66.5726 149.813 67.3709 149.813 67.3709C142.836 65.2767 135.692 64.0111 129.809 64.39Z" fill="#229BC6"/>
<path d="M130.16 64.4691C131.88 64.5575 133.57 64.9541 135.139 65.626C136.715 66.2854 138.18 67.1872 139.544 68.2128C140.226 68.7282 140.886 69.2713 141.535 69.8296C142.184 70.3879 142.813 70.9689 143.452 71.5499C143.773 71.8404 144.094 72.1284 144.435 72.4063C144.607 72.5452 144.778 72.6816 144.978 72.8054C145.072 72.8711 145.185 72.9241 145.296 72.9772C145.359 72.9999 145.425 73.0226 145.491 73.0403L145.658 73.0656C146.542 73.1969 147.383 73.2626 148.247 73.346C151.68 73.6138 155.113 73.8613 158.549 74.0634L163.702 74.3463C165.422 74.4196 167.14 74.5105 168.86 74.5661C167.148 74.3969 165.432 74.2579 163.72 74.1013L158.576 73.6769C155.148 73.3965 151.715 73.154 148.29 72.8458C147.439 72.77 146.564 72.7094 145.746 72.5932L145.592 72.573L145.478 72.5351C145.397 72.4947 145.314 72.4593 145.231 72.4012C145.061 72.3002 144.895 72.1688 144.73 72.04C144.402 71.7772 144.081 71.4943 143.76 71.2089C142.482 70.0645 141.194 68.8974 139.774 67.9021C138.362 66.8992 136.851 66.0201 135.232 65.3987C133.608 64.7924 131.885 64.4438 130.16 64.4691Z" fill="#F4E8D8"/>
<path d="M159.531 85.2336L157.945 82.278L156.338 79.335C155.8 78.3549 155.3 77.3545 154.709 76.4047C154.123 75.4523 153.516 74.5126 152.839 73.6133L152.796 73.6385C153.234 74.6768 153.744 75.6721 154.272 76.6573C154.797 77.645 155.411 78.5797 155.99 79.5371L157.728 82.4043L159.488 85.2589L159.531 85.2336Z" fill="#F4E8D8"/>
<path d="M141.467 69.4531L135.97 69.9836L130.478 70.5773C128.649 70.7819 126.815 70.9638 124.996 71.2593C124.087 71.4084 123.177 71.5599 122.275 71.7519C121.374 71.9363 120.467 72.1359 119.59 72.4289L119.603 72.4769C121.419 72.1864 123.245 71.997 125.069 71.7595C126.893 71.5296 128.71 71.2391 130.531 70.9789L136 70.2337L141.472 69.5037L141.467 69.4531Z" fill="#F4E8D8"/>
<path d="M90.2295 102.444C90.2295 102.444 89.4464 117.47 79.7434 121.07C79.7434 121.07 61.2747 124.669 47.4995 120.13C47.4995 120.13 64.2757 115.315 68.7875 111.991C71.7608 109.801 73.7968 107.295 73.7968 104.791C73.7943 104.794 85.69 104.324 90.2295 102.444Z" fill="#F6BE4A"/>
<path opacity="0.5" d="M79.7432 121.073C79.7432 121.073 61.2744 124.672 47.4992 120.133C47.4992 120.133 64.2755 115.318 68.7872 111.994C71.7605 109.803 73.7966 107.297 73.7966 104.794C73.794 104.794 75.8605 113.342 79.7432 121.073Z" fill="#F6874E"/>
<path d="M90.2295 102.444C88.1909 103.816 86.1447 105.173 84.0909 106.514C83.0603 107.178 82.0321 107.845 80.9863 108.484C79.9531 109.136 78.882 109.715 77.7907 110.273C77.2476 110.558 76.7019 110.836 76.1563 111.132C75.6131 111.43 75.0675 111.725 74.5572 112.117C74.3071 112.322 74.0469 112.534 73.8777 112.885C73.7261 113.241 73.7463 113.592 73.7893 113.918C73.8979 114.57 74.1606 115.153 74.4637 115.702C75.0726 116.798 75.8632 117.768 76.7221 118.655C77.5936 119.531 78.5309 120.337 79.5464 121.032C78.6016 120.246 77.7023 119.41 76.904 118.485C76.0982 117.571 75.3681 116.583 74.8124 115.517C74.5421 114.984 74.3122 114.421 74.2288 113.855C74.1934 113.577 74.1985 113.289 74.297 113.077C74.3955 112.87 74.6204 112.67 74.8477 112.498C75.3176 112.15 75.8531 111.857 76.3912 111.569C76.9293 111.283 77.4774 111.005 78.0231 110.725C79.1119 110.154 80.2032 109.566 81.2414 108.894C82.2772 108.227 83.3028 107.55 84.3107 106.845C86.3342 105.443 88.3071 103.978 90.2295 102.444Z" fill="#F4E8D8"/>
<path d="M75.0469 115.75C73.7004 116.187 72.3641 116.654 71.0404 117.152C69.7142 117.642 68.4005 118.16 67.0869 118.685C65.7784 119.218 64.4698 119.756 63.1739 120.322C61.8755 120.881 60.5897 121.472 59.314 122.091C60.6604 121.654 61.9967 121.186 63.3205 120.689C64.6467 120.199 65.9603 119.678 67.2739 119.155C68.5824 118.622 69.891 118.084 71.1844 117.518C72.4854 116.958 73.7712 116.369 75.0469 115.75Z" fill="#F4E8D8"/>
<path d="M79.5859 109.647C79.4824 109.094 79.2626 108.568 78.9973 108.076C78.8685 107.825 78.7119 107.591 78.5578 107.356C78.391 107.128 78.2218 106.903 78.0374 106.691C77.8555 106.476 77.6484 106.282 77.4488 106.085C77.2315 105.906 77.0269 105.711 76.7895 105.557C76.3373 105.221 75.8295 104.966 75.3041 104.776C75.7259 105.148 76.1529 105.481 76.5394 105.86C76.9335 106.229 77.3099 106.613 77.6585 107.022C78.0172 107.421 78.3481 107.848 78.6664 108.285C78.9822 108.722 79.2879 109.172 79.5859 109.647Z" fill="#F4E8D8"/>
<path d="M49.8418 50.0703C49.8418 50.0703 41.8793 45.2251 39.8028 42.4539C37.7263 39.6853 36.342 34.1454 35.3038 28.608C34.2655 23.0707 35.3038 16.1465 35.3038 16.1465C35.3038 16.1465 22.15 29.6463 19.7274 31.0306C19.7274 31.0306 16.2666 42.1078 24.5726 56.2998C24.5726 56.3023 37.7263 58.3788 49.8418 50.0703Z" fill="#229BC6"/>
<path opacity="0.5" d="M24.4964 44.7405C25.6786 38.0487 35.3008 28.611 35.3008 28.611C34.2625 23.0736 35.3008 16.1494 35.3008 16.1494C35.3008 16.1494 22.1471 29.6492 19.7245 31.0335C19.7245 31.0335 16.2636 42.1108 24.5697 56.3027C24.5722 56.3027 23.8977 48.1382 24.4964 44.7405Z" fill="#229BC6"/>
<path d="M49.6484 50.0322C47.5012 49.8226 45.364 49.5295 43.2446 49.138C41.1251 48.754 39.0209 48.2867 36.9646 47.6602C34.9184 47.0261 32.8899 46.2758 31.0584 45.1871C30.149 44.6414 29.2901 44.0023 28.5802 43.2318C28.214 42.8302 27.8376 42.4538 27.6355 42.0193C27.5849 41.9106 27.547 41.7995 27.5218 41.6858C27.494 41.5747 27.489 41.4559 27.4788 41.3246C27.4662 41.0669 27.4662 40.8042 27.4788 40.5415C27.5344 39.4855 27.6885 38.422 27.8805 37.3686C28.0725 36.3127 28.3024 35.2643 28.5525 34.2185C29.0526 32.1268 29.6539 30.0579 30.2829 27.9991C30.9169 25.9428 31.6116 23.9016 32.3998 21.8984C32.7888 20.8955 33.1981 19.8977 33.6604 18.9251C33.8902 18.4375 34.1327 17.9576 34.398 17.4902C34.6632 17.0229 34.9462 16.5631 35.2973 16.1514C34.5622 16.9471 34.0368 17.9096 33.534 18.8619C33.0364 19.8219 32.5867 20.8071 32.1623 21.7999C31.3262 23.793 30.5835 25.8266 29.9014 27.8753C29.2194 29.9265 28.6257 32.0081 28.0977 34.1048C27.8376 35.1557 27.5976 36.2116 27.3955 37.2777C27.1984 38.3437 27.0216 39.4198 26.9786 40.5187C26.9685 40.7941 26.9685 41.0719 26.9837 41.3524C26.9938 41.4888 27.0014 41.6403 27.0393 41.7919C27.0721 41.9409 27.1227 42.0875 27.1883 42.2214C27.4511 42.7695 27.8679 43.1586 28.2241 43.5501C28.9819 44.3661 29.8787 45.0178 30.821 45.5761C32.7105 46.6826 34.7693 47.4328 36.8534 48.0189C41.0367 49.1784 45.3388 49.7948 49.6484 50.0322Z" fill="#F4E8D8"/>
<path d="M28.2158 34.896L22.2667 29.0732L27.8521 35.2472L28.2158 34.896Z" fill="#F4E8D8"/>
<path d="M34.7302 47.0723L32.391 56.1816L35.2178 47.2112L34.7302 47.0723Z" fill="#F4E8D8"/>
</svg>
