<svg width="327" height="327" viewBox="0 0 327 327" fill="none" xmlns="http://www.w3.org/2000/svg">
<mask id="mask0_805_5537" style="mask-type:alpha" maskUnits="userSpaceOnUse" x="0" y="0" width="327" height="327">
<rect width="327" height="327" rx="12" fill="#A36EBA"/>
</mask>
<g mask="url(#mask0_805_5537)">
<path d="M-229.601 447.143C-229.601 447.143 355.895 255.786 418.724 230.078C481.554 204.37 504.405 190.088 475.841 164.393C447.276 138.697 398.729 158.68 398.729 158.68C398.729 158.68 475.841 115.833 447.289 64.4294C418.737 13.0259 344.469 33.0085 347.326 81.5681C347.326 81.5681 418.724 -178.331 253.076 -201.182C87.4267 -224.034 7.4462 -75.5114 53.1494 1.60016C53.1494 1.60016 -3.96707 18.7389 -1.11063 90.1375C-1.11063 90.1375 -66.7964 98.7068 -109.643 141.541C-152.49 184.375 -126.782 224.365 -126.782 224.365C-126.782 224.365 -183.898 212.94 -223.888 272.925C-263.879 332.91 -221.032 390.027 -221.032 390.027C-221.032 390.027 -301 438.586 -301 455.713C-301.013 472.851 -229.601 447.143 -229.601 447.143Z" fill="#F3E7D9" fill-opacity="0.2"/>
<path d="M115.352 183.749C111.544 174.866 109.639 168.201 92.5007 174.866C75.362 181.531 57.2712 200.249 50.6061 202.153C43.9411 204.057 43.9411 214.531 43.9411 214.531C43.9411 214.531 43.6279 214.844 37.5892 216.122C31.5631 217.387 27.7546 222.148 24.5724 225.644C21.4027 229.139 12.5076 231.67 8.69905 235.804C4.89045 239.926 -20.4918 258.017 -2.08778 294.825C5.72986 310.46 10.6034 303.707 30.9117 292.281C51.22 280.856 83.9063 249.76 98.8275 239.6C113.761 229.452 119.249 192.87 115.352 183.749Z" fill="#273252"/>
<path d="M115.352 183.748C111.543 174.866 109.639 168.201 92.5002 174.866C92.5002 174.866 89.9444 188.396 82.6655 207.565C75.399 226.733 64.1612 235.315 64.1612 235.315L50.2799 255.135C50.2799 255.135 51.4701 246.352 48.3004 249.848C45.1307 253.343 32.9407 257.615 29.1321 261.737C25.3235 265.859 7.98438 305.348 7.98438 305.348C7.98438 305.348 10.6153 303.694 30.9236 292.268C51.232 280.843 83.9183 249.747 98.8395 239.587C113.761 229.452 119.248 192.869 115.352 183.748Z" fill="#1D2538"/>
<path d="M16.3409 300.536C16.3409 300.536 21.4148 301.802 21.4148 273.25C21.4148 248.82 8.77378 247.366 4.91507 237.707C-6.51072 209.142 -4.55631 223.437 -13.489 204.069C-24.9148 179.313 -29.9887 163.452 -50.936 172.334C-76.6691 183.247 -80.7658 188.834 -78.2226 197.717C-75.6794 206.599 -73.775 201.525 -71.8707 207.877C-69.9664 214.229 -57.9017 238.972 -52.8278 251.676C-47.7538 264.367 -42.6673 270.08 -42.6673 270.08C-42.6673 270.08 -35.6891 284.049 -31.2416 291.027C-26.8191 297.993 -6.51073 318.94 16.3409 300.536Z" fill="#C94039"/>
<path d="M16.3416 300.536C16.3416 300.536 21.4156 301.802 21.4156 273.25C21.4156 273.25 6.01833 277.622 -4.55553 274.315C-15.1294 271.007 -20.7295 254.032 -29.6622 234.663C-41.088 209.907 -52.7894 226.732 -52.7894 226.732C-52.7894 226.732 -80.7525 188.834 -78.2218 197.717C-75.6786 206.599 -73.7743 201.526 -71.87 207.877C-69.9657 214.229 -57.9009 238.973 -52.827 251.676C-47.753 264.367 -42.6666 270.08 -42.6666 270.08C-42.6666 270.08 -35.6883 284.049 -31.2408 291.027C-26.8183 297.993 -6.50996 318.941 16.3416 300.536Z" fill="#992C29"/>
<path opacity="0.9" d="M-55.3855 28.7359C-81.4693 37.4305 -112.502 27.3077 -139.488 -1.34451C-162.502 -25.7747 -150.588 -84.1313 -150.588 -84.1313C-150.588 -84.1313 -146.366 -67.5815 -136.418 -56.5691C-126.471 -45.5568 -119.706 -70.676 -133.412 -96.6095C-147.118 -122.543 -134.677 -140.772 -134.677 -140.772L-119.067 -115.978C-119.067 -115.978 -104.571 -175.387 -81.6447 -198.94C-58.718 -222.494 -83.098 -192.037 -67.5003 -165.866C-51.9026 -139.694 -45.7387 -168.296 -40.4142 -156.307C-21.1081 -129.772 -26.821 -89.7816 -26.821 -89.7816L1.74348 -108.349C1.73096 -108.361 13.1567 5.88432 -55.3855 28.7359Z" fill="#F7BC4B"/>
<path opacity="0.4" d="M-32.5325 38.7211C-52.5276 48.7187 -149.634 64.4291 -183.899 -38.3904C-218.164 -141.21 -118.063 -254.428 4.58878 -246.886C97.4108 -241.173 101.695 -314 101.695 -314C101.695 -314 130.26 -235.46 90.2697 -205.468C10.001 -145.269 23.1557 -115.502 20.2993 -61.2295C17.4428 -6.96951 -12.5374 28.7361 -32.5325 38.7211Z" fill="#FEED7F"/>
<path d="M129.622 162.338C116.63 139.248 169.437 118.564 198.39 114.216C216.318 111.523 237.916 118.915 244.118 126.244C246.235 128.762 256.37 143.595 258.776 152.014C261.407 161.21 260.166 202.766 243.541 202.466C220.778 202.065 142.626 185.415 129.622 162.338Z" fill="#992C29"/>
<path d="M151.471 167.161C144.255 151.513 163.799 127.634 187.565 121.433C215.24 114.216 236.1 125.354 238.104 134.662C240.109 143.983 221.579 159.368 203.564 167.248C185.548 175.129 154.691 174.126 151.471 167.161Z" fill="#F3E7D9"/>
<path d="M197.374 156.774C213.862 143.632 218.572 144.91 218.159 134.249C217.495 117.022 176.728 132.269 168.309 134.675C159.89 137.08 144.693 162.262 153.864 176.795C163.047 191.315 180.887 169.917 197.374 156.774Z" fill="#273252"/>
<path d="M202.776 159.957C202.776 159.957 167.534 154.908 132.881 163.69C115.805 168.013 92.4521 200.423 92.4521 241.328C92.4521 282.233 104.479 396.553 104.479 396.553L251.273 394.148C251.273 394.135 246.099 167.173 202.776 159.957Z" fill="#F7BC4B"/>
<path d="M181.14 340.226L137.529 267.374L132.894 163.69C115.818 168.013 92.4648 200.423 92.4648 241.328C92.4648 282.233 104.492 396.554 104.492 396.554L251.286 394.148C251.286 394.148 196.011 366.999 173.711 355.11C157.787 346.616 158.84 331.319 158.84 331.319L181.14 340.226Z" fill="#CE9436"/>
<path d="M184.997 166.296C184.997 178.649 173.246 202.002 161.67 202.002C150.106 202.002 138.58 186.041 138.58 173.676C138.58 161.323 150.256 158.992 161.82 158.992C173.409 159.005 184.997 156.625 184.997 166.296Z" fill="#F5894E"/>
<path d="M137.879 162.963C131.69 155.346 91.9882 166.572 85.9746 179.801C84.0954 183.936 87.1899 200.836 86.4758 210.859C84.8847 232.909 81.5146 254.132 83.9952 262.4C87.6033 274.428 92.5144 331.995 87.7035 346.428C82.8927 360.873 92.5144 393.358 97.3252 400.575C102.136 407.791 140.648 399.372 140.648 399.372L134.547 345.663C134.547 345.663 117.997 303.305 117.884 271.32C117.784 239.348 140.247 165.882 137.879 162.963Z" fill="#C94039"/>
<path d="M137.879 162.964C131.69 155.347 106.859 177.81 100.845 191.04C94.8317 204.269 113.737 326.846 113.737 326.846C113.737 326.846 122.657 343.697 124.148 345.188C125.639 346.678 116.217 345.689 116.217 345.689L140.648 399.397L134.546 345.689C134.546 345.689 117.996 303.331 117.884 271.346C117.783 239.349 140.247 165.883 137.879 162.964Z" fill="#992C29"/>
<path d="M144.068 161.773C129.16 178.699 151.548 241.591 161.207 239.511C170.866 237.419 195.96 162.863 178.909 157.338" stroke="#992C29" stroke-miterlimit="10"/>
<path d="M163.885 251.839C165.765 251.4 166.607 248.123 165.766 244.518C164.925 240.913 162.719 238.346 160.839 238.785C158.96 239.224 158.117 242.501 158.958 246.106C159.799 249.711 162.005 252.278 163.885 251.839Z" fill="#29ABE2"/>
<path d="M140.247 157.589C129.949 157.739 126.617 160.909 121.217 165.344C115.817 169.791 113.562 177.897 109.954 198.343C106.346 218.802 112.823 256.738 118.837 256.738C124.85 256.738 125.001 228.524 129.811 210.471C134.622 192.43 150.533 157.439 140.247 157.589Z" fill="#F3E7D9"/>
<path d="M196.9 160.107C189.283 169.152 188.206 230.491 191.814 262.976C195.422 295.462 217.083 338.785 219.489 359.231C221.894 379.69 223.097 398.933 227.908 402.554C232.719 406.175 287.981 403.193 287.981 403.193C287.981 403.193 307.976 374.628 277.983 328.938C259.454 300.699 266.157 175.253 250.521 169.24C234.873 163.214 204.517 151.061 196.9 160.107Z" fill="#992C29"/>
<path d="M200.96 208.88C193.343 217.925 188.206 230.491 191.814 262.977C195.423 295.463 217.084 338.786 219.489 359.232C221.895 379.69 223.098 398.934 227.908 402.554C232.719 406.175 253.165 400.525 239.284 347.656C237.468 340.74 222.759 270.669 226.731 243.571C229.161 226.996 208.577 199.834 200.96 208.88Z" fill="#C94039"/>
<path d="M190.71 252.929C185.311 248.482 184.521 243.596 184.521 226.745C184.521 209.895 186.351 183.41 189.282 165.344C192.139 147.729 226.09 149.32 219.751 162.012C211.395 178.724 206.985 186.467 203.564 213.415C199.756 243.408 196.11 257.377 190.71 252.929Z" fill="#F3E7D9"/>
<path d="M209.879 260.434C209.879 260.434 212.36 298.595 238.631 302.065C238.631 302.065 223.422 286.204 209.879 260.434Z" fill="#C94039"/>
<path d="M269.576 271.335C263.55 258.643 262.974 255.599 245.459 234.84C219.751 204.371 211.195 186.581 226.416 166.297C234.472 155.561 249.268 152.015 267.359 167.25C274.638 173.376 287.642 196.428 294.971 207.24C305.708 223.076 318.813 241.718 322.258 249.761C325.703 257.804 324.162 259.921 316.244 260.523C304.555 261.425 290.423 261.725 286.364 267.413C280.614 275.469 274.813 282.372 269.576 271.335Z" fill="#273252"/>
<path d="M322.258 249.76C318.813 241.717 305.696 223.075 294.972 207.239C287.643 196.427 274.638 173.388 267.359 167.249C249.269 152.015 234.473 155.56 226.417 166.297L247.878 172.536C247.878 172.536 256.485 179.777 266.144 189.888C270.028 192.531 275.315 196.327 280.928 200.95C292.165 210.196 292.817 217.475 292.817 217.475L286.214 214.832C290.436 220.106 285.438 213.441 288.194 218.79C299.281 240.314 288.921 245.137 284.886 251.176C279.6 259.106 280.614 275.468 286.365 267.413C290.424 261.725 304.556 261.412 316.245 260.522C324.163 259.921 325.704 257.803 322.258 249.76Z" fill="#1D2538"/>
<path d="M275.291 275.468C276.556 282.447 278.661 282.584 282.269 284.99C285.877 287.395 293.457 305.536 298.268 322.387C303.079 339.237 307.89 344.048 306.687 348.859C305.484 353.67 306.687 358.481 310.295 359.683C313.903 360.886 329.551 354.872 336.767 359.683C343.984 364.494 347.592 376.534 353.618 376.534C359.644 376.534 358.429 368.115 356.023 364.507C353.618 360.899 352.415 345.251 350.01 328.413C347.604 311.562 329.877 267.55 326.695 262.476C321.395 253.995 314.642 254.07 299.721 255.172C291.152 255.786 274.026 268.478 275.291 275.468Z" fill="#C94039"/>
<path d="M275.291 275.468C276.556 282.447 278.661 282.584 282.269 284.99C285.877 287.395 293.457 305.536 298.268 322.387C303.079 339.237 307.89 344.048 306.687 348.859C305.484 353.67 306.687 358.481 310.295 359.683C313.903 360.886 329.551 354.872 336.767 359.683C343.984 364.494 347.592 376.534 353.618 376.534C359.644 376.534 358.429 368.115 356.023 364.507C353.618 360.899 352.415 345.251 350.01 328.413C347.604 311.562 329.877 267.55 326.695 262.476C321.395 253.995 314.642 254.07 299.721 255.172C291.152 255.786 274.026 268.478 275.291 275.468Z" fill="#992C29"/>
<path d="M275.289 275.469C276.555 282.447 278.66 282.585 282.268 284.99C285.876 287.396 293.455 305.537 298.266 322.387C303.077 339.238 307.888 344.049 306.685 348.859C305.483 353.67 306.685 358.481 310.293 359.684C313.902 360.886 313.463 337.747 309.742 322.387C306.021 307.027 307.6 298.684 295.447 279.603C292.942 275.657 286.878 260.272 281.491 264.895C276.981 268.766 274.713 272.287 275.289 275.469Z" fill="#C94039"/>
<path d="M138.505 121.52L143.955 172.899C143.955 172.899 148.127 182.859 163.424 181.744C178.721 180.641 181.502 168.476 181.502 168.476L175.939 110.959L138.505 121.52Z" fill="#F5894E"/>
<path d="M138.505 121.52C138.505 121.52 154.453 155.171 161.607 161.36C168.761 167.549 183.607 168.476 183.607 168.476L177.768 110.959L138.505 121.52Z" fill="#CC6D3D"/>
<path d="M207.497 104.619C192.751 139.335 179.91 146.827 179.91 146.827C125.462 152.452 96.9976 114.491 99.616 80.1261C101.007 44.5208 108.223 31.4663 147.161 30.4014C201.396 28.9231 220.627 73.6992 207.497 104.619Z" fill="#1D2538"/>
<path d="M207.497 104.619C192.751 139.335 179.91 146.827 179.91 146.827C125.462 152.452 96.9976 114.492 99.616 80.1266C101.007 44.5213 103.212 27.1947 148.376 23.4487C211.093 18.2495 220.627 73.6997 207.497 104.619Z" fill="#1D2538"/>
<path d="M211.155 104.982C198.589 134.587 157.446 113.076 157.446 113.076C149.103 107.989 145.87 78.1718 144.004 58.4523C142.387 41.4514 132.64 25.4403 179.496 30.1384C221.14 34.3228 222.343 78.6353 211.155 104.982Z" fill="#3E4C6F"/>
<path d="M147.425 34.5742C147.425 34.5742 118.247 49.9088 113.336 55.3712C108.425 60.8335 104.629 119.441 113.975 137.945C123.183 156.199 182.993 153.505 196.423 140.15C207.423 129.213 204.704 118.326 207.01 100.285C209.44 81.2796 196.336 68.9643 194.895 61.5977C192.439 48.9943 147.425 34.5742 147.425 34.5742Z" fill="#CC6D3D"/>
<path d="M214.025 93.0684C211.658 103.793 206.183 112.061 201.773 111.56C197.35 111.059 195.672 101.913 198.027 91.0889C200.395 80.2394 205.932 71.8956 210.367 72.4844C214.777 73.0733 216.406 82.3066 214.025 93.0684Z" fill="#CC6D3D"/>
<path d="M118.221 86.3032C108.75 92.4921 105.68 133.222 122.167 141.954C138.655 150.686 153.388 147.967 164.801 137.794C174.786 128.899 169.098 107.513 155.242 97.779C138.279 85.8646 127.692 80.1142 118.221 86.3032Z" fill="#F5894E"/>
<path d="M96.6603 92.8555C98.3266 102.001 103.225 109.08 107.635 108.679C112.058 108.278 114.325 100.51 112.671 91.2895C111.018 82.0436 106.057 74.9025 101.622 75.3661C97.1991 75.8422 94.9815 83.6848 96.6603 92.8555Z" fill="#F5894E"/>
<path d="M197.087 49.8081C197.087 49.8081 194.206 77.7336 197.501 86.0023L204.867 98.2424L207.348 58.6155L197.087 49.8081Z" fill="#3E4C6F"/>
<path d="M106.746 98.1677C106.746 98.1677 106.22 70.3549 107.836 62.0111L111.281 49.583L111.331 89.0972L106.746 98.1677Z" fill="#1D2538"/>
<path d="M196.46 44.5333C196.46 44.5333 186.4 55.7085 152.761 56.1094C136.061 56.3099 121.879 62.4988 113.761 60.8952C93.8284 56.9362 127.266 19.2512 161.544 17.6977C196.222 16.1317 196.46 44.5333 196.46 44.5333Z" fill="#1D2538"/>
<path d="M161.745 17.2719C134.258 19.6523 105.656 45.1348 121.705 48.3045C126.265 49.2065 133.519 50.4092 142.326 51.3614C157.799 48.9309 173.885 40.9253 173.885 40.9253C172.87 48.4047 164.263 51.424 154.93 52.4513C162.835 52.9524 171.392 53.1655 180.049 52.7896C194.281 52.1757 195.772 52.9149 196.749 48.1792C198.703 38.57 191.45 14.6911 161.745 17.2719Z" fill="#3E4C6F"/>
<path d="M175.812 97.542C176.051 101.564 174.259 103.443 172.242 103.568C170.225 103.693 168.759 102.002 168.521 97.9805C168.283 93.9589 169.711 90.5888 171.728 90.4761C173.745 90.3633 175.562 93.5079 175.812 97.542Z" fill="#34283A"/>
<path d="M142.112 99.947C142.35 103.969 140.559 105.848 138.542 105.973C136.525 106.098 135.059 104.407 134.821 100.385C134.583 96.3639 136.011 92.9938 138.028 92.881C140.045 92.7558 141.874 95.9129 142.112 99.947Z" fill="#34283A"/>
<path d="M181.2 84.2364C181.2 84.2364 177.253 77.1329 170.839 79.0622" stroke="#34283A" stroke-width="2" stroke-miterlimit="10" stroke-linecap="round" stroke-linejoin="round"/>
<path d="M135.484 81.5805C135.484 81.5805 127.88 81.0293 126.101 87.0679" stroke="#34283A" stroke-width="2" stroke-miterlimit="10" stroke-linecap="round" stroke-linejoin="round"/>
</g>
</svg>
