<svg width="287" height="259" viewBox="0 0 287 259" fill="none" xmlns="http://www.w3.org/2000/svg">
<path d="M253.491 68.9304C253.491 68.9304 261.344 27.8387 229.158 16.1021C196.971 4.36555 175.487 11.9383 168.002 14.2219C160.517 16.5054 116.876 44.3353 143.282 76.8526C143.282 76.8526 137.099 73.5142 134.286 76.0436C131.472 78.5731 131.475 78.5732 131.475 78.5732C131.475 78.5732 118.247 75.5348 107.441 83.6666C96.6353 91.8014 102.504 94.7879 104.752 96.5804C107 98.3729 105.333 98.2852 105.333 98.2852C105.333 98.2852 85.3923 101.923 78.1012 106.894C70.8102 111.866 64.467 117.893 90.3468 115.907C116.227 113.921 129.401 111.604 129.401 111.604C129.401 111.604 106.071 116.067 105.825 120.741C105.579 125.415 160.886 117.613 171.689 115.84C182.493 114.066 232.423 100.291 242.614 97.4816C242.614 97.4816 233.6 103.366 240.61 103.735C247.62 104.104 277.521 89.2767 281.685 86.4828C285.848 83.689 273.111 84.0218 273.111 84.0218C273.111 84.0218 275.886 75.7998 272.179 69.9141C268.473 64.0285 256.005 65.7143 253.491 68.9304Z" fill="#F3E7D9"/>
<path d="M91.2428 64.9724C91.2428 64.9724 94.3808 56.0536 86.7462 51.8481C81.7049 49.0729 71.1629 55.3796 71.6712 61.5971C71.8922 64.2833 68.4375 59.4172 62.5166 63.7928C56.5958 68.1684 56.7023 75.7035 56.7023 75.7035C56.7023 75.7035 43.9652 79.2171 42.2429 80.1298C40.5207 81.0425 38.3964 83.2758 51.9582 79.9703C65.5225 76.6739 91.2428 64.9724 91.2428 64.9724Z" fill="#F3E7D9"/>
<path d="M53.2051 137.164C53.2051 137.164 51.4997 131.383 40.7311 132.491C29.9626 133.598 25.5005 142.067 27.1144 143.155C28.7314 144.244 29.0131 145.265 29.0131 145.265C29.0131 145.265 13.3068 151.132 7.15688 153.486C1.00697 155.84 6.82311 159.827 18.7532 155.77C30.6834 151.711 61.304 142.277 72.4071 141.187C83.5101 140.098 53.2051 137.164 53.2051 137.164Z" fill="#F3E7D9"/>
<path d="M115.76 188.447C94.5375 194.643 91.998 204.651 91.998 204.651C91.998 204.651 48.8456 211.592 38.92 215.919C28.9943 220.245 15.0499 228.089 34.0087 235.538C46.8348 240.577 78.4145 248.541 107.17 245.691C135.926 242.841 154.622 241.057 162.526 236.553C170.43 232.051 163.551 225.498 163.551 225.498C163.551 225.498 180.893 228.154 205.658 229.155C230.422 230.156 244.618 224.527 233.159 219.353C233.159 219.353 294.817 203.934 263.593 191.502C258.592 189.783 246.816 178.618 206.221 176.119C165.626 173.619 145.305 179.819 115.76 188.447Z" fill="#856792"/>
<path d="M163.386 195.065C163.386 195.065 134.022 200.882 138.812 205.261C143.601 209.64 161.796 210.089 161.796 210.089C161.796 210.089 169.357 219.331 184.073 219.078C198.789 218.826 208.983 218.383 218.006 215.393C227.029 212.402 264.051 205.219 231.681 198.621C199.31 192.024 163.386 195.065 163.386 195.065Z" fill="#4B3355"/>
<path d="M153.263 185.461C136.144 188.064 133.045 191.013 145.246 194.725C157.447 198.437 162.362 195.584 170.714 191.681C179.069 187.778 170.385 182.855 153.263 185.461Z" fill="#4B3355"/>
<path d="M144.586 211.902C138.86 210.145 133.289 214.701 144.867 215.795C156.445 216.89 150.311 213.656 144.586 211.902Z" fill="#4B3355"/>
<path d="M117.808 218.612C117.808 218.612 117.065 218.681 115.905 218.805C111.044 219.325 98.842 220.803 103.072 222.2C108.315 223.932 128.724 223.065 122.106 219.809" fill="#4B3355"/>
<path d="M91.8204 210.599C91.8204 210.599 54.3574 214.033 48.4936 217.836C42.6298 221.64 64.5939 225.764 64.5939 225.764C64.5939 225.764 72.038 227.785 82.4409 227.422C92.8438 227.059 125.892 221.174 116.984 216.697C110.089 213.229 91.8204 210.599 91.8204 210.599Z" fill="#4B3355"/>
<path d="M136.129 228.448C136.129 228.448 115.004 226.075 118.671 231.24C122.338 236.404 153.253 232.356 136.129 228.448Z" fill="#4B3355"/>
<path d="M144.098 244.238C140.336 245.837 131.609 251.337 150.943 252.355C170.276 253.373 175.128 241.022 170.46 240.776C165.794 240.531 147.857 242.642 144.098 244.238Z" fill="#856792"/>
<path d="M170.95 162.713C170.95 162.713 120.331 166.066 110.81 169.14C101.289 172.215 87.7909 181.643 110.985 185.559C134.179 189.479 146.913 194.555 157.526 190.495C168.138 186.435 160.84 176.91 160.84 176.91C160.84 176.91 179.428 179.464 192.022 177.3C204.62 175.13 208.112 158.161 170.95 162.713Z" fill="#856792"/>
<path d="M199.333 217.249C197.205 217.784 195.211 221.881 200.53 222.161C205.849 222.441 211.476 220.874 209.437 218.751C206.984 216.196 201.464 216.714 199.333 217.249Z" fill="#4B3355"/>
<path d="M175.396 229.886C175.396 229.886 170.892 232.557 176.186 233.321C181.48 234.085 181.683 230.217 175.396 229.886Z" fill="#856792"/>
<path d="M177.667 236.936C175.589 238.806 174.069 241.622 181.346 242.311C188.624 243 189.253 236.785 186.841 236.353C184.423 235.92 179.745 235.066 177.667 236.936Z" fill="#856792"/>
<path d="M222.313 213.61C222.313 213.61 222.364 215.712 226.41 215.604C230.456 215.494 235.062 213.96 235.062 213.96C235.062 213.96 238.913 214.486 241.915 212.704C244.917 210.921 242.034 207.376 233.56 208.709C225.086 210.039 221.227 212.744 222.313 213.61Z" fill="#4B3355"/>
<path d="M175.269 170.122C175.269 170.122 163.339 168.766 166.777 172.583C170.212 176.403 185.271 173.56 175.269 170.122Z" fill="#4B3355"/>
<path d="M176.198 152.381L174.977 169.781L172.788 171.205L170.103 175.041C170.103 175.041 170.247 178.113 169.685 182.986C169.123 187.859 168.173 194.243 168.173 194.243L205.528 212.142L220.161 213.527L233.03 212.56L254.916 202.076L249.945 183.23L249.541 179.226L244.781 176.525L247.965 174.243L246.728 151.2L194.529 147.533L176.198 152.381Z" fill="#7A462F"/>
<path d="M246.732 151.191L220.985 139.724L192.424 140.979L176.199 152.381C176.199 152.381 178.53 154.648 183.419 154.905C188.308 155.163 209.856 159.055 209.856 159.055L225.762 159.587C225.762 159.587 238.546 155.357 242.262 154.633C245.978 153.909 246.732 151.191 246.732 151.191Z" fill="#A96443"/>
<path d="M241.66 205.253L232.574 193.624L232.424 178.102L227.868 163.315L228.225 174.97L230.87 179.958L229.648 193.956L229.598 204.133L220.164 213.523L233.389 205.788L232.32 198.46L238.2 206.527L241.66 205.253Z" fill="#A96443"/>
<path d="M216.036 157.844L214.712 164.564L208.81 156.981L216.036 157.844Z" fill="#A96443"/>
<path d="M234.611 154.943L237.744 159.957L240.516 153.316L234.611 154.943Z" fill="#A96443"/>
<path d="M213.085 149.447L210.895 163.393L215.349 170.9L214.381 180.061L212.805 173.192L208.504 162.782L213.085 149.447Z" fill="#A96443"/>
<path d="M217.284 171.001L216.699 182.121L220.335 195.889L220.463 202.682L222.448 192.606L219.624 181.792L217.284 171.001Z" fill="#A96443"/>
<path d="M220.592 172.631L219.65 181.309L221.277 187.211L221.378 176.066L222.982 168.636L220.592 172.631Z" fill="#A96443"/>
<path d="M176.071 171.015L173.941 179.226L175.299 187.216L174.188 192.974L176.425 187.276L175.045 179.766L176.071 171.015Z" fill="#A96443"/>
<path d="M240.847 156.242C240.847 156.242 239.956 163.952 239.88 165.404C239.803 166.856 239.027 181.601 239.027 181.601L244.624 194.987L243.338 182.556L254.916 202.073L249.542 179.223L244.781 176.522L247.965 174.24L247.128 156.576L245.212 160.836L244.486 170.01L243.098 164.118L243.607 159.053L240.847 156.242Z" fill="#A96443"/>
<path d="M238.295 211.621C239.637 211.449 242.156 207.34 236.951 200.277C234.793 197.351 234.578 205.022 235.34 207.829C236.106 210.637 236.953 211.793 238.295 211.621Z" fill="#33A86D"/>
<path d="M240.123 207.769C240.123 207.769 238.659 199.914 240.049 200.08C244.228 200.575 242.57 203.268 242.57 203.268C242.57 203.268 248.658 197.951 249.617 200.044C250.576 202.14 246.583 205.051 246.583 205.051C246.583 205.051 257.043 198.818 251.836 203.734C246.633 208.651 239.153 211.471 240.123 207.769Z" fill="#33A86D"/>
<path d="M235.707 189.426C235.707 189.426 237.312 195.812 238.964 192.02C240.619 188.229 239.804 185.278 235.707 189.426Z" fill="#33A86D"/>
<path d="M248.202 191.54C248.202 191.54 251.307 187.824 247.922 187.646C244.537 187.468 246.317 190.471 248.202 191.54Z" fill="#33A86D"/>
<path d="M236.827 158.939C236.827 158.939 237.566 163.342 234.713 162.221C231.861 161.101 232.067 157.235 236.827 158.939Z" fill="#33A86D"/>
<path d="M235.91 167.133C235.91 167.133 242.755 166.037 239.447 164.411C236.14 162.781 233.087 165.532 235.91 167.133Z" fill="#33A86D"/>
<path d="M239.345 175.556C239.345 175.556 243.925 171.433 239.599 170.72C235.273 170.01 234.535 174.817 239.345 175.556Z" fill="#33A86D"/>
<path d="M230.514 168.304C230.514 168.304 230.693 174.133 232.727 172.299C234.761 170.465 234.993 166.117 230.514 168.304Z" fill="#33A86D"/>
<path d="M212.141 215.944C212.141 215.944 209.299 210.589 212.195 208.312C215.092 206.033 212.141 215.944 212.141 215.944Z" fill="#288453"/>
<path d="M210.252 214.751C209.42 216.001 203.973 202.785 206.892 202.573C209.811 202.361 211.088 213.504 210.252 214.751Z" fill="#288453"/>
<path d="M204.961 213.183C204.266 211.813 203.861 204.882 206.213 207.834C207.941 210.006 208.378 210.451 208.74 213.543C209.101 216.632 205.656 214.552 204.961 213.183Z" fill="#288453"/>
<path d="M168.69 196.078C168.69 196.078 168.193 187.082 165.242 187.897C162.291 188.712 165.458 193 165.458 193C165.458 193 161.31 188.903 162.342 192.351C163.373 195.799 168.69 196.078 168.69 196.078Z" fill="#33A86D"/>
<path d="M171.552 196.957C171.552 196.957 174.006 191.752 171.615 191.141C169.224 190.53 169.54 193.697 169.54 193.697C169.54 193.697 167.646 188.263 167.264 190.912C166.882 193.557 168.231 195.569 169.884 196.384C171.539 197.199 171.539 197.199 171.539 197.199" fill="#288453"/>
<path d="M99.613 239.594C99.613 239.594 95.7957 229.213 97.8396 231.863C99.8803 234.516 100.53 236.006 100.53 236.006C100.53 236.006 100.128 229.803 102.591 231.388C105.053 232.973 103.392 236.884 103.392 236.884C103.392 236.884 107.554 233.83 107.801 236.026C108.047 238.223 102.456 240.833 99.613 239.594Z" fill="#33A86D"/>
<path d="M76.1826 240.301C76.1826 240.301 72.9576 232.494 75.5343 231.905C78.1113 231.312 78.5698 236.428 78.5698 236.428C78.5698 236.428 78.7047 226.98 81.9663 227.152C85.2278 227.323 81.8887 235.51 81.8887 235.51C81.8887 235.51 83.0713 233.754 84.7889 235.662C86.5064 237.571 85.2474 240.778 85.2474 240.778C85.2474 240.778 89.0069 238.43 91.0889 240.358C93.1678 242.285 90.9552 242.896 90.9552 242.896C90.9552 242.896 97.9221 241.808 97.4623 243.601C97.0054 245.395 91.1258 246.541 85.7633 244.803C80.4008 243.066 68.3755 243.526 69.6185 240.68C70.8583 237.837 76.1826 240.301 76.1826 240.301Z" fill="#33A86D"/>
<path d="M36.2581 222.389C36.2581 222.389 30.3995 215.509 35.2987 211.14L36.4169 215.73C36.4169 215.73 38.6754 209.979 41.4534 208.184L38.1559 216.604C38.1559 216.604 40.3459 212.439 43.059 211.366C45.7719 210.296 36.2581 222.389 36.2581 222.389Z" fill="#856792"/>
<path d="M33.6714 222.025C33.6714 222.025 27.7373 217.603 21.1214 216.749C21.1214 216.749 25.8222 215.409 28.7046 216.525C31.5869 217.641 31.4535 219.949 31.4535 219.949L30.4003 214.637C30.4003 214.637 36.2046 220.499 36.2549 222.388C36.3052 224.278 33.6714 222.025 33.6714 222.025Z" fill="#856792"/>
<path d="M259.478 193.017C259.478 193.017 257.764 184.51 260.76 182.158L260.582 186.845C260.582 186.845 262.539 182.264 264.133 181.569L261.27 188.277C261.27 188.277 262.95 185.158 264.402 185.114C265.854 185.071 259.478 193.017 259.478 193.017Z" fill="#856792"/>
<path d="M258.31 191.761C258.31 191.761 256.182 185.53 253.179 182.392C253.179 182.392 255.613 182.801 256.807 184.865C258.002 186.928 257.582 189.039 257.582 189.039L257.902 183.7C257.902 183.7 259.749 191.231 259.481 193.017C259.213 194.803 258.31 191.761 258.31 191.761Z" fill="#856792"/>
<path d="M145.093 189.033C145.032 189.05 144.971 189.074 144.913 189.104C144.028 189.531 135.617 190.741 134.746 191.702C134.033 192.485 134.014 195.988 134.164 197.344C134.211 197.765 134.488 198.121 134.888 198.274C136.511 198.905 138.798 200.352 142.869 200.33C148.265 200.299 149.351 200.024 153.451 198.326C156.136 197.215 160.294 196.245 161.109 195.881C161.499 195.706 161.686 195.339 161.729 194.925L162.184 190.381C162.241 189.812 161.941 189.296 161.37 189.162C158.725 188.543 151.312 187.123 145.093 189.033Z" fill="#29ABE2"/>
<path d="M148.097 187.429C148.097 187.429 135.604 190.293 134.692 191.234C133.78 192.174 134.158 196.088 134.158 196.088C134.158 196.088 137.589 198.443 142.938 198.215C148.308 197.985 149.533 198.34 153.603 196.803C156.76 195.609 160.978 194.666 161.588 194.411C161.75 194.341 161.859 194.203 161.877 194.042L162.295 190.027C162.332 189.661 162.071 189.32 161.675 189.225C159.332 188.667 154.567 185.598 148.097 187.429Z" fill="#121721"/>
<path d="M140.597 189.807C140.597 189.807 143.992 189.447 146.402 191.742" stroke="#29ABE2" stroke-width="2" stroke-miterlimit="10" stroke-linecap="round" stroke-linejoin="round"/>
<path d="M142.973 188.827C142.973 188.827 145.411 188.551 149.313 191.179" stroke="#29ABE2" stroke-width="2" stroke-miterlimit="10" stroke-linecap="round" stroke-linejoin="round"/>
<path d="M191.897 125.401C191.897 125.401 170.606 119.593 162.379 118.328C157.845 117.631 155.669 118.858 154.131 121.398C152.59 123.934 152.472 132.889 156.831 135.598C161.189 138.308 168.314 138.554 173.963 140.819C179.609 143.081 187.606 148.198 192.498 146.081C197.389 143.963 204.651 131.583 191.897 125.401Z" fill="#CE9436"/>
<path d="M191.897 125.401L182.318 123.025L163.716 138.039C163.716 138.039 171.469 139.819 173.96 140.819C179.606 143.081 187.603 148.198 192.494 146.08C197.389 143.963 198.778 125.601 191.897 125.401Z" fill="#F7BC4B"/>
<path d="M164.506 155.294C164.506 155.294 164.49 134.139 165.169 129.616C165.85 125.094 165.736 118.672 157.657 117.903C152.188 117.381 148.957 118.113 148.287 124.702C147.753 129.955 146.937 134.239 147.446 139.714C148.131 147.058 146.922 180.509 145.817 181.637C144.713 182.765 144.63 182.284 144.606 185.137C144.586 187.439 146.578 187.778 151.877 189.024C155.141 189.606 158.356 192.013 161.133 190.467C163.91 188.921 163.324 187.65 163.324 187.65L163.328 184.787L164.506 155.294Z" fill="#CE9436"/>
<path d="M164.506 155.293C164.506 155.293 167.948 135.024 168.629 130.502C169.31 125.979 157.306 153.641 157.941 156.586C158.58 159.531 158.625 165.502 158.625 165.502L156.76 162.637C156.76 162.637 153.73 181.52 153.705 184.376C153.686 186.678 146.574 187.783 151.873 189.026C155.137 189.608 158.353 192.015 161.13 190.469C163.907 188.923 163.321 187.652 163.321 187.652L163.325 184.789L164.506 155.293Z" fill="#F7BC4B"/>
<path d="M230.397 130.641C230.397 130.641 234.401 140.55 232.644 146.274C230.887 152.001 229.6 151.933 222.855 151.093C216.692 150.325 180.943 145.209 187.984 131.964C193.895 120.843 202.499 123.353 211.921 125.467C221.346 127.58 230.397 130.641 230.397 130.641Z" fill="#F7BC4B"/>
<path d="M189.572 86.4657C189.572 86.4657 183.719 90.5693 182.928 96.2691C182.137 101.969 178.223 108.038 176.738 109.918C175.252 111.799 171.423 118.591 177.28 122.774C183.137 126.958 185.779 118.358 188.265 114.652C190.751 110.946 194.258 107.606 196.28 102.007C198.303 96.4046 200.857 82.9415 189.572 86.4657Z" fill="#7A462F"/>
<path d="M182.27 119.201C182.27 119.201 183.537 123.461 178.631 127.56C173.725 131.66 165.532 138.078 163.397 139.829C161.262 141.579 158.396 140.73 156.474 138.664C154.552 136.596 156.622 133.734 161.903 127.982C167.183 122.231 173.029 114.387 177.868 112.754C182.707 111.122 182.27 119.201 182.27 119.201Z" fill="#7A462F"/>
<path d="M169.434 131.311C170.371 130.624 183.537 123.461 178.631 127.56C173.725 131.66 165.531 138.078 163.396 139.829C161.262 141.579 159.924 136.954 161.958 135.123C163.992 133.292 165.979 133.837 169.434 131.311Z" fill="#A96443"/>
<path d="M158.725 134.128C157.73 133.797 156.149 134.172 153.98 134.702C152.342 135.101 149.832 135.212 148.126 135.364C145.445 135.604 145.502 134.579 143.664 135.696C142.739 136.258 143.138 137.717 143.698 138.12C145.022 139.08 149.008 138.577 149.519 138.831C150.03 139.086 146.219 142.806 146.039 143.087C145.86 143.368 141.395 145.28 140.426 145.894C139.456 146.508 140.118 147.067 140.502 147.449C140.887 147.832 142.316 147.883 142.316 147.883C142.316 147.883 140.938 148.446 141.855 149.515C142.775 150.588 143.487 150.485 144.1 150.179C144.712 149.872 145.63 149.669 145.63 149.669C145.63 149.669 145.349 151.023 146.728 151.224C148.107 151.426 148.668 151.021 148.668 151.021C148.668 151.021 148.872 151.685 150.02 152.069C151.168 152.453 151.296 152.07 153.413 150.819C155.531 149.567 158.415 147.808 159.256 147.068C160.098 146.328 163.288 140.586 162.751 138.878C162.222 137.164 159.719 134.459 158.725 134.128Z" fill="#7A462F"/>
<path d="M160.238 137.132C159.243 136.801 156.306 135.798 154.14 136.325C152.502 136.724 149.542 136.164 147.839 136.317C145.158 136.556 145.801 135.159 143.963 136.275C143.038 136.837 143.147 137.714 143.704 138.121C145.028 139.08 149.014 138.577 149.525 138.832C150.035 139.086 146.225 142.806 146.045 143.087C145.866 143.368 141.401 145.281 140.431 145.895C139.462 146.509 140.124 147.068 140.508 147.45C140.892 147.833 142.649 147.398 142.649 147.398C142.649 147.398 140.944 148.447 141.861 149.519C142.781 150.592 143.473 149.838 144.143 149.699C145.081 149.506 145.781 149.3 145.781 149.3C145.781 149.3 145.019 150.982 146.734 151.228C147.771 151.376 149.873 150.031 149.873 150.031C149.873 150.031 148.834 150.764 149.473 151.312C150.461 152.161 151.109 151.458 153.227 150.207C155.344 148.956 157.869 146.902 158.711 146.162C159.553 145.422 162.365 140.46 161.829 138.752C161.294 137.04 161.232 137.462 160.238 137.132Z" fill="#A96443"/>
<path d="M148.461 144.43C148.461 144.43 151.068 146.347 152.136 146.765C153.204 147.184 153.955 147.547 153.955 147.547C153.955 147.547 149.894 144.868 149.658 144.736C149.422 144.604 148.146 143.524 148.146 143.524L148.461 144.43Z" fill="#7A462F"/>
<path d="M148.87 150.643L151.656 148.942L153.555 147.406C153.555 147.406 152.92 148.253 151.726 149.134C151 149.668 149.733 150.239 148.87 150.643Z" fill="#7A462F"/>
<path d="M145.772 149.419L148.617 147.55C148.617 147.55 150.369 146.241 151.369 145.916L149.101 147.576L145.772 149.419Z" fill="#7A462F"/>
<path d="M142.233 147.577L146.319 145.974L148.476 144.147C148.476 144.147 146.501 145.579 146.166 145.804C145.831 146.029 141.624 147.665 141.624 147.665L142.233 147.577Z" fill="#7A462F"/>
<path d="M209.561 81.3036C199.035 81.7199 194.102 83.3172 191.623 84.3189C189.148 85.3207 189.586 86.1524 189.586 86.1524C189.586 86.1524 189.951 94.5757 190.274 97.6626C190.597 100.749 191.423 108.439 191.638 112.44C191.873 116.84 194.985 124.857 194.603 127.505C194.141 130.716 195.635 135.559 195.635 135.559C195.635 135.559 204.858 133.823 211.261 134.968C217.664 136.114 230.698 134.131 231.352 134.004C232.006 133.877 231.534 132.073 231.619 130.463C231.704 128.85 231.594 126.341 231.594 126.341C231.594 126.341 230.697 111.911 230.867 108.686C231.036 105.463 232.493 88.0934 231.366 84.6317C230.667 82.4954 220.086 80.8872 209.561 81.3036Z" fill="#29ABE2"/>
<path d="M227.364 106.887C227.364 106.887 227.657 112.075 227.462 115.781C227.267 119.488 229.003 123.377 228.137 125.997C227.272 128.617 226.508 133.911 226.508 133.911" stroke="#1689CB" stroke-miterlimit="10"/>
<path d="M216.588 81.332C217.555 81.3829 216.681 86.4464 215.331 88.3161C213.98 90.1858 208.3 92.9567 203.939 92.8889C199.262 92.8164 196.987 91.1962 198.756 86.9585C199.681 84.7459 200.292 82.3521 201.919 82.1143C203.549 81.8766 204.706 81.7368 208.474 81.5698C212.241 81.4027 215.62 81.281 216.588 81.332Z" fill="#7A462F"/>
<path d="M211.012 86.4512C214.705 85.7052 214.502 85.6465 214.26 83.744L213.619 74.812C213.43 73.2985 211.793 72.2929 209.493 72.7558L204.613 73.5742C202.379 74.0226 201.429 75.5151 201.388 77.0224C201.388 77.0224 201.693 83.4119 202.153 85.4218C202.618 87.456 207.316 87.1971 211.012 86.4512Z" fill="#A96443"/>
<path d="M210.788 86.7368C202.888 82.1669 201.426 75.5159 201.386 77.0202C201.386 77.0202 201.466 83.6944 201.926 85.7043C202.397 87.7418 207.091 87.4857 210.788 86.7368Z" fill="#7A462F"/>
<path d="M190.907 101.009L191.521 105.899C191.521 105.899 205.56 108.204 223.691 106.856L222.89 101.36C222.887 101.359 209.923 102.98 190.907 101.009Z" fill="#3E4C6F"/>
<path d="M223.69 109.158C223.69 109.158 207.439 110.244 191.764 108.448L192.34 112.881C192.34 112.881 197.608 114.129 205.478 114.381C213.348 114.634 224.551 113.567 224.551 113.567L223.69 109.158Z" fill="#3E4C6F"/>
<path d="M215.811 63.174C217.021 77.8025 214.304 76.6202 208.337 77.4383C203.344 78.1249 198.566 72.629 197.691 65.353C196.816 58.0769 200.162 51.6909 205.165 51.0887C210.169 50.4865 215.069 54.1828 215.811 63.174Z" fill="#273252"/>
<path d="M212.756 61.5244C211.92 54.8314 210.757 51.0863 203.479 51.431C199.681 51.6115 196.014 52.4188 193.968 53.8476C192.118 55.1399 191.12 56.9203 190.947 61.3978C190.818 64.7723 190.763 70.5858 192.494 75.9961C193.605 79.4629 198.2 80.2618 202.146 80.0563C212.132 79.5396 213.535 78.3166 213.57 71.1693C213.603 64.4502 213.1 64.271 212.756 61.5244Z" fill="#7A462F"/>
<path d="M211.579 54.4871C209.479 50.456 203.38 55.0229 206.037 56.1481C209.951 57.8097 208.509 66.8357 207.571 72.3092C206.538 78.3317 203.01 79.6435 203.01 79.6435C203.01 79.6435 204.901 79.794 207.16 79.3169C210.837 78.54 213.41 78.7564 213.399 69.8605C213.396 65.5925 212.871 56.9631 211.579 54.4871Z" fill="#A96443"/>
<path d="M192.403 53.8802C191.844 54.318 191.124 58.1437 190.978 60.529C190.948 61.0306 191.553 57.3965 192.277 56.5571C192.277 56.5571 194.392 57.1746 196.847 56.9564C201.406 56.5524 205.498 55.5728 205.498 55.5728C205.498 55.5728 207.074 60.7922 208.504 62.4729C209.971 64.1973 211.736 65.0929 211.736 65.0929L213.717 61.3635C213.312 56.3225 211.448 52.0673 208.02 51.3538C201.745 50.0501 194.458 52.2692 192.403 53.8802Z" fill="#273252"/>
<path d="M203.136 65.748C203.14 66.7548 202.673 66.874 202.163 66.8741C201.654 66.8773 201.286 66.762 201.27 65.7546C201.254 64.7382 201.664 63.903 202.185 63.9005C202.706 63.9009 203.133 64.7322 203.136 65.748Z" fill="#1D2538"/>
<path d="M200.634 60.5388C200.634 60.5388 202.704 60.2583 203.628 61.2057" stroke="#1D2538" stroke-miterlimit="10" stroke-linecap="round" stroke-linejoin="round"/>
<path d="M195.706 66.2582C195.749 67.2011 195.338 67.2723 194.859 67.2741C194.379 67.2758 194.005 67.2082 193.953 66.2648C193.898 65.3122 194.251 64.5279 194.74 64.5267C195.228 64.5224 195.66 65.3031 195.706 66.2582Z" fill="#1D2538"/>
<path d="M195.456 61.2734C195.456 61.2734 193.937 60.762 192.588 62.0421" stroke="#1D2538" stroke-miterlimit="10" stroke-linecap="round" stroke-linejoin="round"/>
<path d="M216.395 66.1425C215.759 68.544 213.87 70.1906 212.154 69.8907C212.154 69.8907 212.138 64.3999 212.1 63.3527C212.075 62.6954 212.472 60.6767 214.3 60.9976C216.122 61.3181 217.05 63.6581 216.395 66.1425Z" fill="#A96443"/>
<path d="M215.3 68.6344C215.199 69.2852 214.572 69.7615 213.904 69.7023C213.236 69.6432 212.766 69.0672 212.858 68.416C212.949 67.7587 213.574 67.2704 214.254 67.3301C214.934 67.3899 215.403 67.9778 215.3 68.6344Z" fill="#F3E7D9"/>
<path d="M203.261 142.465C203.261 142.465 203.396 147.187 199.312 147.268C199.312 147.268 203.084 143.439 203.261 142.465Z" fill="#CE9436"/>
<path d="M184.361 199.393C178.941 201.015 171.063 202.52 170.621 204.83C170.18 207.125 169.848 209.558 170.033 210.43C170.175 211.09 170.45 211.491 170.968 211.722C172.285 212.31 174.91 213.703 180.263 214.374C182.572 214.663 187.668 213.61 190.795 211.493C193.274 209.817 196.236 207.877 197.343 207.15C197.632 206.962 197.827 206.67 197.884 206.334L198.331 203.758C198.421 203.233 198.156 202.7 197.669 202.444C195.385 201.237 188.761 198.073 184.361 199.393Z" fill="#29ABE2"/>
<path d="M184.715 197.164C179.993 198.506 171.007 201.603 170.584 203.893C170.202 205.961 170.025 207.101 170.07 207.901C170.092 208.291 171.179 208.513 171.707 208.726C173.05 209.267 175.726 210.546 181.16 211.207C183.502 211.492 188.114 211.052 191.267 209.184C193.886 207.636 197.039 205.831 198.017 205.271C198.212 205.159 198.347 204.983 198.391 204.779L198.804 202.785C198.981 201.929 198.914 198.199 197.97 197.865C194.536 196.648 188.899 195.974 184.715 197.164Z" fill="#121721"/>
<path d="M185.064 203.218C185.064 203.218 180.798 199.243 175.806 200.541" stroke="#29ABE2" stroke-width="2" stroke-miterlimit="10" stroke-linecap="round" stroke-linejoin="round"/>
<path d="M188.14 201.493C188.14 201.493 183.682 197.883 178.705 199.176" stroke="#29ABE2" stroke-width="2" stroke-miterlimit="10" stroke-linecap="round" stroke-linejoin="round"/>
<path d="M192.482 199.64C192.482 199.64 190.714 199.876 186.826 199.552C182.934 199.23 182.72 197.946 181.725 197.342C180.729 196.739 178.407 199.097 179.595 192.747C180.783 186.397 179.868 183.851 179.641 182.246C179.414 180.64 178.972 182.501 179.245 177.481C179.518 172.46 180.035 168.498 180.082 161.873C180.128 155.247 180.215 134.083 181.065 131.303C181.918 128.521 201.167 130.507 202.344 135.466C203.521 140.425 201.553 146.117 200.839 148.406C200.126 150.696 200.656 157.517 199.811 162.078C199.339 164.617 198.926 172.23 199.123 180.785C199.32 189.34 199.77 192.389 200.292 193.336C200.814 194.283 199.977 197.387 199.546 198.697C199.12 200.01 192.482 199.64 192.482 199.64Z" fill="#F7BC4B"/>
<path d="M231.843 135.404C231.461 133.443 231.059 134.755 216.749 132.025C205.674 129.912 190.834 123.874 188.248 130.04C185.662 136.205 216.384 138.954 223.466 139.489C230.551 140.024 232.225 137.365 231.843 135.404Z" fill="#F7BC4B"/>
<path d="M190.995 142.305C190.995 142.305 185.183 139.091 185.896 134.765C186.619 130.374 197.146 129.298 202.293 128.761C193.029 125.122 181.918 128.527 181.064 131.309C180.211 134.092 180.127 155.256 180.081 161.879C180.035 168.504 179.518 172.466 179.245 177.487C178.969 182.507 179.411 180.646 179.641 182.252C179.871 183.857 180.782 186.403 179.594 192.753C178.406 199.103 180.729 196.745 181.724 197.348C182.72 197.952 182.934 199.236 186.825 199.558C190.717 199.879 192.481 199.646 192.481 199.646C192.481 199.646 199.12 200.013 199.548 198.703C199.977 197.393 200.817 194.289 200.295 193.342C200.013 192.83 194.975 187.09 190.309 181.636L190.686 183.007L190.712 188.249C190.712 188.249 188.847 183.695 188.186 182.016C187.719 180.826 186.832 178.323 186.35 176.959C184.138 174.303 182.513 172.244 182.346 171.717C182.073 170.864 182.271 139.396 185.223 141.355C188.664 143.638 190.995 142.305 190.995 142.305Z" fill="#CE9436"/>
<path d="M229.869 83.9092C228.399 83.8947 225.522 82.9526 223.688 88.4328C221.854 93.913 224.897 107.404 227.809 106.59C230.721 105.776 230.664 98.4979 231.54 94.4229C232.417 90.3448 231.778 83.9288 229.869 83.9092Z" fill="#7A462F"/>
<path d="M229.868 83.9063C228.175 83.5806 227.469 84.996 226.31 87.0345C224.491 90.2423 225.394 97.9631 228.286 97.5313C231.178 97.0995 231.431 90.7514 232.221 88.3131C233.011 85.8748 232.187 84.3548 229.868 83.9063Z" fill="#A96443"/>
<path d="M239.18 100.399C239.18 100.399 237.915 96.7776 235.97 92.3115C234.024 87.8453 232.866 83.744 229.915 84.5591C226.964 85.3741 225.469 89.9827 225.036 93.5959C224.603 97.2091 226.11 100.843 228.663 104.533C230.711 107.492 232.756 116.546 235.617 120.575C239.189 125.609 242.301 128.684 245.825 126.204C249.348 123.724 247.53 116.838 245.111 112.105C242.692 107.371 239.18 100.399 239.18 100.399Z" fill="#A96443"/>
<path d="M227.445 97.6789C224.588 93.8596 226.107 88.5575 226.107 88.5575C226.107 88.5575 225.185 89.9645 224.753 93.5777C224.32 97.1909 225.827 100.825 228.379 104.515C230.428 107.474 232.757 116.543 235.614 120.572C235.614 120.572 243.994 119.497 241.494 118.638C239.114 117.821 237.688 118.452 237.08 117.315C235.893 115.105 231.994 105.714 231.994 105.714C231.994 105.714 229.708 100.709 227.445 97.6789Z" fill="#7A462F"/>
<path d="M244.259 119.089C244.259 119.089 242.216 118.193 236.807 119.607C231.399 121.02 233.888 122.664 223.902 126.987C218.787 129.201 221.987 133.835 228.819 132.984C235.651 132.131 241.216 130.81 244.791 127.362C248.366 123.911 248.722 121.75 244.259 119.089Z" fill="#A96443"/>
<path d="M234.587 123.186C236.083 121.968 238.538 120.102 239.235 119.309C239.777 118.694 239.168 118.887 236.802 119.505C231.394 120.918 233.889 122.664 223.904 126.987C218.786 129.201 231.927 125.349 234.587 123.186Z" fill="#7A462F"/>
<path d="M224.866 128.251C224.117 127.679 219.673 125.555 217.028 125.173C214.382 124.791 211.441 125.364 211.441 125.364L206.007 127.259C206.007 127.259 204.092 129.099 203.57 129.796C203.048 130.496 203.921 131.207 203.921 131.207C203.921 131.207 205.734 132.453 206.117 132.111C206.498 131.768 206.498 131.768 206.498 131.768C206.498 131.768 207.408 132.906 208.127 133.067C208.847 133.225 209.699 133.15 209.699 133.15C209.699 133.15 211.589 134.097 212.919 134.167C214.248 134.237 215.565 132.245 216.907 132.074C218.249 131.902 219.294 133.957 221.839 133.968C224.384 133.983 227.08 129.943 224.866 128.251Z" fill="#A96443"/>
<path d="M223.221 127.347C221.486 126.51 218.838 125.433 217.028 125.173C214.382 124.791 211.441 125.364 211.441 125.364L206.007 127.259C206.007 127.259 204.092 129.099 203.57 129.796C203.048 130.496 203.921 131.207 203.921 131.207C203.921 131.207 205.734 132.453 206.117 132.111C206.498 131.768 206.498 131.768 206.498 131.768C206.498 131.768 207.408 132.906 208.127 133.067C208.847 133.225 209.699 133.15 209.699 133.15L210.308 131.525L218.209 127.254C218.212 127.254 224.024 127.734 223.221 127.347Z" fill="#7A462F"/>
<path d="M117.572 172.548C117.572 172.548 119.222 177.963 120.361 179.254L121.756 176.542C121.753 176.542 120.183 173.698 117.572 172.548Z" fill="#992C29"/>
<path d="M118.256 174.864C118.256 174.864 117.21 179.259 117.557 180.85L119.857 180.231C119.854 180.231 119.835 177.415 118.256 174.864Z" fill="#992C29"/>
<path d="M60.9567 192.531C60.9567 192.531 58.7045 204.365 59.1052 207.223C59.5029 210.08 58.3399 213.625 57.0944 215.437C56.4035 216.557 58.4153 220.955 58.4153 220.955C58.4153 220.955 61.8268 222.146 65.2185 221.154C68.1844 220.286 67.5669 218.531 65.7684 217.592C63.9555 216.643 68.6771 209.218 68.6771 209.218C68.6771 209.218 72.6109 196.334 72.9267 194.374C73.2424 192.417 63.0774 186.155 60.9567 192.531Z" fill="#1D2538"/>
<path d="M114.452 175.31C111.501 175.778 96.6405 174.232 95.7027 168.378C95.0109 164.053 93.5228 159.209 93.3283 155.563C93.3283 155.563 91.8776 152.911 90.6442 149.713C89.4057 146.5 90.0484 146.01 91.8281 146.966C93.5932 147.913 96.8431 151.322 96.8431 151.322C96.8431 151.322 101.35 148.426 107.4 148.208C113.266 147.999 111.802 149.929 113.851 152.753L115.302 155.3C115.302 155.3 119.665 153.212 122.492 153.034C125.278 152.86 126.171 154.051 127.186 157.184C128.235 160.417 128.274 160.742 127.501 162.567C126.725 164.401 124.127 167.781 121.326 170.242C121.335 170.236 117.361 174.849 114.452 175.31Z" fill="#1D2538"/>
<path d="M114.453 175.311C111.502 175.778 108.256 178.662 107.322 172.809C106.63 168.484 107.211 161.428 107.211 161.428C107.211 161.428 101.36 148.421 107.41 148.203C113.276 147.994 113.595 149.676 115.117 152.284L116.084 154.902C116.084 154.902 119.675 153.204 122.502 153.029C125.288 152.855 126.181 154.046 127.196 157.179C128.245 160.412 128.284 160.737 127.511 162.562C126.735 164.396 124.137 167.776 121.336 170.237C121.336 170.237 117.361 174.85 114.453 175.311Z" fill="#273252"/>
<path d="M126.142 154.313C127.135 155.764 124.961 157.228 123.96 155.774C122.952 154.31 119.993 153.63 121.768 153.077C122.995 152.698 125.146 152.856 126.142 154.313Z" fill="#121721"/>
<path d="M104.139 150.289C104.139 150.289 103.695 146.037 103.793 142.873C103.889 139.853 105.491 140.429 106.969 142.957C108.511 145.59 110.601 150.611 110.967 151.61C111.337 152.609 105.592 153.81 104.139 150.289Z" fill="#273252"/>
<path d="M105.745 143.561C105.313 140.51 105.848 141.446 107.326 143.97C108.865 146.597 108.728 147.099 109.098 148.101C109.464 149.1 106.13 146.277 105.745 143.561Z" fill="#1D2538"/>
<path d="M107.42 211.599C107.063 210.424 104.95 210.28 104.878 209.986C103.661 205.004 103.526 199.998 103.384 198.826C103.092 196.417 104.653 191.842 104.061 186.653C103.489 181.652 94.9095 186.001 95.447 191.947C95.7575 195.381 97.5275 206.99 98.0384 210.144C98.1108 210.588 98.2771 211.013 98.5296 211.395L100.962 214.003C101.507 214.978 102.711 214.691 104.914 214.151C107.089 213.618 107.905 213.194 107.42 211.599Z" fill="#273252"/>
<path d="M122.526 218.466C122.401 215.428 118.679 215.301 118.679 215.301C118.482 214.892 117.792 214.101 117.739 213.694C117.327 210.606 117.872 203.545 117.806 202.179C117.668 199.335 118.397 190.787 118.211 184.236C118.025 177.655 109.756 182.826 109.375 189.324C109.104 193.949 112.073 212.539 112.348 214.327C112.348 214.327 116.262 220.583 118.331 220.482C120.376 220.383 122.604 220.339 122.526 218.466Z" fill="#273252"/>
<path d="M95.5938 170.514C94.2274 173.201 95.0801 174.47 91.6527 175.515C83.8572 177.893 77.53 178.096 68.7373 180.131C63.0008 181.458 58.8501 193.4 61.1134 196.888C63.3797 200.377 73.1904 200.282 79.0923 204.577C85.2825 209.08 92.5839 204.367 96.6528 202.742C100.722 201.118 111.319 194.439 113.97 191.988C114.927 191.104 115.43 188.555 116.16 185.889C117.217 182.027 119.015 177.617 116.691 173.919C115.119 171.41 96.96 167.831 95.5938 170.514Z" fill="#1D2538"/>
<path d="M110.402 175.672L106.294 182.542C106.294 182.542 101.701 188.829 102.075 188.834L105.986 196.471C105.986 196.471 111.322 194.436 113.97 191.985C114.927 191.101 117.005 189.054 117.736 186.385C118.793 182.523 118.411 179.373 117.783 173.826L110.402 175.672Z" fill="#273252"/>
<path d="M95.6571 169.292C95.6571 169.292 94.9998 170.057 95.0214 171.697C95.0214 171.697 100.096 173.731 109.861 175.64C114.817 176.611 118.665 176.056 118.665 176.056L118.431 173.049C118.431 173.052 106.721 174.472 95.6571 169.292Z" fill="#992C29"/>
<path d="M70.0574 184.183C69.2429 182.928 67.9349 183.766 64.8804 177.783C61.8259 171.8 61.1367 162.192 65.5483 159.234C65.5483 159.234 60.9076 157.78 56.8862 166.64C52.7734 175.699 62.304 186.558 63.1848 187.407C67.0775 191.179 72.373 187.759 70.0574 184.183Z" fill="#273252"/>
<path d="M70.5237 184.537C69.7038 183.272 66.7895 187.997 62.2772 178.871C59.9032 174.071 58.798 162.293 65.563 159.235C65.563 159.235 58.3286 157.782 55.9318 167.299C52.8313 179.601 62.2916 186.79 63.1778 187.649C67.1045 191.458 72.8617 188.143 70.5237 184.537Z" fill="#1D2538"/>
<path d="M73.5738 196.127C73.5738 196.127 76.7596 211.734 78.367 214.143C79.966 216.539 81.1086 220.095 80.623 222.094C80.137 224.102 83.8151 226.715 83.8151 226.715C83.8151 226.715 88.7638 226.413 89.5918 226.16C90.4167 225.907 92.1467 222.742 89.976 222.502C87.7813 222.261 86.9813 212.766 86.9813 212.766C86.9813 212.766 86.992 195.89 86.4859 194.012C85.9795 192.138 72.9692 189.632 73.5738 196.127Z" fill="#1D2538"/>
<path d="M114.544 155.271C114.871 155.165 114.888 154.315 114.583 153.372C114.277 152.429 113.765 151.75 113.438 151.856C113.111 151.962 113.093 152.812 113.399 153.755C113.704 154.698 114.217 155.377 114.544 155.271Z" fill="#121721"/>
<path d="M124.037 166.335C124.037 166.335 119.721 166.108 119.562 169.541C119.551 169.804 119.675 170.059 119.889 170.214L122.832 172.334C122.832 172.334 128.599 179.424 129.528 180.201C130.458 180.978 134.139 183.19 136.831 179.615C139.243 176.414 138.153 170.595 135.646 169.855L124.037 166.335Z" fill="#F5894E"/>
<path d="M129.26 177.599C128.52 175.451 130.163 171.441 133.757 171.211C137.892 170.943 137.842 177.245 136.147 179.348C134.064 181.937 130.453 181.058 129.26 177.599Z" fill="#FFFCF3"/>
<path d="M129.528 175.594L131.419 177.269C131.419 177.269 131.16 176.95 131.353 175.447C131.48 174.46 132.355 173.425 134.287 172.694L132.443 172.051C132.443 172.051 130.13 172.232 129.528 175.594Z" fill="#F5894E"/>
<path d="M128.866 178.953C128.866 178.953 135.095 181.865 135.74 175.759C135.852 174.705 134.445 172.702 132.199 173.15C129.687 173.65 132.05 172.172 132.611 172.201C133.173 172.231 137.578 173.038 136.277 177.04C135.023 180.894 131.798 180.658 130.143 179.948C129.405 179.631 128.866 178.953 128.866 178.953Z" fill="#F5894E"/>
<path d="M125.274 166.644C125.274 166.644 121.137 165.791 121.241 171.28" stroke="#F7BC4B" stroke-miterlimit="10" stroke-linecap="round" stroke-linejoin="round"/>
<path d="M125.132 166.999C125.132 166.999 127.969 163.754 125.863 164.614C123.756 165.474 125.132 166.999 125.132 166.999Z" stroke="#F7BC4B" stroke-miterlimit="10"/>
<path d="M125.273 166.643C125.273 166.643 128.04 164.728 129.041 166.479C130.042 168.23 126.897 168.065 126.3 167.91C125.7 167.756 125.273 166.643 125.273 166.643Z" stroke="#F7BC4B" stroke-miterlimit="10"/>
<path d="M125.274 166.644C125.274 166.644 124.222 166.499 122.882 167.761C121.994 168.598 121.108 170.971 121.598 171.452" stroke="#F7BC4B" stroke-miterlimit="10" stroke-linecap="round" stroke-linejoin="round"/>
</svg>
