<svg width="327" height="327" viewBox="0 0 327 327" fill="none" xmlns="http://www.w3.org/2000/svg">
<mask id="mask0_805_5488" style="mask-type:alpha" maskUnits="userSpaceOnUse" x="0" y="0" width="327" height="327">
<rect width="327" height="327" rx="12" fill="#C94039"/>
</mask>
<g mask="url(#mask0_805_5488)">
<path d="M115.888 241.401C127.583 214.41 95.2672 189.823 64.4724 179.214C20.7594 164.163 15.584 156.135 -2.33322 146.816C-24.3392 135.365 -43.0035 131.154 -56.3429 141.192C-69.6687 151.231 -72.5621 168.618 -64.6698 176.198C-46.0463 194.115 -37.1624 198.109 -13.4584 215.048C29.9557 246.06 53.1434 252.798 67.1756 262.184C90.6894 277.928 101.896 273.69 115.888 241.401Z" fill="#A86243"/>
<path d="M125.03 245.544C136.725 218.553 -37.1758 198.109 -13.4719 215.035C29.9423 246.047 53.13 252.785 67.1622 262.171C90.6895 277.928 111.052 277.833 125.03 245.544Z" fill="#D77E5B"/>
<path d="M-30.2476 107.681C-39.702 121.333 -54.7665 144.806 -42.0112 157.575C-32.8149 166.771 -36.7678 175.995 -23.1703 169.393C-7.88845 161.963 1.56597 127.229 1.97349 126.4C9.15937 111.852 -20.6845 93.8937 -30.2476 107.681Z" fill="#7A4630"/>
<path d="M24.7807 30.5924C24.7807 30.5924 -37.0261 76.9678 -53.2589 95.1295C-69.3151 113.101 -83.2929 135.025 -73.9879 159.721C-68.337 174.718 -61.8439 184.865 -41.7397 178.345C-18.6606 170.86 -0.892906 138.218 8.41208 117.434C20.8957 89.6009 36.9247 75.5551 46.3927 65.8426C58.5367 53.3862 57.5994 14.0472 24.7807 30.5924Z" fill="#A86243"/>
<path d="M111.935 20.9888L113.036 39.7074L100.932 43.0083L91.3828 26.9521L111.935 20.9888Z" fill="#273150"/>
<path d="M13.5469 54.1607L27.7013 31.5571C27.7013 31.5571 57.5043 20.4047 74.688 19.1414C91.8716 17.8781 101.625 25.9605 101.625 25.9605L103.078 59.0916C103.241 62.8272 100.769 66.2232 97.3867 66.9296L92.1026 68.0298L83.9658 67.6359L83.6534 72.0779C83.504 74.3056 82.0777 76.2481 80.108 76.9273L69.4446 80.5814L53.5786 84.0453C53.5786 84.0453 41.6112 81.0161 42.8745 73.0287C44.1378 65.0414 20.7871 80.3097 13.5469 54.1607Z" fill="#A86243"/>
<path d="M-4.39746 52.9244L7.27107 72.7434L36.6124 63.2754C39.1526 62.4603 40.5381 58.9693 39.5465 55.8721C38.419 52.3403 35.3355 50.5337 32.4829 51.7155L12.4601 57.312L8.57516 48.4961L-4.39746 52.9244Z" fill="#273150"/>
<path d="M-25.8872 -17.8478C-55.6631 -6.6818 -183.433 31.7742 -183.433 31.7742C-184.262 37.9821 -182.605 64.0225 -178.054 66.9158C-178.054 66.9158 -159.444 91.72 -46.983 67.7444C84.3191 39.748 218.963 -15.5249 218.963 -15.5249L216.817 -51.3457C216.83 -51.3321 3.87515 -29.0138 -25.8872 -17.8478Z" fill="#B44C29"/>
<path d="M-34.5812 -38.1013C-64.6288 -27.696 -166.902 4.70164 -181.79 27.4411C-193.418 45.2089 -153.671 61.5503 -9.77696 28.066C134.117 -5.41838 191.183 -35.4116 212.266 -45.3279C233.348 -55.2577 184.351 -68.0674 93.5966 -72.8217C72.8133 -73.922 29.9288 -60.4332 -34.5812 -38.1013Z" fill="#F08650"/>
<path d="M45.3737 -29.4619C48.9191 -24.2728 40.6329 -16.0274 22.2675 -9.6158C-4.09892 -0.419487 -39.3627 1.48226 -43.6145 -9.16752C-47.6218 -19.2196 -19.2722 -30.9969 7.81416 -34.4608C27.1576 -36.9466 41.9234 -34.5015 45.3737 -29.4619Z" fill="#B44C29"/>
<path d="M252.121 206.164C257.405 187.649 285.945 198.761 300.194 207.713C322.866 221.935 320.489 232.503 335.852 240.518C363.604 254.998 440.394 308.03 419.434 332.169C398.487 356.307 363.319 334.845 335.879 317.742C316.237 305.503 281.381 279.286 261.765 260.092C253.601 252.105 246.837 224.679 252.121 206.164Z" fill="#A86243"/>
<path d="M414.639 367.582C424.745 351.023 435.123 336.108 421.403 319.522C399.914 293.563 383.056 307.772 368.616 325.553C354.421 343.049 354.489 348.89 341.53 366.495C328.476 384.222 303.359 409.692 303.359 409.692C303.359 409.692 282.1 428.709 292.234 442.986C302.925 458.064 310.477 458.227 322.309 451.775C339.574 442.375 407.032 380.052 414.639 367.582Z" fill="#A86243"/>
<path d="M119.72 195.95C119.72 195.95 110.551 198.082 107.78 226.962C106.543 239.826 95.9479 299.283 96.7086 340.374C97.6052 388.542 93.4893 453.664 93.4893 453.664C93.4893 453.664 127.069 443.761 176.609 439.958C226.163 436.154 286.245 456.747 286.245 456.747C305.425 459.912 285.158 401.855 280.757 379.74C275.609 353.863 282.876 307.053 278.611 272.156C272.186 219.681 263.207 209.14 262.134 204.834C259.784 195.379 229.396 195.094 208.912 192.16C178.946 187.895 141.753 192.771 119.72 195.95Z" fill="#29ACE4"/>
<path d="M95.0513 266.002C95.0513 266.002 188.087 240.315 260.653 261.506L264.375 280.768C264.375 280.768 179.407 249.946 92.5654 284.626L95.0513 266.002Z" fill="#3D4C6D"/>
<path d="M91.9541 289.122C91.9541 289.122 188.087 262.796 260.653 283.987L264.375 303.249C264.375 303.249 180.019 274.356 93.1902 309.022L91.9541 289.122Z" fill="#3D4C6D"/>
<path opacity="0.5" d="M119.719 195.95C119.719 195.95 110.55 198.083 107.779 226.962C106.543 239.826 95.9473 299.283 96.708 340.374C142.961 269.412 254.173 438.382 292.289 441.697C302.83 442.607 280.199 402.167 279.058 362.937C277.727 317.091 284.641 276.91 284.641 276.91C278.216 224.436 263.22 209.167 262.146 204.848C259.796 195.393 229.409 195.108 208.925 192.174C178.945 187.895 141.752 192.771 119.719 195.95Z" fill="#29ACE4"/>
<path d="M229.029 194.415C230.428 194.334 229.029 197.635 229.029 197.635C219.207 206.546 196.196 220.415 175.725 220.415C155.526 220.415 138.519 219.138 134.131 206.179C132.243 200.596 141.168 193.247 141.168 193.247C141.168 193.247 157.211 190.503 175.698 189.932C193.738 189.362 227.629 194.497 229.029 194.415Z" fill="#7A4630"/>
<path d="M175.005 202.267C158.773 201.75 159.275 189.212 159.398 181.347L161 155.674C161.096 149.425 167.629 144.25 177.736 144.548L195.191 144.82C204.999 145.119 209.807 150.512 210.704 156.57C210.704 156.57 213.584 183.629 212.579 192.065C211.546 200.623 191.252 202.769 175.005 202.267Z" fill="#7A4630"/>
<path d="M289.953 254.863C289.953 254.863 294.476 311.794 286.666 304.54C258.194 278.078 262.581 228.633 264.768 215.416C266.955 202.199 273.19 197.132 281.735 202.878C294.884 211.68 289.953 254.863 289.953 254.863Z" fill="#A86243"/>
<path d="M109.681 188.302C117.206 188.533 127.163 190.802 125.384 194.727C120.005 206.613 111.542 236.145 107.113 260.8C101.924 289.679 97.2651 315.964 95.0238 335.864C93.9914 345.047 85.9633 352.314 78.8182 347.18C76.7942 345.726 75.2728 343.689 74.7973 340.85C72.9363 329.48 66.4704 279.953 93.1356 198.775C96.4365 188.751 101.761 188.058 109.681 188.302Z" fill="#634874"/>
<path d="M275.581 194.741C270.623 190.883 249.935 186.658 242.26 189.022C234.585 191.386 236.826 225.21 246.389 263.435C255.64 300.383 269.944 348.28 277.578 356.729C279.086 358.386 281.205 359.242 283.392 359.093C287.983 358.767 295.291 357.164 294.911 350.222C294.368 340.157 286.312 295.71 280.077 247.392C274.78 206.206 280.39 198.476 275.581 194.741Z" fill="#634874"/>
<path d="M240.384 107.328C238.591 155.388 228.566 170.466 196.59 171.009C172.41 171.417 152.795 142.497 152.795 107.328C152.795 72.1591 172.41 43.6465 196.59 43.6465C220.769 43.6465 241.987 64.0631 240.384 107.328Z" fill="#273150"/>
<path d="M226.895 96.4335C226.664 64.9052 223.227 46.8658 188.357 44.2984C170.155 42.9672 152.238 44.6245 141.683 50.0852C132.147 55.0297 126.388 62.7182 123.06 83.4065C120.547 98.9873 117.015 125.938 122.231 152.032C125.573 168.754 147.022 175.084 165.93 176.388C214.751 179.757 222.249 166.785 225.292 143.773C229.394 112.626 226.977 109.379 226.895 96.4335Z" fill="#7A4630"/>
<path d="M220.579 115.519C220.28 88.1882 209.046 76.3159 177.654 73.9931C161.271 72.7841 128.996 81.2197 127.488 99.3135C125.872 118.901 123.522 135.963 126.999 152.916C129.988 167.491 145.623 172.599 162.657 173.794C206.614 176.864 216.626 161.976 219.22 142.035C221.434 125.055 220.701 126.739 220.579 115.519Z" fill="#A96344"/>
<path d="M134.185 49.6236C131.264 51.3895 130.137 53.1418 128.072 64.4164C127.637 66.7936 132.011 57.6109 135.951 54.0247C139.89 50.4386 138.98 55.2473 159.6 54.7447C180.221 54.2421 209.453 50.6967 209.453 50.6967L212.319 79.1957L222.969 103.946L229.394 90.2802C230.359 66.0193 225.985 51.8921 210.051 46.54C180.886 36.7324 144.902 43.1304 134.185 49.6236Z" fill="#273150"/>
<path d="M185.899 74.5498C185.532 79.3585 183.264 83.0669 180.818 82.8767C178.373 82.6865 176.662 78.6793 176.974 73.8706C177.287 69.0075 179.569 65.1633 182.068 65.3534C184.554 65.5436 186.266 69.6867 185.899 74.5498Z" fill="#102342"/>
<path d="M175.941 64.9733L188.235 61.0747" stroke="#273150" stroke-miterlimit="10" stroke-linecap="round" stroke-linejoin="round"/>
<path d="M151.41 75.7592C151.247 80.2963 149.263 83.7873 146.981 83.6107C144.685 83.4342 142.92 79.6578 143.028 75.1208C143.137 70.543 145.12 66.9297 147.457 67.1063C149.807 67.2829 151.573 71.1815 151.41 75.7592Z" fill="#102342"/>
<path d="M150.214 64.9732L139.17 61.8218" stroke="#273150" stroke-miterlimit="10" stroke-linecap="round" stroke-linejoin="round"/>
<path d="M242.503 117.068C239.297 130.068 230.087 139.196 221.842 137.865C221.842 137.865 222.1 108.388 221.978 102.764C221.896 99.2321 223.934 88.3379 232.723 89.7778C241.484 91.2041 245.817 103.62 242.503 117.068Z" fill="#7A4630"/>
<path d="M237.857 126.345C237.395 129.483 234.42 131.779 231.215 131.521C228.009 131.263 225.727 128.532 226.148 125.394C226.555 122.229 229.544 119.866 232.804 120.124C236.05 120.395 238.319 123.194 237.857 126.345Z" fill="#E2D6C9"/>
</g>
</svg>
