<svg width="526" height="400" viewBox="0 0 526 400" fill="none" xmlns="http://www.w3.org/2000/svg">
<path d="M442.085 129.351C442.085 129.351 302.54 127.615 273.461 179.651C244.382 231.686 98.9811 256.176 45.4121 231.686C-8.15685 207.202 -18.8687 168.939 42.3509 135.265C119.123 93.0416 110.438 149.212 117.348 139.855C155.964 87.543 227.422 24.3262 278.055 37.311C337.747 52.6171 293.361 109.247 293.361 109.247C293.361 109.247 383.926 81.9042 442.085 129.351Z" fill="#BB83C3"/>
<path d="M175.508 261.535C175.508 261.535 302.159 244.57 340.422 187.94C378.685 131.31 526.001 170.723 526.001 170.723C526.001 170.723 459.041 178.761 429.962 215.491C429.962 215.491 463.253 200.949 495.393 208.604C495.393 208.604 472.437 223.528 446.032 251.074C419.69 278.563 226.016 295.208 175.508 261.535Z" fill="#BB83C3"/>
<path d="M285.116 384.68C285.116 384.68 294.479 376.923 272.513 377.832C250.809 378.731 227.616 381.764 237.22 387.224C246.829 392.683 276.111 389.342 285.116 384.68Z" fill="#866694"/>
<path d="M331.74 376.977C331.74 376.977 345.63 365.467 313.044 366.816C280.846 368.151 246.437 372.648 260.689 380.754C274.941 388.854 318.388 383.897 331.74 376.977Z" fill="#866694"/>
<path d="M322.987 393.221C322.987 393.221 329.352 387.949 314.423 388.563C299.673 389.173 283.907 391.238 290.436 394.947C296.965 398.661 316.87 396.393 322.987 393.221Z" fill="#866694"/>
<path d="M500.746 371.352C506.104 368.291 463.247 369.437 441.78 367.778C440.3 367.662 438.646 367.918 436.876 367.957C426.933 366.419 373.176 364.485 352.284 365.611C331.469 366.733 308.919 373.552 329.39 378.993C344.74 383.069 354.281 385.212 389.018 383.215C396.118 382.804 415.356 379.442 430.715 376.139C436.146 376.11 453.609 377.319 459.876 376.957C473.838 376.149 496.181 373.958 500.746 371.352Z" fill="#866694"/>
<path d="M488.637 350.769C488.637 350.769 494.082 334.984 503.88 335.526C513.678 336.072 508.232 345.87 508.232 345.87C508.232 345.87 512.585 339.337 518.03 344.782C523.476 350.227 518.03 354.033 518.03 354.033C518.03 354.033 522.383 351.311 522.929 356.21C523.476 361.109 501.699 368.184 493.536 366.007C485.372 363.831 488.637 350.769 488.637 350.769Z" fill="#288453"/>
<path d="M244 335.768C181.421 337.04 222.953 347.631 222.953 347.631C222.953 347.631 -2.21313 344.492 62.2466 357.196C62.2466 357.196 22.562 364.194 11.7389 370.969C4.70241 375.375 70.6178 391.445 107.396 390.101C159.819 388.186 166.575 382.194 166.323 377.092C166.009 370.79 129.187 370.21 140.305 367.144C156.695 362.622 168.267 369.069 231.373 361.786C271.169 357.196 301.394 358.725 301.394 358.725C301.394 358.725 270.076 368.324 300.688 365.858C360.036 361.075 372.504 367.038 379.835 357.192C390.706 342.596 321.493 334.191 244 335.768Z" fill="#866694"/>
<path d="M438.584 90.5176L451.448 27.2717C451.525 26.8993 455.902 26.1836 455.902 26.1836L461.521 27.8714L459.437 102.235C459.408 103.357 458.117 103.957 457.096 103.319L439.396 92.2683C438.782 91.8862 438.453 91.1753 438.584 90.5176Z" fill="#1D2538"/>
<path d="M444.875 91.804L455.413 26.5124C455.563 25.8015 463.939 28.0841 463.915 28.8337L461.675 100.098C461.608 102.245 459.146 103.377 457.217 102.172L446.355 95.0925C445.199 94.3719 444.599 93.0372 444.875 91.804Z" fill="#1D2538"/>
<path d="M444.295 62.4587C444.295 62.4587 443.343 61.2207 446.984 61.0031C450.64 60.7806 462.614 71.0862 462.614 71.0862L461.768 101.819L438.361 91.6201L444.295 62.4587Z" fill="#C73F37"/>
<path d="M439.42 86.3828C439.42 86.3828 449.745 35.9766 450.233 33.4571C450.809 30.4732 453.464 30.3088 453.149 34.2115C452.942 36.7988 443.492 87.5919 443.492 87.5919L439.42 86.3828Z" fill="#F4E8D8"/>
<path d="M445.843 54.7405C445.843 54.7405 446.646 53.9135 448.275 54.0586C454.949 54.6534 462.784 65.0703 462.784 65.0703L462.58 71.2121C462.58 71.2121 451.941 60.2681 449.373 59.6104C445.722 58.677 444.542 61.3852 444.542 61.3852L445.843 54.7405Z" fill="#C73F37"/>
<path d="M461.236 78.6305C461.236 78.6305 452.739 68.5715 445.272 69.471C442.129 69.8482 443.115 70.8928 443.115 70.8928C443.115 70.8928 442.492 71.3377 445.089 71.2748C448.948 71.1829 461.236 78.6305 461.236 78.6305Z" fill="#1D2538"/>
<path d="M462.179 85.1882C458.522 79.0851 446.403 75.3613 446.403 75.3613C446.403 75.3613 460.056 83.3795 462.048 86.9292L462.179 85.1882Z" fill="#1D2538"/>
<path d="M440.692 82.7122C440.692 82.7122 442.192 80.4441 443.454 80.9228C444.716 81.4016 453.039 86.5133 454.896 89.0426C456.729 91.5428 443.725 83.1813 443.057 82.9008C442.385 82.6251 440.692 82.7122 440.692 82.7122Z" fill="#1D2538"/>
<path d="M461.898 94.9473C461.898 94.9473 460.728 93.071 458.32 92.3697C455.911 91.6685 461.893 96.785 461.893 96.785L461.898 94.9473Z" fill="#1D2538"/>
<path d="M377.732 368.479C438.961 367.251 481.615 370.597 493.096 366.008C493.096 366.008 503.807 340.357 490.798 321.99C463.731 293.922 444.88 282.963 402.41 287.553C359.94 292.142 324.225 318.673 312.745 343.926C301.264 369.18 314.021 369.625 318.04 370.201C322.059 370.776 358.663 368.866 377.732 368.479Z" fill="#634874"/>
<path d="M435.741 292.365C414.694 284.995 401.714 284.037 378.201 296.093C354.688 308.154 349.311 311.491 345.896 327.765C342.482 344.043 365.245 342.104 381.553 338.249C397.869 334.4 459.843 300.804 435.741 292.365Z" fill="#F4E8D8"/>
<path d="M474.53 327.687C452.627 336.512 436.895 339.042 413.682 326.033C388.97 312.187 383.796 308.284 395.765 293.123C405.074 281.328 438.221 289.941 451.022 294.231C462.725 298.153 492.52 320.437 474.53 327.687Z" fill="#F4E8D8"/>
<path d="M400.495 77.4896L488.395 128.466C489.343 129.018 496.631 124.839 497.298 123.887C497.966 122.934 495.108 116.043 493.584 115.138L408.731 64.292C407.488 63.552 401.356 65.1479 401.356 65.1479L400.495 77.4896Z" fill="#F6874E"/>
<path d="M441.824 89.5399L446.989 98.7235L406.797 74.6545C405.665 73.9533 404.892 71.4965 404.892 71.4965L403.17 65.6836L441.824 89.5399Z" fill="#F4E8D8"/>
<path d="M497.303 123.881C497.303 123.881 496.674 124.592 495.262 125.443C492.897 126.865 489.812 129.269 488.057 128.345C486.301 127.421 401.902 78.5095 400.5 77.4891C399.436 76.7154 398.972 69.4516 398.972 68.5618C398.972 67.6671 401.366 65.1523 401.366 65.1523C401.366 65.1523 402.163 72.4548 403.566 74.0507C404.968 75.6466 489.977 124.94 489.977 124.94C491.118 125.318 495.006 124.491 497.303 123.881Z" fill="#C73F37"/>
<path d="M401.419 292.563L435.465 100.015C435.542 99.5899 435.692 99.1788 435.914 98.8064C437.085 96.8382 438.859 96.5238 441.447 98.0085C441.447 98.0085 455.728 106.346 457.004 107.115C458.281 107.879 459.8 109.373 459.621 111.453L443.657 297.621C443.526 299.159 442.428 300.436 440.929 300.804L424.825 304.745C424.124 304.919 423.384 304.871 422.707 304.619L405.515 298.163C405.109 298.008 404.731 297.786 404.403 297.496L402.584 295.895C401.641 295.058 401.196 293.796 401.419 292.563Z" fill="#F6BE4A"/>
<path d="M435.663 99.2222C436.465 97.578 438.206 96.6059 438.042 97.6215L405.162 296.258C405.041 296.978 404.175 297.292 403.624 296.804L401.452 294.889C401.21 294.676 401.094 294.347 401.152 294.028L435.542 99.5317C435.566 99.4254 435.604 99.319 435.663 99.2222Z" fill="#F6874E"/>
<path d="M424.027 304.58L450.239 103.318" stroke="#F4E8D8" stroke-width="2" stroke-miterlimit="10"/>
<path d="M431.088 153.125L448.198 193.68L449.392 182.291L432.901 139.298L431.088 153.125Z" fill="#F4E8D8"/>
<path d="M433.699 133.307L450.809 178.185L454.456 149.899L437.965 106.907L433.699 133.307Z" fill="#F4E8D8"/>
<path d="M483.148 320.08C483.148 320.08 485.445 328.882 466.695 335.004C466.69 334.999 492.326 334.617 483.148 320.08Z" fill="#F4E8D8"/>
<path d="M450.62 217.406L445.649 215.873L441.824 222.764L444.88 229.269L434.932 241.127L431.871 245.242" stroke="#F4E8D8" stroke-width="2" stroke-miterlimit="10"/>
<path d="M348.396 331.135C348.396 331.135 358.595 342.799 377.16 340.227C385.188 339.554 409.204 331.71 409.204 331.71C409.204 331.71 365.578 339.859 348.396 331.135Z" fill="#634874"/>
<path d="M469.752 113.454L475.11 111.162L477.789 118.431L469.752 113.454Z" fill="#C73F37"/>
<path d="M459.069 0.769699C451.419 -0.976116 445.025 5.156 444.885 14.0495C444.754 22.4933 450.364 30.1777 457.338 31.585C464.229 32.9778 470.361 27.8032 471.145 19.6835C471.967 11.1382 466.618 2.49133 459.069 0.769699ZM457.289 23.325C454.649 22.4691 452.4 18.7743 452.274 14.9974C452.144 11.1334 454.281 8.69599 457.038 9.63902C459.77 10.5724 461.985 14.4557 462 18.2327C462.014 21.9274 459.915 24.1762 457.289 23.325Z" fill="#1D2538"/>
<path d="M460.311 6.22947C455.969 5.15586 452.327 8.69102 452.211 13.972C452.187 15.0069 452.308 16.0322 452.54 17.0139C452.39 16.3562 452.293 15.6791 452.274 14.9972C452.143 11.1332 454.281 8.69586 457.037 9.63889C459.77 10.5722 461.985 14.4556 461.999 18.2326C462.014 21.9273 459.91 24.1761 457.289 23.3249C455.654 22.793 454.17 21.1729 453.246 19.1224C454.508 22.0047 456.805 24.2341 459.46 24.8483C463.537 25.7865 467.087 22.5995 467.43 17.6039C467.793 12.4486 464.62 7.2934 460.311 6.22947Z" fill="#F6BE4A"/>
<path d="M452.661 17.478C452.685 17.5651 452.705 17.6521 452.729 17.7392C452.705 17.6521 452.685 17.5651 452.661 17.478Z" fill="#F6BE4A"/>
<path d="M452.99 18.4888C453.039 18.6242 453.097 18.7548 453.15 18.8853C453.097 18.7548 453.039 18.6242 452.99 18.4888Z" fill="#F6BE4A"/>
<path d="M449.687 23.2429C449.469 23.2429 449.251 23.1462 449.111 22.9576C444.314 16.6998 447.631 8.12543 447.776 7.76273C447.921 7.39035 448.342 7.20657 448.719 7.35649C449.092 7.50157 449.276 7.92715 449.126 8.29953C449.092 8.38174 445.972 16.4773 450.267 22.0774C450.509 22.3966 450.451 22.8512 450.132 23.093C449.996 23.1946 449.841 23.2429 449.687 23.2429Z" fill="#F4E8D8"/>
<path d="M454.809 27.2811C454.659 27.2811 454.509 27.2375 454.383 27.1408C453.392 26.4154 452.574 25.603 451.96 24.718C451.733 24.3891 451.81 23.9394 452.139 23.7072C452.468 23.4799 452.918 23.5573 453.15 23.8862C453.672 24.6358 454.378 25.337 455.239 25.9657C455.563 26.2026 455.636 26.6572 455.399 26.9812C455.254 27.1795 455.036 27.2811 454.809 27.2811Z" fill="#F4E8D8"/>
<path d="M491.05 373.006C495.001 370.815 480.653 351.108 470.42 346.282C460.187 341.455 466.652 364.973 474.274 370.37C481.896 375.772 487.099 375.201 491.05 373.006Z" fill="#33A86D"/>
<path d="M483.09 374.369C483.09 374.369 463.272 364.736 452.889 365.089C442.51 365.442 455.239 373.581 455.239 373.581C455.239 373.581 444.285 371.328 441.529 377.082C438.772 382.837 483.09 374.369 483.09 374.369Z" fill="#33A86D"/>
<path d="M502.435 370.162C503.431 368.029 502.671 361.742 493.57 362.782C484.469 363.822 482.287 372.183 485.47 374.219C488.652 376.251 501.438 372.295 502.435 370.162Z" fill="#33A86D"/>
<path d="M422.881 185.106L422.223 192.07C422.112 192.51 422.847 192.858 423.572 192.708L429.158 191.557C429.719 191.441 429.99 191.073 429.743 190.759L424.815 184.946C424.395 184.414 423.031 184.525 422.881 185.106Z" fill="#F6874E"/>
<path d="M448.516 242.215L443.733 246.998L447.559 251.969L448.516 242.215Z" fill="#F6874E"/>
<path d="M411.4 258.091L415.612 263.832L410.061 266.893L411.4 258.091Z" fill="#F6874E"/>
<path d="M468.663 397.195C468.663 397.195 465.331 395.039 459.011 395.861C452.767 396.673 450.451 398.066 454.934 399.338C457.811 400.15 466.453 400.213 468.663 397.195Z" fill="#33A86D"/>
<path d="M444.56 384.569C444.56 384.569 441.228 382.412 434.907 383.234C428.664 384.046 426.347 385.439 430.83 386.711C433.708 387.523 442.345 387.586 444.56 384.569Z" fill="#288453"/>
<path d="M458.909 391.455C458.909 391.455 455.576 389.298 449.256 390.12C443.012 390.933 440.696 392.326 445.179 393.598C448.056 394.41 456.694 394.478 458.909 391.455Z" fill="#33A86D"/>
<path d="M445.131 394.328C445.131 394.328 441.799 392.171 435.478 392.993C429.235 393.805 426.919 395.198 431.402 396.47C434.279 397.283 442.921 397.345 445.131 394.328Z" fill="#33A86D"/>
<path d="M397.448 390.202C397.448 390.202 393.908 387.6 386.867 388.084C379.912 388.563 377.262 389.955 382.132 391.653C385.256 392.746 394.803 393.394 397.448 390.202Z" fill="#288453"/>
<path d="M423.66 391.779C423.66 391.779 420.12 389.177 413.079 389.661C406.124 390.139 403.474 391.532 408.344 393.23C411.473 394.322 421.015 394.971 423.66 391.779Z" fill="#288453"/>
<path d="M408.91 386.092C408.91 386.092 406.134 384.051 400.621 384.433C395.171 384.811 393.096 385.899 396.911 387.229C399.359 388.085 406.835 388.592 408.91 386.092Z" fill="#288453"/>
<path d="M409.479 392.34C409.479 392.34 405.939 389.738 398.898 390.222C391.944 390.701 389.294 392.094 394.163 393.791C397.292 394.884 406.839 395.532 409.479 392.34Z" fill="#288453"/>
<path d="M443.352 264.339C443.352 264.339 442.588 258.217 439.783 260.001C436.978 261.786 436.978 263.57 438.255 265.867C439.527 268.169 442.332 266.636 443.352 264.339Z" fill="#288453"/>
<path d="M440.291 255.156C440.291 255.156 439.527 249.033 436.722 250.818C433.917 252.602 433.917 254.387 435.194 256.684C436.47 258.981 439.27 257.453 440.291 255.156Z" fill="#33A86D"/>
<path d="M441.823 247.123C441.823 247.123 441.059 241.001 438.254 242.785C435.449 244.57 435.449 246.354 436.726 248.651C437.993 250.948 440.803 249.42 441.823 247.123Z" fill="#33A86D"/>
<path d="M451.003 210.77C451.003 210.77 450.239 204.648 447.434 206.432C444.629 208.217 444.629 210.001 445.905 212.299C447.177 214.601 449.982 213.068 451.003 210.77Z" fill="#33A86D"/>
<path d="M454.063 203.884C454.063 203.884 453.299 197.761 450.494 199.546C447.689 201.33 447.689 203.115 448.966 205.412C450.243 207.709 453.043 206.181 454.063 203.884Z" fill="#288453"/>
<path d="M445.136 273.015C445.136 273.015 444.508 266.893 442.216 268.677C439.918 270.462 439.918 272.246 440.963 274.543C442.008 276.84 444.305 275.312 445.136 273.015Z" fill="#288453"/>
<path d="M441.568 271.738C441.568 271.738 440.939 265.616 438.647 267.4C436.35 269.185 436.35 270.969 437.395 273.266C438.434 275.564 440.731 274.035 441.568 271.738Z" fill="#288453"/>
<path d="M446.974 261.67C446.974 261.67 446.466 256.708 444.604 258.154C442.742 259.6 442.742 261.046 443.588 262.908C444.435 264.77 446.297 263.532 446.974 261.67Z" fill="#288453"/>
<path d="M439.527 282.039C439.527 282.039 439.102 277.894 437.55 279.103C435.997 280.312 435.997 281.521 436.703 283.074C437.409 284.626 438.962 283.591 439.527 282.039Z" fill="#288453"/>
<path d="M449.093 199.294C449.093 199.294 448.328 193.172 445.524 194.956C442.719 196.741 442.719 198.525 443.995 200.823C445.267 203.12 448.072 201.591 449.093 199.294Z" fill="#288453"/>
<path d="M414.461 293.487C414.461 293.487 406.811 290.619 403.938 294.444C402.99 295.711 402.565 296.954 402.42 298.057C402.125 300.281 402.986 301.906 402.986 301.906C402.986 301.906 395.906 294.638 390.934 298.463C385.958 302.288 392.656 306.883 392.656 306.883C392.656 306.883 387.873 304.967 383.854 306.689C379.835 308.411 382.514 313.576 382.514 313.576C382.514 313.576 385.382 317.212 389.401 314.722C393.42 312.236 393.226 311.467 393.226 311.467C393.226 311.467 395.906 312.425 400.113 309.363C404.32 306.302 404.514 304.963 404.514 304.963C404.514 304.963 408.15 308.024 410.443 306.109C412.74 304.194 413.697 301.901 413.697 301.901C413.697 301.901 414.461 305.92 417.905 305.92C421.353 305.92 426.324 288.51 414.461 293.487Z" fill="#288453"/>
<path d="M456.936 305.881C456.936 305.881 456.172 302.24 453.367 303.304C450.562 304.368 450.562 305.427 451.839 306.795C453.116 308.164 455.916 307.245 456.936 305.881Z" fill="#288453"/>
<path d="M462.29 310.471C462.29 310.471 461.526 306.83 458.721 307.894C455.916 308.957 455.916 310.017 457.193 311.385C458.469 312.754 461.274 311.84 462.29 310.471Z" fill="#288453"/>
<path d="M455.215 313.914C455.215 313.914 454.45 310.272 451.646 311.336C448.841 312.4 448.841 313.459 450.117 314.828C451.389 316.192 454.194 315.283 455.215 313.914Z" fill="#288453"/>
<path d="M468.413 319.466C468.413 319.466 467.649 315.825 464.844 316.889C462.039 317.953 462.039 319.012 463.316 320.38C464.588 321.739 467.392 320.83 468.413 319.466Z" fill="#288453"/>
<path d="M445.649 305.35C445.649 305.35 451.007 302.671 448.71 298.845C446.413 295.02 439.909 295.209 438.762 298.652C438.762 298.652 436.847 286.6 432.451 287.364C428.051 288.129 426.522 291.765 428.051 297.506C428.051 297.506 425.371 293.869 421.546 298.081C417.721 302.288 422.692 305.35 422.692 305.35C422.692 305.35 417.716 301.524 416.57 307.265C415.424 313.005 420.395 317.024 424.414 315.109C428.433 313.194 429.579 311.854 429.579 311.854C429.579 311.854 443.734 318.165 445.649 305.35Z" fill="#288453"/>
<path d="M437.743 305.146C437.743 305.146 436.616 300.441 432.476 301.814C428.337 303.188 428.337 304.561 430.218 306.321C432.094 308.087 436.234 306.911 437.743 305.146Z" fill="#33A86D"/>
<path d="M434.169 301.321C434.169 301.321 433.212 296.615 429.711 297.989C426.204 299.362 426.204 300.735 427.8 302.496C429.391 304.261 432.897 303.086 434.169 301.321Z" fill="#33A86D"/>
<path d="M427.538 301.828C427.538 301.828 426.581 297.123 423.08 298.496C419.574 299.87 419.574 301.243 421.169 303.004C422.756 304.774 426.262 303.594 427.538 301.828Z" fill="#33A86D"/>
<path d="M415.187 301.335C415.187 301.335 417.996 299.41 416.449 295.909C414.964 292.553 412.527 293.796 411.55 295.962C410.573 298.134 413.059 300.876 415.187 301.335Z" fill="#33A86D"/>
<path d="M401.646 306.108C401.646 306.108 401.53 301.228 396.569 301.393C391.607 301.557 391.268 302.887 392.942 305.131C394.615 307.37 399.533 307.394 401.646 306.108Z" fill="#33A86D"/>
<path d="M324.351 176.971C324.351 176.971 322.373 168.933 321.769 162.719C321.189 156.771 324.656 159.189 328.307 163.323C332.133 167.661 335.832 175.438 336.853 177.227C337.873 179.012 328.182 183.093 324.351 176.971Z" fill="#1D2538"/>
<path d="M256.753 266.892C255.592 265.195 248.333 257.07 246.805 252.863C245.277 248.655 242.085 238.577 246.679 233.219C246.679 233.219 240.175 233.219 237.114 246.992C234.052 260.765 247.448 273.711 248.594 274.794C253.692 279.645 260.07 271.738 256.753 266.892Z" fill="#1D2538"/>
<path d="M381.9 300.145C380.473 297.268 375.148 295.923 375.148 295.923C374.737 295.324 373.485 294.342 373.34 293.636C371.367 284.06 369.514 275.394 368.842 273.131C367.445 268.43 366.26 260.891 363.208 250.053C360.157 239.216 348.226 247.485 350.547 258.289C352.201 265.993 364.282 297.345 364.683 297.829L369.984 303.463C371.347 305.117 373.659 306.205 376.053 305.141C378.447 304.077 383.297 302.96 381.9 300.145Z" fill="#1D2538"/>
<path d="M289.343 287.528C292.138 284.254 306.942 281.473 308.595 288.181C310.008 293.892 289.13 330.124 289.13 330.124L289.256 335.264C289.256 335.264 292.719 338.195 292.216 341.039C292.095 341.706 288.536 342.62 285.639 343.258C283.521 343.723 281.77 343.06 281.436 341.634L281.02 339.835L278.37 333.577L285.89 308.478C285.885 308.487 285.523 292.001 289.343 287.528Z" fill="#1D2538"/>
<path d="M332.77 250.058C326.392 250.953 307.517 243.554 304.455 232.842C301.394 222.13 297.569 205.291 297.569 198.404C297.569 198.404 292.467 188.2 290.426 182.334C288.385 176.468 289.662 175.447 292.975 176.976C296.292 178.504 303.686 185.903 303.686 185.903C303.686 185.903 313.378 173.914 325.879 172.638C338.38 171.361 345.267 176.463 349.348 181.821L349.89 182.078C349.89 182.078 361.593 181.821 367.967 181.057C374.346 180.293 377.407 182.078 378.171 188.964C378.935 195.851 378.81 197.635 376.769 201.465C374.728 205.291 363.504 217.216 356.873 222.319C356.873 222.319 361.081 237.049 360.573 241.895C360.065 246.741 339.149 249.163 332.77 250.058Z" fill="#273150"/>
<path d="M322.184 234.878C322.184 234.878 307.517 243.549 304.455 232.837C301.394 222.125 297.569 205.286 297.569 198.399C297.569 198.399 292.467 188.195 290.426 182.329C288.385 176.463 289.662 175.443 292.975 176.971C296.292 178.499 303.686 185.898 303.686 185.898C303.686 185.898 313.378 173.91 325.879 172.633C325.879 172.633 316.12 185.197 314.016 192.083C311.913 198.97 320.777 220.079 320.777 220.079C320.777 220.079 334.202 224.166 334.042 225.689C333.535 230.54 322.184 234.878 322.184 234.878Z" fill="#1D2538"/>
<path d="M326.934 175.728C326.934 175.728 324.583 168.111 323.108 163.004C321.449 157.264 325.546 158.802 329.197 162.942C333.022 167.279 336.436 172.028 337.457 173.813C338.477 175.602 329.042 180.322 326.934 175.728Z" fill="#273150"/>
<path d="M344.406 183.569C345.397 182.448 344.837 180.335 343.156 178.85C341.475 177.364 339.309 177.068 338.319 178.189C337.328 179.31 337.888 181.423 339.569 182.908C341.25 184.394 343.416 184.69 344.406 183.569Z" fill="#121721"/>
<path d="M355.814 228.029C355.814 228.029 368.833 235.042 371.435 238.867L363.335 241.735C363.335 241.735 356.97 235.994 355.814 228.029Z" fill="#992C29"/>
<path d="M328.964 193.384C330.158 192.034 329.482 189.486 327.455 187.694C325.428 185.903 322.816 185.545 321.623 186.896C320.429 188.247 321.104 190.795 323.132 192.586C325.159 194.378 327.77 194.735 328.964 193.384Z" fill="#121721"/>
<path d="M335.832 224.035C335.832 224.035 314.369 220.224 303.309 233.219C293.419 244.84 288.143 248.52 274.23 255.411C265.486 259.74 254.678 259.309 248.594 271.099C244.512 279.006 246.553 290.487 250.635 300.435C259.306 310.126 326.948 290.908 332.006 288.703C346.93 282.198 355.63 268.827 360.321 263.067C364.529 257.902 364.732 241.169 353.198 231.028C348.99 227.328 343.298 224.649 335.832 224.035Z" fill="#273150"/>
<path d="M332.388 227.097C319.761 224.161 314.369 220.225 303.309 233.219C293.419 244.84 288.143 248.52 274.23 255.412C265.486 259.74 254.678 259.31 248.594 271.1C244.512 279.007 246.553 290.488 250.635 300.435C259.306 310.127 326.948 290.908 332.006 288.703C332.006 288.703 314.403 286.406 312.111 279.902C309.814 273.397 320.912 256.945 320.912 256.945C324.738 245.846 336.866 228.136 332.388 227.097Z" fill="#1D2538"/>
<path d="M372.709 193.903C376.557 191.084 377.973 186.474 375.872 183.606C373.771 180.738 368.949 180.699 365.1 183.518C361.252 186.337 359.836 190.947 361.937 193.815C364.038 196.683 368.861 196.722 372.709 193.903Z" fill="#121721"/>
<path d="M371.226 316.854C368.92 313.507 362.483 312.748 362.483 312.748C361.869 312.066 360.205 311.06 359.876 310.204C355.393 298.583 351.258 288.07 349.962 285.357C347.269 279.727 345.619 268.44 339.603 255.426C333.587 242.412 316.076 265.234 323.959 274.272C330.555 281.841 350.315 316.404 350.886 316.936L358.28 323.058C360.234 324.891 363.14 325.844 365.646 324.103C368.155 322.367 373.49 320.133 371.226 316.854Z" fill="#273150"/>
<path d="M250.059 293.955C254.47 287.136 267.701 291.788 270.269 293.578C272.973 295.454 268.441 311.829 268.306 314.039C268.161 316.35 248.444 335.313 244.653 340.42C240.557 345.937 245.673 351.093 243.095 353.646C241.79 354.942 229.013 354.773 228.839 349.091C228.674 343.723 232.089 334.437 232.137 334.002C232.234 333.146 248.323 311.984 248.594 310.833C248.86 309.706 248.749 295.981 250.059 293.955Z" fill="#1D2538"/>
<path d="M343.355 225.825C343.355 225.825 357.641 225.317 356.877 222.318C362.013 218.459 369.344 210.552 369.344 210.552L354.329 218.938L343.355 225.825Z" fill="#1D2538"/>
<path d="M302.414 227.096C302.414 227.096 300.949 231.56 301.52 234.621C301.52 234.621 313.673 236.788 333.66 236.788C344.372 236.788 359.678 234.239 359.678 234.239L358.15 226.172C358.15 226.172 327.16 231.942 302.414 227.096Z" fill="#992C29"/>
<path d="M355.148 228.567C355.148 228.567 364.269 221.24 369.613 220.868L376.674 232.832C376.674 232.832 360.526 231.236 355.148 228.567Z" fill="#C93F37"/>
<path d="M355.147 228.567C359.809 231.517 376.668 232.832 376.668 232.832C376.668 232.832 369.781 227.324 367.562 227.101C365.342 226.879 355.147 228.567 355.147 228.567Z" fill="#992C29"/>
<path d="M138.395 85.3571C146.433 85.9326 165.966 103.217 179.719 117.855C197.511 136.793 219.365 156.892 228.312 160.901C239.411 165.877 251.844 172.382 257.009 172.382C257.009 172.382 233.095 197.853 223.336 206.462C213.576 215.07 218.746 197.853 206.119 206.462C193.492 215.07 172.064 240.493 172.064 240.493C172.064 240.493 160.965 237.214 144.513 222.126C123.021 202.419 88.8401 115.563 93.623 100.45C98.4107 85.3329 130.74 83.2534 138.395 85.3571Z" fill="#992C29"/>
<path d="M138.396 85.3569C146.433 85.9324 166.541 102.283 180.295 116.922C198.087 135.86 222.141 156.321 231.122 160.263C241.389 164.765 262.373 173.745 267.537 173.745L257.396 181.183C257.396 181.183 234.372 179.8 216.072 159.755C193.933 135.507 157.237 93.4428 138.396 85.3569Z" fill="#29ACE4"/>
<path d="M101.68 96.9399C101.68 96.9399 81.2958 97.2494 71.7978 93.8497C62.2998 90.4499 64.9741 54.2956 83.8686 49.5321C105.457 44.0867 131.397 55.7174 145.746 65.0655C160.094 74.4136 154.267 88.3946 133.501 94.9813C112.43 101.66 101.68 96.9399 101.68 96.9399Z" fill="#229BC6"/>
<path d="M146.883 78.3062C146.883 89.9127 109.147 90.4979 97.6423 90.4979C86.1373 90.4979 76.8086 81.0869 76.8086 69.4804C76.8086 57.8739 86.1373 48.4629 97.6423 48.4629C109.147 48.4629 146.883 66.6997 146.883 78.3062Z" fill="#992C29"/>
<path d="M216.387 207.328C215.686 206.307 204.587 192.278 200.762 188.452C196.936 184.627 225.503 204.523 225.503 204.523C225.503 204.523 222.524 207.719 220.082 208.667C217.789 209.562 217.088 208.348 216.387 207.328Z" fill="#C93F37"/>
<path d="M200.093 179.559L195.117 178.601L188.39 183.606C187.224 182.218 189.096 172.546 190.904 172.421C193.709 172.222 199.609 171.816 203.198 173.9C205.688 175.346 213.644 181.885 212.115 183.418C211.777 183.756 210.171 183.611 210.171 183.611C209.809 183.79 208.45 183.485 207.937 183.674C207.429 183.868 206.443 183.747 205.625 183.403L200.093 179.559Z" fill="#F6874E"/>
<path d="M155.22 105.112C155.22 105.112 164.786 127.314 166.821 132.107C170.613 141.029 162.808 145.493 157.454 141.029C152.101 136.566 141.393 115.819 139.387 110.915C137.375 106.007 149.644 98.6414 155.22 105.112Z" fill="#CE6D3E"/>
<path d="M157.976 111.143C157.976 111.143 165.109 127.755 166.865 132.233C168.939 137.528 162.817 140.619 160.075 137.378C156.728 133.427 154.015 106.046 157.976 111.143Z" fill="#F6874E"/>
<path d="M134.888 85.2311C138.293 83.1226 146.287 87.2864 150.954 96.0783C156.124 105.818 157.555 109.89 157.555 109.89C157.555 109.89 151.907 108.918 149.121 111.428C144.594 115.505 141.064 120.109 141.064 120.109C141.064 120.109 135.841 109.537 133.056 102.428C130.478 95.822 130.493 87.9586 134.888 85.2311Z" fill="#C93F37"/>
<path d="M191.717 168.774C194.019 174.935 188.259 177.319 184.816 174.635C181.373 171.956 174.593 162.241 166.671 153.628C157.55 143.719 154.238 138.858 160.046 134.617C165.854 130.371 166.125 130.792 175.478 144.11C181.905 153.26 190.629 165.872 191.717 168.774Z" fill="#CE6D3E"/>
<path d="M184.439 159.393C180.101 165.684 163.17 142.283 163.17 142.283C157.783 135.348 158.354 135.333 160.97 133.641C166.265 130.961 166.357 131.343 172.61 139.986C177.538 146.795 185.803 157.41 184.439 159.393Z" fill="#F6874E"/>
<path d="M194.663 174.519L202.531 175.196C202.928 175.23 203.29 175.429 203.537 175.743L212.779 182.126C213.311 182.808 214.326 182.866 214.931 182.247C215.376 181.788 215.468 181.092 215.148 180.535L206.947 172.972C206.787 172.691 206.535 172.474 206.24 172.358L191.824 166.564C191.307 166.356 187.361 164.896 184.764 167.497C182.167 170.099 183.516 172.89 183.777 173.451L185.141 179.539C185.155 179.568 185.165 179.592 185.179 179.617L189.851 188.254C190.103 188.723 190.596 189.008 191.128 189.003L192.172 188.989C193.135 188.979 193.812 188.041 193.517 187.122L191.853 181.909C191.776 181.662 191.766 181.396 191.824 181.14L193.149 175.603C193.314 174.926 193.957 174.461 194.663 174.519Z" fill="#CE6D3E"/>
<path d="M174.492 210.224C174.492 210.224 173.06 216.734 138.042 220.646C123.752 222.242 109.785 221.168 98.6042 220.593C89.1981 220.109 71.8366 216.453 63.92 213.576C56.0518 210.718 49.0975 204.735 67.6486 191.697C86.2336 178.635 165.854 186.117 174.492 210.224Z" fill="#EC5E4D"/>
<path d="M82.4615 199.623C82.4615 199.623 77.079 196.775 78.8006 193.332C80.5223 189.888 85.2084 189.695 85.2084 189.695L82.4615 199.623Z" fill="#C93F37"/>
<path d="M149.28 61.916C148.216 76.9416 135 79.2097 119.722 80.5735C110.539 81.3956 100.755 77.7782 94.4057 71.5059C90.1935 67.3469 87.4902 62.0175 87.4805 56.045C87.4515 41.0677 104.349 27.696 119.626 26.3323C134.898 24.9685 150.422 45.7732 149.28 61.916Z" fill="#273150"/>
<path d="M120.243 30.8129C124.624 24.4379 125.146 17.1891 121.411 14.6224C117.675 12.0556 111.096 15.1429 106.715 21.5179C102.335 27.893 101.813 35.1418 105.548 37.7085C109.284 40.2753 115.863 37.188 120.243 30.8129Z" fill="#273150"/>
<path d="M107.797 22.432C108.387 14.9182 105.74 8.58148 101.885 8.27866C98.0292 7.97584 94.4254 13.8216 93.8352 21.3354C93.245 28.8493 95.8921 35.1859 99.7475 35.4887C103.603 35.7916 107.207 29.9459 107.797 22.432Z" fill="#273150"/>
<path d="M107.78 45.3299C110.784 37.0978 108.237 28.6054 102.09 26.3616C95.943 24.1177 88.5238 28.9722 85.519 37.2043C82.5141 45.4364 85.0613 53.9288 91.2084 56.1727C97.3556 58.4165 104.775 53.562 107.78 45.3299Z" fill="#273150"/>
<path d="M100.013 77.9159C108.58 73.8286 112.245 63.6407 108.199 55.1606C104.153 46.6806 93.928 43.1197 85.3612 47.207C76.7944 51.2944 73.1295 61.4823 77.1755 69.9624C81.2215 78.4424 91.4462 82.0033 100.013 77.9159Z" fill="#273150"/>
<path d="M141.087 55.0732C147.611 49.4986 147.552 38.7191 140.953 30.9965C134.355 23.2738 123.717 21.5325 117.193 27.1071C110.668 32.6816 110.728 43.4611 117.326 51.1837C123.924 58.9064 134.562 60.6478 141.087 55.0732Z" fill="#273150"/>
<path d="M149.155 61.0227C148.289 73.2869 137.5 75.1343 125.038 76.2466C117.542 76.9139 109.557 73.964 104.378 68.8474C100.94 65.4525 98.7392 61.1049 98.7295 56.2301C98.7053 44.0094 112.493 33.0993 124.96 31.9822C137.418 30.8747 150.084 47.8541 149.155 61.0227Z" fill="#48598B"/>
<path d="M119.681 32.9056C123.444 27.4287 123.891 21.1998 120.679 18.993C117.468 16.7863 111.813 19.4373 108.05 24.9142C104.287 30.3911 103.84 36.62 107.052 38.8268C110.263 41.0335 115.918 38.3825 119.681 32.9056Z" fill="#48598B"/>
<path d="M106.901 27.0216C107.303 21.8987 105.499 17.5785 102.871 17.3721C100.243 17.1657 97.7862 21.1512 97.3838 26.2741C96.9815 31.3969 98.7857 35.7171 101.414 35.9235C104.042 36.13 106.498 32.1444 106.901 27.0216Z" fill="#48598B"/>
<path d="M110.812 45.3432C113.993 36.6294 112.29 28.0026 107.008 26.0747C101.727 24.1469 94.8667 29.648 91.686 38.3619C88.5052 47.0757 90.2082 55.7025 95.4897 57.6303C100.771 59.5582 107.631 54.0571 110.812 45.3432Z" fill="#48598B"/>
<path d="M103.818 74.7842C111.18 71.2718 114.329 62.5174 110.852 55.2305C107.375 47.9437 98.5893 44.8839 91.2277 48.3962C83.8662 51.9085 80.7169 60.663 84.1935 67.9499C87.6702 75.2367 96.4564 78.2965 103.818 74.7842Z" fill="#48598B"/>
<path d="M138.095 55.1517C143.701 50.3613 143.65 41.0983 137.98 34.4621C132.31 27.8258 123.169 26.3294 117.562 31.1198C111.955 35.9101 112.007 45.1732 117.677 51.8094C123.347 58.4456 132.488 59.942 138.095 55.1517Z" fill="#48598B"/>
<path d="M91.331 232.905C91.3068 238.916 92.8979 253.686 100.897 254.072C108.741 254.455 111.86 248.733 114.481 239.724C118.219 226.879 135.441 166.226 115.439 164.562C95.4368 162.898 93.6668 171.816 91.4277 183.461C89.1886 195.111 91.3793 221.777 91.331 232.905Z" fill="#273150"/>
<path d="M92.2885 242.785C92.569 244.038 97.8354 234.748 97.8354 234.748C97.8354 234.748 97.4437 215.128 100.515 212.937C111.226 204.135 121.179 208.73 121.179 208.73C125.633 188.65 128.066 165.611 115.439 164.562C95.4368 162.898 93.6668 171.816 91.4277 183.461C90.1316 190.222 90.325 202.041 90.7023 212.947C90.9779 220.834 90.8522 236.377 92.2885 242.785Z" fill="#102441"/>
<path d="M87.0898 252.047C71.4307 281.435 75.522 309.31 74.5596 344.251C74.1776 358.116 82.5053 355.828 84.8266 345.334C87.8588 331.648 97.4487 303.033 107.783 264.026C111.038 254.267 97.3181 232.848 87.0898 252.047Z" fill="#CE6D3E"/>
<path d="M89.1453 246.688C93.6573 237.344 102.285 235.304 108.76 238.379C113.011 240.396 113.853 242.408 110.342 255.866C108.146 264.272 106.671 268.551 106.415 269.195C106.415 269.195 96.1141 263.594 81.9541 264.025C81.9541 264.02 86.0841 253.028 89.1453 246.688Z" fill="#102441"/>
<path d="M89.9817 254.217C76.4746 279.573 79.618 304.275 78.7862 334.418C78.704 337.383 78.4961 339.772 78.8298 341.759C79.5939 346.286 84.4009 348.249 85.9098 341.44C88.5261 329.631 98.9187 298.201 107.836 264.547C110.641 256.132 98.8075 237.654 89.9817 254.217Z" fill="#F6874E"/>
<path d="M90.9493 248.525C90.9493 248.525 97.0718 232.837 109.21 236.091C113.263 237.175 114.095 242.011 110.526 254.841C108.054 263.739 106.889 268.324 106.657 269.01C106.657 269.01 97.8504 263.207 85.6104 263.908L90.9493 248.525Z" fill="#273150"/>
<path d="M110.462 246.485C110.462 246.485 103.257 247.761 100.703 244.957C100.703 244.957 101.849 249.677 104.403 250.566C106.951 251.461 109.311 248.908 109.311 248.908L107.014 248.651L110.462 246.485Z" fill="#102441"/>
<path d="M77.0108 348.462C78.1134 358.478 79.245 371.308 100.558 368.87C111.366 367.632 97.9944 355.078 94.1062 350.406C94.1062 350.406 87.3164 342.731 86.7409 341.508C85.2756 338.384 80.1349 337.61 77.3541 343.96C75.913 347.239 76.8512 347.006 77.0108 348.462Z" fill="#F6874E"/>
<path d="M72.5803 354.517C72.2466 356.277 73.1316 356.993 75.6076 358.57C80.8112 361.887 89.2018 364.779 97.6455 363.889C108.251 362.777 86.7403 358.724 84.8252 356.239C82.9101 353.753 82.1412 348.781 80.6178 345.43C78.8333 341.508 78.3207 338.64 76.5991 341.701C74.8774 344.758 72.9575 352.529 72.5803 354.517Z" fill="#CE6D3E"/>
<path d="M74.5589 344.439C74.5589 344.439 74.2252 344.71 76.1548 348.395C83.4234 362.299 87.1084 362.42 96.1132 362.361C102.047 362.323 92.7957 350.755 92.7957 350.755L87.1181 342.127C87.1181 342.127 91.9348 347.882 97.3512 354.039C100.683 357.82 104.668 361.022 106.085 363.343C108.547 366.762 111.26 372.256 108.353 372.885C98.5941 374.988 85.6576 372.479 83.2589 371.26C80.8603 370.041 80.5798 366.661 77.5524 363.13C76.4063 361.791 73.4079 360.451 73.2145 359.242C73.0114 356.123 72.049 353.884 72.755 350.155C73.5046 346.204 74.5589 344.439 74.5589 344.439Z" fill="#992C29"/>
<path d="M148.129 329.578C146.373 336.324 148.013 337.572 149.87 339.709C163.629 355.572 166.878 349.439 169.079 350.484C176.415 353.971 176.638 345.184 173.325 343.346C170.138 341.576 164.958 334.409 160.935 330.748C159.054 329.036 158.913 327.967 156.345 327.624C153.676 327.271 148.874 326.729 148.129 329.578Z" fill="#F6874E"/>
<path d="M148.173 337.963C155.896 357.96 172.44 352.795 175.7 351.277C177.044 350.648 168.368 340.865 168.368 340.865C168.368 340.865 158.575 338.243 153.285 335.888C147.742 333.422 145.876 332.024 148.173 337.963Z" fill="#CE6D3E"/>
<path d="M147.602 329.848C148.159 328.818 148.265 329.287 148.444 330.037C149.827 335.84 150.301 338.162 154.943 343.148C156.525 344.845 156.486 348.636 169.713 349.299C175.323 349.58 168.368 340.87 168.368 340.87L160.51 330.279L162.846 332.566C162.846 332.566 172.073 342.848 175.69 345.222C179.235 347.548 183.336 358.662 179.951 358.981C171.309 359.793 163.068 358.879 156.186 357.216C152.98 356.258 151.065 349.526 149.832 349.091C149.832 349.091 146.461 346.663 146.427 344.86C146.398 343.119 146.824 331.29 147.602 329.848Z" fill="#992C29"/>
<path d="M161.735 243.68C161.735 243.68 167.093 204.164 159.631 184.08C155.168 172.058 146.772 169.833 137.68 170.123C128.589 170.414 126.732 177.566 128.081 185.222C129.43 192.877 135.765 234.757 138.967 244.347C142.405 254.648 149.195 253.908 153.572 253.889C158.664 253.86 160.642 251.195 161.735 243.68Z" fill="#273150"/>
<path d="M146.045 213.324C149.488 211.027 163.421 209.886 163.421 209.886C163.28 200.76 162.313 191.315 159.624 184.08C155.161 172.058 146.765 169.833 137.673 170.123C128.582 170.414 126.725 177.566 128.074 185.222C128.659 188.544 130.182 198.318 131.986 209.102C131.986 209.102 136.281 234.375 138.002 240.179C138.331 240.009 139.405 233.993 141.064 224.428C142.326 221.081 142.601 215.621 146.045 213.324Z" fill="#102441"/>
<path d="M139.401 252.53C132.321 276.169 139.226 287.301 148.347 330.183C149.189 334.138 157.226 336.943 159.296 330.985C159.639 329.999 159.49 328.118 159.49 325.965C159.49 310.065 163.736 270.733 161.129 255.504C159.112 243.757 142.887 240.88 139.401 252.53Z" fill="#F6874E"/>
<path d="M136.407 267.61C136.262 271.604 136.451 277.417 138.042 285.513C140.421 297.632 144.57 312.846 145.088 315.487C145.949 319.887 148.386 330.696 149.058 333.423C149.479 335.131 154.653 336.915 154.653 336.915C154.653 336.915 151.389 327.673 150.635 325.309C149.077 320.414 141.446 285.725 139.7 268.306C139.502 266.294 136.552 263.572 136.407 267.61Z" fill="#CE6D3E"/>
<path d="M137.65 248.047C140.344 239.854 144.014 238.07 150.485 237.915C155.935 237.785 160.515 237.475 161.042 250.31C161.385 258.681 161.709 264.775 162.111 268.232C162.111 268.232 155.05 265.35 136.306 268.329C136.31 268.329 135.866 253.478 137.65 248.047Z" fill="#273150"/>
<path d="M137.65 248.047C138.211 246.437 138.332 251.955 138.332 251.955L139.715 267.865C139.715 267.865 138.956 267.909 136.311 268.329C136.311 268.329 135.788 258.735 137.65 248.047Z" fill="#102441"/>
<path d="M159.334 248.322C159.334 248.322 152.781 248.076 150.194 246.639C147.607 245.203 154.996 255.272 159.334 248.322Z" fill="#102441"/>
<path d="M138.013 137.969C129.845 146.538 105.742 137.664 104.721 129.525C104.286 126.062 103.034 118.02 99.363 103.338C97.0659 94.1539 96.6838 91.1459 97.7042 89.8547C100.383 86.4646 110.467 85.2604 120.792 83.6984C137.819 81.1159 139.028 85.1927 144.643 93.1045C151.481 102.752 154.083 121.11 138.013 137.969Z" fill="#F6BE4A"/>
<path d="M110.268 103.889C102.1 112.458 105.742 137.664 104.721 129.525C104.286 126.062 103.034 118.02 99.363 103.337C97.0659 94.1536 96.6838 91.1456 97.7042 89.8544C100.383 86.4643 110.467 85.2601 120.792 83.6981C137.819 81.1156 139.014 85.1392 144.948 93.4137C151.834 103.023 126.339 87.0301 110.268 103.889Z" fill="#D09435"/>
<path d="M105.486 121.492C104.209 126.275 104.446 138.486 104.847 131.184C105.041 127.702 99.3633 102.573 99.3633 102.573L125.763 93.3027L108.416 108.991C108.421 108.991 106.762 116.709 105.486 121.492Z" fill="#D09435"/>
<path d="M102.043 133.737C102.043 133.737 68.1611 181.198 65.7576 187.441C63.3492 193.704 55.51 201.741 55.8485 205.03C58.107 198.777 78.7327 200.818 82.4517 199.623C82.4517 199.623 74.9026 194.647 81.2765 192.354C87.6504 190.062 102.197 189.811 110.747 189.956C136.272 190.401 165.825 195.304 174.511 210.577C174.511 210.577 159.969 139.114 139.807 123.571C120.057 108.338 102.043 133.737 102.043 133.737Z" fill="#F6BE4A"/>
<path d="M142.603 97.099C145.949 98.9173 148.948 102.709 148.948 102.709C148.948 102.709 148.343 98.4337 145.379 94.2264C143.144 91.0539 134.952 95.3725 134.952 95.3725C134.952 95.3725 140.48 95.948 142.603 97.099Z" fill="#D09435"/>
<path d="M138.56 130.526C133.516 134.699 108.77 133.8 112.503 123.175C114.288 118.088 125.57 111.844 133.675 110.911C147.037 109.373 149.489 121.492 138.56 130.526Z" fill="#FEED7F"/>
<path d="M161.734 188.07L114.287 184.245C102.454 184.245 86.7364 162.816 90.5666 156.694C94.3919 150.571 110.211 130.932 110.211 130.932C111.869 122.769 114.703 116.646 126.537 116.646C126.537 116.646 140.059 117.411 145.669 132.209C145.669 132.209 160.211 154.208 162.503 171.047C164.186 183.394 161.734 188.07 161.734 188.07Z" fill="#FEED7F"/>
<path d="M104.886 182.557C100.48 182.867 96.6064 184.825 92.5586 172.247C92.5634 172.247 97.0223 178.679 104.886 182.557Z" fill="#FEED7F"/>
<path d="M91.0742 152.105C91.0742 152.105 92.3509 161.796 96.684 168.175C96.684 168.175 92.8587 157.207 93.115 150.572C93.3713 143.937 91.0742 152.105 91.0742 152.105Z" fill="#F6BE4A"/>
<path d="M159.113 188.878C159.282 186.373 160.186 178.437 158.46 174.452C158.46 174.452 162.155 180.845 161.976 187.427C161.802 194.009 158.944 191.383 159.113 188.878Z" fill="#F6BE4A"/>
<path d="M103.875 138.457C103.875 138.457 109.301 129.893 119.8 126.324C119.8 126.324 107.265 127.876 102.806 133.994C98.3476 140.111 103.875 138.457 103.875 138.457Z" fill="#F6BE4A"/>
<path d="M125.279 92.2822L124.167 92.4514C121.347 92.8818 118.712 90.9474 118.281 88.128L116.637 77.3871C116.207 74.5677 118.141 71.9321 120.96 71.5016L122.073 71.3324C124.892 70.902 127.528 72.8364 127.958 75.6558L129.603 86.3967C130.038 89.2161 128.099 91.8518 125.279 92.2822Z" fill="#F6874E"/>
<path d="M123.708 79.6602L121.851 79.9455C119.234 80.3469 116.792 78.5527 116.391 75.9364L114.635 64.4508C114.234 61.8345 116.028 59.3923 118.644 58.9909L120.501 58.7055C123.118 58.3042 125.56 60.0983 125.961 62.7146L127.717 74.2003C128.118 76.8166 126.324 79.2636 123.708 79.6602Z" fill="#CE6D3E"/>
<path d="M85.3974 108.484C82.1428 116.647 76.8908 131.232 75.4206 133.708C73.9505 136.184 73.9021 139.966 77.8193 141.901C81.7317 143.84 84.6865 142.863 86.4517 140.759C88.2168 138.656 98.2807 121.618 100.384 114.795C102.038 109.436 100.921 103.556 98.0243 102.168C95.1276 100.78 88.6521 100.32 85.3974 108.484Z" fill="#F6874E"/>
<path d="M85.3971 108.483C82.1425 116.646 76.8905 131.232 75.4203 133.708C74.9706 134.467 74.6514 135.449 74.5982 135.986C74.4821 137.19 75.3575 137.296 76.581 135.841C77.5482 134.69 84.6572 120.254 87.1188 112.289C89.1451 105.727 86.8673 104.793 85.3971 108.483Z" fill="#CE6D3E"/>
<path d="M103.064 89.0956C98.8176 87.6255 93.053 89.9226 89.0343 99.6817C86.9258 104.808 83.9951 111.67 83.9951 111.67C83.9951 111.67 90.6302 112.715 99.1707 118.049C99.1707 118.049 101.884 112.691 103.828 107.719C107.909 97.2589 106.381 90.2418 103.064 89.0956Z" fill="#EC5E4D"/>
<path d="M103.064 89.0956C98.8176 87.6255 93.053 89.9226 89.0343 99.6817C86.9258 104.808 83.9951 111.67 83.9951 111.67L86.9935 112.309L93.4351 106.858L105.105 103.638C107.697 95.0053 106.018 90.1209 103.064 89.0956Z" fill="#C93F37"/>
<path d="M51.0504 163.706C51.0504 163.706 46.9301 167.962 48.2745 170.37C49.5416 172.628 54.0778 174.471 57.3131 171.845C60.5484 169.219 70.9459 162.395 84.7674 143.81C90.6625 135.889 79.2108 130.371 74.6358 135.376C70.0609 140.382 51.0504 163.706 51.0504 163.706Z" fill="#F6874E"/>
<path d="M55.1084 159.248L65.3125 153.251L77.6396 133.655C77.6396 133.655 75.9518 133.907 74.6364 135.382C70.1244 140.44 55.1084 159.248 55.1084 159.248Z" fill="#CE6D3E"/>
<path d="M41.4599 178.064C41.4599 178.064 37.001 185.749 35.8114 187.63C34.7716 189.27 33.2241 187.862 33.7028 186.75C34.1816 185.638 37.4605 177.716 41.4599 178.064Z" fill="#CE6D3E"/>
<path d="M38.6552 178.064C38.6552 178.064 34.1964 185.749 33.0067 187.63C31.9669 189.27 30.4194 187.862 30.8982 186.75C31.3769 185.638 34.6509 177.716 38.6552 178.064Z" fill="#CE6D3E"/>
<path d="M57.6182 169.838C57.2023 172.522 55.529 176.672 51.4619 181.116C48.3233 184.545 47.6124 186.276 46.4663 188.762C46.1761 189.386 45.412 190.164 44.6479 190.866C42.2106 193.1 41.2192 192.752 40.9677 191.267C40.6775 189.526 41.5383 188.211 43.0665 185.894C43.85 184.704 43.9951 183.278 44.261 182.499C44.6044 181.513 44.7398 179.153 41.8817 178.659C38.9462 178.152 37.3455 174.302 38.3272 172.885C40.0488 170.399 51.2927 163.972 52.5887 164.345C55.4613 164.881 58.0341 167.154 57.6182 169.838Z" fill="#F6874E"/>
<path d="M42.8436 175.052C43.8157 175.328 45.0924 177.233 43.7818 178.404C42.4712 179.574 35.6331 183.066 33.7422 185.353C31.4934 188.076 30.2554 190.455 28.8577 191.181C27.0732 192.104 24.7858 191.983 26.6332 189.145C29.2495 185.126 31.1887 180.773 35.6766 178.549C40.1693 176.324 41.8716 174.777 42.8436 175.052Z" fill="#F6874E"/>
<path d="M42.6067 178.418C44.7877 176.169 42.3697 170.641 40.7689 171.096C39.1682 171.55 31.8609 177.528 30.1635 178.306C28.466 179.085 24.6214 184.714 23.7751 186.716C22.9239 188.718 22.8514 189.956 25.192 189.362C27.5327 188.767 30.2699 182.117 33.481 180.439C36.6921 178.761 40.4256 180.666 42.6067 178.418Z" fill="#F6874E"/>
<path d="M98.7247 106.95C98.7247 106.95 91.5915 108.377 89.0429 109.929C86.4943 111.482 87.1182 112.289 87.1182 112.289L98.7247 106.95Z" fill="#C93F37"/>
<path d="M132.843 91.2609C118.78 100.827 86.8762 104.144 86.9778 103.844C87.9982 100.773 94.8992 85.5205 102.042 84.2438C106.835 84.2293 125.608 84.4082 132.843 91.2609Z" fill="#229BC6"/>
<path d="M137.756 83.4847C133.167 82.4643 123.722 90.0328 123.209 92.0736C122.697 94.1144 138.583 90.9468 167.474 107.975C177.397 113.821 145.15 85.2693 137.756 83.4847Z" fill="#29ACE4"/>
<path d="M127.106 92.3977C127.838 92.3977 128.431 91.8045 128.431 91.0726C128.431 90.3408 127.838 89.7476 127.106 89.7476C126.375 89.7476 125.781 90.3408 125.781 91.0726C125.781 91.8045 126.375 92.3977 127.106 92.3977Z" fill="#273150"/>
<path d="M139.145 22.1643C140.596 22.6528 140.426 29.8633 136.819 29.3894C133.424 28.9445 129.69 27.9047 130.832 25.8107C131.968 23.7215 137.694 21.6759 139.145 22.1643Z" fill="#C93F37"/>
<path d="M139.536 24.5099C139.536 24.5099 138.951 28.872 137.708 29.051C136.461 29.2251 137.549 27.1794 137.834 24.331C138.119 21.4825 139.735 22.677 139.536 24.5099Z" fill="#F7BC4B"/>
<path d="M130.227 27.5907C130.227 27.5907 136.581 33.0216 142.621 35.0769C147.187 36.6293 150.688 36.697 150.688 36.697L149.624 35.2607L151.573 33.6406C151.573 33.6406 143.424 33.568 131.789 26.5654L130.227 27.5907Z" fill="#C93F37"/>
<path d="M133.346 29.5682C133.346 29.5682 138.095 35.9663 143.448 39.0179C147.496 41.3247 150.901 41.9969 150.901 41.9969L150.243 40.4155L152.588 39.1775C152.588 39.1775 144.633 37.6928 135.15 28.8477L133.346 29.5682Z" fill="#C93F37"/>
<path d="M101.429 58.7595C104.373 56.7383 104.894 52.3831 102.593 49.0319C100.293 45.6806 96.0409 44.6024 93.097 46.6236C90.1531 48.6447 89.6318 52.9999 91.9326 56.3512C94.2335 59.7024 98.4852 60.7807 101.429 58.7595Z" fill="#CE6D3E"/>
<path d="M122.073 28.7661C123.689 31.6097 118.229 35.024 112.406 38.3318C106.588 41.6397 100.558 42.0169 98.9424 39.1685C97.3272 36.3249 100.732 31.3341 106.55 28.0262C112.372 24.7232 120.458 25.9225 122.073 28.7661Z" fill="#273150"/>
<path d="M96.2004 48.6413C96.4132 31.3814 110.452 26.2503 113.939 25.583C131.329 22.2461 139.154 32.5517 142.477 50.7933C144.904 64.1215 137.017 67.8646 129.124 70.8774C119.626 74.5045 95.9392 70.2004 96.2004 48.6413Z" fill="#CE6D3E"/>
<path d="M101.936 54.208C102.869 41.1362 115.433 36.6387 118.529 35.981C118.529 35.981 135.421 40.0868 138.676 42.645C141.93 45.2033 142.53 53.8018 142.53 53.8018C144.087 63.7786 136.993 66.9559 129.917 69.5867C121.416 72.7446 100.771 70.5297 101.936 54.208Z" fill="#F6874E"/>
<path d="M107.236 31.9235C116.377 25.0853 130.972 27.8467 130.972 27.8467C130.972 27.8467 117.141 16.8495 104.548 28.0159C93.2505 38.0314 96.3698 46.9055 97.9608 52.2059C97.9608 52.2059 96.4326 40.0093 107.236 31.9235Z" fill="#F6BE4A"/>
<path d="M116.111 47.3359C117.115 47.1558 117.657 45.4903 117.321 43.6159C116.984 41.7414 115.898 40.3679 114.894 40.548C113.889 40.728 113.348 42.3936 113.684 44.268C114.02 46.1424 115.106 47.516 116.111 47.3359Z" fill="#273252"/>
<path d="M133.525 44.8975C134.364 44.7215 134.754 43.1929 134.395 41.4834C134.036 39.7738 133.065 38.5307 132.226 38.7067C131.387 38.8827 130.998 40.4113 131.356 42.1208C131.715 43.8304 132.686 45.0735 133.525 44.8975Z" fill="#273252"/>
<path d="M114.752 34.1875C114.752 34.1875 112.3 34.6372 111.749 36.8715" stroke="#273252" stroke-miterlimit="10" stroke-linecap="round" stroke-linejoin="round"/>
<path d="M133.211 33.573C133.211 33.573 131.61 32.1996 129.951 32.4317" stroke="#273252" stroke-miterlimit="10" stroke-linecap="round" stroke-linejoin="round"/>
</svg>
