<svg width="127" height="53" viewBox="0 0 127 53" fill="none" xmlns="http://www.w3.org/2000/svg">
<g opacity="0.4">
<path d="M117.501 36.5588C117.162 36.5588 116.928 36.3232 116.928 35.9845V19.1566H111.211C110.871 19.1566 110.637 18.922 110.637 18.5829V16.2617C110.637 15.9217 110.872 15.6866 111.211 15.6866H126.427C126.766 15.6866 127 15.922 127 16.2617V18.5828C127 18.9217 126.766 19.1566 126.427 19.1566H120.711V35.9842C120.711 36.3232 120.476 36.5588 120.137 36.5588H117.501ZM73.7146 28.1573L70.714 19.5484L67.6865 28.1573H73.7146ZM80.3697 35.8788C80.5009 36.2189 80.2916 36.5588 79.9262 36.5588H77.2126C76.8209 36.5588 76.5857 36.3767 76.4548 36.0097L74.9157 31.576H66.4869L64.9452 36.0097C64.8157 36.3768 64.5799 36.5588 64.1892 36.5588H61.6325C61.2927 36.5588 61.0575 36.2187 61.1881 35.8788L68.2604 16.2095C68.3913 15.843 68.6261 15.6875 69.0167 15.6875H72.5139C72.9057 15.6875 73.1668 15.8431 73.2972 16.2095L80.3697 35.8788ZM100.642 33.7406C102.311 33.7406 103.434 32.9331 104.348 31.5497L100.12 27.0096C98.5016 27.9234 97.4572 28.8354 97.4572 30.6622C97.4575 32.4627 98.9182 33.7406 100.642 33.7406ZM101.816 18.452C100.459 18.452 99.6763 19.3138 99.6763 20.4615C99.6763 21.3484 100.145 22.1312 101.216 23.2794C103.068 22.209 103.852 21.5572 103.852 20.4096C103.852 19.339 103.173 18.452 101.816 18.452ZM113.378 35.8282C113.717 36.1937 113.509 36.5588 113.09 36.5588H109.775C109.332 36.5588 109.097 36.4539 108.81 36.1144L106.827 33.9238C105.496 35.698 103.642 37.0282 100.563 37.0282C96.7528 37.0282 93.7507 34.7325 93.7507 30.7937C93.7507 27.7664 95.3696 26.1485 97.8231 24.7921C96.6216 23.4095 96.0747 21.9484 96.0747 20.6706C96.0747 17.4346 98.345 15.2174 101.763 15.2174C105.26 15.2174 107.401 17.2792 107.401 20.3311C107.401 22.94 105.522 24.3997 103.538 25.4963L106.461 28.6542L108.105 25.7833C108.314 25.4446 108.549 25.3137 108.966 25.3137H111.497C111.915 25.3137 112.15 25.6014 111.89 26.0447L108.966 31.0531L113.378 35.8282ZM87.3333 36.5588C87.6726 36.5588 87.9086 36.3232 87.9086 35.9845V19.1566H93.6231C93.9623 19.1566 94.197 18.922 94.197 18.5829V16.2617C94.197 15.9217 93.9623 15.6866 93.6231 15.6866H78.4077C78.0679 15.6866 77.8335 15.922 77.8335 16.2617V18.5828C77.8335 18.9217 78.0681 19.1566 78.4077 19.1566H84.1222V35.9842C84.1222 36.3232 84.3578 36.5588 84.6967 36.5588H87.3333Z" fill="#746D63"/>
<path d="M10.0972 46.7091C14.5232 50.1354 20.0784 52.1941 26.1057 52.1941C32.7014 52.1941 38.7144 49.7451 43.3035 45.7251C43.3591 45.6759 43.3317 45.6434 43.2768 45.6759C41.2176 47.0513 35.3484 50.0537 26.1059 50.0537C18.0738 50.0537 12.9978 48.2614 10.1313 46.6613C10.0764 46.6342 10.0561 46.6754 10.0972 46.7091ZM27.8777 48.0431C34.302 48.0431 41.3614 46.2918 45.5836 42.825C46.739 41.8804 47.8395 40.6232 48.8251 38.9337C49.3926 37.9615 49.9475 36.8066 50.3995 35.6713C50.4196 35.6159 50.3854 35.589 50.3438 35.6512C46.4175 41.4296 35.0478 45.0338 23.308 45.0338C15.0098 45.0338 6.08118 42.38 2.58554 37.3128C2.55113 37.266 2.51673 37.286 2.53768 37.3399C5.79411 44.2618 15.6734 48.0431 27.8777 48.0431ZM20.8587 36.56C7.49749 36.56 1.19742 30.3367 0.0545955 26.0897C0.0405023 26.0283 0 26.0417 0 26.097C0 27.5267 0.143091 29.3718 0.389279 30.5965C0.506723 31.1926 0.991861 32.1282 1.70313 32.8739C4.93848 36.2465 13.0046 40.9723 26.974 40.9723C46.0066 40.9723 50.3584 34.6319 51.247 32.5468C51.8825 31.0556 52.2117 28.3608 52.2117 26.0971C52.2117 25.5493 52.198 25.1118 52.1773 24.6822C52.1773 24.6125 52.1369 24.6068 52.123 24.6747C51.1719 29.7767 34.9107 36.56 20.8587 36.56ZM2.51673 14.9013C1.75112 16.4208 0.902476 18.9843 0.650194 20.3111C0.539607 20.8796 0.586711 21.1526 0.786048 21.5768C2.38747 24.9748 10.4878 30.4116 29.3827 30.4116C40.9099 30.4116 49.8646 27.5794 51.3153 22.4111C51.5825 21.4597 51.5968 20.4552 51.2536 19.1017C50.8702 17.5891 50.1521 15.8253 49.5443 14.5868C49.5242 14.5464 49.4888 14.5524 49.496 14.6001C49.7218 21.3788 30.8194 25.7477 21.2821 25.7477C10.9515 25.7477 2.33288 21.6314 2.33288 16.4338C2.33288 15.9344 2.43623 15.4349 2.56523 14.915C2.57818 14.8675 2.53755 14.8597 2.51673 14.9013ZM43.3458 6.57846C43.4555 6.75039 43.5102 6.93387 43.5102 7.18083C43.5102 10.0804 34.6364 15.21 20.5105 15.21C10.1313 15.21 8.18806 11.3593 8.18806 8.91049C8.18806 8.03512 8.52376 7.13944 9.26308 6.22979C9.30346 6.1757 9.26917 6.15487 9.22258 6.19512C7.8742 7.3379 6.63526 8.62378 5.54843 10.0119C5.02914 10.6683 4.70677 11.2499 4.70677 11.5983C4.70677 16.6731 17.4308 20.3526 29.3282 20.3526C42.005 20.3526 47.6626 16.214 47.6626 12.5769C47.6626 11.2771 47.1567 10.5183 45.8624 9.04711C45.0222 8.0901 44.2276 7.31086 43.3864 6.5438C43.3458 6.51028 43.3175 6.53758 43.3458 6.57846ZM39.4595 3.67949C35.5471 1.33426 31.0039 0 26.1059 0C21.1738 0 16.4937 1.38086 12.5673 3.78818C11.3895 4.51308 10.7266 5.09399 10.7266 5.84074C10.7266 8.04198 15.8707 10.4088 24.9969 10.4088C34.0284 10.4088 41.0333 7.81634 41.0333 5.3209C41.0333 4.72526 40.5128 4.30853 39.4595 3.67949Z" fill="#746D63"/>
</g>
</svg>
