<svg width="273" height="100" viewBox="0 0 273 100" fill="none" xmlns="http://www.w3.org/2000/svg">
<path d="M11.2358 97.0194C20.7232 97.679 123.454 101.044 177.711 99.4991C231.968 97.9546 264.664 99.4713 268.914 82.227C273.164 64.9828 282.117 51.4977 238.174 47.2842C238.174 47.2842 232.299 0.346824 172.783 0.765819C113.266 1.18481 110.117 73.4228 110.117 73.4228C110.117 73.4228 93.9697 58.9452 67.8729 61.3169C41.7761 63.6886 36.4133 69.4169 37.0506 76.7078C37.6879 83.9988 43.6783 85.564 43.6783 85.564C43.6783 85.564 13.7839 87.6736 4.7661 91.2353C-4.24188 94.7945 1.75212 96.3536 11.2358 97.0194Z" fill="#F1D9F3" fill-opacity="0.05"/>
</svg>
