<svg width="679" height="781" viewBox="0 0 679 781" fill="none" xmlns="http://www.w3.org/2000/svg">
<path d="M235.2 217.45C235.2 217.45 184.56 163.65 227.29 101.93C270.02 40.2095 357.05 -18.3305 466.24 5.39953C575.43 29.1295 570.68 173.14 564.35 192.13C564.35 192.13 603.91 150.99 652.97 204.79C702.02 258.59 608.66 385.19 608.66 385.19C608.66 385.19 670.37 351.96 678.29 375.7C686.2 399.44 398.2 601.99 342.82 632.049C342.82 632.049 368.14 584.58 317.5 617.81C266.86 651.04 273.19 671.609 195.65 700.099C118.11 728.589 18.4197 780.799 2.59972 780.799C-13.2203 780.799 46.9097 714.34 81.7197 689.02C116.53 663.7 133.94 655.789 133.94 655.789C133.94 655.789 70.6397 587.749 124.45 537.109C178.25 486.469 197.24 516.539 197.24 516.539C197.24 516.539 88.0497 369.38 247.88 359.88C247.88 359.88 177.25 351.63 187.75 282.34C195.64 230.1 235.2 217.45 235.2 217.45Z" fill="#BB83C3" fill-opacity="0.1"/>
</svg>
