<svg width="702" height="781" viewBox="0 0 702 781" fill="none" xmlns="http://www.w3.org/2000/svg">
<path d="M458.343 217.45C458.343 217.45 510.707 163.65 466.522 101.93C422.337 40.2095 332.344 -18.3305 219.436 5.39953C106.528 29.1295 111.44 173.14 117.985 192.13C117.985 192.13 77.0783 150.99 26.3478 204.79C-24.3723 258.59 72.1666 385.19 72.1666 385.19C72.1666 385.19 8.35543 351.96 0.165758 375.7C-8.01357 399.44 289.793 601.99 347.058 632.049C347.058 632.049 320.876 584.58 373.24 617.81C425.605 651.04 419.059 671.609 499.239 700.099C579.42 728.589 682.504 780.799 698.863 780.799C715.221 780.799 653.044 714.34 617.049 689.02C581.053 663.7 563.051 655.789 563.051 655.789C563.051 655.789 628.506 587.749 572.864 537.109C517.232 486.469 497.595 516.539 497.595 516.539C497.595 516.539 610.503 369.38 445.231 359.88C445.231 359.88 518.266 351.63 507.408 282.34C499.25 230.1 458.343 217.45 458.343 217.45Z" fill="#BB83C3" fill-opacity="0.1"/>
</svg>
