<svg width="448" height="186" viewBox="0 0 448 186" fill="none" xmlns="http://www.w3.org/2000/svg">
<path d="M384.405 180.008C324.159 177.882 128.724 188.083 66.3116 185.48C3.8989 182.878 -20.4814 111.919 22.9411 82.3734C66.3636 52.8281 94.1802 73.3003 94.1802 73.3003C94.1802 73.3003 83.8754 20.5582 119.087 4.70025C154.293 -11.1552 199.955 13.9931 207.026 74.9257C207.026 74.9257 205.844 56.2039 232.389 44.9274C258.935 33.6509 304.126 45.6881 333.986 76.5545C363.846 107.421 356.198 129.038 348.307 136.629C348.307 136.629 399.495 131.591 431.749 145.99C464.003 160.389 444.65 182.134 384.405 180.008Z" fill="#F1D9F3" fill-opacity="0.08"/>
</svg>
