<svg width="37" height="28" viewBox="0 0 37 28" fill="none" xmlns="http://www.w3.org/2000/svg">
<path fill-rule="evenodd" clip-rule="evenodd" d="M3.08333 0H33.9167C35.6125 0 37 1.3875 37 3.08333L36.9846 24.6667C36.9846 26.3625 35.6125 27.75 33.9167 27.75H3.08333C1.3875 27.75 0 26.3625 0 24.6667V3.08333C0 1.3875 1.3875 0 3.08333 0ZM16.9583 9.25C16.9583 6.69083 14.8925 4.625 12.3333 4.625C9.77417 4.625 7.70833 6.69083 7.70833 9.25C7.70833 11.8092 9.77417 13.875 12.3333 13.875C14.8925 13.875 16.9583 11.8092 16.9583 9.25ZM3.08333 23.125V21.5833C3.08333 18.5 9.25 16.8042 12.3333 16.8042C15.4167 16.8042 21.5833 18.5 21.5833 21.5833V23.125H3.08333ZM30.0471 16.9583H27.5188C27.1796 15.9871 26.9792 14.9542 26.9792 13.875C26.9792 12.7958 27.1796 11.7629 27.5188 10.7917H30.0471L32.375 7.70834L29.3071 4.64042C27.2875 6.15126 25.7921 8.29417 25.0983 10.7917C24.8208 11.7783 24.6667 12.8113 24.6667 13.875C24.6667 14.9388 24.8208 15.9717 25.0983 16.9583C25.7921 19.4404 27.2875 21.5988 29.3071 23.1096L32.375 20.0417L30.0471 16.9583Z" fill="#F4C8FF"/>
</svg>
