<svg width="33" height="33" viewBox="0 0 33 33" fill="none" xmlns="http://www.w3.org/2000/svg">
<path d="M29.0714 15.7143H26.7143V9.42857C26.7143 7.7 25.3 6.28571 23.5714 6.28571H17.2857V3.92857C17.2857 1.76 15.5257 0 13.3571 0C11.1886 0 9.42857 1.76 9.42857 3.92857V6.28571H3.14286C1.41429 6.28571 0.0157143 7.7 0.0157143 9.42857V15.4H2.35714C4.69857 15.4 6.6 17.3014 6.6 19.6429C6.6 21.9843 4.69857 23.8857 2.35714 23.8857H0V29.8571C0 31.5857 1.41429 33 3.14286 33H9.11429V30.6429C9.11429 28.3014 11.0157 26.4 13.3571 26.4C15.6986 26.4 17.6 28.3014 17.6 30.6429V33H23.5714C25.3 33 26.7143 31.5857 26.7143 29.8571V23.5714H29.0714C31.24 23.5714 33 21.8114 33 19.6429C33 17.4743 31.24 15.7143 29.0714 15.7143Z" fill="#F4C8FF"/>
</svg>
