<svg width="9" height="16" viewBox="0 0 9 16" fill="none" xmlns="http://www.w3.org/2000/svg">
<mask id="mask0_805_5078" style="mask-type:alpha" maskUnits="userSpaceOnUse" x="0" y="0" width="9" height="16">
<path d="M5.49859 16V8.70218H7.99501L8.36954 5.85725H5.49859V4.04118C5.49859 3.21776 5.73076 2.65661 6.93596 2.65661L8.47059 2.65599V0.111384C8.2052 0.0775562 7.2942 0 6.23389 0C4.01979 0 2.50399 1.32557 2.50399 3.75942V5.85725H0V8.70218H2.50399V16H5.49859Z" fill="white"/>
</mask>
<g mask="url(#mask0_805_5078)">
<path d="M5.49859 16V8.70218H7.99501L8.36954 5.85725H5.49859V4.04118C5.49859 3.21776 5.73076 2.65661 6.93596 2.65661L8.47059 2.65599V0.111384C8.2052 0.0775562 7.2942 0 6.23389 0C4.01979 0 2.50399 1.32557 2.50399 3.75942V5.85725H0V8.70218H2.50399V16H5.49859Z" fill="#A26EB8"/>
</g>
</svg>
