<svg width="556" height="680" viewBox="0 0 556 680" fill="none" xmlns="http://www.w3.org/2000/svg">
<path d="M172.785 112.586C123.778 93.3215 74.7717 53.1023 64.6324 49.0466C54.4931 44.9909 97.0781 19.3047 124.792 25.3883C152.506 31.4719 149.126 67.9733 149.126 76.0847C149.126 76.0847 155.886 65.2695 170.757 71.3531C185.628 77.4366 189.684 100.419 189.684 111.234C189.684 122.049 180.551 115.641 172.785 112.586Z" fill="#F3E7D9"/>
<path d="M532.723 329.357C532.723 329.357 438.454 283.791 395.247 258.653C352.041 233.514 344.97 205.232 341.827 190.307C338.684 175.382 341.043 162.025 378.747 180.878C378.747 180.878 370.109 165.169 383.459 148.669C396.816 132.169 428.241 148.669 443.166 169.096C458.091 189.523 458.875 193.45 458.875 193.45C458.875 193.45 469.873 175.382 486.373 180.878C502.873 186.373 507.584 230.371 495.011 243.728C495.011 243.728 509.152 240.585 528.004 259.437C546.857 278.289 559.43 294.005 553.927 301.076C548.425 308.146 533.5 308.146 516.216 297.148C516.216 297.148 552.352 330.141 552.352 334.86C552.359 339.571 532.723 329.357 532.723 329.357Z" fill="#F3E7D9"/>
<path d="M140.433 386.34C133.16 377.681 120.019 361.999 120.019 361.999C120.019 361.999 100.187 381.115 93.5288 387.496C86.4516 394.276 72.554 404.523 78.9891 405.294C85.4647 406.064 92.9407 404.726 94.955 404.145C94.955 404.145 95.8271 423.997 122.527 419.259C148.24 414.69 148.349 395.763 140.433 386.34Z" fill="#1D2538"/>
<path d="M94.3534 400.021C94.3534 400.021 46.1986 445.519 47.6654 449.825C49.1795 454.273 83.6666 462.405 105.561 436.793C123.899 415.345 125.292 391.518 94.3534 400.021Z" fill="#1D2538"/>
<path d="M63.6112 452.59C61.0156 454.07 7.99386 508.065 8.42647 516.271C8.88612 524.883 35.7553 536.753 59.8665 519.665C81.8214 504.111 98.2132 432.879 63.6112 452.59Z" fill="#1D2538"/>
<path d="M420.177 387.145L487.278 438.781C487.278 438.781 481.621 443.262 465.999 439.72L379.079 459.471L420.177 387.145Z" fill="#1D2538"/>
<path d="M461.795 431.751L514.032 476.445C514.032 476.445 490.834 495.25 468.108 475.12C461.612 469.368 382.728 475.377 382.728 475.377L417.743 428.114C417.743 428.114 450.966 429.358 461.795 431.751Z" fill="#1D2538"/>
<path d="M496.768 478.75C499.134 479.744 519.825 494.371 543.125 514.217C543.125 514.217 515.715 535.212 497.052 527.263C478.376 519.307 462.612 464.372 496.768 478.75Z" fill="#1D2538"/>
<path d="M337.222 332.196L380.692 382.737C380.692 382.737 375.42 386.563 363.827 383.393L291.473 394.296L337.222 332.196Z" fill="#1D2538"/>
<path d="M356.337 374.301L394.13 409.938C394.13 409.938 341.527 486.084 327.467 468.549C323.446 463.541 291.358 408.045 291.358 408.045L327.643 367.535C327.657 367.528 348.3 372.159 356.337 374.301Z" fill="#1D2538"/>
<path d="M380.158 411.797C381.828 412.675 395.32 425.437 409.887 442.735C409.887 442.735 384.464 460.641 371.317 453.645C358.163 446.649 356.067 399.143 380.158 411.797Z" fill="#1D2538"/>
<path d="M321.832 241.355C321.832 241.355 335.351 165.649 268.431 149.426C201.512 133.203 179.557 184.866 175.826 196.066C168.39 218.373 168.39 231.892 168.39 231.892L321.832 241.355Z" fill="#C94039"/>
<path d="M319.438 233.379C319.438 233.379 298.977 203.827 249.91 191.93C200.843 180.033 192.096 191.214 190.007 193.532C185.194 198.879 185.194 217.866 185.194 217.866C185.194 217.866 220.607 210.458 256.595 214.392C303.128 219.475 319.438 233.379 319.438 233.379Z" fill="#EE5D4F"/>
<path d="M168.221 232.324C167.552 242.457 189.703 250.629 248.152 253.968C306.602 257.314 321.831 246.763 321.831 241.605C322.5 231.473 287.919 221.104 255.588 217.704C217.059 213.641 168.89 222.192 168.221 232.324Z" fill="#1D2538"/>
<path d="M178.794 224.376L179.267 224.2C179.26 224.092 177.732 213.797 186.202 187.719C194.827 161.174 224.441 148.804 224.731 148.676L223.528 149L222.825 149.203C222.535 149.331 194.314 162.202 185.824 187.739C177.401 213.074 178.787 224.268 178.794 224.376Z" fill="#1D2538"/>
<path d="M268.803 203.61C254.132 203.61 242.238 191.716 242.238 177.045C242.238 162.373 254.132 150.48 268.803 150.48C283.475 150.48 295.368 162.373 295.368 177.045C295.368 191.716 283.475 203.61 268.803 203.61Z" fill="#EE5D4F"/>
<path d="M259.982 201.474C244.116 201.474 231.254 188.612 231.254 172.746C231.254 156.88 244.116 144.018 259.982 144.018C275.848 144.018 288.71 156.88 288.71 172.746C288.71 188.612 275.848 201.474 259.982 201.474Z" fill="#34283A"/>
<path d="M263.362 198.094C247.496 198.094 234.634 185.232 234.634 169.366C234.634 153.5 247.496 140.638 263.362 140.638C279.228 140.638 292.09 153.5 292.09 169.366C292.09 185.232 279.228 198.094 263.362 198.094Z" fill="#1689CB"/>
<path d="M265.051 192.01C251.612 192.01 240.717 181.116 240.717 167.676C240.717 154.237 251.612 143.342 265.051 143.342C278.491 143.342 289.386 154.237 289.386 167.676C289.386 181.116 278.491 192.01 265.051 192.01Z" fill="#29ABE2"/>
<path d="M265.728 188.631C253.782 188.631 244.097 178.947 244.097 167.001C244.097 155.054 253.782 145.37 265.728 145.37C277.674 145.37 287.358 155.054 287.358 167.001C287.358 178.947 277.674 188.631 265.728 188.631Z" fill="#665070"/>
<path d="M263.463 187.671C253.197 187.671 244.874 179.349 244.874 169.082C244.874 158.816 253.197 150.494 263.463 150.494C273.729 150.494 282.052 158.816 282.052 169.082C282.052 179.349 273.729 187.671 263.463 187.671Z" fill="#FEED7F"/>
<path d="M248.957 177.775C255.912 189.219 269.506 184.433 269.506 184.433L248.308 160.565C248.308 160.565 242.001 166.331 248.957 177.775Z" fill="#F7BC4B"/>
<path d="M253.655 132.561L266.491 1" stroke="#F7BC4B" stroke-miterlimit="10"/>
<path d="M314.626 148.608L407.685 31.4854" stroke="#F7BC4B" stroke-miterlimit="10"/>
<path d="M277.726 130.959L313.024 55.5493" stroke="#F7BC4B" stroke-miterlimit="10"/>
<path d="M345.111 129.356C345.111 129.356 327.462 79.6197 266.491 82.8237" stroke="#F7BC4B" stroke-miterlimit="10"/>
<path d="M448.512 118.481L441.293 148.966L446.903 143.349L452.521 117.676L448.512 118.481Z" fill="#3E4C6F"/>
<path d="M437.812 120.975L430.593 151.46L436.21 145.843L441.827 120.177L437.812 120.975Z" fill="#3E4C6F"/>
<path d="M438.974 119.731L445.389 142.193L440.576 149.412L433.357 128.552L434.959 155.029L422.927 152.623L429.342 120.529L438.974 119.731Z" fill="#1D2538"/>
<path d="M443.145 246.08C452.169 239.794 454.954 172.645 454.399 153.563C453.865 135.353 454.075 142.491 454.075 142.491C454.075 142.491 455.008 138.563 446.91 138.563C438.812 138.563 438.819 138.793 437.798 141.335C436.771 143.89 436.095 148.115 435.047 149.764C433.992 151.427 432.14 152.022 430.457 151.981C428.774 151.941 431.255 149.054 426.226 149.054C421.197 149.054 419.358 148.108 417.945 154.05C416.505 160.072 405.974 211.519 405.825 216.805C405.67 222.159 414.194 223.754 421.129 225.261C425.658 226.248 433.107 236.462 434.175 239.402C435.229 242.336 439.305 248.757 443.145 246.08Z" fill="#1D2538"/>
<path d="M425.334 220.009C425.334 220.009 423.996 239.794 411.964 250.224C399.932 260.654 389.367 264.399 389.367 264.399" stroke="#4B3355" stroke-width="3" stroke-miterlimit="10"/>
<path d="M427.74 220.009C427.74 220.009 426.936 241.666 414.904 252.096C402.872 262.526 391.773 264.399 391.773 264.399" stroke="#665070" stroke-width="3" stroke-miterlimit="10"/>
<path d="M415.56 209.14C415.56 209.14 412.288 228.627 400.202 238.996C388.116 249.359 376.402 255.841 376.402 255.841" stroke="#665070" stroke-width="3" stroke-miterlimit="10"/>
<path d="M419.034 209.403C419.034 209.403 415.763 228.891 403.677 239.26C391.591 249.622 379.876 256.105 379.876 256.105" stroke="#4B3355" stroke-width="3" stroke-miterlimit="10"/>
<path d="M424.915 212.884C424.915 212.884 421.643 232.372 409.557 242.741C397.471 253.103 385.757 259.586 385.757 259.586" stroke="#4B3355" stroke-width="3" stroke-miterlimit="10"/>
<path d="M432.775 131.499C432.775 131.499 421.041 136.995 417.932 135.17C414.822 133.345 411.699 130.12 409.428 125.443C407.157 120.765 404.987 117.825 406.947 115.905C408.908 113.992 411.03 112.032 411.03 112.032C411.03 112.032 408.982 113.62 407.15 111.288C405.318 108.956 399.478 98.0127 400.478 95.1196C401.479 92.2265 403.75 88.1235 404.642 86.8392C405.535 85.5549 406.285 86.4134 406.285 86.4134C406.285 86.4134 406.251 82.9119 407.88 81.0801C409.509 79.2483 412.551 78.1059 412.551 78.1059C412.551 78.1059 412.443 75.6725 414.322 74.1313C416.201 72.5901 417.006 72.6442 420.52 71.637C424.035 70.6299 426.3 70.569 426.3 70.569C426.3 70.569 428.997 68.4601 430.477 68.0748C431.958 67.6895 439.136 66.2564 442.327 68.4127C445.524 70.5623 451.324 78.0113 453.656 84.9465C455.988 91.8818 458.806 110.112 455.832 117.561C452.858 125.017 440.306 130.06 432.775 131.499Z" fill="#992C29"/>
<path d="M422.987 121.428C422.987 121.428 413.402 130.425 411.442 126.646C409.806 123.483 407.785 119.637 407.785 119.637C407.785 119.637 407.17 117.933 407.508 116.629C407.846 115.324 409.732 114.121 409.732 114.121C408.231 112.215 402.628 104.367 403.452 101.994C404.27 99.6218 406.129 96.2623 406.859 95.2146C407.589 94.1669 408.204 94.8631 408.204 94.8631C408.204 94.8631 408.177 91.9971 409.509 90.4965C410.841 88.9958 413.335 88.063 413.335 88.063C413.335 88.063 413.247 86.0757 414.788 84.8117C416.329 83.5477 416.985 83.595 419.865 82.7703C422.744 81.9456 424.596 81.8983 424.596 81.8983C424.596 81.8983 426.807 80.1747 428.017 79.857C429.227 79.5393 435.107 78.3699 437.723 80.1341C440.339 81.8983 445.091 87.9954 447.004 93.6802C448.917 99.3649 451.026 106.652 446.43 111.343C442.881 114.973 433.661 113.506 422.987 121.428Z" fill="#C94039"/>
<path d="M428.747 69.0146C428.747 69.0146 424.454 72.7662 424.387 75.0239C424.319 77.2815 427.929 89.638 429.105 93.1529C430.281 96.6679 430.721 97.3371 433.019 98.0603C435.317 98.7836 439.17 97.9049 439.17 97.9049C439.17 97.9049 437.886 99.0269 434.763 99.1824C431.64 99.3379 429.862 97.5601 429.085 97.1072C428.307 96.6543 427.341 92.9501 426.415 89.3743C425.482 85.7986 422.893 76.8625 422.508 75.3821C422.122 73.9018 423.853 70.9479 428.747 69.0146Z" fill="#121721"/>
<path d="M412.693 77.9844C412.693 77.9844 413.031 82.9864 415.87 92.8689C416.796 96.0931 417.58 100.94 422.305 100.061C425.306 99.1282 430.646 97.3639 430.646 97.3639L430.89 97.9588C430.89 97.9588 426.888 99.7906 424.211 100.622C421.528 101.453 419.216 101.663 417.776 100.189C416.336 98.7158 413.673 89.6716 412.889 85.136C412.105 80.5936 410.895 79.5053 412.693 77.9844Z" fill="#121721"/>
<path d="M406.279 86.4066C406.279 86.4066 409.28 97.9181 410.307 101.338C411.328 104.759 413.565 105.583 417.107 107.557L415.999 107.672C415.999 107.672 410.517 105.327 409.679 102.123C408.841 98.9185 405.495 86.1633 405.495 86.1633C405.495 86.1633 405.636 86.1024 405.9 86.1633C406.157 86.2241 406.279 86.4066 406.279 86.4066Z" fill="#121721"/>
<path d="M409.287 114.114C409.287 114.114 416.087 107.868 419.338 105.699C422.59 103.529 425.672 105.759 426.591 107.76C427.504 109.761 430.208 112.019 428.099 114.02C425.996 116.02 421.522 117.967 419.25 119.826C419.25 119.826 419.453 119.981 420.068 121.55C420.683 123.118 421.664 123.436 421.664 123.436L420.163 119.833C420.163 119.833 429.471 114.783 429.64 112.898C429.809 111.012 427.456 107.544 426.105 105.394C424.753 103.245 422.035 103.427 418.473 105.408C414.911 107.382 409.287 114.114 409.287 114.114Z" fill="#121721"/>
<path d="M414.904 264.797C403.238 264.797 393.78 255.34 393.78 243.674C393.78 232.008 403.238 222.55 414.904 222.55C426.57 222.55 436.027 232.008 436.027 243.674C436.027 255.34 426.57 264.797 414.904 264.797Z" fill="#992C29"/>
<path d="M419.182 253.029C414.9 253.029 411.429 249.558 411.429 245.276C411.429 240.994 414.9 237.522 419.182 237.522C423.464 237.522 426.936 240.994 426.936 245.276C426.936 249.558 423.464 253.029 419.182 253.029Z" fill="#4B3355"/>
<path d="M433.357 218.136C433.357 218.136 432.019 237.921 419.987 248.351C407.955 258.781 397.39 262.526 397.39 262.526" stroke="#856792" stroke-width="3" stroke-miterlimit="10"/>
<path d="M439.238 217.068C439.238 217.068 437.9 236.853 425.868 247.283C413.836 257.713 403.271 261.458 403.271 261.458" stroke="#BB83C3" stroke-width="3" stroke-miterlimit="10"/>
<path d="M437.366 222.28C437.366 222.28 434.689 248.352 422.657 258.782C410.626 269.212 400.06 272.956 400.06 272.956" stroke="#665070" stroke-width="3" stroke-miterlimit="10"/>
<path d="M320.155 273.179C326.293 267.481 322.819 268.644 353.527 253.746C372.305 244.634 386.351 239.929 392.753 238.003C395.139 237.286 399.296 238.517 399.857 241.707C401.128 248.886 402.25 253.327 404.311 257.159C406.339 260.918 408.185 262.344 411.368 260.661C414.43 259.039 418.331 254.665 419.48 259.066C420.609 263.412 420.798 273.632 417.013 276.154C408.678 281.717 360.199 314.034 339.062 319.185C314.964 325.059 313.828 279.06 320.155 273.179Z" fill="#C94039"/>
<path d="M344.456 276.918C348.843 273.017 342.57 274.39 364.782 263.953C378.551 257.484 388.934 254.05 393.692 252.631C395.47 252.097 398.579 252.894 398.998 255.091C399.952 260.053 400.79 263.128 402.344 265.771C403.872 268.374 405.265 269.354 407.671 268.144C409.989 266.981 412.943 263.879 413.822 266.947C414.694 269.989 414.85 277.168 411.977 278.966C405.65 282.92 369.324 305.173 353.919 309.053C345.639 311.155 339.947 280.926 344.456 276.918Z" fill="#EE5D4F"/>
<path d="M420.015 267.833L331.343 314.818" stroke="#1D2538" stroke-width="0.5" stroke-miterlimit="10"/>
<path d="M315.465 266.63C315.465 266.63 329.464 259.701 331.424 264.737C332.513 277.418 339.455 301.908 345.903 318.678C344.038 321.132 334.885 328.283 327.416 325.843C319.595 323.295 315.465 266.63 315.465 266.63Z" fill="#F7BC4B"/>
<path d="M330.525 299.258C333.256 297.541 334.649 294.31 334.061 291.133C332.181 280.939 329.829 260.654 331.424 264.744C332.513 277.424 339.455 301.914 345.903 318.685C344.038 321.138 334.885 328.29 327.416 325.85C323.374 324.532 320.866 301.035 320.866 301.035C325.632 300.887 328.254 300.684 330.525 299.258Z" fill="#FEED7F"/>
<path d="M444.84 244.911C455.155 237.901 459.008 164.939 457.183 146.479C455.521 129.654 456.163 136.157 456.163 136.157C456.163 136.157 456.899 132.561 448.47 132.561C440.095 132.561 440.109 132.771 439.156 135.076C438.189 137.408 437.655 141.294 436.621 142.822C435.58 144.363 433.667 144.904 431.909 144.863C430.159 144.816 432.646 142.153 427.435 142.133C422.243 142.112 420.337 141.24 418.972 146.722C417.566 152.366 407.812 201.366 405.804 216.088C408.812 214.939 415.639 216.028 424.386 220.137C433.275 224.315 439.081 230.669 440.731 236.354C442.414 242.126 440.433 247.906 444.84 244.911Z" fill="#C94039"/>
<path d="M414.37 169.198L416.418 158.409C416.418 158.409 438.88 151.636 457.779 160.904L457.421 172.314C457.421 172.321 435.047 161.715 414.37 169.198Z" fill="#F7BC4B"/>
<path d="M457.158 177.62L457.293 173.875C457.293 173.875 445.383 169.448 435.5 168.664C423.732 167.731 413.843 171.469 413.843 171.469L413.174 175.349C413.174 175.349 421.515 171.029 435.291 172.003C441.543 172.449 448.925 174.402 457.158 177.62Z" fill="#F7BC4B"/>
<path d="M446.363 241.781C452.074 225.085 454.859 185.603 454.859 185.603C454.859 185.603 455.522 182.358 447.924 182.358C440.374 182.358 425.28 190.564 421.319 195.134C413.741 203.867 410.53 212.783 411.957 213.493C413.383 214.203 420.028 215.73 427.916 219.434C435.933 223.199 441.171 228.932 442.658 234.062C444.173 239.267 444.808 246.337 446.363 241.781Z" fill="#EE5D4F"/>
<path d="M449.756 132.561C453.798 140.057 453.764 175.727 449.397 202.624C446.072 223.125 439.772 233.913 439.772 233.913" stroke="#1D2538" stroke-width="0.5" stroke-miterlimit="10"/>
<path d="M320.48 266.271C320.48 266.271 305.001 242.741 254.19 238.996C194.652 232.933 166.363 254.874 166.363 254.874L115.673 537.084L348.62 530.237L320.48 266.271Z" fill="#992C29"/>
<path d="M329.87 353.983C329.87 353.983 292.969 329.114 240.82 329.114C188.67 329.114 148.654 353.449 148.654 353.449L141.61 392.133C141.61 392.133 187.872 368.421 237.609 367.623C287.346 366.826 334.236 394.276 334.236 394.276L329.87 353.983Z" fill="#F7BC4B"/>
<path d="M335.527 407.592C335.527 407.592 295.22 385.4 239.177 385.4C183.134 385.4 139.204 407.011 139.204 407.011L132.248 442.579C132.248 442.579 196.072 415.305 236.717 415.663C277.362 416.021 339.583 442.796 339.583 442.796L335.527 407.592Z" fill="#F7BC4B"/>
<path d="M315.006 288.192C315.006 288.192 305.164 276.721 264.891 273.753C211.409 283.379 137.602 465.751 137.602 465.751C137.602 465.751 181.458 447.034 237.616 446.229C293.774 445.425 337.63 474.309 337.63 474.309L315.006 288.192Z" fill="#EE5D4F"/>
<path d="M169.669 395.594C169.669 395.594 165.417 403.976 160.868 413.48C157.089 421.375 153.155 430.054 150.83 435.212C241.36 383.934 333.445 440.612 333.445 440.612L329.133 404.557C329.133 404.557 288.968 385.617 237.433 385.894C203.919 386.07 183.952 391.592 169.669 395.594Z" fill="#FEED7F"/>
<path d="M322.474 349.69L327.551 390.795C327.551 390.795 305.265 374.572 257.002 370.428C208.732 366.285 178.875 377.783 178.875 377.783C178.875 377.783 190.616 354.787 204.723 332.859C204.723 332.852 256.332 316.541 322.474 349.69Z" fill="#FEED7F"/>
<path d="M162.206 274.828C162.206 274.828 192.691 247.283 250.539 251.907C271.703 253.597 296.085 260.208 321.23 275.369" stroke="#1D2538" stroke-width="0.5" stroke-miterlimit="10"/>
<path d="M297.6 263.506L300.635 328.708" stroke="#1D2538" stroke-width="0.5" stroke-miterlimit="10"/>
<path d="M328.862 346.013L328.997 346.128L328.957 345.648C328.957 345.648 323.082 339.909 311.476 333.683C300.763 327.944 282.904 320.664 258.651 318.583C204.426 313.918 160.638 329.513 150.681 342.207L150.552 342.917L150.755 342.667C160.266 329.986 204.149 314.236 258.624 318.914C282.823 320.996 300.641 328.249 311.321 333.974C322.88 340.179 328.801 345.952 328.862 346.013Z" fill="#1D2538"/>
<path d="M138.67 454.26C138.67 454.26 183.147 420.503 242.421 425.376C288.143 429.134 320.507 440.619 335.683 452.671" stroke="#1D2538" stroke-width="0.5" stroke-miterlimit="10"/>
<path d="M239.575 251.474L239.217 283.92C239.217 283.92 211.003 284.325 199.998 286.772C183.951 290.334 180.389 292.477 180.389 292.477L183.241 262.168C183.241 262.168 209.603 250.494 239.575 251.474Z" stroke="#1D2538" stroke-width="0.5" stroke-miterlimit="10"/>
<path d="M181.815 276.789C181.815 276.789 168.979 280.709 164.7 284.63" stroke="#1D2538" stroke-width="0.5" stroke-miterlimit="10"/>
<path d="M239.217 276.789C239.217 276.789 273.089 274.653 298.403 287.482" stroke="#1D2538" stroke-width="0.5" stroke-miterlimit="10"/>
<path d="M180.389 292.477L178.158 326.924" stroke="#1D2538" stroke-width="0.5" stroke-miterlimit="10"/>
<path d="M40.2642 118.481L47.4834 148.966L41.8662 143.349L36.2558 117.676L40.2642 118.481Z" fill="#3E4C6F"/>
<path d="M50.9577 120.975L58.1836 151.46L52.5664 145.843L46.9493 120.177L50.9577 120.975Z" fill="#3E4C6F"/>
<path d="M49.8015 119.732L43.3867 142.194L48.1995 149.413L55.4187 128.553L53.8099 155.03L65.8486 152.624L59.4271 120.53L49.8015 119.732Z" fill="#1D2538"/>
<path d="M65.5579 220.63C68.9039 219.765 71.0263 217.007 70.8236 213.952C69.9516 200.703 68.0792 167.717 67.9035 165.52C67.6939 162.836 66.4502 160.214 62.2728 159.477C58.1224 158.747 52.9919 158.747 52.4512 156.577C51.9239 154.448 52.512 150.912 48.9227 150.656C45.3402 150.399 40.4395 149.561 38.4995 151.338C35.8633 153.751 24.9737 199.419 23.6218 220.461C22.0333 245.201 41.9401 257.152 43.4745 254.867C44.9819 252.616 38.317 247.33 44.1573 231.797C47.5708 222.705 59.8393 222.111 65.5579 220.63Z" fill="#1D2538"/>
<path d="M44.0091 210.917C44.0091 210.917 45.3475 230.702 57.3795 241.132C69.4114 251.562 79.9766 255.306 79.9766 255.306" stroke="#4B3355" stroke-width="3" stroke-miterlimit="10"/>
<path d="M41.6029 210.917C41.6029 210.917 42.4072 232.574 54.4392 243.004C66.4712 253.434 77.5703 255.306 77.5703 255.306" stroke="#665070" stroke-width="3" stroke-miterlimit="10"/>
<path d="M56.595 197.235C56.595 197.235 59.8666 216.723 71.9527 227.092C84.0387 237.455 95.7529 243.937 95.7529 243.937" stroke="#665070" stroke-width="3" stroke-miterlimit="10"/>
<path d="M53.1136 197.506C53.1136 197.506 56.3852 216.994 68.4712 227.363C80.5572 237.725 92.2715 244.207 92.2715 244.207" stroke="#4B3355" stroke-width="3" stroke-miterlimit="10"/>
<path d="M44.428 203.792C44.428 203.792 47.6997 223.28 59.7857 233.649C71.8717 244.011 83.5859 250.494 83.5859 250.494" stroke="#4B3355" stroke-width="3" stroke-miterlimit="10"/>
<path d="M60.5559 135.846C60.5559 135.846 72.5406 140.517 75.4945 138.495C78.4484 136.474 81.3145 133.068 83.2409 128.289C85.1674 123.503 87.1141 120.441 85.0389 118.683C82.9705 116.926 80.7331 115.135 80.7331 115.135C80.7331 115.135 82.8691 116.561 84.5252 114.127C86.1813 111.694 91.2036 100.46 90.0139 97.6679C88.8243 94.8695 86.2962 90.9692 85.3228 89.7593C84.3495 88.5493 83.6667 89.4483 83.6667 89.4483C83.6667 89.4483 83.4572 85.9807 81.72 84.2841C79.9828 82.5874 76.8937 81.6681 76.8937 81.6681C76.8937 81.6681 76.8329 79.255 74.8659 77.8558C72.8989 76.4565 72.108 76.5647 68.5592 75.8144C65.0105 75.0641 62.7663 75.1587 62.7663 75.1587C62.7663 75.1587 59.9476 73.2593 58.4605 72.9821C56.9666 72.705 49.7677 71.779 46.753 74.1313C43.7383 76.4836 38.5132 84.2435 36.6813 91.2734C34.8495 98.3033 33.3151 116.534 36.7759 123.699C40.2301 130.857 53.0055 134.947 60.5559 135.846Z" fill="#992C29"/>
<path d="M67.6197 127.2C67.6197 127.2 76.2449 132.101 78.3404 131.621C80.4358 131.141 81.8012 130.215 83.3018 126.47C84.8025 122.725 86.3301 120.332 84.7078 118.953C83.0856 117.574 83.0044 117.291 84.3022 115.391C85.6001 113.485 89.5274 104.698 88.5946 102.514C87.6618 100.324 85.688 97.2757 84.9241 96.3226C84.1603 95.3695 83.6263 96.0792 83.6263 96.0792C83.6263 96.0792 83.4641 93.3686 82.1054 92.037C80.7467 90.7054 78.3336 89.9889 78.3336 89.9889C78.3336 89.9889 78.2863 88.103 76.7451 87.0079C75.2039 85.9129 74.5888 86.0008 71.8107 85.4127C69.0392 84.8246 67.2818 84.899 67.2818 84.899C67.2818 84.899 65.0782 83.4119 63.9155 83.1956C62.7529 82.9793 57.1155 82.256 54.7564 84.0946C52.3973 85.9332 48.3078 92.01 46.8748 97.5055C45.4417 103.008 44.5089 108.517 47.2127 114.12C49.9165 119.724 57.7644 118.379 67.6197 127.2Z" fill="#C94039"/>
<path d="M60.232 73.7798C60.232 73.7798 64.7338 77.1933 64.9637 79.424C65.1935 81.6546 62.4626 94.1327 61.5366 97.6882C60.6105 101.244 60.2252 101.947 58.0014 102.812C55.7775 103.677 51.9043 103.082 51.9043 103.082C51.9043 103.082 53.2562 104.11 56.352 104.042C59.4479 103.981 61.0904 102.102 61.8272 101.595C62.564 101.088 63.267 97.3638 63.9362 93.7609C64.6122 90.1581 66.5589 81.1342 66.8428 79.6471C67.1267 78.16 65.2138 75.3548 60.232 73.7798Z" fill="#121721"/>
<path d="M76.7385 81.5464C76.7385 81.5464 76.7521 86.5214 74.6229 96.4985C73.9266 99.7565 73.4873 104.603 68.7488 104.056C65.7138 103.339 60.3129 101.96 60.3129 101.96L60.1169 102.569C60.1169 102.569 64.1996 104.103 66.9102 104.745C69.6208 105.38 71.9258 105.428 73.2439 103.873C74.562 102.318 76.5763 93.1795 77.0427 88.6371C77.5024 84.088 78.6245 82.9253 76.7385 81.5464Z" fill="#121721"/>
<path d="M83.6668 89.4415C83.6668 89.4415 81.4835 101.041 80.7129 104.495C79.9423 107.949 77.786 108.916 74.413 111.112L75.5216 111.146C75.5216 111.146 80.7873 108.449 81.3889 105.218C81.9972 101.987 84.4307 89.1373 84.4307 89.1373C84.4307 89.1373 84.2887 89.0832 84.0319 89.1643C83.775 89.2522 83.6668 89.4415 83.6668 89.4415Z" fill="#121721"/>
<path d="M82.5986 117.068C82.5986 117.068 75.4403 111.356 72.0673 109.436C68.6943 107.517 65.8012 109.936 65.0306 111.978C64.26 114.019 63.361 114.945 65.5714 117.548C67.7818 120.15 72.3647 124.355 72.3647 124.355C72.3647 124.355 68.2887 126.518 66.5515 128.545C67.1734 126.213 70.3977 123.442 70.3977 123.442C70.3977 123.442 63.334 117.23 63.0366 115.371C62.7391 113.512 64.1586 111.816 65.3483 109.592C66.538 107.368 69.2418 107.361 72.9055 109.078C76.5691 110.795 82.5986 117.068 82.5986 117.068Z" fill="#121721"/>
<path d="M61.2993 260.207C49.6331 260.207 40.1758 250.75 40.1758 239.084C40.1758 227.418 49.6331 217.96 61.2993 217.96C72.9655 217.96 82.4229 227.418 82.4229 239.084C82.4229 250.75 72.9655 260.207 61.2993 260.207Z" fill="#992C29"/>
<path d="M58.0884 246.303C54.247 246.303 51.1329 243.189 51.1329 239.348C51.1329 235.506 54.247 232.392 58.0884 232.392C61.9299 232.392 65.0439 235.506 65.0439 239.348C65.0439 243.189 61.9299 246.303 58.0884 246.303Z" fill="#4B3355"/>
<path d="M41.2913 213.5C41.2913 213.5 42.6298 233.285 54.6617 243.715C66.6937 254.145 77.2588 257.889 77.2588 257.889" stroke="#856792" stroke-width="3" stroke-miterlimit="10"/>
<path d="M35.4037 212.431C35.4037 212.431 36.7421 232.216 48.774 242.646C60.806 253.076 71.3711 256.821 71.3711 256.821" stroke="#BB83C3" stroke-width="3" stroke-miterlimit="10"/>
<path d="M38.6146 223.929C38.6146 223.929 39.953 243.714 51.9849 254.144C64.0169 264.574 74.582 268.319 74.582 268.319" stroke="#665070" stroke-width="3" stroke-miterlimit="10"/>
<path d="M164.193 253.955C164.193 253.955 100.201 233.068 91.3323 230.527C82.8153 228.08 79.3544 229.479 78.3067 236.63C77.2725 243.674 73.7643 247.033 67.2684 247.844C61.0023 248.629 59.2922 248.405 58.0079 248.662C56.7236 248.919 55.9192 251.65 55.838 258.105C55.7637 264.297 53.6683 265.325 67.0994 273.625C81.4093 282.467 140.447 308.491 140.447 308.491C140.447 308.491 157.887 299.251 163.389 286.036C169.121 272.287 164.193 253.955 164.193 253.955Z" fill="#C94039"/>
<path d="M118.262 270.61C103.614 265.689 85.0658 257.071 79.9421 257.659C74.9806 258.227 68.39 260.146 64.1923 260.038C60.0217 259.937 58.8591 257.97 58.7847 262.972C58.7171 267.778 63.2257 268.799 73.7706 275.308C84.9779 282.223 136.425 303.468 136.425 303.468C136.425 303.468 144.056 295.093 145.124 284.717C145.705 278.979 133.153 275.612 118.262 270.61Z" fill="#EE5D4F"/>
<path d="M138.615 292.423C138.541 293.64 139.427 294.674 140.603 294.735C141.779 294.796 142.8 293.85 142.881 292.633C142.962 291.409 142.069 290.368 140.893 290.314C139.71 290.253 138.696 291.2 138.615 292.423Z" fill="#3E4C6F"/>
<path d="M149.031 300.832L55.9188 261.458" stroke="#1D2538" stroke-width="0.5" stroke-miterlimit="10"/>
<path d="M159.299 251.333C159.299 251.333 170.27 253.327 172.412 255.861C174.569 258.41 171.581 281.453 164.916 294.904C158.535 307.775 151.532 313.716 144.867 310.783C141.609 309.343 138.311 307.599 138.311 307.599C138.311 307.599 145.124 300.028 151.566 280.831C158.657 259.681 159.299 251.333 159.299 251.333Z" fill="#FEED7F"/>
<path d="M159.299 251.333C159.299 251.333 170.27 253.327 172.413 255.861C174.569 258.41 167.012 281.811 167.012 281.811C167.012 281.811 164.173 285.705 151.566 280.831C158.657 259.681 159.299 251.333 159.299 251.333Z" fill="#F7BC4B"/>
<path d="M61.2996 211.714C67.5386 211.714 70.479 216.23 70.479 216.23C70.479 216.23 71.0806 216.027 70.6818 211.836C69.2555 194.255 67.9239 155.664 67.7819 153.812C67.5521 150.811 66.207 147.877 61.6781 147.053C57.183 146.235 51.6199 146.235 51.0386 143.808C50.4641 141.429 51.0994 137.468 47.2127 137.184C43.3327 136.9 38.0198 135.96 35.9176 137.948C33.0583 140.652 21.2629 191.727 19.7961 215.27C18.0724 242.943 40.2234 256.963 41.8795 254.408C43.5153 251.886 33.038 244.796 39.3649 227.417C43.0759 217.244 55.0605 211.714 61.2996 211.714Z" fill="#C94039"/>
<path d="M66.6934 182.304C66.6934 182.304 53.857 183.906 47.9762 180.702C42.0954 177.491 48.3074 152.555 48.3074 152.555L65.7538 156.232L66.6934 182.304Z" stroke="#1D2538" stroke-width="0.5" stroke-miterlimit="10"/>
<path d="M59.3593 209.781C66.7813 210.106 68.2481 210.768 67.8966 207.084C67.2747 193.984 31.26 188.279 28.4953 188.367C25.075 188.475 21.364 202.272 22.432 219.387C23.5 236.502 32.8484 250.568 34.2004 234.359C34.9169 225.801 42.4064 209.045 59.3593 209.781Z" fill="#EE5D4F"/>
<path d="M42.582 136.664C41.5749 139.611 21.0124 201.555 32.24 248.622" stroke="#1D2538" stroke-width="0.5" stroke-miterlimit="10"/>
<path d="M148.619 212.032C151.789 215.195 159.042 220.441 155.453 223.875C152.675 226.538 149.207 223.706 143.319 217.893C139.534 214.155 145.449 208.869 148.619 212.032Z" fill="#CC6D3D"/>
<path d="M151.188 220.042L149.356 223.152L144.137 217.839L151.188 220.042Z" fill="#F5894E"/>
<path d="M137.709 206.05C137.709 206.05 140.845 203.157 144.461 206.997C148.537 211.329 148.733 211.654 148.733 211.654L143.326 217.893C143.326 217.893 136.276 207.22 137.709 206.05Z" fill="#C94039"/>
<path d="M156.074 223.848C153.431 225.342 152.215 225.349 150.518 223.192C148.821 221.036 153.384 218.089 160.232 214.486C167.086 210.883 169.391 209.241 170.452 210.802C171.52 212.363 168.485 215.98 163.726 219.069C158.968 222.158 158.717 222.354 156.074 223.848Z" fill="#CC6D3D"/>
<path d="M156.521 223.307C153.878 224.801 152.695 223.99 152.695 223.99L154.54 221.239C154.54 221.239 169.459 214.878 164.7 217.967C159.941 221.057 159.164 221.814 156.521 223.307Z" fill="#F5894E"/>
<path d="M170.635 214.425C171.845 213.621 172.602 213.236 173.305 212.526C174.116 211.316 174.798 208.957 175.414 207.95C176.684 205.881 175.285 204.144 174.738 205.537C174.19 206.929 171.52 209.329 171.52 209.329L172.683 205.131L176.062 201.021C176.062 201.021 176.218 197.452 175.143 197.797C174.068 198.142 172.02 202.414 170.209 202.867C168.397 203.319 166.018 210.552 166.518 212.141C167.018 213.729 169.06 215.372 170.635 214.425Z" fill="#CC6D3D"/>
<path d="M155.014 241.646C155.014 241.646 156.42 246.763 145.456 244.904C134.492 243.045 114.484 238.178 114.484 238.178C114.484 238.178 148.301 233.366 155.014 241.646Z" fill="#EE5D4F"/>
<path d="M140.474 262.81L132.072 275.774L128.361 271.78L134.836 258.457L140.474 262.81Z" fill="#CC6D3D"/>
<path d="M149.464 240.273C150.201 240.456 154.567 241.287 150.417 248.216C145.631 256.205 144.482 257.997 140.379 263.066L134.688 258.848C134.688 258.848 137.926 250.737 139.487 246.134C141.413 240.456 148.727 240.091 149.464 240.273Z" fill="#1D2538"/>
<path d="M140.568 259.072C143.61 258.274 154.567 241.287 150.417 248.216C145.631 256.206 144.482 257.997 140.379 263.066L134.688 258.849C134.688 258.855 137.52 259.869 140.568 259.072Z" fill="#3E4C6F"/>
<path d="M132.403 274.335C132.403 274.335 134.262 281.939 132.241 282.784C130.22 283.629 127.097 273.571 128.361 271.78C129.625 269.988 132.403 274.335 132.403 274.335Z" fill="#CC6D3D"/>
<path d="M132.7 275.592C132.7 275.592 133.268 280.594 132.247 280.662C131.233 280.729 129.429 277.316 128.861 276.281C128.293 275.247 129.016 271.725 128.205 271.597C127.401 271.469 126.11 273.753 126.076 274.767C126.062 275.119 126.786 275.977 127.374 278.059C127.752 279.397 127.874 281.797 128.408 283.061C129.435 285.488 131.267 287.178 131.997 287.549C133.687 288.421 134.086 285.9 134.099 282.656C134.12 279.411 132.7 275.592 132.7 275.592Z" fill="#C94039"/>
<path d="M128.699 275.186C128.598 273.827 129.01 271.732 128.206 271.603C127.401 271.475 126.11 273.76 126.076 274.774C126.063 275.125 126.786 275.984 127.374 278.065C127.753 279.404 127.874 281.803 128.408 283.067C129.436 285.494 131.268 287.184 131.998 287.556C133.688 288.428 129.166 284.784 129.186 281.54C129.193 280.742 131.464 280.283 131.464 280.283C131.464 280.283 128.882 277.599 128.699 275.186Z" fill="#992C29"/>
<path d="M138.75 232.899C138.75 232.899 148.058 237.009 150.748 240.179C153.439 243.349 153.182 250.028 140.109 244.911C131.078 241.375 121.851 237.908 126.15 236.792C130.443 235.677 134.167 230.641 138.75 232.899Z" fill="#1D2538"/>
<path d="M139.027 282.96C139.027 282.96 140.71 285.873 141.42 287.523C142.035 288.962 143.252 290.869 143.482 291.984C143.975 294.39 143.786 295.722 142.752 295.85C141.718 295.979 138.953 295.073 137.392 293.356C136.513 292.39 134.809 287.861 134.465 285.691C134.188 284.001 136.06 278.864 139.027 282.96Z" fill="#C94039"/>
<path d="M137.398 289.476C138.297 293.83 143.786 295.729 142.752 295.851C141.717 295.979 138.953 295.073 137.391 293.356C136.513 292.39 133.755 286.414 133.403 284.245C133.133 282.548 134.417 281.081 134.789 280.723C135.154 280.371 140.264 285.434 137.398 289.476Z" fill="#992C29"/>
<path d="M137.506 268.346L138.419 281.156C138.419 281.156 141.454 289.679 140.649 289.713C139.845 289.747 137.006 287.726 135.478 284.576C134.492 282.528 131.923 271.408 130.923 268.576C127.57 259.039 137.216 260.505 137.506 268.346Z" fill="#F5894E"/>
<path d="M123.615 235.468C125.65 236.461 134.397 238.374 135.255 244.262C136.316 251.508 137.526 268.61 137.526 268.61L131.071 268.84C131.071 268.84 126.894 259.315 125.697 253.252C124.845 248.94 124.494 245.472 124.494 245.472C124.494 245.472 115.693 238.942 114.943 236.556C114.199 234.17 121.581 234.474 123.615 235.468Z" fill="#1D2538"/>
<path d="M136.208 253.272L136.769 259.539L137.533 268.617L131.071 268.84L135.641 263.878L136.208 253.272Z" fill="#3E4C6F"/>
<path d="M119.567 226.808C118.689 225.7 120.5 223.841 120.744 221.401C121.149 217.264 120.723 211.775 121.818 207.814C122.575 205.063 122.548 204.718 124.367 203.42C125.57 202.562 130.234 204.144 134.959 204.333C139.731 204.529 140.049 204.82 141.827 209.95C143.516 214.824 142.077 215.703 140.17 219.089C138.65 221.793 136.196 224.699 136.196 224.699C136.196 224.699 135.642 228.018 131.397 228.857C125.84 229.965 121.94 229.803 119.567 226.808Z" fill="#CE9436"/>
<path d="M138.696 198.702L136.804 204.685C136.804 204.685 135.776 207.328 133.769 207.348C131.761 207.368 130.517 204.827 130.693 204.205C130.869 203.583 133.174 196.357 133.174 196.357L138.696 198.702Z" fill="#CC6D3D"/>
<path d="M135.682 225.356C138.156 226.606 144.347 232.365 148.18 234.63C156.508 240.625 155.014 241.646 155.014 241.646C155.014 241.646 152.161 239.01 148.782 239.794C146.923 240.226 142.685 243.64 137.108 241.051C133.012 239.152 126.435 238.253 126.435 238.253C126.435 238.253 120.148 239.409 118.979 239.699C115.39 240.591 113.247 238.158 113.247 238.158C114.599 234.461 119.27 223.585 122.528 222.354C125.799 221.131 133.208 224.105 135.682 225.356Z" fill="#F7BC4B"/>
<path d="M118.985 239.706C115.423 240.672 113.253 238.164 113.253 238.164C115.214 232.304 118.857 226.531 118.857 226.531L115.829 236.164L118.985 239.706Z" fill="#CE9436"/>
<path d="M133.485 217.927C134.681 218.596 141.333 214.276 140.718 215.838C140.103 217.393 135.905 226.761 134.06 227.518C132.221 228.275 130.349 224.274 127.942 223.692C125.536 223.111 121.352 224.821 121.48 223.794C121.609 222.766 126.692 214.128 133.485 217.927Z" fill="#F7BC4B"/>
<path d="M136.439 238.327C138.453 239.49 142.583 240.206 142.583 240.206C142.583 240.206 137.838 237.732 134.025 231.824C134.019 231.824 134.424 237.164 136.439 238.327Z" fill="#CE9436"/>
<path d="M116.295 212.343C116.295 212.343 113.544 217.264 112.496 220.921C111.448 224.578 114.078 226.275 115.727 226.2C117.376 226.133 120.641 217.866 122.757 214.466C124.873 211.066 119.215 206.652 116.295 212.343Z" fill="#CC6D3D"/>
<path d="M122.831 215.507C122.831 215.507 128.124 206.53 124.15 203.894C120.182 201.251 116.728 210.065 115.862 212.607L122.831 215.507Z" fill="#C94039"/>
<path d="M109.096 239.077C109.096 239.077 116.802 227.964 117.944 223.99C119.087 220.015 114.321 219.4 112.584 220.948C110.854 222.489 106.751 233.784 105.885 236.596C105.02 239.408 107.359 240.456 109.096 239.077Z" fill="#CC6D3D"/>
<path d="M110.32 236.691C110.32 236.691 116.254 228.127 117.133 225.071C118.012 222.009 108.508 232.615 107.846 234.785C107.183 236.948 108.974 237.752 110.32 236.691Z" fill="#F5894E"/>
<path d="M109.312 237.523C109.312 237.523 109.677 240.26 109.177 242.052C108.994 242.863 107.487 243.025 106.29 243.228C105.094 243.43 103.891 243.403 103.208 243.356C102.532 243.309 101.565 242.545 103.789 242.004C104.742 241.774 106.73 240.869 106.73 240.869C106.73 240.869 107.027 238.949 107.46 237.982C108.17 236.38 109.312 237.523 109.312 237.523Z" fill="#CC6D3D"/>
<path d="M105.98 241.281C105.98 241.281 102.37 241.01 101.14 241.173C99.8354 241.348 97.3884 242.038 96.922 241.369C96.4691 240.706 98.0847 239.699 98.5984 239.658C99.0986 239.611 102.843 239.415 102.843 239.415C102.843 239.415 109.975 239.807 105.98 241.281Z" fill="#CC6D3D"/>
<path d="M107.156 239.273C107.156 239.273 103.262 237.867 102.566 237.772C101.849 237.678 96.9488 241.01 98.49 241.004C99.9433 240.997 101.518 239.543 102.755 240.334C103.979 241.112 107.548 241.652 107.156 239.273Z" fill="#CC6D3D"/>
<path d="M107.452 237.982C107.452 237.982 104.789 236.799 104.093 237.063C103.363 237.34 100.72 239.462 102.315 239.462C103.809 239.469 107.283 241.7 107.452 237.982Z" fill="#CC6D3D"/>
<path d="M145.76 198.087C145.76 198.087 143.084 202.549 139.001 200.724C134.918 198.892 133.911 188.502 139.967 188.705C146.024 188.908 148.025 195.039 145.76 198.087Z" fill="#273252"/>
<path d="M142.84 184.149C140.799 181.946 140.035 179.113 135.574 180.039C135.574 180.039 131.004 178.559 126.617 181.696C121.359 185.461 123.353 190.916 123.353 190.916C123.353 190.916 117.566 196.729 124.495 200.615C127.834 202.488 133.952 200.615 136.635 199.757C142.617 197.851 144.882 186.353 142.84 184.149Z" fill="#273252"/>
<path d="M136.817 182.804C139.075 183.372 147.139 182.31 147.322 180.452C147.504 178.593 140.623 176.565 139.602 180.472C139.602 180.472 141.231 176.673 138.906 175.625C136.574 174.571 134.56 182.236 136.817 182.804Z" fill="#273252"/>
<path d="M144.868 190.666C145.828 199.433 140.245 201.528 134.202 200.751C129.659 200.169 129.024 197.283 129.274 191.551C129.524 185.819 131.775 181.547 136.345 181.229C142.381 180.81 144.247 184.974 144.868 190.666Z" fill="#CC6D3D"/>
<path d="M142.961 195.431C141.907 198.52 139.514 200.771 135.364 200.271C132.031 199.872 130.085 197.31 129.936 194.133C129.787 190.956 136.831 188.753 140.136 188.651C144.496 188.523 144.016 192.335 142.961 195.431Z" fill="#F5894E"/>
<path d="M128.233 192.659L132.086 192.463C132.086 192.463 132.255 185.454 136.696 183.771C141.36 182 143.489 184.987 143.489 184.987C143.489 184.987 141.265 178.992 134.371 181.506C128.889 183.5 128.233 192.659 128.233 192.659Z" fill="#F7BC4B"/>
<path d="M127.313 193.098C126.85 191.344 127.583 189.629 128.951 189.267C130.319 188.906 131.804 190.035 132.267 191.789C132.731 193.543 131.998 195.258 130.63 195.619C129.262 195.981 127.777 194.852 127.313 193.098Z" fill="#F5894E"/>
<path d="M137.831 187.272C137.831 187.272 139.007 186.495 139.765 186.502" stroke="#1D2538" stroke-width="0.25" stroke-miterlimit="10" stroke-linecap="round" stroke-linejoin="round"/>
<path d="M138.795 189.572C138.646 188.886 138.824 188.265 139.192 188.185C139.561 188.105 139.98 188.597 140.129 189.282C140.278 189.968 140.1 190.589 139.731 190.669C139.363 190.749 138.943 190.258 138.795 189.572Z" fill="#273252"/>
<path d="M143.143 189.006C143.083 188.374 143.226 187.843 143.464 187.82C143.702 187.797 143.944 188.291 144.005 188.923C144.065 189.555 143.921 190.086 143.683 190.109C143.446 190.131 143.204 189.638 143.143 189.006Z" fill="#273252"/>
<path d="M142.616 186.055C142.616 186.055 143.481 185.995 143.907 186.407" stroke="#1D2538" stroke-width="0.25" stroke-miterlimit="10" stroke-linecap="round" stroke-linejoin="round"/>
<path d="M128.023 195.1C128.023 195.1 132.045 193.383 134.391 196.08C136.736 198.777 132.965 205.557 128.382 203.096C123.799 200.649 124.941 196.1 128.023 195.1Z" fill="#273252"/>
<path d="M133.979 182.872C133.979 182.872 134.161 185.88 133.404 187.955C132.83 189.523 132.052 190.435 132.052 190.435L131.863 189.8L130.93 189.888C130.93 189.888 132.769 187.779 133.31 183.02L133.979 182.872Z" fill="#EE5D4F"/>
<path d="M133.938 182.541C133.938 182.541 135.142 185.305 135.142 187.509C135.142 189.178 134.723 190.3 134.723 190.3L134.33 189.766L133.486 190.165C133.486 190.165 134.486 187.556 133.371 182.892L133.938 182.541Z" fill="#EE5D4F"/>
<path d="M134.066 184.474C133.465 184.866 130.389 182.554 131.572 181.351C132.681 180.215 134.141 179.134 134.736 180.215C135.337 181.29 134.675 184.082 134.066 184.474Z" fill="#EE5D4F"/>
<path d="M132.152 183.312C132.152 183.312 131.24 181.946 131.632 181.629C132.024 181.311 132.166 182.129 132.802 182.994C133.43 183.874 132.551 183.88 132.152 183.312Z" fill="#F7BC4B"/>
<path d="M133.966 183.494C133.966 183.494 133.533 182.872 132.249 183.088C130.958 183.298 130.086 183.575 129.87 184.359C129.653 185.143 130.769 186.691 131.702 187.117C132.641 187.543 133.919 185.366 134.121 184.69C134.324 184.014 133.966 183.494 133.966 183.494Z" fill="#EE5D4F"/>
<path d="M130.633 185.732C130.633 185.732 131.498 186.996 132.161 186.712C133.148 186.293 130.728 184.63 130.376 184.339C130.031 184.049 129.761 185.062 130.633 185.732Z" fill="#F7BC4B"/>
<path d="M426.8 491.011C426.8 491.011 512.004 544.905 536.527 555.281C561.903 566.015 513.592 566.961 513.592 566.961C513.592 566.961 535.912 580.663 519.629 582.562C503.25 584.475 494.003 582.562 494.003 582.562C494.003 582.562 532.363 598.204 502.392 612.534C471.075 627.506 289.764 679.25 180.267 650.097C79.1239 623.16 76.9473 614.271 40.838 616.319C4.50553 618.381 22.6075 601.976 35.3492 597.115C35.3492 597.115 -10.6628 600.353 2.30192 580.872C27.8664 542.458 47.2257 530.602 47.2257 530.602L426.8 491.011Z" fill="#1D2538"/>
<path d="M249.451 640.701C248.45 638.348 232.119 623.613 240.129 622.2C248.139 620.787 259.766 629.541 259.766 629.541C259.766 629.541 262.26 615.177 266.201 619.381C270.148 623.586 272.507 630.818 272.507 630.818C272.507 630.818 275.394 615.697 280.24 620.328C285.087 624.958 287.088 629.662 287.088 629.662C287.088 629.662 294.672 620.517 296.929 625.816C299.187 631.116 301.695 636.997 301.695 636.997C301.695 636.997 307.92 622.977 312.95 622.984C317.979 622.991 320.946 633.333 320.946 633.333C320.946 633.333 323.941 620.145 329.22 620.74C334.499 621.335 337.115 629.156 337.115 629.156C337.115 629.156 348.789 628.676 350.904 635.313C353.013 641.958 340.082 635.307 311.888 640.755C289.602 645.067 249.451 640.701 249.451 640.701Z" fill="#3E4C6F"/>
<path d="M458.989 601.935C458.989 601.935 476.489 588.943 471.96 588.328C467.344 587.7 461.794 594.155 461.794 594.155C461.794 594.155 462.024 583.475 457.394 587.936C452.824 592.33 448.599 607.444 448.599 607.444C448.599 607.444 453.588 586.774 447.045 593.905C440.671 600.854 438.372 609.33 438.372 609.33C438.372 609.33 419.04 583.333 410.097 593.614C401.472 603.531 407.522 609.526 407.522 609.526C407.522 609.526 401.222 594.621 395.483 603.693C389.961 612.419 415.735 627.459 458.989 601.935Z" fill="#3E4C6F"/>
<path d="M215.963 648.022C215.963 648.022 242.798 652.713 240.304 646.379C237.817 640.046 227.164 642.405 227.164 642.405C227.164 642.405 234.531 625.492 228.515 627.243C222.499 629.001 221.54 631.204 221.54 631.204C221.54 631.204 220.235 620.139 216.105 623.586C211.975 627.04 211.975 627.04 211.975 627.04C211.975 627.04 206.067 610.466 204.979 616.989C203.884 623.512 203.884 623.512 203.884 623.512C203.884 623.512 193.528 611.128 192.818 624.816C192.109 638.504 185.998 638.471 215.963 648.022Z" fill="#3E4C6F"/>
<path d="M186.269 618.712C186.269 618.712 178.246 605.072 177.448 609.087C176.644 613.095 179.854 623.525 179.854 623.525C179.854 623.525 166.214 606.68 163.01 613.9C159.799 621.119 168.627 627.54 168.627 627.54C168.627 627.54 146.165 613.9 146.969 619.517C147.774 625.134 174.244 641.979 188.682 637.166C203.114 632.353 186.269 618.712 186.269 618.712Z" fill="#3E4C6F"/>
<path d="M115.774 603.152C115.774 603.152 124.575 590.917 128.922 598.251C133.268 605.585 124.947 606.491 124.947 606.491C124.947 606.491 138.446 604.105 133.829 611.405C129.212 618.705 125.907 618.908 125.907 618.908C125.907 618.908 139.318 621.396 132.619 626.682C125.927 631.968 95.1983 617.286 85.5862 616.313C75.9742 615.346 77.6776 601.786 84.6264 603.895C91.5819 606.004 91.5819 606.004 91.5819 606.004C91.5819 606.004 86.1878 591.133 94.0694 592.593C101.958 594.06 101.958 594.06 101.958 594.06C101.958 594.06 111.698 581.183 115.774 603.152Z" fill="#3E4C6F"/>
<path d="M177.442 531.751C177.442 531.751 196.909 559.08 191.022 564.866C185.039 570.747 153.837 560.662 153.837 560.662C153.837 560.662 145.713 571.849 132.248 571.963C118.776 572.085 101.316 554.26 101.316 554.26C101.316 554.26 72.6962 569.327 65.308 566.961C57.9672 564.609 45.4283 543.864 45.4283 543.864C45.4283 543.864 19.154 551.279 14.4291 547.298C9.75822 543.364 59.9612 493.337 59.9612 493.337L78.3336 473.491L177.442 531.751Z" fill="#33A86D"/>
<path d="M109.989 523.112C110.009 524.593 114.7 617.61 114.7 617.61L87.8379 608.14L97.1592 518.705L109.989 523.112Z" fill="#4B3355"/>
<path d="M110.056 524.322C110.076 525.802 112.773 571.666 112.773 571.666L100.701 552.219L94.1036 546.338L95.8882 524.052L110.056 524.322Z" fill="#34283A"/>
<path d="M149.565 483.468L174.515 522.092C174.515 522.092 189.886 544.094 186.858 548.934C183.782 553.841 146.612 525.708 146.612 525.708C146.612 525.708 136.168 547.291 127.597 547.508C119.019 547.724 103.479 528.371 103.479 528.371C103.479 528.371 76.3801 542.708 68.0727 541.079C59.799 539.457 51.9241 515.258 51.9241 515.258C51.9241 515.258 39.1081 526.776 33.2003 521.314C27.3871 515.941 65.2201 478.811 72.2095 468.658C78.9014 458.938 78.9014 458.938 78.9014 458.938L149.565 483.468Z" fill="#288453"/>
<path d="M141.947 442.64L142.062 444.37C144.333 450.211 168.107 491.275 168.107 491.275C168.107 491.275 168.647 504.104 161.611 503.739C154.588 503.374 137.195 490.45 137.195 490.45C137.195 490.45 122.027 510.776 110.286 508.356C98.6254 505.956 93.1164 485.475 93.1164 485.475C93.1164 485.475 74.8252 495.607 68.2684 491.092C61.7996 486.644 66.8354 479.27 66.8354 479.27C66.8354 479.27 54.1951 483.738 57.4937 478.756C60.7451 473.849 96.0501 425.869 96.0501 425.869C96.0501 425.869 112.922 403.401 122.622 414.676C132.72 426.41 143.509 442.64 143.509 442.64" fill="#33A86D"/>
<path d="M142.048 430.865L142.157 432.278C144.347 437.043 169.046 479.757 169.046 479.757C169.046 479.757 164.808 485.847 160.549 485.536C156.291 485.225 137.492 469.786 137.492 469.786C137.492 469.786 119.708 486.496 111.712 484.306C103.783 482.129 97.9087 465.839 97.9087 465.839C97.9087 465.839 75.2508 473.788 72.2833 472.524C69.3227 471.267 71.114 464.406 71.114 464.406C71.114 464.406 57.2975 469.056 60.319 465.048C63.2932 461.1 97.8343 417.163 97.8343 417.163C97.8343 417.163 114.044 398.751 123.412 407.998C133.153 417.61 143.549 430.872 143.549 430.872" fill="#288453"/>
<path d="M117.613 388.74C117.613 388.74 139.068 419.401 152.641 443.093C152.641 443.093 146.402 450.968 142.075 449.244C137.77 447.527 126.447 430.818 126.447 430.818C126.447 430.818 119.728 443.384 111.022 445.121C102.262 446.865 93.3258 435.232 93.3258 435.232C93.3258 435.232 76.7244 444.567 77.522 439.7C78.2994 434.907 116.18 391.491 117.613 388.74Z" fill="#FFFCF3"/>
<path d="M98.8824 557.207L99.68 572.092L98.3552 590.289L98.7945 607.661L93.9277 591.532L96.5842 576.641L95.1714 545.98L100.66 541.525L98.8824 557.207Z" fill="#34283A"/>
<path d="M104.087 589.477L105.514 597.676L101.945 605.166V596.25L102.661 584.13L104.087 589.477Z" fill="#34283A"/>
<path d="M255.081 479.635C255.081 479.635 187.338 582.616 203.385 588.234C219.432 593.851 253.872 574.559 253.872 574.559C253.872 574.559 263.22 594.506 280.768 597.251C298.315 599.995 309.279 580.744 309.279 580.744C309.279 580.744 352.331 587.429 361.159 579.676C369.98 571.923 341.908 536.091 341.908 536.091L288.311 474.342L255.081 479.635Z" fill="#33A86D"/>
<path d="M291.042 548.913L294.794 646.251L275.191 644.899L281.032 547.562L291.042 548.913Z" fill="#4B3355"/>
<path d="M291.63 545.446L293.232 589.653L288.886 586.625L278.706 585.821L279.93 543.817L291.63 545.446Z" fill="#34283A"/>
<path d="M258.293 475.221C258.293 475.221 194.111 555.49 208.198 560.844C222.285 566.191 257.083 548.65 257.083 548.65C257.083 548.65 271.244 564.805 283.979 566.204C296.714 567.603 312.491 553.435 312.491 553.435C312.491 553.435 347.255 569.82 358.482 556.646C369.717 543.472 307.678 467.894 307.678 467.894L258.293 475.221Z" fill="#288453"/>
<path d="M314.869 470.895C314.869 470.895 288.365 436.401 277.962 412.148C277.962 412.148 263.28 445.412 257.21 455.335C251.14 465.258 239.217 480.243 243.516 482.481C247.815 484.718 261.138 472.369 261.138 472.369C261.138 472.369 270.513 480.818 276.556 482.136C282.599 483.454 287.79 478.655 287.79 478.655C287.79 478.655 301.58 486.172 307.278 485.3C312.976 484.428 314.869 470.895 314.869 470.895Z" fill="#FFFCF3"/>
<path d="M284.857 581.988L286.993 598.927L286.101 609.269L286.283 621.389L284.141 610.155L284.675 599.461L281.471 581.636L284.857 581.988Z" fill="#34283A"/>
<path d="M289.487 590.903L290.562 618.002L289.487 625.492L291.988 616.042L291.63 600.887L289.487 590.903Z" fill="#34283A"/>
<path d="M283.072 622.457L280.929 633.509L279.503 643.317L279.686 632.082L282.004 623.349L282.356 614.974L283.072 622.457Z" fill="#34283A"/>
<path d="M463.389 484.036C473.968 499.008 520.135 518.908 531.586 530.622C543.057 542.364 545.213 550.387 533.681 556.315C522.055 562.284 501.276 547.203 501.276 547.203C501.276 547.203 504.494 566.238 491.894 572.612C465.363 586.03 447.207 570.422 447.207 570.422C447.207 570.422 451.263 588.504 439.089 591.012C426.834 593.533 412.7 582.137 412.7 582.137C412.7 582.137 393.867 609.864 381.558 609.824C369.188 609.783 367.35 593.736 367.35 593.736C367.35 593.736 350.796 610.195 336.006 610.155C321.122 610.108 320.074 579.561 320.074 579.561C320.074 579.561 296.084 604.037 292.339 588.207C288.622 572.484 314.943 539.606 343.313 481.42C369.871 426.951 442.948 455.118 463.389 484.036Z" fill="#288453"/>
<path d="M401.621 502.131L392.975 619.294L425.678 625.296L413.659 495.405L401.621 502.131Z" fill="#665070"/>
<path d="M401.33 498.298L395.692 581.839L414.68 562.324L420.385 565.819L412.645 493.417L401.33 498.298Z" fill="#4B3355"/>
<path d="M478.416 489.065C478.416 489.065 545.544 538.159 536.027 542.228C526.449 546.325 489.562 523.876 489.562 523.876C489.562 523.876 490.799 556.444 470.635 559.925C450.262 563.44 434.215 540.829 434.215 540.829L415.336 537.929C415.336 537.929 394.766 579.399 386.479 579.298C372.974 579.136 378.604 557.309 378.604 557.309C378.604 557.309 356.143 584.503 339.987 584.313C323.731 584.124 328.861 555.639 328.861 555.639C328.861 555.639 310.651 578.061 297.7 577.615C284.681 577.162 318.965 521.598 346.801 469.996C371.683 423.876 428.584 450.955 478.416 489.065Z" fill="#33A86D"/>
<path d="M431.167 422.213C431.167 422.213 514.539 480.791 512.355 488.537C510.402 495.473 505.17 492.64 494.639 491.816C484.067 490.984 471.149 483.596 471.149 483.596C471.149 483.596 469.006 494.371 460.206 496.317C455.048 497.46 436.912 488.057 436.912 488.057C436.912 488.057 434.148 498.846 420.656 502.719C410.983 505.49 390.427 490.349 390.427 490.349C390.427 490.349 386.615 515.481 373.941 515.264C361.199 515.041 345.828 475.789 345.828 475.789L320.108 496.574C320.108 496.574 348.166 421.483 363.511 389.693C378.483 358.673 431.167 422.213 431.167 422.213Z" fill="#288453"/>
<path d="M359.191 464.419C359.191 464.419 365.106 500.278 353.986 506.389C342.779 512.547 346.051 492.207 346.051 492.207C346.051 492.207 329.767 511.688 325.718 506.281C321.676 500.88 330.396 489.564 330.396 489.564C330.396 489.564 315.734 504.233 322.845 486.908C329.97 469.549 331.849 467.738 331.849 467.738L359.191 464.419Z" fill="#288453"/>
<path d="M436.729 423.389C453.094 438.753 501.384 470.232 499.336 477.621C497.275 485.049 464.126 457.159 464.126 457.159C464.126 457.159 477.625 481.494 468.837 481.304C460.05 481.115 440.488 472.382 440.488 472.382C440.488 472.382 433.519 491.694 421.176 490.964C408.846 490.234 387.534 472.328 387.534 472.328C387.534 472.328 376.996 492.174 365.504 490.619C354.04 489.064 347.679 466.643 347.679 466.643C347.679 466.643 319.202 502.637 323.041 486.367C326.096 473.409 374.995 364.662 374.995 364.662C374.995 364.662 420.574 408.22 436.729 423.389Z" fill="#33A86D"/>
<path d="M375.509 354.408L447.978 422.443C447.978 422.443 443.807 425.16 435.831 425.106C427.827 425.045 419.446 414.426 419.446 414.426C419.446 414.426 424.137 426.485 415.309 427.722C406.447 428.966 397.7 413.007 397.7 413.007C397.7 413.007 384.654 433.157 373.711 432.217C362.726 431.271 365.41 417.995 365.41 417.995C354.223 430.946 333.343 456.923 333.681 445.628C334.019 434.4 362.219 384.022 375.509 354.408Z" fill="#F3E7D9"/>
<path d="M442.192 525.532C442.192 525.532 445.22 546.588 434.148 550.651C427.328 553.152 421.737 542.33 413.991 532.265C410.611 527.871 412.247 519.144 417.459 519.449L442.192 525.532Z" fill="#33A86D"/>
<path d="M402.351 572.491L398.221 584.124L397.964 597.873L395.592 615.495L400.702 603.281L401.047 587.071L404.758 571.734L402.351 572.491Z" fill="#4B3355"/>
<path d="M400.735 611.23L403.925 612.548L403.229 619.787L406.487 613.819L406.345 588.092L400.735 611.23Z" fill="#4B3355"/>
<path d="M410.273 559.35L405.548 564.163L409.827 599.995L412.713 587.801L410.273 559.35Z" fill="#4B3355"/>
<path d="M269.33 525.776C209.286 436.395 198.342 438.767 198.342 438.767C198.342 438.767 94.5832 568.78 106.101 575.769C126.069 587.882 157.69 562.196 157.69 562.196C157.69 562.196 147.422 587.152 159.529 589.843C171.716 592.546 202.317 583.428 202.317 583.428C202.317 583.428 213.598 601.435 229.057 604.822C244.651 608.235 260.935 564.028 260.935 564.028C260.935 564.028 282.66 587.517 302.864 574.343C309.083 568.53 284.073 547.717 269.33 525.776Z" fill="#288453"/>
<path d="M206.102 524.911L207.596 643.547L180.923 637.612L197.47 515.988L206.102 524.911Z" fill="#665070"/>
<path d="M194.996 580.156L192.691 595.656L193.955 610.716L194.05 625.026L195.699 614.184L194.422 594.392L194.996 580.156Z" fill="#4B3355"/>
<path d="M202.364 555.876L198.673 572.572L200.235 596.109L203.161 631.211L203.702 614.974L202.742 593.209L201.1 571.659L202.364 555.876Z" fill="#4B3355"/>
<path d="M197.41 604.274L198.728 631.211L203.405 640.83L200.837 625.959L197.41 604.274Z" fill="#4B3355"/>
<path d="M207.041 540.417L207.048 565.955L195.759 568.408L188.412 581.968L196.037 531.495L207.041 540.417Z" fill="#4B3355"/>
<path d="M257.961 490.113C212.01 416.542 201.276 430.108 201.276 430.108C201.276 430.108 138.622 512.061 127.962 528.459C115.463 547.677 110.286 549.874 118.458 554.585C126.732 559.357 163.902 537.943 163.902 537.943C163.902 537.943 170.709 552.361 185.195 555.139C199.788 557.945 210.11 545.216 210.11 545.216C210.11 545.216 230.68 564.177 243.583 562.75C256.44 561.331 255.784 541.613 255.784 541.613C255.784 541.613 289.569 557.377 300.918 557.938C312.287 558.506 269.162 508.046 257.961 490.113Z" fill="#33A86D"/>
<path d="M232.255 453.476L271.575 508.228C271.575 508.228 265.336 517.596 253.811 518.063C242.273 518.536 232.302 508.978 232.302 508.978C232.302 508.978 215.748 526.56 207.644 526.512C199.539 526.465 190.474 510.012 190.474 510.012C190.474 510.012 172.568 523.389 165.613 522.22C158.678 521.057 155.832 505.335 155.832 505.335C155.832 505.335 143.279 510.857 141.481 505.815C139.704 500.833 178.077 455.328 184.472 440.349C190.184 426.951 217.986 439.328 232.255 453.476Z" fill="#288453"/>
<path d="M227.699 442.985C242.395 464 270.163 491.681 266.492 496.777C262.768 501.948 257.8 496.291 249.648 495.973C241.502 495.655 230.451 479.007 230.451 479.007C230.451 479.007 216.019 500.569 206.427 500.745C196.829 500.921 189.751 478.959 189.751 478.959C189.751 478.959 171.562 499.366 165.377 497.115C159.232 494.885 160.179 480.818 160.179 480.818C160.179 480.818 152.824 488.821 148.572 487.152C144.341 485.482 185.79 433.136 185.79 433.136C185.79 433.136 213.91 423.261 227.699 442.985Z" fill="#33A86D"/>
<path d="M203.959 405.483L242.988 460.932L224.373 455.436C224.373 455.436 219.614 467.881 215.295 467.881C210.968 467.881 195.408 457.079 195.408 457.079C195.408 457.079 188.067 468.097 182.801 467.522C177.549 466.948 173.784 456.984 173.784 456.984C173.784 456.984 157.649 466.299 163.314 459.255C194.678 420.253 203.959 405.483 203.959 405.483Z" fill="#F3E7D9"/>
<path d="M3.89758 619.436C3.89758 619.436 32.0307 595.866 86.7829 608.79C141.535 621.714 182.599 647.569 250.275 642.249C317.952 636.93 388.677 624.763 435.061 607.269C481.444 589.782 527.835 592.824 547.607 598.907C567.378 604.991 548.343 603.213 529.62 606.417C510.896 609.621 482.965 621.721 472.319 627.041C472.319 627.041 504.569 619.733 504.258 623.242C503.947 626.743 402.608 676.601 341.522 679.156C264.883 682.367 198.214 669.936 123.69 643.324C66.5245 622.897 19.1065 615.63 3.89758 619.436Z" fill="#1D2538"/>
</svg>
