<svg width="119" height="119" viewBox="0 0 119 119" fill="none" xmlns="http://www.w3.org/2000/svg">
<g clip-path="url(#clip0_805_5725)">
<path d="M106.449 41.3246L96.9661 27.1004C96.1294 25.8453 94.5259 25.2175 93.0614 25.7059C91.597 26.1242 90.5513 27.5187 90.5513 29.053C90.5513 35.8859 89.5052 42.7191 87.5531 49.3432C85.8796 44.532 82.6722 40.2787 78.2792 37.4197C70.5395 32.2599 68.448 22.1728 73.6077 14.4334L79.674 5.36895C80.371 4.32281 80.4409 2.92828 79.8132 1.81289C79.2556 0.697033 78.07 0 76.7452 0C70.61 0 64.8224 1.18512 59.4535 3.34664C43.068 9.90094 31.2142 25.0783 30.0988 43.5556C28.983 40.5574 28.3557 37.35 28.3557 34.0728V20.4066C28.3557 18.8729 27.3095 17.4784 25.8453 17.06C24.3813 16.5719 22.7773 17.1997 21.9406 18.4545L17.2691 25.4969C8.62305 38.4661 4.09082 53.5268 4.09082 69.076C4.09036 96.6175 26.4728 119 54.0148 119H64.8922C92.4337 119 114.909 96.6175 114.909 69.076C114.909 59.1744 111.958 49.5521 106.449 41.3246Z" fill="#FE9923"/>
<path d="M62.4516 61.894C61.8243 60.7089 60.6387 60.1509 59.4533 60.1509C58.2682 60.1509 57.1521 60.7089 56.4551 61.894C42.0217 86.9261 38.6748 90.1333 38.6748 98.2218C38.6748 109.657 48.0179 119 59.4531 119C70.8882 119 80.2314 109.657 80.2314 98.2218C80.2316 89.3663 74.3051 82.4634 62.4516 61.894Z" fill="#FEDB41"/>
<path d="M114.909 69.076C114.909 96.6175 92.4336 119 64.892 119H59.4531V3.34664C64.8223 1.18512 70.6096 0 76.7451 0C78.0699 0 79.2555 0.697033 79.8131 1.81289C80.4408 2.92828 80.3711 4.32305 79.6738 5.36895L73.6076 14.4334C68.4479 22.173 70.5397 32.2602 78.2791 37.4197C82.6718 40.2787 85.8795 44.532 87.5529 49.3432C89.505 42.7191 90.5512 35.8859 90.5512 29.053C90.5512 27.5187 91.5968 26.1242 93.0613 25.7059C94.5258 25.2178 96.1293 25.8455 96.966 27.1004L106.449 41.3246C111.957 49.5521 114.909 59.1744 114.909 69.076Z" fill="#FE8821"/>
<path d="M80.2314 98.2218C80.2314 109.657 70.8883 119 59.4531 119V60.1509C60.6382 60.1509 61.8241 60.7089 62.4514 61.894C74.3049 82.4634 80.2314 89.3663 80.2314 98.2218Z" fill="#FCBF29"/>
</g>
<defs>
<clipPath id="clip0_805_5725">
<rect width="119" height="119" fill="white"/>
</clipPath>
</defs>
</svg>
