<svg width="14" height="14" viewBox="0 0 14 14" fill="none" xmlns="http://www.w3.org/2000/svg">
<mask id="mask0_805_5086" style="mask-type:alpha" maskUnits="userSpaceOnUse" x="0" y="0" width="14" height="14">
<path d="M7 5.6V8.4H10.9606C10.3824 10.0296 8.8256 11.2 7 11.2C4.6844 11.2 2.8 9.3156 2.8 7C2.8 4.6844 4.6844 2.8 7 2.8C8.0038 2.8 8.9698 3.1598 9.7202 3.8136L11.5598 1.7024C10.2998 0.6048 8.6814 0 7 0C3.1402 0 0 3.1402 0 7C0 10.8598 3.1402 14 7 14C10.8598 14 14 10.8598 14 7V5.6H7Z" fill="white"/>
</mask>
<g mask="url(#mask0_805_5086)">
<path d="M7 5.6V8.4H10.9606C10.3824 10.0296 8.8256 11.2 7 11.2C4.6844 11.2 2.8 9.3156 2.8 7C2.8 4.6844 4.6844 2.8 7 2.8C8.0038 2.8 8.9698 3.1598 9.7202 3.8136L11.5598 1.7024C10.2998 0.6048 8.6814 0 7 0C3.1402 0 0 3.1402 0 7C0 10.8598 3.1402 14 7 14C10.8598 14 14 10.8598 14 7V5.6H7Z" fill="#A26EB8"/>
</g>
</svg>
