<svg width="550" height="633" viewBox="0 0 550 633" fill="none" xmlns="http://www.w3.org/2000/svg">
<path d="M292.585 43.2682C292.585 43.2682 261.058 -17.8158 194.063 5.1728C127.067 28.1614 152.683 95.1567 152.683 95.1567C152.683 95.1567 127.724 81.3635 102.108 96.4703C76.4925 111.577 85.688 134.566 85.688 134.566C85.688 134.566 69.2676 135.222 60.0721 147.702C50.8767 160.182 58.1017 177.259 63.3562 179.886C63.3562 179.886 37.7404 194.993 38.3972 206.159C39.054 217.325 127.067 171.347 163.849 152.3C200.631 133.252 309.662 74.7953 323.456 67.5704C337.249 60.3454 314.917 59.0318 307.692 65.5999C300.467 72.1681 379.942 29.475 354.983 28.1614C330.024 26.8477 292.585 43.2682 292.585 43.2682Z" fill="#F3E7D9"/>
<path d="M419.679 50.1651C419.679 50.1651 404.572 63.9583 413.768 62.6446C422.963 61.331 485.361 29.8038 492.586 24.5493C499.811 19.2947 497.84 10.0993 490.615 8.78567C483.39 7.47204 467.627 16.0107 464.343 29.147C464.343 29.147 461.059 4.18795 442.668 4.84477C424.277 5.50159 417.709 35.0583 419.679 50.1651Z" fill="#F3E7D9"/>
<path d="M115.665 599.973C115.665 599.973 101.116 597.897 86.5613 597.897C72.0062 597.897 66.8108 608.288 73.0506 608.288C73.0506 608.288 29.3986 615.566 51.2246 619.723C73.0506 623.875 140.611 618.679 115.665 599.973Z" fill="#33A86D"/>
<path d="M356.979 573.963C361.19 569.93 346.319 569.398 327.922 570.226C304.572 571.277 309.354 576.42 309.354 576.42C309.354 576.42 296.716 575.776 290.273 579.737C286.339 582.154 292.335 583.697 310.391 584.761C328.441 585.825 334.116 579.763 334.116 579.763C334.116 579.763 352.763 577.996 356.979 573.963Z" fill="#33A86D"/>
<path d="M156.899 575.96C161.109 572.406 146.239 570.18 127.842 568.918C104.492 567.316 109.274 573.004 109.274 573.004C109.274 573.004 96.6364 570.922 90.193 574.153C86.2587 576.124 92.2554 578.35 110.311 581.464C128.367 584.577 134.035 579.165 134.035 579.165C134.035 579.165 152.689 579.513 156.899 575.96Z" fill="#33A86D"/>
<path d="M201.413 592.708C201.413 592.708 181.504 592.373 164.513 595.033C147.521 597.693 153.228 603.401 157.754 603.401C162.279 603.401 90.0755 624.071 110.463 629.385C130.851 634.698 161.176 632.288 245.058 628.268C288.71 626.179 310.536 615.894 291.83 612.235C275.068 608.958 231.909 604.846 231.909 604.846C244.381 596.202 201.413 592.708 201.413 592.708Z" fill="#33A86D"/>
<path d="M107.961 599.953C107.961 599.953 106.634 591.532 109.287 591.532C111.941 591.532 111.501 596.852 111.501 596.852C111.501 596.852 116.821 588.872 116.821 591.979C116.821 595.079 114.161 597.739 114.161 597.739C114.161 597.739 109.294 603.059 107.961 599.953Z" fill="#288453"/>
<path d="M140.71 616.373C140.71 616.373 143.449 605.161 140.71 604.662C137.971 604.162 137.472 610.888 137.472 611.637C137.472 612.386 137.222 600.425 135.232 600.176C133.242 599.926 132.243 604.662 132.243 604.662C132.243 604.662 130.496 601.174 128.257 603.913C126.017 606.652 128.506 608.648 128.506 608.648C128.506 608.648 126.017 608.149 124.519 611.138C123.022 614.126 131.495 617.364 131.495 617.364L128.257 619.355C128.257 619.368 136.473 619.617 140.71 616.373Z" fill="#33A86D"/>
<path d="M321.412 611.835C321.412 611.835 319.146 609.95 320.283 607.303C321.412 604.662 323.679 607.677 323.679 607.677C323.679 607.677 325.564 599.749 328.211 601.634C330.851 603.519 328.585 606.922 328.585 606.922C328.585 606.922 335.383 595.592 338.404 600.505C341.426 605.411 334.253 609.569 334.253 609.569C334.253 609.569 339.541 613.345 337.275 613.345C335.009 613.345 320.283 615.23 318.017 614.475C315.751 613.726 321.412 611.835 321.412 611.835Z" fill="#288453"/>
<path d="M180.106 610.711C164.276 607.467 150.339 612.524 158.45 614.961C158.45 614.961 125.997 618.344 135.915 621.996C145.833 625.647 190.004 624.702 201.222 623.618C212.441 622.534 216.047 621.45 221.255 617.661C226.464 613.871 195.935 613.956 180.106 610.711Z" fill="#288453"/>
<path d="M161.958 625.674C161.958 625.674 160.756 619.461 162.563 620.866C164.362 622.272 164.96 627.48 161.958 625.674Z" fill="#33A86D"/>
<path d="M192.007 624.925C192.007 624.925 190.805 618.712 192.611 620.117C194.411 621.516 195.009 626.725 192.007 624.925Z" fill="#33A86D"/>
<path d="M158.752 624.872C158.752 624.872 157.55 618.659 159.356 620.064C161.156 621.47 161.754 626.679 158.752 624.872Z" fill="#33A86D"/>
<path d="M96.8801 606.245C96.8801 606.245 90.9556 600.859 94.1872 599.513C97.4187 598.166 97.1494 602.206 97.1494 602.206C97.1494 602.206 97.688 592.78 100.381 594.127C103.074 595.473 101.189 599.782 101.189 599.782C101.189 599.782 103.074 594.935 103.612 598.166C104.151 601.398 100.65 607.322 96.8801 606.245Z" fill="#288453"/>
<path d="M181.604 522.941V274.52C181.604 274.52 181.604 269.772 186.352 265.699C191.101 261.627 197.209 256.202 197.209 256.202V194.422C197.209 192.103 198.917 190.132 201.209 189.804L211.456 188.339V92.7332C211.456 89.9943 213.584 87.7282 216.316 87.5509L233.853 86.4277L239.285 91.9713C239.285 91.9713 399.437 86.5394 405.545 86.5394C411.654 86.5394 488.337 123.86 495.122 127.255C501.907 130.651 497.834 132.687 498.518 140.149C499.194 147.61 499.194 307.768 499.194 307.768V519.552L181.604 522.941Z" fill="#F7BC4B"/>
<path d="M239.285 91.9713L256.139 110.126L252.087 269.194L265.335 311.289L264.553 333.897L264.389 340.347L263.778 407.171L382.261 410.284L384.599 255.946L386.924 85.5674L239.285 91.9713Z" fill="#F5894E"/>
<path d="M393.604 97.9154V308.373L447.056 310.146L451.621 246.52L432.284 227.459V103.794C432.284 103.794 426.209 81.3111 418.064 79.2749C413.224 78.0664 406.793 89.9219 400.744 90.3029C396.724 90.559 393.604 93.8957 393.604 97.9154Z" fill="#CE9436"/>
<path d="M382.898 93.3576C382.898 102.1 382.898 321.818 382.898 321.818H442.912V263.46L416.449 247.854C416.449 247.854 416.449 106.934 416.449 99.2361C416.449 91.5382 410.682 86.3428 407.595 86.3428C404.508 86.3428 391.963 86.5267 388.028 86.5267C384.087 86.5267 382.898 91.0719 382.898 93.3576Z" fill="#CC6D3D"/>
<path d="M386.925 85.5675C386.925 94.3098 386.925 304.898 386.925 304.898H446.938V246.54L420.475 230.934C420.475 230.934 420.475 99.1439 420.475 91.446C420.475 83.7482 419.365 78.5527 416.278 78.5527C413.191 78.5527 395.995 78.7366 392.055 78.7366C388.114 78.7366 386.925 83.2884 386.925 85.5675Z" fill="#F7BC4B"/>
<path d="M247.423 100.799V270.448L262.352 279.269V331.525L254.891 340.346L258.963 347.808V432.636L265.748 429.247L268.461 347.808L264.388 340.346L268.461 335.598V268.412L261.564 258.744L256.139 110.126L247.423 100.799Z" fill="#CC6D3D"/>
<path d="M313.361 112.36V120.557C313.361 121.404 314.051 122.074 314.898 122.054L363.49 120.668C364.481 120.642 365.217 119.69 364.987 118.731L363.036 110.593C362.872 109.903 362.255 109.43 361.539 109.45L314.898 110.783C314.051 110.796 313.361 111.506 313.361 112.36Z" fill="#FEED7F"/>
<path d="M361.282 137.371L335.778 138.1C334.668 138.133 333.762 137.252 333.762 136.142V130.507C333.762 129.397 334.662 128.471 335.778 128.438L361.282 127.709C362.392 127.676 363.299 128.55 363.299 129.666V135.302C363.299 136.412 362.399 137.338 361.282 137.371Z" fill="#FEED7F"/>
<path d="M302.76 213.673L273.499 214.508C272.093 214.547 270.95 213.437 270.95 212.031V205.857C270.95 204.452 272.093 203.276 273.499 203.237L302.76 202.402C304.165 202.363 305.308 203.473 305.308 204.879V211.053C305.308 212.458 304.165 213.634 302.76 213.673Z" fill="#FEED7F"/>
<path d="M335.247 210.599L325.316 210.882C324.35 210.908 323.568 210.152 323.568 209.187V204.622C323.568 203.657 324.35 202.855 325.316 202.829L335.247 202.547C336.212 202.52 336.994 203.276 336.994 204.241V208.806C336.987 209.765 336.206 210.573 335.247 210.599Z" fill="#FEED7F"/>
<path d="M314.839 235.341L279.673 236.346C278.412 236.379 277.394 235.387 277.394 234.126V229.022C277.394 227.761 278.418 226.71 279.673 226.678L314.839 225.673C316.1 225.64 317.118 226.632 317.118 227.893V232.996C317.124 234.251 316.1 235.302 314.839 235.341Z" fill="#FEED7F"/>
<path d="M338.596 299.414H311.213V309.614H338.596V299.414Z" fill="#FEED7F"/>
<path d="M412.751 86.2568L406.609 94.6444L411.733 108.208L410.826 139.163L415.345 155.163L415.949 113.081L415.043 101.955L418.058 98.1321C418.064 98.1255 415.463 86.6049 412.751 86.2568Z" fill="#FEED7F"/>
<path d="M225.577 158.205L235.239 182.363L228.796 200.084L230.411 232.301V251.624L225.577 248.406L223.16 227.466L226.379 185.588L225.577 158.205Z" fill="#CC6D3D"/>
<path d="M197.926 230.685L196.316 260.484L201.952 274.179L201.144 336.997L203.561 345.049L207.587 273.371L200.343 257.266L197.926 230.685Z" fill="#CE9436"/>
<path d="M248.395 208.136L225.847 249.298L247.325 274.717L245.177 300.484L265.578 330.553L262.353 279.269L249.472 257.804L248.395 208.136Z" fill="#CC6D3D"/>
<path d="M442.76 101.824L441.689 151.223L459.942 196.327V237.135L500.75 302.639L499.299 131.709C499.286 130.015 498.307 128.478 496.783 127.749L442.76 101.824Z" fill="#CE9436"/>
<path d="M253.499 153.909L270.412 161.154L283.299 154.71L320.343 155.518L283.299 158.737L268.796 168.405L251.082 159.545L253.499 153.909Z" fill="#CC6D3D"/>
<path d="M384.776 201.424L392.021 215.118L384.776 223.979V201.424Z" fill="#CC6D3D"/>
<path d="M207.876 355.053L229.446 355.841L241.111 370.166L247.035 412.833L238.431 463.946L214.871 482.652L201.577 442.606L207.876 355.053Z" fill="#4B3355"/>
<path d="M241.111 370.166L227.193 388.261L230.891 412.774L240.093 439.092L247.036 412.833L241.111 370.166Z" fill="#665070"/>
<path d="M549.23 327.452C549.23 327.452 534.978 291.485 531.588 286.736C528.199 281.987 526.157 279.951 511.227 279.275C496.298 278.598 479.332 273.843 479.332 273.843L448.133 288.674L444.048 301.666L456.941 538.5L494.301 555.295L533.769 555.794L541.762 544.609C541.762 544.609 539.726 398.71 539.726 389.206C539.726 379.702 544.475 377.672 547.188 375.636C549.907 373.594 549.23 327.452 549.23 327.452Z" fill="#273252"/>
<path d="M457.257 286.526L476.048 281.691L501.283 293.501C501.283 293.501 509.874 298.335 515.241 296.719C520.607 295.104 529.198 291.885 529.198 291.885L535.103 302.624L544.232 329.468L543.694 362.756L531.346 361.146L517.92 397.12L503.155 356.851L511.208 331.077L498.052 299.399L474.965 287.051L457.257 286.526Z" fill="#3E4C6F"/>
<path d="M91.7051 401.423L107.994 386.494V325.416L108.979 306.172C109.209 301.719 111.837 297.738 115.843 295.774L170.425 269.088C170.425 269.088 190.103 272.484 199.607 278.585C209.104 284.694 213.86 294.875 213.86 294.875L216.572 325.41V372.234C216.572 372.234 218.609 374.27 213.86 378.343C209.111 382.415 208.428 384.451 208.428 384.451C208.428 384.451 207.068 387.847 207.751 391.236C208.428 394.632 207.751 509.995 207.751 509.995L178.569 551.407H103.922L95.1008 517.463L91.7051 401.423Z" fill="#3E4C6F"/>
<path d="M91.7051 401.423L107.994 386.494V325.416L108.723 311.229C109.111 303.65 113.584 296.878 120.401 293.548L122.976 292.287L170.425 269.088L154.359 305.147L163.6 338.251C163.009 341.646 163.981 345.134 166.254 347.729L169.709 351.676C173.735 356.28 175.114 358.671 179.883 354.842L216.572 325.403L215.646 347.183L200.343 360.07L195.508 393.896C195.508 393.896 191.607 448.491 192.29 451.887C192.546 453.174 177.794 445.443 177.794 445.443L162.49 509.989L178.569 551.401H103.922L95.1008 517.457L91.7051 401.423Z" fill="#273252"/>
<path d="M150.674 343.262L141.013 359.367L158.727 363.393L166.786 365.009L160.343 344.871L150.674 343.262Z" fill="#3E4C6F"/>
<path d="M129.459 315.715L143.429 308.208L151.751 309.975C153.163 310.073 157.564 334.185 156.585 335.21L149.432 333.601L141.242 329.298C141.124 330.658 139.199 330.809 138.871 329.489L132.066 342.113L124.664 342.678L115.219 323.42L129.459 315.715Z" fill="#48598B"/>
<path d="M118.458 303.17L134.569 306.927L149.065 297.804L168.395 270.953L133.492 288.135L115.239 300.484L118.458 303.17Z" fill="#48598B"/>
<path d="M506.117 360.622L503.437 386.934L514.169 410.021L516.501 434.718L521.151 452.971L512.56 434.718L510.412 412.169L498.603 386.396L503.167 356.865L506.117 360.622Z" fill="#3E4C6F"/>
<path d="M515.247 435.525L529.743 442.232L535.648 462.1L536.186 471.23L534.039 461.562L527.595 445.456L516.856 441.161L515.247 435.525Z" fill="#3E4C6F"/>
<path d="M457.321 300.891C455.574 299.144 457.906 291.006 461.394 297.593C464.875 304.181 459.062 302.631 457.321 300.891Z" fill="#288453"/>
<path d="M451.043 298.867C448.52 297.508 449.493 290.243 452.205 292.279C453.755 293.442 456.718 294.795 454.53 298.289C453.565 299.839 453.565 300.227 451.043 298.867Z" fill="#288453"/>
<path d="M452.278 292.168C449.565 290.231 449.565 278.986 453.828 282.086C458.097 285.186 454.99 294.106 452.278 292.168Z" fill="#288453"/>
<path d="M457.321 294.493C457.321 294.493 459.259 286.355 461.197 290.618C463.134 294.881 457.321 294.493 457.321 294.493Z" fill="#288453"/>
<path d="M449.748 309.672C449.748 309.672 450.924 302.08 447.64 304.759C444.356 307.439 445.998 311.905 449.748 309.672Z" fill="#288453"/>
<path d="M448.534 292.023C447.332 290.657 442.819 289.409 445.821 294.349C449.237 299.971 449.729 293.39 448.534 292.023Z" fill="#288453"/>
<path d="M450.728 306.316C450.728 306.316 459.253 312.516 457.315 307.866C455.378 303.216 451.115 302.828 450.728 306.316Z" fill="#288453"/>
<path d="M450.34 291.393C450.34 291.393 449.177 279.374 447.627 283.255C446.077 287.137 448.015 292.168 450.34 291.393Z" fill="#288453"/>
<path d="M442.432 294.316C439.686 293.206 436.468 295.978 442.701 298.086C448.928 300.188 445.177 295.426 442.432 294.316Z" fill="#288453"/>
<path d="M48.5911 563.611C45.1953 562.252 38.4104 545.286 42.4827 541.22C46.5549 537.148 49.2676 537.825 45.8784 526.967C42.4827 516.11 43.1658 458.429 43.1658 434.678C43.1658 410.928 43.1658 389.89 47.238 380.392C51.3103 370.895 47.238 361.391 49.9507 356.642C52.6633 351.893 60.1313 348.497 60.1313 348.497C60.1313 348.497 62.1675 326.106 63.5271 322.711C64.8867 319.315 79.133 313.89 84.5649 313.89C89.9968 313.89 89.9968 316.602 98.8178 326.106C107.639 335.604 114.424 341.036 116.46 344.432C118.496 347.827 117.82 351.9 119.856 356.648C121.892 361.397 133.425 406.869 135.462 411.617C137.498 416.366 137.498 415.013 138.174 426.547C138.851 438.081 140.21 477.444 140.887 480.833C141.563 484.228 140.887 486.941 146.319 490.33C151.751 493.726 151.751 499.828 153.104 503.224C154.463 506.619 154.463 519.513 154.463 525.614C154.463 531.716 153.104 556.833 153.787 560.905C154.463 564.977 157.859 569.726 149.038 571.086C140.217 572.445 122.575 573.122 114.43 573.799C106.286 574.475 104.25 571.086 104.25 571.086C104.25 571.086 82.5353 569.726 73.0312 569.726C63.5271 569.726 60.1379 571.762 58.7783 569.05C57.4121 566.324 51.9868 564.964 48.5911 563.611Z" fill="#856792"/>
<path d="M99.1329 566.442L99.4875 554.271L84.453 536.373L87.3167 510.961L74.7912 501.654L71.5728 484.833L61.5498 469.444C61.5498 469.444 70.141 441.168 69.7797 439.02C69.425 436.872 83.3824 431.506 83.3824 431.506L99.4875 450.836L95.9079 470.166L99.4875 489.135L122.752 554.285L114.522 553.569L110.942 570.39L99.1329 566.442Z" fill="#665070"/>
<path d="M71.9279 349.884L77.2941 348.452C77.2941 348.452 90.8048 356.866 90.8048 364.918C90.8048 372.971 85.9707 382.639 85.9707 382.639C85.9707 382.639 84.3615 397.135 87.5799 405.995C90.7983 414.856 103.685 434.987 103.685 434.987L119.79 443.04C119.79 443.04 120.598 455.927 122.207 458.344C123.718 460.61 123.101 470.606 123.101 470.606C123.101 470.606 127.127 476.781 127.396 473.024C127.665 469.267 132.677 467.204 132.677 467.204L127.843 455.125L128.651 439.821L106.903 430.16L92.4075 405.194L91.5996 386.672L96.4338 364.925C96.4338 364.925 90.1677 351.145 84.8015 347.388C82.5093 345.778 67.9805 348.104 67.9805 348.104L71.9279 349.884Z" fill="#BB83C3"/>
<path d="M124.638 459.145L122.221 465.857L124.638 514.718C124.638 514.718 127.771 502.008 129.38 489.122C130.989 476.241 124.638 459.145 124.638 459.145Z" fill="#BB83C3"/>
<path d="M45.4385 544.248C45.4385 544.248 51.8818 551.23 55.6388 551.23C59.3958 551.23 64.23 543.177 64.23 543.177C64.23 543.177 76.0396 542.639 78.1874 542.639C80.3351 542.639 88.9263 550.691 88.9263 550.691L97.5175 555.525L92.6833 556.064L86.2399 552.846L77.1102 546.402L65.8326 546.941L56.7029 556.071L47.5731 549.089L45.4385 544.248Z" fill="#BB83C3"/>
<path d="M62.0822 548.544L56.716 559.822L58.7718 569.037L52.9525 563.04L51.8818 553.378H55.6388L62.0822 548.544Z" fill="#BB83C3"/>
<path d="M84.3676 321.423L78.7256 329.305L81.9506 338.934L90.811 347.689L92.4202 361.692L95.6386 348.563L89.1952 340.687L83.5598 331.058L84.3676 321.423Z" fill="#BB83C3"/>
<path d="M51.3435 376.996C51.3435 376.996 47.3172 406.796 48.1251 414.848C48.933 422.901 54.5685 430.152 54.5685 434.98C54.5685 439.807 53.7606 457.528 47.3172 468.806C40.8738 480.083 44.0988 441.423 44.0988 441.423L42.4896 406.789C42.483 406.796 42.483 377.804 51.3435 376.996Z" fill="#BB83C3"/>
<path d="M57.2482 458.074C50.5355 472.84 47.8491 473.378 51.882 481.431C55.9083 489.483 64.2301 509.083 64.2301 509.083C64.2301 509.083 78.7261 528.413 81.951 529.214C85.1694 530.022 81.1432 510.692 81.1432 510.692L74.6998 513.109L70.6735 509.891L61.813 480.091L56.9789 472.84L62.6144 451.9L61.5437 430.961L57.5175 438.212L57.2482 458.074Z" fill="#BB83C3"/>
<path d="M69.0644 379.414L65.0381 393.109L69.0644 410.823V422.101L72.2828 410.022L69.0644 393.109L72.2828 372.971L69.0644 379.414Z" fill="#665070"/>
<path d="M69.0645 404.379L77.117 406.796L87.5867 405.995L78.7262 412.431L69.0645 410.822V404.379Z" fill="#665070"/>
<path d="M72.2826 372.971L61.813 369.752L56.9854 362.501L50.542 364.11L53.7604 368.136L59.3959 373.779L72.2826 372.971Z" fill="#665070"/>
<path d="M65.6419 436.458C67.0738 438.606 72.0853 439.677 73.1559 435.92C74.2265 432.163 69.9375 430.554 69.9375 430.554C69.9375 430.554 64.2101 434.311 65.6419 436.458Z" fill="#288453"/>
<path d="M66.5348 420.53C66.5348 420.53 65.4642 431.269 71.369 427.512C77.2738 423.755 70.8304 418.382 66.5348 420.53Z" fill="#33A86D"/>
<path d="M77.2744 432.346C77.2744 432.346 78.345 439.86 81.0314 435.033C83.7178 430.198 81.57 427.512 77.2744 432.346Z" fill="#33A86D"/>
<path d="M71.3691 442.547C71.3691 442.547 76.2033 431.27 76.7353 436.642C77.2739 442.009 71.3691 442.547 71.3691 442.547Z" fill="#33A86D"/>
<path d="M245.852 412.117C245.852 412.117 245.136 397.739 249.445 404.208C253.754 410.678 250.161 414.277 250.161 414.277C250.161 414.277 254.476 404.208 258.792 412.839C263.107 421.47 252.322 422.908 252.322 422.908C252.322 422.908 237.944 423.624 237.944 412.839C237.944 402.054 245.852 412.117 245.852 412.117Z" fill="#33A86D"/>
<path d="M108.065 312.628C108.065 312.628 99.9931 304.017 99.9931 307.788C99.9931 311.558 105.372 315.86 105.372 315.86C105.372 315.86 98.3774 315.321 99.4546 319.091C100.532 322.862 105.911 320.707 105.911 320.707C105.911 320.707 111.29 330.934 113.983 320.707C116.676 310.481 110.752 295.407 108.065 312.628Z" fill="#33A86D"/>
<path d="M131.428 338.586C130.187 334.455 138.621 325.647 138.621 331.394C138.621 337.148 133.583 345.778 131.428 338.586Z" fill="#33A86D"/>
<path d="M127.015 349.837C127.015 349.837 132.729 341.265 134.161 346.5C135.593 351.735 128.44 358.881 127.015 349.837Z" fill="#33A86D"/>
<path d="M130.706 373.095C130.706 373.095 122.798 359.433 130.706 360.872C138.621 362.31 135.744 379.571 130.706 373.095Z" fill="#33A86D"/>
<path d="M138.62 372.379C138.62 372.379 149.405 361.594 148.689 368.064C147.967 374.534 142.213 378.849 138.62 372.379Z" fill="#33A86D"/>
<path d="M126.397 376.695C126.397 376.695 115.612 375.979 120.643 378.849C125.674 381.726 133.582 382.448 126.397 376.695Z" fill="#33A86D"/>
<path d="M122.082 368.063C122.082 368.063 112.013 365.909 117.767 369.502C123.521 373.095 122.082 368.063 122.082 368.063Z" fill="#33A86D"/>
<path d="M139.337 389.634C139.337 389.634 140.775 376.695 145.807 380.288C150.844 383.887 147.967 391.795 139.337 389.634Z" fill="#33A86D"/>
<path d="M135.021 397.542C135.021 397.542 127.113 385.318 134.305 389.634C141.491 393.949 142.929 397.542 135.021 397.542Z" fill="#33A86D"/>
<path d="M137.182 406.172C137.182 406.172 141.497 392.51 145.09 401.857C148.683 411.203 138.62 411.926 137.182 406.172Z" fill="#33A86D"/>
<path d="M140.059 418.395C140.059 418.395 127.836 406.888 132.151 413.364C136.46 419.833 140.059 418.395 140.059 418.395Z" fill="#33A86D"/>
<path d="M149.405 411.926C149.405 411.926 139.336 419.118 147.967 416.957C156.591 414.803 154.437 412.642 149.405 411.926Z" fill="#33A86D"/>
<path d="M131.068 404.372C131.068 404.372 124.598 410.842 130.706 409.049C136.815 407.255 138.26 402.579 131.068 404.372Z" fill="#33A86D"/>
<path d="M135.744 422.35C135.744 422.35 132.506 432.773 140.42 429.18C148.322 425.588 146.89 416.957 135.744 422.35Z" fill="#33A86D"/>
<path d="M147.967 428.465C147.967 428.465 152.644 422.356 155.875 425.588C159.107 428.819 138.62 436.734 147.967 428.465Z" fill="#33A86D"/>
<path d="M137.898 432.419C137.898 432.419 122.437 438.173 134.306 436.373C146.168 434.573 143.652 434.212 137.898 432.419Z" fill="#33A86D"/>
<path d="M141.491 438.172C141.491 438.172 144.729 443.203 149.399 439.972C154.069 436.74 150.483 437.45 141.491 438.172Z" fill="#33A86D"/>
<path d="M154.437 432.058C154.437 432.058 166.299 432.058 159.114 433.857C151.928 435.657 148.322 434.934 154.437 432.058Z" fill="#33A86D"/>
<path d="M136.099 441.043C136.099 441.043 130.706 448.235 140.775 444.281C150.844 440.327 136.099 441.043 136.099 441.043Z" fill="#33A86D"/>
<path d="M151.198 442.481C151.198 442.481 144.729 450.389 155.152 446.435C165.583 442.481 161.983 439.966 151.198 442.481Z" fill="#33A86D"/>
<path d="M139.337 448.957C139.337 448.957 138.975 453.272 144.729 450.756C150.483 448.234 148.683 447.157 139.337 448.957Z" fill="#33A86D"/>
<path d="M140.414 456.143C140.414 456.143 133.944 459.735 142.214 459.381C150.483 459.019 140.414 456.143 140.414 456.143Z" fill="#33A86D"/>
<path d="M125.675 386.402C125.675 386.402 112.013 383.886 119.205 387.479C126.397 391.072 127.113 388.195 125.675 386.402Z" fill="#33A86D"/>
<path d="M133.944 382.087C133.944 382.087 122.082 380.287 128.552 383.525C135.022 386.757 137.183 384.963 133.944 382.087Z" fill="#33A86D"/>
<path d="M146.89 393.588C146.89 393.588 158.752 387.48 154.437 392.511C150.122 397.542 137.537 401.857 146.89 393.588Z" fill="#33A86D"/>
<path d="M109.858 330.198C109.858 330.198 95.96 327.321 101.707 331.157C107.454 334.993 115.132 334.993 109.858 330.198Z" fill="#33A86D"/>
<path d="M110.338 336.911C110.338 336.911 103.146 346.98 113.215 343.144C123.284 339.309 117.051 334.993 110.338 336.911Z" fill="#33A86D"/>
<path d="M109.859 330.199C109.859 330.199 121.839 327.322 115.133 332.117C108.421 336.911 109.859 330.199 109.859 330.199Z" fill="#33A86D"/>
<path d="M117.523 319.17C117.523 319.17 108.893 331.63 119.441 324.924C129.99 318.218 125.674 312.943 117.523 319.17Z" fill="#33A86D"/>
<path d="M124.236 326.842C124.236 326.842 130.949 329.239 123.277 331.637C115.612 334.034 118.003 332.596 124.236 326.842Z" fill="#33A86D"/>
<path d="M122.798 335.472C122.798 335.472 115.606 342.185 124.236 339.308C132.867 336.431 130.949 334.513 122.798 335.472Z" fill="#33A86D"/>
<path d="M118.003 348.892C118.003 348.892 104.585 349.851 114.647 352.727C124.71 355.604 122.798 350.81 118.003 348.892Z" fill="#33A86D"/>
<path d="M119.442 344.097C119.442 344.097 128.552 336.425 126.154 342.179C123.757 347.933 116.571 348.412 119.442 344.097Z" fill="#33A86D"/>
<path d="M127.612 343.059C127.612 343.059 139.12 340.182 131.448 344.018C123.776 347.854 127.612 343.059 127.612 343.059Z" fill="#33A86D"/>
<path d="M115.612 357.042C115.612 357.042 100.275 358.48 109.858 360.398C119.441 362.31 118.482 358.96 115.612 357.042Z" fill="#33A86D"/>
<path d="M107.941 351.768C107.941 351.768 97.8718 351.768 102.667 354.165C107.461 356.562 113.215 356.562 107.941 351.768Z" fill="#33A86D"/>
<path d="M373.683 406.441L258.234 407.604C255.975 407.604 250.897 406.172 250.897 412.885C250.897 419.597 250.943 423.131 250.943 423.131L375.042 422.73L373.683 406.441Z" fill="#4B3355"/>
<path d="M226.648 446.743C226.648 446.743 225.939 445.673 225.709 438.875C225.439 430.954 224.763 428.208 227.856 426.658C231.613 424.779 241.144 424.241 241.144 424.241L365.683 421.095L366.221 431.131V448.096L226.648 446.743Z" fill="#4B3355"/>
<path d="M225.551 429.102C225.551 429.102 224.921 426.586 228.264 425.706C236.218 423.617 240.697 422.185 251.075 421.831C261.453 421.476 366.215 421.634 366.215 421.634V431.131L225.551 429.102Z" fill="#FEED7F"/>
<path d="M227.186 446.665C227.186 446.665 226.917 446.888 218.687 449.213C210.457 451.539 209.472 454.015 209.472 456.727C209.472 459.44 216.723 458.875 216.723 458.875L364.868 461.023V447.565L227.186 446.665Z" fill="#FEED7F"/>
<path d="M211.882 472.675C208.303 472.675 205.978 474.809 199.712 478.028C194.983 480.465 191.482 481.607 190.766 485.542C189.912 490.225 366.221 500.491 366.221 500.491V474.034C366.221 474.034 215.462 472.675 211.882 472.675Z" fill="#FFACFF"/>
<path d="M196.848 481.253C193.492 482.1 192.08 481.535 190.944 483.447C190.031 484.977 189.689 487.979 189.689 489.489C189.689 492.885 189.584 500.504 189.584 500.504H366.215L363.647 483.407C363.647 483.407 293.111 482.468 243.739 481.838L240.468 483.591C240.468 483.591 236.737 481.752 235.502 481.732C214.175 481.443 198.32 480.879 196.848 481.253Z" fill="#4B3355"/>
<path d="M370.32 508.977L173.768 510.061C173.144 510.061 172.697 506.304 175.18 505.345L189.466 500.55C189.545 500.511 189.637 500.491 189.728 500.491H375.286C375.759 500.491 376.041 501.023 375.772 501.417L370.806 508.715C370.695 508.885 370.517 508.977 370.32 508.977Z" fill="#FFACFF"/>
<path d="M170.451 520.807C170.451 520.807 169.643 517.227 170.004 513.739C170.359 510.252 173.584 507.204 173.584 507.204C173.584 506.028 175.088 506.488 176.27 506.488L365.374 506.672C366.55 506.672 367.509 507.624 367.509 508.807V519.749C367.509 520.925 366.557 521.877 365.381 521.884L174.405 522.278C173.223 522.278 170.451 521.982 170.451 520.807Z" fill="#665070"/>
<path d="M172.624 520.754L150.903 529.575L335.646 534.586L377.078 529.575L370.812 521.7L172.624 520.754Z" fill="#FFACFF"/>
<path d="M150.904 529.536C150.904 529.536 148.526 539.598 148.165 542.101C147.81 544.603 150.904 547.657 150.904 547.657H371.647L379.108 528.859L342.891 530.291C342.891 530.291 336.514 532.439 334.839 532.439C328.665 532.439 321.683 529.03 321.683 529.03L150.904 529.536Z" fill="#665070"/>
<path d="M149.478 547.841L138.109 550.816C133.071 552.136 130.989 552.281 130.989 557.49L129.557 562.501C129.557 568.826 127.528 573.956 133.853 573.956H363.587C369.913 573.956 375.042 568.826 375.042 562.501V558.915C375.042 552.59 369.913 547.46 363.587 547.46H152.382C151.403 547.473 150.431 547.598 149.478 547.841Z" fill="#665070"/>
<path d="M150.727 547.52L133.938 551.914C132.592 552.268 132.5 554.147 133.807 554.633L143.186 558.094C143.403 558.173 153.308 553.95 153.538 553.917L177.058 553.93C177.131 553.924 177.203 553.917 177.275 553.917L291.64 556.584C292.126 556.597 292.579 556.853 292.829 557.273C293.381 558.193 294.708 558.199 295.266 557.286L295.765 556.472C296.021 556.052 296.481 555.796 296.98 555.796H369.105C370.077 555.796 370.767 554.843 370.458 553.917L368.993 549.516C368.803 548.938 368.258 548.544 367.647 548.544L151.095 547.474C150.97 547.474 150.845 547.487 150.727 547.52Z" fill="#FFACFF"/>
<path d="M259.134 405.726C259.134 405.726 249.472 408.32 251.62 409.128C253.768 409.936 275.784 409.483 284.106 410.021C292.428 410.56 367.331 409.483 367.331 409.483C367.331 409.483 370.195 405.726 360.264 405.995C350.32 406.258 259.134 405.726 259.134 405.726Z" fill="#FEED7F"/>
<path d="M228.172 428.813L231.752 429.884L233.538 431.493L245.709 429.706L248.573 430.422L252.868 428.274L228.172 428.813Z" fill="#FEED7F"/>
<path d="M348.789 455.223L345.046 458.343L342.674 455.262L340.586 455.275L339.673 456.918L335.456 455.308L278.464 455.656L274.418 456.885L269.873 457.535L260.743 454.632L212.06 454.402C212.06 454.402 209.465 454.014 209.465 456.727C209.465 459.44 208.48 471.939 211.167 473.548C213.853 475.157 364.862 475.381 364.862 475.381V455.118L348.789 455.223Z" fill="#4B3355"/>
<path d="M245.709 478.205L251.213 484.445C251.213 484.445 260.382 483.821 263.134 484.445C265.013 484.872 291.706 485.18 291.706 485.18L298.898 486.001L307.095 482.317L294.773 479.446L245.709 478.205Z" fill="#FFACFF"/>
<path d="M185.847 505.588L202.76 508.813L207.745 509.995L216.178 509.883L223.16 510.96L236.586 503.979L185.847 505.588Z" fill="#FFACFF"/>
<path d="M259.85 527.782L264.5 532.078L274.523 534.226L279.18 531.723L285.978 532.078L293.853 527.782H259.85Z" fill="#FFACFF"/>
<path d="M212.066 454.402L224.06 454.757L226.924 456.905L225.492 460.839L229.071 466.205V470.14L235.869 469.069L239.088 473.004L210.096 472.288C210.096 472.288 209.025 471.572 209.025 465.844C209.025 460.117 208.303 453.687 212.066 454.402Z" fill="#34283A"/>
<path d="M170.451 520.806C170.451 520.806 166.779 514.901 173.584 507.204L177.518 506.665L177.164 512.392L181.604 518.067C181.722 518.094 181.834 518.021 181.86 517.903L182.175 516.327L196.494 513.463L197.926 517.043L195.423 520.622L170.451 520.806Z" fill="#4B3355"/>
<path d="M200.881 490.56L203.567 494.048L204.237 497.135L209.34 497.266L211.889 499.952L212.427 500.353H194.707L189.728 500.498L189.472 494.448C189.472 494.448 189.472 485.989 189.872 485.187C190.273 484.386 191.889 482.369 191.889 482.369L197.255 480.892L201.551 483.039L200.881 490.56Z" fill="#34283A"/>
<path d="M157.294 554.094L159.264 561.97L165.169 563.04L167.856 568.413L173.583 573.956H144.946L145.846 568.59L141.366 564.472L143.875 558.39L153.537 553.917L157.294 554.094Z" fill="#4B3355"/>
<path d="M207.232 554.633L206.785 558.744L211.166 562.147L218.595 560.623L224.414 565.726L232.519 555.191L207.232 554.633Z" fill="#4B3355"/>
<path d="M175.016 553.555L176.447 555.703L181.098 552.485L186.109 555.703H193.269C193.269 555.703 193.623 558.567 194.7 558.922C195.778 559.276 202.576 552.84 202.576 552.84L175.732 549.621L175.016 553.555Z" fill="#FFACFF"/>
<path d="M321.774 505.233L323.922 508.813L331.081 509.168L339.311 507.02L342.891 508.813L345.4 505.233H321.774Z" fill="#FFACFF"/>
<path d="M245.853 412.117C245.853 412.117 245.137 397.739 249.446 404.208C253.755 410.678 250.162 414.277 250.162 414.277C250.162 414.277 254.477 404.208 258.793 412.839C263.108 421.47 252.323 422.908 252.323 422.908C252.323 422.908 237.945 423.624 237.945 412.839C237.945 402.054 245.853 412.117 245.853 412.117Z" fill="#33A86D"/>
<path d="M360.408 463.178C360.408 463.178 360.408 442.14 360.408 434.678C360.408 427.217 364.48 422.554 364.48 422.554C364.48 422.554 364.848 407.427 365.177 403.985C365.577 399.69 374.753 391.414 374.753 391.414L376.697 380.675V296.235C376.697 296.235 374.661 290.803 373.985 289.45C373.308 288.09 373.985 281.988 373.985 281.988C373.985 281.988 392.986 273.844 395.022 273.844C397.059 273.844 435.739 284.701 435.739 284.701C435.739 284.701 458.129 311.164 458.812 315.236C459.489 319.309 458.812 349.167 458.812 349.167L477.394 357.667L487.056 382.632C487.056 382.632 493.414 422.455 496.133 423.132C498.845 423.808 507.666 448.918 508.35 452.99C510.537 466.12 514.445 455.217 514.445 495.066L524.107 509.996L528.133 560.715L500.212 580.222L376.185 578.252L365.164 574.318L360.408 463.178Z" fill="#665070"/>
<path d="M430.346 354.179L446.753 362.232L449.019 370.823L455.246 378.337L460.336 391.762L460.461 401.963L485.716 407.867L486.254 414.042C486.254 414.042 484.645 436.321 484.645 440.616C484.645 444.912 483.384 479.007 483.384 479.007L492.435 502.633L483.384 574.581L370.937 565.72L368.671 487.868L377.157 414.849L389.604 406.258L395.265 363.302L409.978 346.12L430.346 354.179Z" fill="#856792"/>
<path d="M357.926 477.135C357.926 477.135 359.804 457.588 359.804 448.413C359.804 445.844 360.408 436.307 360.408 434.678C360.408 431.953 360.954 429.601 361.643 427.71C362.839 424.432 364.481 422.554 364.481 422.554C364.481 422.554 365.032 405.529 365.177 403.985C365.578 399.69 374.753 391.414 374.753 391.414L384.06 395.709L385.492 388.911L376.697 369.581V296.235C376.697 296.235 374.661 290.803 373.985 289.45C373.308 288.09 373.985 281.988 373.985 281.988C373.985 281.988 392.986 273.844 395.023 273.844C397.059 273.844 396.054 329.483 396.054 329.483C396.054 329.483 432.422 339.105 433.098 343.177C433.775 347.25 397.932 463.986 397.932 463.986L357.394 510.968L357.926 477.135Z" fill="#856792"/>
<path d="M381.551 408.406L385.308 381.562L407.567 360.084L436.316 362.232C436.316 362.232 440.881 366.357 441.557 371.105C442.234 375.854 451.351 385.857 451.351 385.857C451.351 385.857 453.071 397.68 454.569 407.454C454.924 409.779 476.94 413.358 477.656 414.048C482.556 418.744 478.727 453.155 478.727 456.735C478.727 460.314 503.824 481.26 504.5 484.656C505.177 488.052 510.714 503.217 510.714 503.217C510.714 503.217 499.134 575.763 499.134 579.152C499.134 582.541 377.787 578.344 377.787 578.344V419.145L381.551 408.406Z" fill="#1D2538"/>
<path d="M399.227 339.545L405.158 330.941L396.231 329.01L399.227 339.545Z" fill="#665070"/>
<path d="M397.662 288.405L390.411 294.849L399.272 302.901L397.662 288.405Z" fill="#665070"/>
<path d="M432.56 290.822L437.394 315.519C437.394 315.519 444.376 327.867 448.671 333.239C452.967 338.606 452.428 354.179 452.428 354.179L463.167 361.161L449.21 356.327C449.21 356.327 448.671 338.606 447.062 335.926C445.453 333.239 437.932 322.501 435.253 319.282C432.56 316.057 432.56 290.822 432.56 290.822Z" fill="#4B3355"/>
<path d="M380.803 445.95C380.803 445.95 372.895 445.667 368.56 446.14C363.87 446.653 360.652 447.27 355.942 454.994C351.903 461.622 350.103 467.993 348.973 470.626C347.844 473.26 348.218 474.771 351.607 477.786C354.996 480.801 374.964 490.594 385.506 479.671C396.054 468.748 394.543 454.81 391.154 451.421C387.765 448.032 380.803 445.95 380.803 445.95Z" fill="#665070"/>
<path d="M405.663 428.419C400.954 425.221 385.847 424.511 378.872 426.659C367.148 430.265 367.062 436.859 364.376 443.841C362.452 448.84 365.276 456.104 369.053 457.569C372.829 459.027 386.636 458.758 391.358 455.349C396.081 451.94 410.373 431.624 405.663 428.419Z" fill="#665070"/>
<path d="M395.306 427.29C395.306 427.29 387.995 426.659 396.054 432.571L385.907 447.296C385.907 447.296 379.148 450.416 377.072 455.612C374.997 460.807 379.003 474.147 378.734 476.262C377.604 485.3 365.926 519.953 368.941 532.387C371.956 544.814 397.191 535.402 425.066 539.546C452.941 543.691 500.403 535.402 507.181 533.898C513.959 532.394 508.153 506.522 505.487 500.183C499.457 485.871 501.152 477.773 498.143 466.094C495.129 454.416 500.784 447.71 485.342 438.291C469.887 428.873 410.747 422.396 395.306 427.29Z" fill="#856792"/>
<path d="M442.721 419.927C442.721 419.927 452.317 420.052 461 422.193C463.385 422.777 469.013 420.991 471.477 421.661C481.224 424.314 489.664 429.451 490.879 432.052C493.513 437.7 497.283 459.927 493.894 462.942C490.505 465.957 486.465 469.858 479.68 469.858C472.895 469.858 461.598 468.728 460.094 462.699C458.583 456.669 429.539 436.498 442.721 419.927Z" fill="#856792"/>
<path d="M385.322 479.27L378.727 472.111C366.675 471.356 359.515 472.485 354.622 476.255C349.722 480.019 346.333 486.988 345.203 496.781C344.074 506.574 344.074 513.352 354.241 520.512C364.409 527.671 367.049 526.16 377.972 529.55C388.895 532.939 407.318 529.208 407.318 529.208L409.466 523.303L410.537 513.103C410.537 513.103 408.704 503.612 408.928 500.755C409.118 498.298 402.826 489.812 399.062 489.438C395.299 489.063 388.139 488.308 385.125 487.178L385.322 479.27Z" fill="#856792"/>
<path d="M393.434 495.855H398.117C398.117 495.855 397.618 493.241 405.638 492.722C413.664 492.196 413.703 497.707 413.703 497.707C413.703 497.707 414.354 502.896 415.792 508.709C416.85 512.998 416.173 517.313 416.173 519.921C416.173 526.068 412.659 531.888 407.641 533.451C403.956 534.6 395.858 532.676 391.628 528.466C390.104 526.949 389.086 525.136 388.954 523.06C388.738 519.717 390.393 515.139 390.386 511.132C390.386 509.595 388.652 508.453 388.672 507.034C388.738 503.481 388.876 500.479 389.086 498.981C389.592 495.329 393.434 495.855 393.434 495.855Z" fill="#665070"/>
<path d="M392.842 497.812H398.648C398.648 497.812 398.609 495.244 401.256 494.968C411.207 494.495 409.965 499.237 409.965 499.237C409.965 499.237 412.54 503.033 413.847 509.49C414.668 513.516 414.707 517.286 414.707 519.657C414.707 525.24 409.965 530.541 403.745 531.96C399.174 533.004 395.85 531.257 390.609 527.434C388.724 526.055 387.456 524.406 387.292 522.528C387.029 519.493 389.072 515.336 389.065 511.697C389.065 510.298 386.911 509.267 386.944 507.973C387.023 504.741 387.2 502.022 387.456 500.662C388.073 497.339 392.842 497.812 392.842 497.812Z" fill="#856792"/>
<path d="M511.897 538.6C511.897 550.462 513.427 565.247 511.897 568.689C510.367 572.131 508.941 575.106 501.289 578.613C492.12 582.817 486.294 579.769 479.411 582.449C472.527 585.129 462.215 584.36 449.217 583.979C436.225 583.599 435.457 580.157 429.723 582.83C423.989 585.503 412.527 587.034 412.14 576.715C411.759 566.397 411.378 544.229 412.521 538.495C413.67 532.761 418.058 533.313 423.411 532.951C429.145 532.57 437.361 534.672 437.361 534.672C449.913 529.575 466.38 530.291 466.38 530.291C466.38 530.291 475.963 527.795 483.608 525.503C491.253 523.211 490.485 523.211 493.546 520.919C496.606 518.62 511.897 526.731 511.897 538.6Z" fill="#665070"/>
<path d="M359.332 516.563C359.332 516.563 340.842 522.823 335.489 526.265C330.136 529.706 327.844 532.38 327.844 541.549C327.844 550.718 328.993 557.982 328.993 561.805C328.993 565.628 335.489 572.124 339.693 577.089C343.896 582.055 346.57 580.143 355.745 581.293C364.921 582.442 366.826 579.381 373.709 580.143C380.586 580.905 391.292 578.613 391.292 578.613C391.292 578.613 393.585 581.667 400.08 582.436C406.576 583.198 401.611 583.198 408.107 582.817C414.603 582.436 418.425 580.524 418.044 564.091C417.663 547.657 421.486 541.161 415.371 536.577C409.256 531.992 407.726 531.611 401.992 531.224C396.258 530.836 395.259 532.603 391.056 531.841C386.852 531.079 368.888 527.637 366.215 523.815C363.535 520.005 365.827 518.856 359.332 516.563Z" fill="#665070"/>
<path d="M454.649 425.976C454.649 425.976 457.598 439.88 461.394 445.785C465.191 451.69 465.283 452.938 473.289 454.206C481.296 455.467 486.353 453.785 486.353 453.785C486.353 453.785 488.626 457.903 479.148 457.687C469.663 457.477 460.816 455.368 459.128 454.107C457.44 452.846 456.337 442.836 454.649 436.728C452.961 430.619 454.649 425.976 454.649 425.976Z" fill="#665070"/>
<path d="M483.824 487.986C483.824 487.986 479.614 486.114 477.414 486.238C475.214 486.363 470.82 492.478 469.539 494.797C468.258 497.115 469.893 510.547 469.893 512.945C469.893 515.342 468.987 516.885 472.284 518.166C475.581 519.447 480.159 517.877 481.079 517.936C481.992 517.995 484.744 515.506 483.279 515.145C481.815 514.784 475.588 516.518 474.307 515.9C473.026 515.283 472.107 511.493 472.107 511.493C472.107 511.493 471.194 503.171 471.555 500.531C471.916 497.89 473.388 495.053 473.388 495.053C473.388 495.053 475.949 488.82 477.421 488.918C478.879 489.004 483.824 487.986 483.824 487.986Z" fill="#665070"/>
<path d="M467.464 531.901L455.74 540.86C455.74 540.86 450.616 560.072 451.549 564.59C452.482 569.109 458.071 575.323 458.071 575.323L475.772 581.536C475.772 581.536 482.295 582.101 486.485 578.147C490.676 574.193 488.817 565.149 488.817 565.149C488.817 565.149 486.406 534.948 483.845 532.971C481.283 530.994 467.464 531.901 467.464 531.901Z" fill="#856792"/>
<path d="M423.975 534.074C423.975 534.074 413.683 530.685 413.197 533.51C412.711 536.334 411.24 551.027 412.218 554.981C413.197 558.935 414.176 561.194 414.176 561.194L412.218 565.713C412.218 565.713 412.278 583.053 415.43 583.704C418.59 584.36 425.939 577.011 425.939 577.011L428.882 567.408C428.882 567.408 429.861 539.158 428.389 537.464C426.918 535.769 423.975 534.074 423.975 534.074Z" fill="#856792"/>
<path d="M493.612 488.537C493.612 488.537 496.436 493.746 497.001 499.985C497.566 506.225 495.818 512.445 491.917 517.273C484.639 526.278 483.864 525.647 483.864 525.647C483.864 525.647 468.889 528.373 464.37 526.481L483.017 521.089C483.017 521.089 493.999 511.348 493.999 509.654C493.999 507.959 492.961 493.719 492.961 493.719L493.612 488.537Z" fill="#665070"/>
<path d="M402.643 409.845C402.643 409.845 403.674 413.621 402.814 415.861C401.953 418.094 398.945 417.667 396.541 417.667C394.137 417.667 391.989 417.411 390.787 416.38C389.585 415.349 387.845 409.641 388.725 408.308C389.605 406.974 392.502 407.447 396.114 407.966C399.727 408.485 402.643 409.845 402.643 409.845Z" fill="#856792"/>
<path d="M443.995 424.341C443.995 424.341 444.501 408.347 442.728 403.782C440.948 399.211 440.948 399.723 436.127 396.419C431.306 393.122 430.544 393.628 430.288 391.598C430.032 389.569 428.508 388.551 418.36 388.551C408.205 388.551 398.051 389.569 395.772 391.598C393.493 393.628 390.846 401.858 390.846 401.858C390.846 401.858 388.81 410.561 390.688 423.073C390.714 426.508 391.227 431.053 391.227 431.053L389.795 431.769C389.795 431.769 390.537 445.668 391.299 448.203C392.061 450.738 391.555 453.536 406.531 452.518C421.506 451.5 432.422 450.738 434.958 445.917C437.493 441.096 439.91 437.759 439.91 437.759C439.91 437.759 444.554 431.139 443.995 424.341Z" fill="#856792"/>
<path d="M412.015 412.675C412.015 412.675 414.044 417.075 415.397 418.429C416.75 419.782 426.905 420.123 426.905 420.123C426.905 420.123 421.492 420.8 418.103 420.8C414.721 420.8 413.368 419.447 413.368 419.447L412.015 412.675Z" fill="#665070"/>
<path d="M401.421 412.793C399.273 410.376 390.012 409.614 389.874 411.296C389.742 412.97 391.155 417.496 392.737 417.897C394.15 418.251 400.77 418.862 401.237 417.542C401.618 416.465 403.568 415.21 401.421 412.793Z" fill="#665070"/>
<path d="M431.47 406.107L443.234 406.147L443.168 408.006L435.365 409.871C435.365 409.871 433.5 414.541 432.83 415.71C430.15 420.354 413.775 416.997 413.775 416.997L412.436 413.779L431.47 406.107Z" fill="#665070"/>
<path d="M389.697 431.407C389.697 431.407 390.531 437.03 392.055 442.107C393.578 447.184 394.078 449.64 397.638 449.897C401.191 450.153 415.838 450.048 425.23 449.036C434.623 448.018 436.488 443.631 438.012 440.333C439.536 437.036 440.298 432.721 440.298 432.721C440.298 432.721 441.565 435.007 440.804 437.542C440.042 440.077 440.692 448.53 434.091 449.798C429.736 450.632 406.334 452.78 397.132 452.438C390.281 452.182 390.537 448.964 390.032 441.857C389.513 434.744 389.697 431.407 389.697 431.407Z" fill="#665070"/>
<path d="M411.253 410.041C411.253 410.041 412.1 414.948 414.471 416.13C416.842 417.312 424.284 417.148 427.838 416.977C431.391 416.807 430.885 417.148 431.22 414.271C431.562 411.394 432.238 404.964 430.544 404.117C428.849 403.27 415.141 407.335 411.253 410.041Z" fill="#34283A"/>
<path d="M401.394 411.572C401.394 411.572 402.156 414.364 401.519 416.012C400.882 417.661 398.669 417.346 396.889 417.346C395.115 417.346 393.526 417.155 392.639 416.393C391.752 415.631 390.465 411.421 391.115 410.436C391.766 409.451 393.907 409.799 396.567 410.18C399.24 410.554 401.394 411.572 401.394 411.572Z" fill="#34283A"/>
<path d="M444.416 404.117C444.416 404.117 444.193 407.165 441.618 407.165C439.043 407.165 432.199 405.05 427.306 406.574C422.413 408.097 414.623 412.603 411.792 412.603C408.961 412.603 403.614 412.669 401.808 412.669C400.002 412.669 398.977 410.639 394.596 410.383C390.215 410.127 388.002 410.744 387.595 410.16C386.82 407.112 387.128 401.503 389.447 399.473C391.765 397.444 386.373 388.478 402.839 386.528C432.823 382.974 432.298 388.308 433.841 389.825C435.385 391.349 438.505 391.244 440.357 392.281C444.587 394.639 444.416 400.058 444.416 404.117Z" fill="#856792"/>
<path d="M391.753 407.874C385.309 407.335 387.129 401.496 389.447 399.467C391.766 397.437 386.373 388.471 402.84 386.521C432.823 382.967 432.298 388.301 433.841 389.818C434.853 390.816 424.876 394.981 419.332 398.619C413.789 402.258 412.285 399.624 410.669 400.695C409.06 401.765 400.672 399.138 401.414 399.276C401.421 399.283 394.544 408.104 391.753 407.874Z" fill="#665070"/>
<path d="M391.726 421.142L392.232 430.705L389.749 431.421L389.841 433.043C389.841 433.043 416.908 431.296 427.569 433.831L425.539 431.296C425.539 431.296 409.237 429.01 394.682 430.199L393.243 427.913L391.726 421.142Z" fill="#665070"/>
<path d="M401.474 412.662C401.474 412.662 404.482 413.254 404.909 413.254C405.329 413.254 407.194 412.997 407.194 412.997L412.357 412.577L411.851 413.339L407.28 414.777L404.061 414.863L401.769 414.469L401.474 412.662Z" fill="#665070"/>
<path d="M444.133 418.561C444.133 418.561 444.199 428.577 443.207 430.863C441.513 435.02 440.074 436.682 440.074 436.682L440.416 433.359C440.416 433.359 442.695 430.863 443.036 429.621C443.371 428.373 444.133 418.561 444.133 418.561Z" fill="#665070"/>
<path d="M392.975 392.609C392.975 392.609 396.022 398.192 398.308 399.21C400.594 400.228 406.433 398.705 406.433 398.705C406.433 398.705 398.564 402.764 397.04 401.752C395.516 400.734 392.975 392.609 392.975 392.609Z" fill="#856792"/>
<path d="M351.962 478.633C351.962 478.633 356.835 476.38 362.865 474.324C368.895 472.268 371.528 471.901 371.528 471.901C371.528 471.901 367.949 469.109 361.479 472.071C357.315 473.976 354.826 474.436 351.962 478.633Z" fill="#856792"/>
<path d="M354.813 496.787L355.377 512.327L361.309 525.037C361.309 525.037 351.988 515.717 351.988 513.175C351.988 510.633 354.813 496.787 354.813 496.787Z" fill="#665070"/>
<path d="M424.363 491.815L430.392 488.38L442.451 489.851L447.246 492.879L448.645 492.945L439.325 487.053L427.266 485.582L421.236 489.017L421.578 494.186L424.875 493.72L424.363 491.815Z" fill="#665070"/>
<path d="M420.547 493.346L414.833 492.754C414.491 492.722 414.176 492.925 414.064 493.247L411.68 500.308C411.568 500.643 411.706 501.004 412.015 501.181L414.307 502.475C414.806 502.758 414.806 503.474 414.307 503.75L413.151 504.393C412.908 504.531 412.764 504.794 412.777 505.076L413.815 522.876C413.821 523.007 413.861 523.132 413.933 523.237L419.404 531.487C419.522 531.664 419.706 531.782 419.916 531.809L431.476 533.352C431.601 533.372 431.733 533.352 431.851 533.306L438.885 530.416C439.621 530.114 439.417 529.03 438.623 529.011L421.762 528.61C421.467 528.604 421.204 528.42 421.099 528.144L418.715 522.068C418.642 521.878 418.491 521.727 418.301 521.654L415.358 520.505C415.069 520.393 414.879 520.104 414.892 519.796L415.03 516.551C415.043 516.321 415.161 516.104 415.352 515.98L415.785 515.034C416.199 514.751 416.212 514.154 415.818 513.851L414.964 512.446C414.793 512.314 414.688 512.111 414.682 511.894L414.531 507.953C414.524 507.769 414.59 507.585 414.708 507.447L417.02 504.768C417.27 504.479 417.256 504.052 416.987 503.782L414.104 500.82C413.88 500.59 413.834 500.236 413.985 499.953L416.094 496.144C416.192 495.966 416.363 495.835 416.56 495.789L420.646 494.791C421.447 494.587 421.361 493.431 420.547 493.346Z" fill="#665070"/>
<path d="M337.342 534.738C340.836 532.735 353.217 532.755 356.192 534.738C359.168 536.722 354.169 552.571 354.169 552.571C354.169 552.571 365.92 572.4 362.944 575.375C359.969 578.351 342.11 571.408 338.635 567.934C335.161 564.459 332.113 546.929 333.374 542.673C334.55 538.705 333.847 536.742 337.342 534.738Z" fill="#856792"/>
<path d="M360.461 530.12L368.934 536.34L386.826 536.15L368.934 532.38L360.461 530.12Z" fill="#856792"/>
<path d="M481.598 484.833L456.232 489.562L448.606 494.068L455.694 486.875L472.331 482.094L481.598 484.833Z" fill="#665070"/>
<path d="M465.099 453.011L458.254 462.902C458.254 462.902 457.493 483.441 462.819 485.727C462.819 485.727 466.622 476.597 467.384 472.032C468.146 467.467 468.146 466.456 469.414 464.17C470.681 461.891 472.711 455.296 472.711 455.296L465.099 453.011Z" fill="#665070"/>
<path d="M408.074 469.47C408.074 469.47 406.34 480.905 406.688 485.752C407.036 490.6 413.965 496.491 413.965 496.491C413.965 496.491 410.156 490.948 410.156 484.714C410.156 478.481 408.074 469.47 408.074 469.47Z" fill="#665070"/>
<path d="M406.518 452.518C406.518 452.518 414.478 461.332 420.718 461.332C426.958 461.332 436.311 449.378 436.311 449.378L406.518 452.518Z" fill="#665070"/>
<path d="M436.311 530.705C436.311 530.705 449.821 525.51 450.859 524.472C451.897 523.435 450.859 513.037 450.859 513.037C450.859 513.037 456.836 522.909 453.46 526.548C450.084 530.187 436.311 530.705 436.311 530.705Z" fill="#665070"/>
<path d="M494.34 458.383C494.34 458.383 496.416 464.274 497.46 473.628C498.498 482.981 492.265 494.416 492.265 494.416C492.265 494.416 501.27 489.91 500.58 476.747C499.884 463.578 494.34 458.383 494.34 458.383Z" fill="#665070"/>
<path d="M377.066 516.156C376.803 518.494 382.438 523.519 382.438 523.519L380.704 516.806L381.355 510.573C381.355 510.567 377.328 513.811 377.066 516.156Z" fill="#665070"/>
<path d="M358.878 522.521C358.878 522.521 362.339 525.944 365.459 527.329C368.579 528.715 382.09 529.753 382.09 529.753C383.41 530.101 372.323 530.692 364.77 528.715C363.384 528.354 362.339 527.369 358.878 522.521Z" fill="#665070"/>
<path d="M364.074 446.777C364.074 446.777 369.21 443.802 372.212 443.69C375.207 443.579 375.641 445.865 375.641 445.865C375.641 445.865 372.784 444.827 370.577 445.083C367.03 445.503 364.074 446.777 364.074 446.777Z" fill="#856792"/>
<path d="M385.9 486.376C385.9 486.376 379.936 483.624 376.271 483.624C372.606 483.624 366.412 489.128 366.412 489.128C366.412 489.128 376.271 486.606 378.333 486.836C380.396 487.066 385.9 486.376 385.9 486.376Z" fill="#665070"/>
<path d="M405.906 494.068C405.906 493.03 402.011 489.562 398.891 489.562C395.771 489.562 395.213 489.779 392.829 490.6C390.32 491.467 388.671 492.675 387.981 493.72C387.981 493.72 387.981 488.872 393.525 488.176C399.069 487.487 398.602 486.895 400.625 487.487C402.701 488.091 405.906 494.068 405.906 494.068Z" fill="#665070"/>
<path d="M375.765 487.053C375.765 487.053 385.899 487.316 389.538 490.692C389.538 490.692 393.216 488.235 389.538 487.053C382.261 484.715 375.765 487.053 375.765 487.053Z" fill="#665070"/>
<path d="M60.5848 566.462L61.5437 556.846L28.8474 533.766L9.61579 542.416L0 556.846L17.3071 570.304L60.5848 566.462Z" fill="#665070"/>
<path d="M17.3071 570.304L33.6553 568.386L19.8753 557.483L28.8474 533.766L9.6158 542.416L10.5747 551.073L0 556.846L17.3071 570.304Z" fill="#4B3355"/>
<path d="M472.783 588.235L462.898 572.209L451.679 576.478L446.74 588.892L453.026 590.002L462.189 592.334L472.783 588.235Z" fill="#4B3355"/>
<path d="M462.635 572.341L463.706 579.953L459.43 584.229L459.029 589.037L462.103 591.973C468.783 591.441 472.79 588.229 472.79 588.229L473.322 580.479L462.635 572.341Z" fill="#665070"/>
<path d="M449.203 592.57L451.351 583.979L440.974 580.399L434.169 587.204L439.18 591.854L449.203 592.57Z" fill="#4B3355"/>
<path d="M449.204 592.571L443.477 584.695L438.11 587.204L439.181 591.855L449.204 592.571Z" fill="#665070"/>
<path d="M374.569 469.082C374.569 469.082 374.569 461.03 378.865 463.178C383.16 465.325 381.013 471.23 381.013 471.23C381.013 471.23 385.847 468.012 386.917 472.301C387.988 476.596 383.699 474.987 383.699 474.987L374.569 469.082Z" fill="#33A86D"/>
<path d="M364.37 472.839C364.37 472.839 361.683 468.005 365.979 468.544C370.274 469.082 367.056 473.378 364.37 472.839Z" fill="#33A86D"/>
<path d="M375.647 476.058C375.647 476.058 369.203 468.005 368.133 473.91C367.056 479.821 372.96 481.43 375.647 476.058Z" fill="#288453"/>
<path d="M375.108 482.501C375.108 482.501 374.037 469.615 378.865 472.301C383.699 474.987 380.481 484.117 375.108 482.501Z" fill="#288453"/>
<path d="M372.422 488.412C372.422 488.412 360.613 492.708 369.204 493.778C377.795 494.855 372.422 488.412 372.422 488.412Z" fill="#288453"/>
<path d="M333.874 574.383C333.874 574.383 331.634 566.482 334.59 566.784C337.545 567.086 336.14 573.148 336.14 573.148C336.14 573.148 341.539 563.881 342.688 570.318C343.838 576.754 342.189 579.125 342.189 579.125C342.189 579.125 345.821 573.91 347.535 576.511C349.243 579.112 346.951 580.932 346.951 580.932C346.951 580.932 343.2 584.761 340.356 582.777C337.512 580.794 337.512 580.794 337.512 580.794C337.512 580.794 335.056 583.309 330.025 578.396C325 573.477 325.716 565.877 333.874 574.383Z" fill="#33A86D"/>
<path d="M129.196 572.708C129.196 572.708 127.587 561.969 132.953 563.578C138.319 565.188 135.639 569.483 135.639 569.483C135.639 569.483 142.083 567.874 139.396 573.779C136.71 579.684 134.03 579.684 134.03 579.684C134.03 579.684 126.516 583.979 123.83 574.317C121.143 564.656 129.196 572.708 129.196 572.708Z" fill="#33A86D"/>
<path d="M105.577 572.708C105.577 572.708 102.358 565.727 105.577 564.656C108.795 563.585 108.795 568.951 108.795 568.951C108.795 568.951 112.552 561.97 113.629 567.342C114.7 572.708 112.552 579.684 105.577 572.708Z" fill="#33A86D"/>
<path d="M107.187 553.917C107.187 553.917 107.187 560.361 110.405 558.213C113.63 556.065 115.239 547.474 107.187 553.917Z" fill="#33A86D"/>
<path d="M91.0742 554.987C91.0742 554.987 89.465 561.969 92.6834 561.431C95.9018 560.892 96.979 560.36 95.9018 557.135C94.8377 553.917 91.0742 554.987 91.0742 554.987Z" fill="#33A86D"/>
<path d="M87.8564 546.935C87.8564 546.935 89.4656 553.379 92.6906 549.622C95.909 545.858 91.6134 542.64 87.8564 546.935Z" fill="#33A86D"/>
<path d="M96.4473 550.153C96.4473 550.153 98.5951 554.988 100.743 554.449C102.891 553.911 103.429 544.249 96.4473 550.153Z" fill="#33A86D"/>
<path d="M92.1514 543.177C92.1514 543.177 92.69 551.769 97.5176 546.396C102.345 541.023 96.9855 539.414 92.1514 543.177Z" fill="#33A86D"/>
<path d="M91.6127 536.196C91.6127 536.196 91.0741 542.64 94.8311 538.883C98.5946 535.119 95.9083 529.753 91.6127 536.196Z" fill="#33A86D"/>
<path d="M478.195 495.387C478.195 495.387 479.003 484.918 485.447 488.944C491.89 492.97 481.42 498.612 478.195 495.387Z" fill="#33A86D"/>
<path d="M480.613 499.414C480.613 499.414 469.158 506.75 482.045 502.816C494.931 498.882 493.145 497.45 480.613 499.414Z" fill="#33A86D"/>
<path d="M483.122 506.042C483.122 506.042 484.554 517.851 487.418 511.053C490.281 504.249 489.204 504.964 483.122 506.042Z" fill="#33A86D"/>
<path d="M480.974 506.396C480.974 506.396 470.596 508.544 479.188 509.615C487.772 510.692 480.974 506.396 480.974 506.396Z" fill="#33A86D"/>
<path d="M482.044 523.218C482.044 523.218 490.635 518.206 483.476 518.206C476.317 518.206 473.453 523.218 482.044 523.218Z" fill="#33A86D"/>
<path d="M490.366 476.242C490.366 476.242 488.934 484.833 495.378 480.176C501.821 475.526 497.887 473.733 490.366 476.242Z" fill="#33A86D"/>
<path d="M502.183 464.787C502.183 464.787 492.521 468.367 498.964 469.083C505.401 469.799 504.331 465.142 502.183 464.787Z" fill="#33A86D"/>
<path d="M496.094 456.195C496.094 456.195 495.024 464.786 500.028 460.491C505.047 456.195 502.538 456.195 496.094 456.195Z" fill="#33A86D"/>
<path d="M493.592 460.492C493.592 460.492 487.51 459.776 492.521 461.923C497.526 464.071 493.592 460.492 493.592 460.492Z" fill="#33A86D"/>
<path d="M493.23 451.539C493.23 451.539 503.253 456.551 499.312 451.539C495.378 446.528 487.503 446.173 493.23 451.539Z" fill="#33A86D"/>
<path d="M498.241 571.093C498.241 571.093 496.809 577.891 501.46 576.104C506.11 574.318 504.678 570.738 502.891 570.377C501.105 570.016 498.241 571.093 498.241 571.093Z" fill="#33A86D"/>
<path d="M498.241 566.443C498.241 566.443 502.891 555.349 501.821 562.863C500.75 570.377 498.241 566.443 498.241 566.443Z" fill="#33A86D"/>
<path d="M496.093 568.951C496.093 568.951 484.638 554.994 490.011 556.426C495.377 557.858 495.023 562.153 495.023 562.153C495.023 562.153 496.093 547.119 498.241 552.846C500.389 558.574 496.093 568.951 496.093 568.951Z" fill="#33A86D"/>
<path d="M505.407 560.617C505.407 560.617 513.21 555.014 512.094 559.756C510.977 564.498 504.291 562.344 505.407 560.617Z" fill="#33A86D"/>
<path d="M511.128 573.241C511.128 573.241 510.774 563.934 507.91 563.934C505.046 563.934 507.91 574.673 511.128 573.241Z" fill="#33A86D"/>
<path d="M514.353 572.17C514.353 572.17 509.703 553.917 515.424 557.135C521.151 560.36 518.649 575.388 514.353 572.17Z" fill="#33A86D"/>
<path d="M501.821 554.988C501.821 554.988 502.537 545.681 504.324 551.769C506.117 557.851 503.253 558.567 501.821 554.988Z" fill="#33A86D"/>
<path d="M517.933 570.377C517.933 570.377 519.364 559.283 522.228 559.999C525.092 560.715 523.299 565.011 523.299 565.011C523.299 565.011 526.517 554.633 529.381 557.497C532.245 560.361 527.233 564.656 527.233 564.656C527.233 564.656 535.463 560.361 532.961 564.301C530.458 568.236 524.731 566.804 524.731 566.804C524.731 566.804 526.878 573.602 517.933 570.377Z" fill="#33A86D"/>
<path d="M487.864 583.263C487.864 583.263 477.486 575.033 482.136 573.956C486.787 572.885 485.716 576.458 485.716 576.458C485.716 576.458 491.082 573.24 490.728 575.388C490.373 577.536 491.798 577.89 491.798 577.89C491.798 577.89 500.035 585.056 487.864 583.263Z" fill="#33A86D"/>
<path d="M366.518 568.951C366.518 568.951 366.518 561.792 368.304 563.224C370.091 564.655 369.736 568.235 369.736 568.235C369.736 568.235 376.534 563.939 375.818 567.519C375.102 571.099 371.523 571.453 371.523 571.453C371.523 571.453 371.523 577.536 369.375 575.749C367.227 573.962 366.518 568.951 366.518 568.951Z" fill="#33A86D"/>
<path d="M368.665 553.556C368.665 553.556 375.108 555.703 372.245 557.851C369.381 559.999 368.665 553.556 368.665 553.556Z" fill="#33A86D"/>
<path d="M373.677 561.076C373.677 561.076 375.463 568.951 379.043 563.224C382.629 557.496 382.268 559.283 373.677 561.076Z" fill="#33A86D"/>
<path d="M345.039 524.202C345.039 524.202 340.389 516.327 345.755 518.12C351.121 519.913 347.187 522.77 347.187 522.77C347.187 522.77 355.062 521.7 352.914 525.273C350.766 528.852 346.116 526.705 346.116 526.705L345.039 524.202Z" fill="#33A86D"/>
<path d="M342.891 525.279C342.891 525.279 343.607 519.913 340.743 518.836C337.88 517.759 335.732 527.066 342.891 525.279Z" fill="#33A86D"/>
<path d="M345.039 513.825C345.039 513.825 339.673 506.665 343.253 507.381C346.832 508.097 347.548 509.884 347.548 509.884C347.548 509.884 352.56 509.529 350.412 514.534C348.264 519.539 345.039 513.825 345.039 513.825Z" fill="#33A86D"/>
<path d="M342.537 500.576C342.537 500.576 347.187 505.943 349.335 502.008C351.483 498.074 342.537 500.576 342.537 500.576Z" fill="#33A86D"/>
<path d="M357.571 502.724C357.571 502.724 362.221 498.429 360.073 498.429C357.926 498.429 357.926 498.429 356.855 498.429C355.778 498.429 355.062 502.37 357.571 502.724Z" fill="#33A86D"/>
<path d="M351.128 495.21C351.128 495.21 347.91 500.938 352.914 498.074C357.919 495.21 358.642 493.778 351.128 495.21Z" fill="#33A86D"/>
<path d="M351.93 475.525C351.93 475.525 350.859 469.443 354.432 471.591C358.012 473.739 355.148 476.241 355.148 476.241C355.148 476.241 362.307 474.81 359.444 479.105C356.58 483.401 354.077 480.892 354.077 480.892L351.93 475.525Z" fill="#33A86D"/>
<path d="M348.711 468.722C348.711 468.722 337.617 467.651 341.551 471.224C345.492 474.81 352.29 470.153 348.711 468.722Z" fill="#33A86D"/>
<path d="M347.64 474.449C347.64 474.449 341.912 479.099 346.924 477.668C351.929 476.242 349.426 474.094 347.64 474.449Z" fill="#33A86D"/>
<path d="M344.415 482.685C344.415 482.685 353.722 481.253 348.349 480.182C342.976 479.112 341.551 481.607 344.415 482.685Z" fill="#33A86D"/>
<path d="M350.497 490.199C350.497 490.199 353.715 485.903 349.781 485.903C345.847 485.903 345.847 489.483 350.497 490.199Z" fill="#33A86D"/>
<path d="M441.69 544.965C441.69 544.965 434.53 549.976 439.903 548.544C445.269 547.113 441.69 544.965 441.69 544.965Z" fill="#33A86D"/>
<path d="M443.122 550.337C442.124 551.158 446.702 556.781 447.772 551.408C448.849 546.042 449.204 545.326 443.122 550.337Z" fill="#33A86D"/>
<path d="M438.465 554.987C438.465 554.987 448.488 561.785 444.547 557.135C440.613 552.485 436.678 553.917 438.465 554.987Z" fill="#33A86D"/>
<path d="M439.896 560.715C439.896 560.715 444.547 568.229 444.908 564.295C445.269 560.361 445.985 560.361 439.896 560.715Z" fill="#33A86D"/>
<path d="M438.11 566.442C438.11 566.442 450.997 569.661 442.76 570.022C434.524 570.383 431.667 566.804 438.11 566.442Z" fill="#33A86D"/>
<path d="M453.145 533.155C453.145 533.155 449.565 538.167 454.577 536.019C459.588 533.871 464.239 530.646 453.145 533.155Z" fill="#33A86D"/>
<path d="M451.713 540.314C451.713 540.314 457.795 540.669 454.931 539.244C452.068 537.805 448.488 537.451 451.713 540.314Z" fill="#33A86D"/>
<path d="M451.713 544.249C451.713 544.249 455.647 548.544 457.795 543.894C459.943 539.237 448.849 542.462 451.713 544.249Z" fill="#33A86D"/>
<path d="M403.003 326.606C403.003 326.606 397.748 315.512 403.003 316.681C408.258 317.85 404.757 321.936 404.757 321.936C404.757 321.936 412.934 317.85 411.765 323.689C410.596 329.528 408.264 331.282 408.264 331.282C408.264 331.282 415.272 325.443 414.688 333.036C414.103 340.629 408.264 335.374 408.264 335.374C408.264 335.374 404.763 341.213 400.671 335.959C396.579 330.704 400.671 332.458 400.671 332.458C400.671 332.458 388.402 323.105 403.003 326.606Z" fill="#33A86D"/>
<path d="M391.22 388.899C388.356 389.969 384.776 400.708 395.246 394.265C405.716 387.828 394.083 387.828 391.22 388.899Z" fill="#33A86D"/>
<path d="M395.85 381.607C398.503 381.607 407.068 381.436 398.806 386.087C390.543 390.737 393.196 381.607 395.85 381.607Z" fill="#33A86D"/>
<path d="M398.32 400.852C398.32 400.852 402.74 395.69 396.106 398.035C389.479 400.386 391.134 404.143 398.32 400.852Z" fill="#33A86D"/>
<path d="M400.481 405.187C396.343 406.678 396.645 411.224 402.674 407.874C408.697 404.517 404.619 403.696 400.481 405.187Z" fill="#33A86D"/>
<path d="M403.89 393.825C401.269 394.271 403.141 400.603 409.611 397.135C412.948 395.342 406.511 393.371 403.89 393.825Z" fill="#33A86D"/>
<path d="M387.641 426.126C387.641 426.126 389.788 422.192 385.854 422.908C381.92 423.624 384.067 425.772 384.067 425.772C384.067 425.772 377.985 418.258 375.476 421.476C372.974 424.695 379.772 427.204 379.772 427.204C379.772 427.204 369.749 425.056 367.601 428.636C365.453 432.215 372.613 429.351 372.613 429.351C372.613 429.351 364.021 434.718 366.53 436.15C369.033 437.581 372.974 434.718 372.974 434.718C372.974 434.718 375.122 439.729 376.553 435.072C377.985 430.422 377.985 430.422 377.985 430.422C377.985 430.422 384.067 434.356 383.713 430.422C383.358 426.488 383.713 427.558 383.713 427.558C383.713 427.558 388.711 431.138 387.641 426.126Z" fill="#33A86D"/>
<path d="M440.612 328.944C440.612 328.944 432.56 324.649 435.778 332.701C438.996 340.754 443.299 332.163 440.612 328.944Z" fill="#288453"/>
<path d="M440.074 323.571C440.074 323.571 450.275 315.518 445.979 321.962C441.683 328.405 440.074 323.571 440.074 323.571Z" fill="#288453"/>
<path d="M432.56 315.519C432.56 315.519 428.803 321.423 435.246 320.353C441.689 319.282 432.56 315.519 432.56 315.519Z" fill="#288453"/>
<path d="M434.708 308.543C434.708 308.543 445.985 316.596 438.465 314.986C430.951 313.371 434.708 308.543 434.708 308.543Z" fill="#288453"/>
<path d="M444.908 331.092C444.908 331.092 436.317 338.074 442.761 337.535C449.204 336.997 444.908 331.092 444.908 331.092Z" fill="#288453"/>
<path d="M448.666 339.145C448.666 339.145 458.866 340.754 451.884 342.902C444.902 345.05 448.134 338.074 448.666 339.145Z" fill="#288453"/>
<path d="M88.749 448.084C88.749 448.084 102.174 439.493 98.4108 446.475C94.6538 453.457 88.749 448.084 88.749 448.084Z" fill="#33A86D"/>
<path d="M90.3587 454.527C90.3587 454.527 87.6724 463.657 93.5771 459.362C99.4885 455.066 90.3587 454.527 90.3587 454.527Z" fill="#33A86D"/>
<path d="M85.5242 452.38C85.5242 452.38 78.5423 437.884 74.2467 445.398C69.9511 452.912 78.5423 448.084 78.5423 448.084C78.5423 448.084 71.0283 455.598 76.3945 454.528C81.7673 453.457 85.5242 452.38 85.5242 452.38Z" fill="#33A86D"/>
<path d="M83.3764 440.031C83.3764 440.031 79.6194 449.693 87.6719 442.717C95.7245 435.742 85.5241 440.57 85.5241 440.57L83.3764 440.031Z" fill="#33A86D"/>
<path d="M196.848 287.065C196.848 287.065 204.362 280.622 203.83 286.527C203.291 292.432 196.848 287.065 196.848 287.065Z" fill="#33A86D"/>
<path d="M198.464 292.432C198.464 292.432 203.83 299.946 206.516 294.58C209.203 289.213 198.464 292.432 198.464 292.432Z" fill="#33A86D"/>
<path d="M211.351 297.805C211.351 297.805 201.689 309.614 211.351 304.248C221.013 298.882 221.013 296.189 211.351 297.805Z" fill="#33A86D"/>
<path d="M200.074 299.952C200.074 299.952 185.578 302.1 194.707 304.248C203.837 306.396 207.588 306.396 200.074 299.952Z" fill="#33A86D"/>
<path d="M210.273 313.909C210.273 313.909 222.621 310.152 217.787 309.075C212.96 308.004 206.516 313.909 210.273 313.909Z" fill="#33A86D"/>
<path d="M210.812 317.134C204.907 315.525 196.316 320.353 211.883 321.969C227.456 323.571 216.717 318.744 210.812 317.134Z" fill="#33A86D"/>
<path d="M492.401 243.66C489.183 235.43 488.467 225.045 494.903 212.875C494.903 212.875 497.774 218.891 501.301 218.556C504.834 218.221 507.738 213.59 507.915 206.628C508.092 199.541 506.411 196.461 506.411 196.461L512.454 204.264C512.454 204.264 513.294 197.827 512.828 192.691C512.309 186.996 509.222 181.531 509.222 181.531C509.222 181.531 525.255 186.339 528.933 199.213C531.738 209.019 530.936 215.259 530.936 215.259L536.073 209.656C536.073 209.656 542.516 231.85 537.117 243.594C532.644 253.315 524.191 258.799 515.672 259.41C505.872 260.106 495.626 251.889 492.401 243.66Z" fill="#FFACFF"/>
<path d="M516.927 249.026C516.927 249.026 509.065 247.883 505.058 240.041C500.94 231.988 506.733 229.742 506.733 229.742L510.484 236.139L517.466 217.348C517.466 217.348 521.761 222.537 522.655 224.862C523.548 227.187 530.234 244.599 516.927 249.026Z" fill="#9E54C7"/>
<path d="M522.293 178.688C522.293 178.688 521.754 174.931 523.363 174.931C524.979 174.931 526.588 178.156 522.293 178.688Z" fill="#9E54C7"/>
<path d="M499.206 190.504C499.206 190.504 496.519 182.99 500.815 179.227C500.815 179.227 491.153 185.67 499.206 190.504Z" fill="#FFACFF"/>
<path d="M516.434 162.405C516.566 163.541 515.062 164.06 514.484 163.075C513.196 160.868 511.804 157.972 514.234 159.364C515.758 160.231 516.316 161.361 516.434 162.405Z" fill="#FFACFF"/>
<path d="M149.478 264.372C149.478 264.372 133.997 268.504 124.013 250.52C117.465 239.906 121.78 221.482 121.78 221.482C121.78 221.482 128.479 221.035 132.952 225.948C130.272 211.203 137.865 204.057 137.865 204.057L141.885 205.843C141.885 205.843 144.493 202.822 150.181 193.16C150.181 193.16 169.911 205.384 167.067 220.681C164.223 235.978 165.123 230.855 165.123 230.855L176.296 224.602C176.282 224.609 185.498 262.763 149.478 264.372Z" fill="#FFACFF"/>
<path d="M156.847 254.323C156.847 254.323 149.478 260.353 143.442 254.993C137.412 249.633 138.752 241.587 138.752 241.587L141.432 244.267C141.432 244.267 140.762 238.908 145.451 231.532C150.141 224.162 150.141 224.162 150.141 224.162L152.821 234.211L156.841 230.862C156.847 230.862 167.573 248.957 156.847 254.323Z" fill="#9E54C7"/>
<path d="M121.681 200.622C121.681 200.622 121.327 207.065 123.829 209.213C126.332 211.36 122.397 202.769 125.616 197.758L121.681 200.622Z" fill="#9E54C7"/>
<path d="M141.366 184.51C141.366 184.51 137.432 189.521 139.934 190.953C142.437 192.385 141.366 184.51 141.366 184.51Z" fill="#FFACFF"/>
<path d="M161.413 186.303C161.413 186.303 161.058 191.669 163.199 190.237C165.353 188.805 163.922 182.362 161.413 186.303Z" fill="#9E54C7"/>
<path d="M149.603 167.688C149.603 167.688 152.821 168.404 152.466 171.623C152.112 174.841 149.603 167.688 149.603 167.688Z" fill="#FFACFF"/>
<path d="M168.796 548.19C168.618 549.444 181.998 556.065 190.589 555.704C199.18 555.342 215.062 555.901 216.619 554.16C218.116 552.485 212.96 551.139 212.96 551.139C212.96 551.139 200.809 546.981 189.873 544.919C175.64 542.239 168.973 546.935 168.796 548.19Z" fill="#C94039"/>
<path d="M208.395 575.703C208.395 578.613 207.987 606.18 207.409 611.296C207.022 614.712 202.707 616.879 202.293 612.236C201.695 605.582 199.685 595.52 199.39 592.787C198.516 584.597 200.651 576.669 200.651 576.669C200.651 576.669 208.395 574.357 208.395 575.703Z" fill="#F5894E"/>
<path d="M205.36 585.28C204.487 586.305 207.134 605.917 206.556 611.04C206.168 614.456 202.707 616.879 202.293 612.236C201.695 605.582 199.685 595.52 199.39 592.787C198.516 584.597 200.099 576.695 200.099 576.695C200.099 576.695 206.234 584.255 205.36 585.28Z" fill="#CC6D3D"/>
<path d="M210.095 559.822C209.964 562.686 210.207 568.039 209.728 571.953C209.649 572.617 209.793 572.019 208.821 581.635L199.074 581.7L198.641 570.981C198.076 569.188 196.558 558.607 196.532 558.751C197.071 556.065 210.273 555.861 210.095 559.822Z" fill="#273252"/>
<path d="M204.992 611.723C208.211 613.51 208.717 613.805 211.416 615.283C214.313 616.866 203.62 617.234 202.845 615.152C202.063 613.076 202.234 610.186 204.992 611.723Z" fill="#CC6D3D"/>
<path d="M201.893 612.767C202.234 612.012 204.053 612.38 204.408 612.524C204.763 612.669 208.52 614.114 208.52 614.114C208.52 614.114 212.257 615.697 213.282 615.848C216.191 616.275 218.379 618.337 211.318 619.053C208.513 619.335 205.643 618.146 205.643 618.146L205.4 619.02L204.73 619.151C204.73 619.151 202.142 619.322 202.004 619.02C201.82 618.6 201.551 613.522 201.893 612.767Z" fill="#992C29"/>
<path d="M212.789 618.882C212.789 618.882 208.69 619.637 205.636 618.008C205.636 618.008 205.196 617.102 206.608 617.358C210.897 618.14 211.416 618.744 212.789 618.882Z" fill="#C94039"/>
<path d="M208.507 559.822C208.343 563.04 207.554 566.804 207.233 569.845C207.16 570.508 207.068 579.329 206.175 580.761C205.282 582.193 199.403 581.116 199.403 581.116L197.952 569.943C197.433 568.19 196.323 558.567 196.29 558.751C196.77 556.065 208.704 555.861 208.507 559.822Z" fill="#1D2538"/>
<path d="M194.076 544.518C194.076 544.518 195.909 557.017 196.822 560.235C197.735 563.454 209.465 567.513 209.912 562.955C210.359 558.396 211.482 545.056 209.045 540.761C206.608 536.465 194.076 537.536 194.076 544.518Z" fill="#273252"/>
<path d="M194.076 544.518C194.076 544.518 195.725 557.017 196.552 560.235C197.38 563.454 207.942 567.513 208.349 562.955C208.749 558.39 209.768 545.056 207.567 540.761C205.36 536.465 194.076 537.536 194.076 544.518Z" fill="#1D2538"/>
<path d="M180.808 565.778C180.808 565.778 179.777 572.438 177.629 579.289C176.151 584.005 175.777 585.726 175.783 595.677C175.783 597.956 175.087 605.995 175.14 607.572C175.232 610.31 175.186 612.248 176.591 611.985C178.798 611.565 179.475 610.665 181.99 599.729C185.353 585.115 188.946 565.903 188.946 565.903L180.808 565.778Z" fill="#F5894E"/>
<path d="M180.809 565.778C180.809 565.778 179.778 572.438 177.63 579.289C176.152 584.005 175.778 585.726 175.784 595.677C175.784 597.956 174.47 608.117 174.523 609.693C174.615 612.432 175.186 612.248 176.585 611.985C178.792 611.565 177.866 607.985 180.382 597.049C183.745 582.435 182.707 581.66 182.707 581.66L180.809 565.778Z" fill="#CC6D3D"/>
<path d="M195.226 542.875C195.226 542.875 192.106 561.161 189.82 565.352C186.779 570.928 180.809 569.903 180.283 566.343C179.455 560.682 178.851 550.429 179.357 544.885C179.902 538.928 188.618 534.022 195.226 542.875Z" fill="#273252"/>
<path d="M180.368 565.004C178.575 565.923 177.222 579.243 177.222 579.243L185.951 580.984C185.951 580.984 188.269 575.053 189.609 566.797C190.844 559.197 181.865 562.192 180.368 565.004Z" fill="#273252"/>
<path d="M192.381 542.284C192.381 542.284 192.02 551.322 190.247 557.443C189.754 559.151 188.355 565.404 187.856 566.317C184.815 571.893 180.802 569.897 180.276 566.33C179.449 560.668 178.844 550.415 179.35 544.872C179.902 538.928 185.774 533.43 192.381 542.284Z" fill="#1D2538"/>
<path d="M176.026 607.815C176.729 607.624 177.485 607.821 178.082 608.248C180.427 609.93 180.283 610.298 183.356 612.413C185.577 613.943 175.008 615.263 174.43 613.575C173.925 612.124 173.701 608.445 176.026 607.815Z" fill="#CC6D3D"/>
<path d="M173.774 610.508C174.26 609.411 173.833 606.895 176.986 608.655C181.406 611.125 183.107 611.624 184.362 612.117C185.616 612.609 186.293 612.918 187.245 613.076C190.069 613.529 189.36 613.943 186.142 615.375C183.666 616.478 178.608 615.073 178.608 615.073L178.418 615.618C178.286 615.999 177.931 616.248 177.531 616.248L174.779 616.064C174.779 616.064 174.168 615.848 174.017 615.467C173.807 614.935 173.288 611.605 173.774 610.508Z" fill="#992C29"/>
<path d="M180.368 565.003C178.575 565.922 177.222 579.243 177.222 579.243L184.913 580.721C184.913 580.721 186.647 574.698 187.987 566.448C189.222 558.849 181.865 562.192 180.368 565.003Z" fill="#1D2538"/>
<path d="M204.907 510.245L203.836 516.689C203.836 516.689 209.203 527.782 212.25 535.303C215.291 542.817 217.084 546.935 216.901 553.556C216.901 553.556 209.741 551.053 203.121 550.869C196.5 550.692 176.454 541.024 168.756 548.183C168.756 548.183 178.602 529.214 182.536 520.084C182.536 520.084 177.347 499.322 183.968 495.743C190.588 492.163 199.002 493.595 200.789 494.488C202.575 495.388 208.303 500.222 204.907 510.245Z" fill="#F7BC4B"/>
<path d="M200.342 510.246L199.272 516.689L204.638 535.658L194.168 540.223L205.176 540.761C205.176 540.761 198.385 543.369 189.603 544.518C181.899 545.53 172.349 544.84 168.756 548.19C168.756 548.19 178.602 529.221 182.536 520.091C182.536 520.091 177.347 499.329 183.968 495.75C190.588 492.17 199.002 493.602 200.789 494.495C202.575 495.388 203.744 500.223 200.342 510.246Z" fill="#CE9436"/>
<path d="M183.724 464.754C183.724 464.754 185.983 467.283 188.243 468.307C189.95 469.089 191.29 469.188 191.29 469.188L190.929 468.531L191.737 467.854C191.737 467.854 188.604 467.657 184.361 464.327L183.724 464.754Z" fill="#EE5D4F"/>
<path d="M183.494 464.452C183.494 464.452 184.755 467.599 186.522 469.339C187.855 470.653 189.084 471.211 189.084 471.211L188.965 470.469L189.951 470.108C189.951 470.108 187.074 468.847 184.23 464.269L183.494 464.452Z" fill="#EE5D4F"/>
<path d="M184.932 466.088C185.721 465.917 186.305 461.635 184.407 461.621C182.62 461.608 180.604 461.924 180.998 463.257C181.386 464.584 184.144 466.259 184.932 466.088Z" fill="#992C29"/>
<path d="M185.517 463.644C185.517 463.644 185.15 461.832 184.585 461.897C184.02 461.963 184.558 462.718 184.755 463.914C184.952 465.103 185.655 464.406 185.517 463.644Z" fill="#F7BC4B"/>
<path d="M184.236 465.234C184.236 465.234 184.079 464.399 185.268 463.539C186.456 462.679 187.369 462.199 188.164 462.646C188.959 463.092 189.32 465.207 188.92 466.291C188.519 467.375 185.767 466.679 185.064 466.304C184.368 465.93 184.236 465.234 184.236 465.234Z" fill="#992C29"/>
<path d="M188.657 464.341C188.657 464.341 188.985 466.029 188.237 466.337C187.126 466.797 187.704 463.546 187.744 463.034C187.79 462.528 188.808 463.112 188.657 464.341Z" fill="#F7BC4B"/>
<path d="M198.168 467.651C198.168 467.651 202.069 468.885 203.711 474.422C205.353 479.966 205.202 487.513 197.813 487.513C186.22 487.513 186.339 478.179 186.674 476.064C188.112 467.033 198.168 467.651 198.168 467.651Z" fill="#CC6D3D"/>
<path d="M197.544 467.474C197.544 467.474 201.445 468.709 203.087 474.246C204.729 479.789 204.578 487.336 197.189 487.336C185.596 487.336 185.715 478.003 186.05 475.888C187.488 466.856 197.544 467.474 197.544 467.474Z" fill="#F5894E"/>
<path d="M200.539 477.674C200.539 477.674 201.813 470.022 197.918 467.204C194.706 464.879 191.79 464.675 187.691 465.28C187.691 465.28 193.439 464.807 197.872 470.311C199.435 472.248 200.539 477.674 200.539 477.674Z" fill="#F7BC4B"/>
<path d="M194.437 466.396C194.437 466.396 188.262 463.178 182.627 467.736C176.991 472.301 176.63 474.803 177.707 477.49C178.778 480.176 178.778 480.176 178.778 480.176C178.778 480.176 174.482 480.984 174.482 483.394C174.482 485.805 174.456 491.532 182.535 491.986C188.131 492.301 188.932 490.284 188.932 490.284C188.932 490.284 199.803 493.772 203.474 489.122C206.213 485.654 206.581 480.084 200.946 478.475C200.946 478.475 200.072 467.204 194.437 466.396Z" fill="#273252"/>
<path d="M192.289 466.396C192.289 466.396 185.491 462.501 180.479 467.736C176.453 471.94 175.199 475.165 175.56 477.49C176 480.347 176.631 480.176 176.631 480.176C176.631 480.176 172.335 480.984 172.335 483.395C172.335 485.805 172.335 491.178 180.388 491.986C188.44 492.794 189.248 490.915 189.248 490.915C189.248 490.915 201.301 493.779 203.297 487.539C204.729 483.066 204.795 480.826 199.159 479.217C199.153 479.217 197.925 467.204 192.289 466.396Z" fill="#1D2538"/>
<path d="M190.542 466.107C190.542 466.107 192.512 459.841 195.015 460.918C197.517 461.989 193.228 467.184 193.228 467.184C193.228 467.184 196.985 463.066 199.133 464.682C201.281 466.291 199.133 470.232 195.015 470.409C190.897 470.58 190.542 466.107 190.542 466.107Z" fill="#273252"/>
<path d="M189.872 466.035C189.872 466.035 191.843 459.769 194.345 460.846C196.847 461.917 192.558 467.112 192.558 467.112C192.558 467.112 196.315 462.994 198.463 464.61C200.611 466.219 198.463 470.16 194.345 470.337C190.227 470.515 189.872 466.035 189.872 466.035Z" fill="#1D2538"/>
<path d="M202.102 476.084C202.102 476.084 200.755 472.275 199.33 472.971C197.905 473.667 198.056 477.582 201.202 479.138C204.342 480.701 202.102 476.084 202.102 476.084Z" fill="#CC6D3D"/>
<path d="M202.673 476.373C202.673 476.373 201.602 473.352 200.473 473.903C199.343 474.462 199.461 477.562 201.957 478.796C204.459 480.038 202.673 476.373 202.673 476.373Z" fill="#F5894E"/>
<path d="M224.684 538.699C225.019 539.04 225.846 540.262 226.247 541.024C226.372 541.254 226.759 541.713 226.72 542.2C226.621 543.441 226.378 544.203 225.413 544.111C225.176 543.572 224.855 541.832 224.191 541.562C223.495 541.28 222.93 536.925 224.684 538.699Z" fill="#CC6D3D"/>
<path d="M214.667 535.421C214.621 535.335 214.851 534.633 215.908 533.963C217.149 533.181 217.773 533.936 217.773 533.936L231.264 549.838L226.719 553.418L214.667 535.421Z" fill="#1D2538"/>
<path d="M212.132 528.971C210.444 530.048 210.247 532.341 211.639 534.003C212.959 535.579 215.219 535.966 216.723 534.955C218.214 533.95 218.516 531.881 217.367 530.246C216.151 528.525 213.794 527.907 212.132 528.971ZM215.396 533.444C214.772 533.766 213.774 533.497 213.15 532.827C212.513 532.137 212.513 531.303 213.17 530.975C213.82 530.646 214.844 530.955 215.449 531.651C216.046 532.321 216.014 533.122 215.396 533.444Z" fill="#1D2538"/>
<path d="M213.228 529.746C212.256 530.344 212.151 531.657 212.972 532.649C213.136 532.846 213.32 533.01 213.517 533.148C213.386 533.056 213.261 532.945 213.149 532.827C212.512 532.137 212.512 531.303 213.169 530.974C213.819 530.646 214.844 530.955 215.448 531.651C216.039 532.327 216.013 533.122 215.396 533.451C215.008 533.654 214.483 533.621 213.984 533.418C214.673 533.72 215.455 533.707 216.039 533.339C216.939 532.767 217.084 531.533 216.348 530.554C215.593 529.529 214.194 529.155 213.228 529.746Z" fill="#F7BC4B"/>
<path d="M213.616 533.214C213.636 533.227 213.649 533.24 213.669 533.247C213.649 533.234 213.636 533.227 213.616 533.214Z" fill="#F6BE4A"/>
<path d="M213.839 533.339C213.872 533.352 213.898 533.365 213.931 533.385C213.898 533.372 213.865 533.352 213.839 533.339Z" fill="#F6BE4A"/>
<path d="M215.297 534.665C215.271 534.692 215.238 534.711 215.199 534.718C214.903 534.764 214.621 534.764 214.364 534.718C214.273 534.698 214.213 534.6 214.24 534.501C214.266 534.396 214.358 534.33 214.456 534.35C214.673 534.39 214.916 534.396 215.172 534.35C215.271 534.337 215.356 534.403 215.363 534.508C215.363 534.567 215.337 534.626 215.297 534.665Z" fill="#3E4C6F"/>
<path d="M221.084 540.912C221.918 540.025 222.221 539.139 222.221 539.139L228.795 546.929C229.538 547.736 231.672 550.101 231.672 550.101C231.672 550.101 227.488 553.516 226.779 553.93C226.779 553.93 224.841 550.955 224.329 550.081L219.199 542.351C219.199 542.337 220.25 541.805 221.084 540.912Z" fill="#C94039"/>
<path d="M220.854 544.721L220.217 543.618C220.217 543.618 221.327 542.948 223.061 541.096C223.061 541.096 223.527 541.404 220.854 544.721Z" fill="#1D2538"/>
<path d="M222.168 539.08C222.168 539.08 220.007 541.34 218.798 541.767L218.043 540.453C218.043 540.453 220.992 538.837 221.498 538.292L222.168 539.08Z" fill="#C73F37"/>
<path d="M224.525 541.871L224.781 542.18C224.781 542.18 223.074 544.222 221.458 545.135L224.525 541.871Z" fill="#1D2538"/>
<path d="M222.017 546.601L222.66 547.56C222.66 547.56 225.038 545.885 225.964 543.56C225.964 543.56 223.639 546.377 222.017 546.601Z" fill="#1D2538"/>
<path d="M224.329 550.068L223.37 548.604C223.37 548.604 226.063 547.434 227.436 545.273L229.498 547.704C229.498 547.71 227.672 548.374 224.329 550.068Z" fill="#1D2538"/>
<path d="M225.498 551.907L225.991 552.721C225.991 552.721 228.657 551.914 230.076 549.385C230.076 549.391 226.299 552.189 225.498 551.907Z" fill="#1D2538"/>
<path d="M239.396 549.53C239.186 549.602 239.055 549.78 238.877 549.911L223.521 561.99C223.311 562.134 222.844 562.029 221.616 561.826C220.789 561.688 219.987 561.234 220.25 560.407C220.598 559.323 220.782 557.924 221.163 557.701L236.224 546.423C236.46 546.252 237.59 546.095 238.056 546.029C238.582 545.957 238.897 545.661 239.534 545.78C240.007 545.865 240.289 546.351 240.257 546.936L239.396 549.53Z" fill="#C94039"/>
<path d="M238.942 548.794C238.864 549.005 238.726 549.195 238.542 549.333L222.607 561.274C222.561 561.307 220.552 561.281 220.263 560.775C219.974 560.269 220.867 557.878 220.867 557.878C220.867 557.878 236.874 545.491 237.176 545.524C237.727 545.589 238.43 545.504 239.1 545.622C239.599 545.714 239.888 546.22 239.718 546.693L238.942 548.794Z" fill="#F5894E"/>
<path d="M238.943 548.794C238.864 549.004 238.726 549.195 238.542 549.333L234.838 549.228L220.867 557.871C220.867 557.871 236.874 545.484 237.176 545.517C237.859 545.49 238.43 545.497 239.1 545.615C239.6 545.707 239.889 546.213 239.718 546.686L238.943 548.794Z" fill="#FEED7F"/>
<path opacity="0.5" d="M254.64 579.592L251.507 575.487L240.67 573.812L243.658 577.891L254.64 579.592Z" fill="#FEED7F"/>
<path opacity="0.5" d="M250.536 574.332L249.268 572.808L238.431 571.133L239.554 572.63L250.536 574.332Z" fill="#FEED7F"/>
<path d="M236.63 551.027L235.652 550.889C235.317 550.837 235.251 550.856 235.192 551.198L234.969 552.268L236.63 551.027Z" fill="#C94039"/>
<path d="M272.585 601.47C272.585 601.47 236.243 555.447 235.744 554.731C235.245 554.015 234.719 553.338 234.719 553.338C234.378 553.063 234.03 553.227 232.782 554.265L227.639 558.291L264.105 608.084C264.282 608.334 271.639 610.284 271.639 610.284C271.816 610.212 272.151 610.35 272.322 609.634L272.966 602.462C272.946 601.949 272.736 601.667 272.585 601.47Z" fill="#F7BC4B"/>
<path d="M272.585 601.471C272.585 601.471 236.256 555.389 235.757 554.673C235.252 553.957 234.483 553.004 234.483 553.004C234.483 553.004 234.437 552.971 233.78 553.497L271.817 602.555C271.817 602.555 272.151 610.351 272.322 609.635L272.966 602.463C272.946 601.95 272.736 601.668 272.585 601.471Z" fill="#F5894E"/>
<path d="M255.002 579.474L256.519 581.241C256.657 581.352 256.427 581.576 256.105 581.641L253.918 582.088C253.721 582.127 253.589 582.062 253.622 581.944L254.522 579.527C254.575 579.336 254.857 579.362 255.002 579.474Z" fill="#F5894E"/>
<path d="M255.757 596.644L257.596 596.887L257.149 598.529L255.757 596.644Z" fill="#F5894E"/>
<path d="M258.982 599.067L261.485 598.936L260.046 600.683L258.982 599.067Z" fill="#F5894E"/>
<path d="M272 610.088L230.877 555.796" stroke="#F3E7D9" stroke-miterlimit="10"/>
<path d="M249.472 587.947L250.608 587.093L252.473 588.085L252.486 590.016L256.401 591.106L257.905 591.546" stroke="#F3E7D9" stroke-miterlimit="10"/>
<path d="M210.274 505.772C210.274 505.772 214.569 516.15 215.462 519.552C215.843 520.99 216.441 523.743 215.443 524.721C214.083 526.055 210.799 525.148 209.558 522.777C207.41 518.659 202.306 509.174 203.022 506.672C203.745 504.156 208.395 501.476 210.274 505.772Z" fill="#F5894E"/>
<path d="M207.318 508.005C207.318 508.005 211.075 516.058 212.553 519.683C213.341 521.614 211.705 526.889 209.558 522.77C207.41 518.652 202.306 509.168 203.022 506.665C203.745 504.156 205.439 503.71 207.318 508.005Z" fill="#CC6D3D"/>
<path d="M220.743 539.953C220.743 539.953 224.165 540.491 221.19 534.403C218.898 529.713 217.722 525.457 216.244 521.562C214.845 517.877 209.893 520.491 210.07 523.171C210.247 525.857 212.362 528.59 214.569 532.61C217.61 538.166 218.596 540.13 220.743 539.953Z" fill="#F5894E"/>
<path d="M220.743 539.953C220.743 539.953 223.653 541.004 220.677 534.922C218.385 530.232 215.153 523.808 212.96 520.222C210.411 516.058 208.664 518.475 208.841 521.161C209.019 523.848 212.362 528.596 214.569 532.616C217.61 538.166 218.595 540.13 220.743 539.953Z" fill="#CC6D3D"/>
<path d="M218.149 537.627C218.149 537.627 218.806 535.723 221.282 536.399C223.042 536.879 222.931 536.925 224.684 538.705C225.019 539.046 225.801 540.36 226.208 541.122C226.615 541.884 222.904 542.291 222.721 542.462C222.366 542.797 222.701 545.457 222.701 545.457L223.239 547.27C223.239 547.27 223.686 548.609 223.863 549.148C224.041 549.687 223.213 549.687 222.865 549.431C222.517 549.174 221.558 547.874 221.558 547.874C220.987 548.123 220.822 548.347 219.476 545.962C219.069 545.247 218.405 543.946 218.405 543.946C218.405 543.946 217.611 539.775 218.149 537.627Z" fill="#CC6D3D"/>
<path d="M202.491 493.424C202.491 493.424 204.908 493.069 207.056 497.358C209.203 501.654 210.727 506.488 210.727 506.488L203.476 509.707C203.476 509.707 201.775 508.899 199.896 500.577C198.241 493.247 202.491 493.424 202.491 493.424Z" fill="#C94039"/>
<path d="M203.83 493.686C203.83 493.686 203.495 499.952 203.896 500.892C204.297 501.831 207.456 507.873 207.456 507.873L203.475 509.706C203.475 509.706 201.774 508.898 199.896 500.576C199.068 496.911 199.541 494.31 201.058 493.594C202.359 492.99 203.83 493.686 203.83 493.686Z" fill="#992C29"/>
<path d="M204.684 499.217C204.684 499.217 204.086 502.934 205.361 504.892L206.379 505.91C206.379 505.903 204.539 499.939 204.684 499.217Z" fill="#992C29"/>
<path d="M197.564 491.809C194.759 491.809 179.58 492.971 176.894 497.267C172.499 504.295 169.288 512.301 165.531 515.257C161.774 518.213 144.322 524.919 137.609 524.117C130.897 523.316 127.14 521.97 122.575 527.874C118.01 533.779 108.348 545.057 106.47 545.858C106.47 545.858 118.732 548.183 122.22 546.574C125.708 544.965 131.35 545.319 139.941 548.544C148.532 551.763 151.488 549.352 151.488 549.352C151.488 549.352 159.002 544.518 164.644 538.344C170.279 532.17 181.826 531.993 187.015 528.144C192.204 524.295 195.035 522.298 197.846 514.633C199.521 510.055 202.759 501.989 203.127 499.507C203.646 496.019 203.409 493.26 202.772 492.886C201.459 492.124 199.711 491.809 197.564 491.809Z" fill="#1689CB"/>
<path d="M197.635 495.644C197.635 495.644 190.279 502.015 182.417 504.288C179.343 505.181 176.315 505.089 173.635 501.523C170.962 497.956 172.46 494.245 174.516 490.619C176.571 486.994 181.294 487.808 188.144 487.401C194.995 486.994 201.064 488.793 197.635 495.644Z" fill="#29ABE2"/>
<path d="M195.777 488.229C197.524 489.569 178.66 497.647 177.117 496.242C175.58 494.836 175.902 491.276 177.8 488.905C179.166 487.197 181.136 487.598 186.857 487.395C191.994 487.217 194.03 486.889 195.777 488.229Z" fill="#992C29"/>
</svg>
