<svg width="18" height="18" viewBox="0 0 18 18" fill="none" xmlns="http://www.w3.org/2000/svg">
<mask id="mask0_805_5090" style="mask-type:alpha" maskUnits="userSpaceOnUse" x="0" y="0" width="18" height="18">
<path d="M13.0325 0H4.96724C2.22831 0 0 2.22841 0 4.96735V13.0327C0 15.7717 2.22831 18 4.96724 18H13.0325C15.7717 18 18 15.7716 18 13.0327V4.96735C18.0001 2.22841 15.7717 0 13.0325 0ZM16.4031 13.0327C16.4031 14.8911 14.8911 16.403 13.0327 16.403H4.96724C3.10892 16.4031 1.59705 14.8911 1.59705 13.0327V4.96735C1.59705 3.10903 3.10892 1.59705 4.96724 1.59705H13.0325C14.891 1.59705 16.403 3.10903 16.403 4.96735V13.0327H16.4031ZM9 4.28571C6.4005 4.28571 4.28571 6.40055 4.28571 9.00011C4.28571 11.5996 6.4005 13.7143 9 13.7143C11.5995 13.7143 13.7143 11.5996 13.7143 9.00011C13.7143 6.40055 11.5995 4.28571 9 4.28571ZM9 12.0909C7.29568 12.0909 5.90898 10.7044 5.90898 9C5.90898 7.29553 7.29557 5.90891 9 5.90891C10.7044 5.90891 12.091 7.29553 12.091 9C12.091 10.7044 10.7043 12.0909 9 12.0909ZM14.1429 2.57143C13.8051 2.57143 13.4732 2.70818 13.2347 2.94779C12.9949 3.18623 12.8571 3.51818 12.8571 3.85714C12.8571 4.19505 12.9951 4.52688 13.2347 4.76649C13.4731 5.00493 13.8051 5.14286 14.1429 5.14286C14.4818 5.14286 14.8126 5.00493 15.0522 4.76649C15.2918 4.52688 15.4286 4.19494 15.4286 3.85714C15.4286 3.51818 15.2918 3.18623 15.0522 2.94779C14.8138 2.70818 14.4818 2.57143 14.1429 2.57143Z" fill="white"/>
</mask>
<g mask="url(#mask0_805_5090)">
<path d="M13.0325 0H4.96724C2.22831 0 0 2.22841 0 4.96735V13.0327C0 15.7717 2.22831 18 4.96724 18H13.0325C15.7717 18 18 15.7716 18 13.0327V4.96735C18.0001 2.22841 15.7717 0 13.0325 0ZM16.4031 13.0327C16.4031 14.8911 14.8911 16.403 13.0327 16.403H4.96724C3.10892 16.4031 1.59705 14.8911 1.59705 13.0327V4.96735C1.59705 3.10903 3.10892 1.59705 4.96724 1.59705H13.0325C14.891 1.59705 16.403 3.10903 16.403 4.96735V13.0327H16.4031ZM9 4.28571C6.4005 4.28571 4.28571 6.40055 4.28571 9.00011C4.28571 11.5996 6.4005 13.7143 9 13.7143C11.5995 13.7143 13.7143 11.5996 13.7143 9.00011C13.7143 6.40055 11.5995 4.28571 9 4.28571ZM9 12.0909C7.29568 12.0909 5.90898 10.7044 5.90898 9C5.90898 7.29553 7.29557 5.90891 9 5.90891C10.7044 5.90891 12.091 7.29553 12.091 9C12.091 10.7044 10.7043 12.0909 9 12.0909ZM14.1429 2.57143C13.8051 2.57143 13.4732 2.70818 13.2347 2.94779C12.9949 3.18623 12.8571 3.51818 12.8571 3.85714C12.8571 4.19505 12.9951 4.52688 13.2347 4.76649C13.4731 5.00493 13.8051 5.14286 14.1429 5.14286C14.4818 5.14286 14.8126 5.00493 15.0522 4.76649C15.2918 4.52688 15.4286 4.19494 15.4286 3.85714C15.4286 3.51818 15.2918 3.18623 15.0522 2.94779C14.8138 2.70818 14.4818 2.57143 14.1429 2.57143Z" fill="#A26EB8"/>
</g>
</svg>
