<svg width="168" height="43" viewBox="0 0 168 43" fill="none" xmlns="http://www.w3.org/2000/svg">
<path opacity="0.4" d="M0 6.22949H6.53738V29.8795H18.64V35.8713H0V6.22949Z" fill="#746D63"/>
<path opacity="0.4" d="M21.5311 15.7734H27.8114V35.8603H21.5311V15.7734ZM24.6712 5.78711C25.3918 5.78724 26.0961 5.99956 26.6951 6.39722C27.2941 6.79489 27.761 7.36004 28.0366 8.02121C28.3123 8.68239 28.3843 9.40989 28.2437 10.1117C28.103 10.8136 27.756 11.4582 27.2465 11.9642C26.7369 12.4702 26.0878 12.8147 25.3811 12.9543C24.6744 13.0938 23.9419 13.0222 23.2762 12.7483C22.6105 12.4744 22.0416 12.0106 21.6413 11.4156C21.241 10.8206 21.0273 10.121 21.0273 9.40544C21.0273 8.93022 21.1216 8.45965 21.3047 8.02061C21.4879 7.58158 21.7563 7.18266 22.0946 6.84666C22.433 6.51066 22.8347 6.24415 23.2768 6.06235C23.7189 5.88055 24.1927 5.78702 24.6712 5.78711Z" fill="#746D63"/>
<path opacity="0.4" d="M54.082 6.22461H60.3623V23.9394L67.4799 15.7639H75.1798L66.937 25.0634L75.0065 35.8684H67.113L60.4461 25.9393H60.3636V35.8671H54.0833L54.082 6.22461Z" fill="#746D63"/>
<path opacity="0.4" d="M31.293 15.7748H37.324V18.5199H37.4097C38.0121 17.4949 38.8835 16.6516 39.9309 16.0801C40.9782 15.5087 42.1622 15.2304 43.3563 15.2752C49.7249 15.2752 50.8972 19.4367 50.8972 24.843V35.8585H44.617V26.0925C44.617 23.7612 44.5738 20.7647 41.346 20.7647C38.0815 20.7647 37.5778 23.3032 37.5778 25.9229V35.8559H31.2975L31.293 15.7748Z" fill="#746D63"/>
<path opacity="0.4" d="M88.4049 23.4799C88.4169 22.9739 88.3254 22.4707 88.1358 22.0008C87.9463 21.5309 87.6627 21.1042 87.3021 20.7464C86.9416 20.3886 86.5117 20.1072 86.0385 19.9193C85.5653 19.7313 85.0586 19.6407 84.5491 19.653C83.4518 19.5852 82.3716 19.9484 81.5414 20.6643C80.7112 21.3801 80.1975 22.3913 80.111 23.4799H88.4049ZM93.7248 32.3812C92.6812 33.6381 91.3692 34.6487 89.8838 35.3399C88.3985 36.0311 86.7769 36.3856 85.1366 36.3776C78.8563 36.3776 73.8281 32.2142 73.8281 25.7669C73.8281 19.3197 78.8556 15.1582 85.1366 15.1582C91.0067 15.1582 94.6878 19.3165 94.6878 25.7669V27.7226H80.111C80.2925 28.8317 80.8715 29.8384 81.7412 30.557C82.611 31.2757 83.713 31.6579 84.8441 31.6333C85.738 31.6278 86.6163 31.4004 87.3991 30.9716C88.1819 30.5429 88.8443 29.9266 89.326 29.1787L93.7248 32.3812Z" fill="#746D63"/>
<path opacity="0.4" d="M107.778 20.6284C104.638 20.6284 102.754 22.7108 102.754 25.745C102.754 28.7792 104.638 30.8635 107.778 30.8635C110.919 30.8635 112.807 28.7844 112.807 25.745C112.807 22.7056 110.923 20.6284 107.778 20.6284ZM118.589 35.856H112.807V33.1922H112.722C111.996 34.1611 111.055 34.9506 109.972 35.4992C108.889 36.0479 107.694 36.3407 106.478 36.355C100.444 36.355 96.4688 32.0298 96.4688 25.9133C96.4688 20.2957 99.9863 15.1376 105.769 15.1376C108.368 15.1376 110.796 15.8438 112.22 17.8014H112.302V6.22266H118.588L118.589 35.856Z" fill="#746D63"/>
<path opacity="0.4" d="M160.988 35.8678H154.708V26.0998C154.708 23.7705 154.666 20.772 151.441 20.772C148.17 20.772 147.67 23.3099 147.67 25.9302V35.8671H141.389V15.7802H147.419V18.5253H147.503C148.106 17.5007 148.978 16.6578 150.026 16.0864C151.073 15.515 152.257 15.2365 153.452 15.2805C159.817 15.2805 160.991 19.4388 160.991 24.8484L160.988 35.8678ZM134.303 13.0344C133.582 13.0346 132.878 12.8224 132.278 12.4248C131.679 12.0272 131.212 11.4619 130.936 10.8006C130.66 10.1392 130.587 9.41145 130.728 8.70929C130.868 8.00712 131.215 7.36211 131.725 6.8558C132.235 6.3495 132.884 6.00465 133.591 5.86486C134.298 5.72507 135.031 5.79662 135.697 6.07046C136.363 6.3443 136.932 6.80813 137.333 7.40331C137.733 7.99848 137.947 8.69826 137.947 9.41416C137.947 9.88949 137.853 10.3602 137.67 10.7994C137.487 11.2386 137.219 11.6376 136.88 11.9738C136.542 12.31 136.14 12.5767 135.698 12.7587C135.256 12.9406 134.782 13.0343 134.303 13.0344ZM137.443 35.8678H131.157V15.7802H137.443V35.8678ZM164.119 0.002868H128.001C127.181 -0.00632001 126.391 0.308106 125.805 0.877053C125.218 1.446 124.883 2.22292 124.873 3.03709V39.0573C124.883 39.8719 125.218 40.6493 125.804 41.2188C126.39 41.7884 127.181 42.1034 128.001 42.0947H164.119C164.941 42.105 165.733 41.7908 166.322 41.2213C166.911 40.6518 167.248 39.8735 167.259 39.0573V3.03449C167.247 2.21871 166.91 1.4409 166.321 0.87197C165.732 0.303037 164.94 -0.0104912 164.119 0.000268043" fill="#746D63"/>
</svg>
