<svg width="188" height="44" viewBox="0 0 188 44" fill="none" xmlns="http://www.w3.org/2000/svg">
<g clip-path="url(#clip0_805_4687)">
<path d="M51 13.5536L50.9388 13.645L40.2245 28.825L34.1939 37.3599C33.6122 38.1829 32.3571 38.1829 31.7755 37.3599L26.6633 30.1052L25.7755 28.8555L20.051 20.7473L15.0612 13.645L15 13.5536L20.2653 8.3412C21.1224 7.48771 22.2857 7 23.4796 7H42.5204C43.7449 7 44.9082 7.48771 45.7653 8.3412L51 13.5536Z" fill="url(#paint0_linear_805_4687)"/>
<path opacity="0.36" d="M51 13.5536L50.9388 13.645L40.2245 28.825L34.1939 37.3599C33.6122 38.1829 32.3571 38.1829 31.7755 37.3599L26.6633 30.1052L25.7755 28.8555L20.051 20.7473L15.0612 13.645L15 13.5536L20.2653 8.3412C21.1224 7.48771 22.2857 7 23.4796 7H42.5204C43.7449 7 44.9082 7.48771 45.7653 8.3412L51 13.5536Z" fill="#B66DD6"/>
<path d="M51 13.5536L50.9388 13.645L40.2245 28.825C37.898 29.0383 35.4796 29.1298 33 29.1298C30.5204 29.1298 28.102 29.0079 25.7755 28.825L20.051 20.7473L15.0612 13.645L15 13.5536L20.2653 8.3412C21.1224 7.48771 22.2857 7 23.4796 7H42.5204C43.7449 7 44.9082 7.48771 45.7653 8.3412L51 13.5536Z" fill="url(#paint1_linear_805_4687)"/>
<path opacity="0.45" d="M15.0615 13.6455L20.0513 20.7173L23.2656 25.2896C37.6534 21.8756 50.8166 13.7674 50.9391 13.676C45.8881 15.0172 39.6738 15.8097 33.0003 15.8097C26.3268 15.8097 20.1432 14.9867 15.0615 13.6455Z" fill="#B66DD6"/>
<path opacity="0.36" d="M50.9387 13.6448L50.9999 13.5533L45.7652 8.34093C45.2142 7.79225 44.5101 7.39599 43.7448 7.18262C38.8775 13.8581 31.3162 22.454 25.6836 28.7028L25.806 28.8552L26.6938 30.1049L31.8367 37.3901C32.4183 38.2131 33.6734 38.2131 34.255 37.3901L40.2856 28.8552L50.9387 13.6448Z" fill="url(#paint2_linear_805_4687)"/>
</g>
<path d="M58.932 18.456V38H69.292V34.892H62.852V18.456H58.932ZM77.3276 25.456C79.3436 25.456 80.9676 26.744 81.0236 28.788H73.6596C73.9676 26.66 75.4516 25.456 77.3276 25.456ZM84.6916 33.128H80.4636C79.9596 34.164 79.0356 35.004 77.3556 35.004C75.3956 35.004 73.8276 33.716 73.6316 31.42H84.9716C85.0556 30.916 85.0836 30.412 85.0836 29.908C85.0836 25.288 81.9196 22.236 77.4396 22.236C72.8476 22.236 69.6556 25.344 69.6556 30.244C69.6556 35.116 72.9316 38.252 77.4396 38.252C81.2756 38.252 83.8516 35.984 84.6916 33.128ZM85.8168 30.188C85.8168 35.032 88.9528 38.252 92.8728 38.252C95.3368 38.252 97.1008 37.076 98.0248 35.732V38H101.973V22.488H98.0248V24.7C97.1008 23.412 95.3928 22.236 92.9008 22.236C88.9528 22.236 85.8168 25.344 85.8168 30.188ZM98.0248 30.244C98.0248 33.184 96.0648 34.808 93.9088 34.808C91.8088 34.808 89.8208 33.128 89.8208 30.188C89.8208 27.248 91.8088 25.68 93.9088 25.68C96.0648 25.68 98.0248 27.304 98.0248 30.244ZM103.673 30.188C103.673 35.032 106.809 38.252 110.757 38.252C113.193 38.252 114.929 37.132 115.853 35.704V38H119.829V17.28H115.853V24.644C114.789 23.188 112.829 22.236 110.785 22.236C106.809 22.236 103.673 25.344 103.673 30.188ZM115.881 30.244C115.881 33.184 113.921 34.808 111.765 34.808C109.665 34.808 107.677 33.128 107.677 30.188C107.677 27.248 109.665 25.68 111.765 25.68C113.921 25.68 115.881 27.304 115.881 30.244ZM134.83 38H138.75V18.456H134.83V26.492H126.458V18.456H122.538V38H126.458V29.684H134.83V38ZM156.132 22.488H152.184V31.028C152.184 33.52 150.84 34.864 148.712 34.864C146.64 34.864 145.268 33.52 145.268 31.028V22.488H141.348V31.588C141.348 35.844 143.952 38.196 147.564 38.196C149.496 38.196 151.204 37.356 152.184 36.04V38H156.132V22.488ZM162.8 24.756V17.28H158.88V38H162.8V35.788C163.752 37.132 165.488 38.252 167.924 38.252C171.9 38.252 175.008 35.032 175.008 30.188C175.008 25.344 171.9 22.236 167.924 22.236C165.572 22.236 163.752 23.328 162.8 24.756ZM171.004 30.188C171.004 33.128 169.016 34.808 166.888 34.808C164.788 34.808 162.8 33.184 162.8 30.244C162.8 27.304 164.788 25.68 166.888 25.68C169.016 25.68 171.004 27.248 171.004 30.188Z" fill="#3A363E"/>
<defs>
<linearGradient id="paint0_linear_805_4687" x1="28.8387" y1="12.974" x2="3.91656" y2="-12.0547" gradientUnits="userSpaceOnUse">
<stop stop-color="#C696DB"/>
<stop offset="1" stop-color="#A36EBA"/>
</linearGradient>
<linearGradient id="paint1_linear_805_4687" x1="44.1706" y1="26.9544" x2="29.1505" y2="11.87" gradientUnits="userSpaceOnUse">
<stop stop-color="#A36EBA"/>
<stop offset="1" stop-color="#EEC7FF"/>
</linearGradient>
<linearGradient id="paint2_linear_805_4687" x1="43.7483" y1="27.1711" x2="31.8494" y2="16.8029" gradientUnits="userSpaceOnUse">
<stop stop-color="white" stop-opacity="0"/>
<stop offset="1" stop-color="white"/>
</linearGradient>
<clipPath id="clip0_805_4687">
<rect width="36" height="31" fill="white" transform="translate(15 7)"/>
</clipPath>
</defs>
</svg>
