<svg width="119" height="119" viewBox="0 0 119 119" fill="none" xmlns="http://www.w3.org/2000/svg">
<path d="M71.5448 115.513C72.9593 115.513 74.0457 114.261 73.8458 112.861L62.9515 36.6013C62.706 34.8837 61.2353 33.6079 59.5002 33.6079C57.7652 33.6079 56.2944 34.8837 56.049 36.6013L45.1547 112.861C44.9546 114.261 46.0411 115.513 47.4554 115.513H71.5448Z" fill="#F5894E"/>
<path d="M73.846 112.861L62.9517 36.6013C62.7063 34.8839 61.2358 33.6081 59.501 33.6079V115.513H71.5451C72.9596 115.513 74.0459 114.261 73.846 112.861Z" fill="#CC6D3D"/>
<path d="M96.0194 1.56629C95.3658 0.566412 94.2193 0 93.0249 0H76.3042C69.0724 0 63.0002 3.77569 59.5006 8.91919C55.978 3.74153 49.8753 0 42.696 0H25.9753C24.7809 0 23.6342 0.566412 22.9806 1.56629C22.0558 2.98058 22.2757 4.80067 23.4266 5.95163L57.0348 39.5598C58.3963 40.9214 60.6036 40.9214 61.9652 39.5598L95.5734 5.95163C96.7243 4.80067 96.9442 2.98058 96.0194 1.56629Z" fill="#C8FF50"/>
<path d="M95.574 5.95139C96.725 4.80044 96.9446 2.98035 96.02 1.56606C95.3662 0.566412 94.2197 0 93.0253 0H76.3046C69.0728 0 63.0006 3.77569 59.501 8.91919V40.5809C60.393 40.5809 61.285 40.2404 61.9658 39.5598L95.574 5.95139Z" fill="#87E752"/>
<path d="M85.6399 119H33.3604C31.435 119 29.874 117.439 29.874 115.514C29.874 113.588 31.435 112.027 33.3604 112.027H85.6399C87.5653 112.027 89.1262 113.588 89.1262 115.514C89.1262 117.439 87.5653 119 85.6399 119Z" fill="#C8FF50"/>
<path d="M117.981 34.6317C117.981 34.6317 114.395 31.0382 109.779 26.4219C97.4447 14.1177 77.5673 14.1196 65.2317 26.4249C62.9751 28.6815 60.9656 30.6926 59.5002 32.1599C58.0343 30.6922 56.0241 28.6801 53.7656 26.4219C41.4312 14.1177 21.5536 14.1196 9.21801 26.4251C4.60467 31.0382 1.01863 34.632 1.01863 34.632C0.0229382 35.6295 -0.273865 37.1286 0.266284 38.4304C0.806432 39.7322 2.07708 40.5808 3.48649 40.5808H115.514C116.923 40.5808 118.194 39.7322 118.734 38.4304C119.274 37.1284 118.977 35.6295 117.981 34.6317Z" fill="#87E752"/>
<path d="M118.734 38.4307C119.274 37.1287 118.977 35.6298 117.982 34.6322C117.982 34.6322 114.396 31.0387 109.78 26.4224C97.445 14.1182 77.5676 14.1201 65.232 26.4254C62.9757 28.6817 60.9664 30.6927 59.501 32.1599V40.5811H115.514C116.923 40.5811 118.194 39.7325 118.734 38.4307Z" fill="#4EC95F"/>
<path d="M89.1266 115.514C89.1266 113.588 87.5657 112.027 85.6403 112.027H59.501V119H85.6403C87.5657 119 89.1266 117.439 89.1266 115.514Z" fill="#87E752"/>
<path d="M76.3039 33.6079H42.6957C31.6436 33.6079 22.4053 42.5557 22.4053 53.8983V70.7024C22.4053 72.1125 23.2548 73.3839 24.5575 73.9233C24.9889 74.1021 25.4419 74.1888 25.8909 74.1888C26.7983 74.1888 27.6901 73.8346 28.3569 73.1675L59.4998 42.0246L90.6429 73.1677C91.31 73.8348 92.2016 74.189 93.1089 74.189C93.558 74.189 94.011 74.1021 94.4423 73.9236C95.7451 73.3839 96.5946 72.1125 96.5946 70.7027V53.8986C96.5943 42.5648 87.3653 33.6079 76.3039 33.6079Z" fill="#4EC95F"/>
<path d="M93.1094 74.1893C93.5584 74.1893 94.0114 74.1023 94.4428 73.9238C95.7455 73.3842 96.595 72.1128 96.595 70.7029V53.8988C96.595 42.5652 87.366 33.6084 76.3046 33.6084H59.501V42.0256L90.6436 73.1682C91.3102 73.8351 92.2018 74.1893 93.1094 74.1893Z" fill="#14AA6B"/>
</svg>
