<svg width="158" height="55" viewBox="0 0 158 55" fill="none" xmlns="http://www.w3.org/2000/svg">
<g opacity="0.4">
<path d="M142.251 22.1115C144.146 22.1115 145.683 20.5751 145.683 18.6797C145.683 16.7844 144.146 15.2479 142.251 15.2479C140.356 15.2479 138.819 16.7844 138.819 18.6797C138.819 20.5751 140.356 22.1115 142.251 22.1115Z" fill="#746D63"/>
<path d="M93.2365 33.3127C94.9201 33.3127 95.8911 32.0503 95.8265 30.8199C95.7945 30.1724 95.7293 29.7512 95.6648 29.4277C94.6287 24.9604 91.0031 21.6577 86.6969 21.6577C81.5821 21.6577 77.4382 26.2874 77.4382 31.9851C77.4382 37.6829 81.5821 42.3125 86.6969 42.3125C89.9025 42.3125 92.201 41.1473 93.852 39.3019C94.6612 38.3956 94.4995 37.0034 93.528 36.3233C92.7187 35.773 91.7152 35.9673 90.9706 36.5822C90.2585 37.1977 88.8989 38.4275 86.6969 38.4275C84.1075 38.4275 81.9062 36.1936 81.4204 33.2475H93.2365V33.3127ZM86.665 25.5753C88.9955 25.5753 91.0031 27.3881 91.7478 29.8809H81.5821C82.3268 27.3561 84.3338 25.5753 86.665 25.5753Z" fill="#746D63"/>
<path d="M77.6324 23.6973C77.6324 22.7264 76.9204 21.9491 76.014 21.7874C73.1971 21.3668 70.5425 22.4023 69.0212 24.3128V24.0534C69.0212 22.8555 68.0497 22.1115 67.0787 22.1115C66.01 22.1115 65.1362 22.9853 65.1362 24.0534V39.9168C65.1362 40.9529 65.9129 41.8593 66.949 41.9239C68.0823 41.9884 69.0212 41.1147 69.0212 39.9814V31.7908C69.0212 28.1653 71.7404 25.1866 75.4956 25.6078C75.6254 25.6078 75.7545 25.6078 75.8842 25.6078C76.8552 25.5427 77.6324 24.7009 77.6324 23.6973Z" fill="#746D63"/>
<path d="M144.193 25.7696C144.193 24.7009 143.319 23.8271 142.251 23.8271C141.182 23.8271 140.308 24.7009 140.308 25.7696C140.308 25.8342 140.308 39.3665 140.308 39.9815C140.308 41.0502 141.182 41.924 142.251 41.924C143.319 41.924 144.193 41.0502 144.193 39.9815C144.193 39.3991 144.193 25.8668 144.193 25.7696Z" fill="#746D63"/>
<path d="M115.315 15.0216C115.315 13.9529 114.442 13.0791 113.373 13.0791C112.305 13.0791 111.431 13.9529 111.431 15.0216V23.6654C110.103 22.3378 108.452 21.6903 106.477 21.6903C101.362 21.6903 97.2185 26.32 97.2185 32.0177C97.2185 37.7155 101.362 42.3451 106.477 42.3451C108.452 42.3451 110.136 41.6651 111.463 40.3375C111.625 41.2444 112.434 41.9239 113.373 41.9239C114.442 41.9239 115.315 41.0501 115.315 39.9814V15.0216ZM106.51 38.4921C103.531 38.4921 101.135 35.6113 101.135 32.0177C101.135 28.4568 103.531 25.5427 106.51 25.5427C109.488 25.5427 111.884 28.4242 111.884 32.0177C111.884 35.6113 109.456 38.4921 106.51 38.4921Z" fill="#746D63"/>
<path d="M135.582 15.0216C135.582 13.9529 134.708 13.0791 133.639 13.0791C132.571 13.0791 131.697 13.9529 131.697 15.0216V23.6654C130.37 22.3378 128.719 21.6903 126.744 21.6903C121.629 21.6903 117.485 26.32 117.485 32.0177C117.485 37.7155 121.629 42.3451 126.744 42.3451C128.719 42.3451 130.402 41.6651 131.729 40.3375C131.891 41.2444 132.7 41.9239 133.639 41.9239C134.708 41.9239 135.582 41.0501 135.582 39.9814V15.0216ZM126.744 38.4921C123.765 38.4921 121.37 35.6113 121.37 32.0177C121.37 28.4568 123.765 25.5427 126.744 25.5427C129.722 25.5427 132.118 28.4242 132.118 32.0177C132.118 35.6113 129.722 38.4921 126.744 38.4921Z" fill="#746D63"/>
<path d="M154.034 40.014V25.5753H155.751C156.657 25.5753 157.466 24.8952 157.531 23.9563C157.596 22.9527 156.787 22.1115 155.815 22.1115H154.034V19.3918C154.034 18.3557 153.258 17.4493 152.222 17.3847C151.088 17.3201 150.15 18.1939 150.15 19.3272V22.1435H148.531C147.625 22.1435 146.815 22.8236 146.751 23.7626C146.686 24.7661 147.495 25.6079 148.466 25.6079H150.117V40.0466C150.117 41.1147 150.992 41.9885 152.06 41.9885C153.193 41.9239 154.034 41.0821 154.034 40.014Z" fill="#746D63"/>
<path d="M27.1292 54.2584C42.1123 54.2584 54.2584 42.1123 54.2584 27.1292C54.2584 12.1462 42.1123 0 27.1292 0C12.1462 0 0 12.1462 0 27.1292C0 42.1123 12.1462 54.2584 27.1292 54.2584Z" fill="#746D63"/>
<path d="M45.226 27.1293C45.226 24.9279 43.4458 23.1797 41.2764 23.1797C40.2083 23.1797 39.2367 23.6003 38.5247 24.2804C35.8055 22.3379 32.0823 21.0755 27.9384 20.9137L29.7511 12.4317L35.6432 13.6941C35.7084 15.1834 36.9382 16.3812 38.4601 16.3812C40.014 16.3812 41.2764 15.1188 41.2764 13.5643C41.2764 12.0105 40.014 10.748 38.4601 10.748C37.3594 10.748 36.3879 11.3955 35.9347 12.3345L29.3631 10.9424C29.1688 10.9098 28.9745 10.9424 28.8448 11.0395C28.683 11.1367 28.5859 11.2984 28.5539 11.4927L26.5462 20.9457C22.3378 21.0755 18.5499 22.3379 15.7982 24.313C15.0861 23.6329 14.1146 23.2123 13.0465 23.2123C10.8451 23.2123 9.09692 24.9924 9.09692 27.1618C9.09692 28.7803 10.0679 30.1399 11.428 30.7554C11.3629 31.1434 11.3309 31.532 11.3309 31.9532C11.3309 38.039 18.4208 42.9927 27.1618 42.9927C35.9027 42.9927 42.9926 38.0716 42.9926 31.9532C42.9926 31.5646 42.96 31.1434 42.8955 30.7554C44.255 30.1399 45.226 28.7477 45.226 27.1293ZM18.0968 29.9455C18.0968 28.3917 19.3592 27.1293 20.9136 27.1293C22.4675 27.1293 23.7299 28.3917 23.7299 29.9455C23.7299 31.4994 22.4675 32.7624 20.9136 32.7624C19.3592 32.7944 18.0968 31.4994 18.0968 29.9455ZM33.863 37.4241C31.9205 39.3666 28.2299 39.4963 27.1618 39.4963C26.0611 39.4963 22.3704 39.334 20.4599 37.4241C20.169 37.1326 20.169 36.6794 20.4599 36.388C20.7513 36.0971 21.2045 36.0971 21.496 36.388C22.7264 37.6184 25.3164 38.039 27.1618 38.039C29.0071 38.039 31.6291 37.6184 32.8269 36.388C33.1184 36.0971 33.5716 36.0971 33.863 36.388C34.1219 36.6794 34.1219 37.1326 33.863 37.4241ZM33.3447 32.7944C31.7908 32.7944 30.5284 31.532 30.5284 29.9781C30.5284 28.4243 31.7908 27.1618 33.3447 27.1618C34.8992 27.1618 36.1616 28.4243 36.1616 29.9781C36.1616 31.4994 34.8992 32.7944 33.3447 32.7944Z" fill="#FEFDFC"/>
</g>
</svg>
