<svg width="119" height="119" viewBox="0 0 119 119" fill="none" xmlns="http://www.w3.org/2000/svg">
<g clip-path="url(#clip0_805_5782)">
<path d="M86.9842 64.126C85.6455 63.526 84.0886 63.7591 82.9878 64.7408L62.3661 83.1015C61.4339 83.9296 60.9778 85.1691 61.1563 86.4087L64.4784 109.599C64.6767 110.992 65.7328 112.068 67.0666 112.514L68.1674 112.688C69.1937 112.688 70.23 112.261 70.9589 111.528C82.7052 99.7764 89.1758 84.1527 89.1758 67.5224C89.1808 66.0548 88.323 64.7259 86.9842 64.126Z" fill="#992C29"/>
<path d="M51.4827 29.8193C34.8524 29.8193 19.2237 36.29 7.47743 48.0362L7.30389 48.2048C6.30727 49.2015 5.96018 50.6741 6.40643 52.0079C6.85268 53.3466 8.01293 54.3135 9.40622 54.5118L32.5964 57.8339L33.1219 57.8736C34.1731 57.8736 35.1896 57.4273 35.8986 56.629L54.2593 36.0073C55.2361 34.9115 55.4741 33.3497 54.8742 32.0109C54.2742 30.6771 52.9454 29.8193 51.4827 29.8193Z" fill="#2196F3"/>
<path d="M58.8948 94.9572C57.9428 94.9572 56.9908 94.5903 56.2669 93.8664L25.1335 62.733C23.7402 61.3397 23.6758 59.0985 24.9897 57.6259L48.3237 31.4906C64.8498 12.1481 91.6793 -0.485733 115.355 0.0200172C117.339 0.0646422 118.94 1.66618 118.985 3.64952C119.53 27.1917 106.862 54.1501 87.4548 70.7308L61.3789 94.0102C60.6649 94.6448 59.7824 94.9572 58.8948 94.9572Z" fill="#F6BE4A"/>
<path d="M84.9509 46.4397C81.7726 46.4397 78.5993 45.2299 76.1846 42.8152C71.3551 37.9808 71.3551 30.1169 76.1846 25.2825C81.0189 20.4481 88.8828 20.4481 93.7172 25.2825C98.5466 30.1169 98.5466 37.9808 93.7172 42.8152C91.2976 45.2349 88.1242 46.4397 84.9509 46.4397Z" fill="#D09435"/>
<path d="M3.71832 119C2.74648 119 1.79448 118.619 1.0904 117.91C0.123525 116.943 -0.233475 115.525 0.158233 114.211C1.40278 110.041 7.89323 88.9776 12.9607 83.9152C18.8759 78.0048 29.1794 78.0048 35.0847 83.9152C38.0399 86.8753 39.6662 90.7973 39.6662 94.9822C39.6662 99.162 38.0399 103.089 35.0847 106.044C30.0223 111.107 8.95432 117.597 4.78932 118.847L3.71832 119Z" fill="#FE8821"/>
<path d="M49.7671 29.8394C33.7814 30.2707 18.8221 36.6918 7.47247 48.0364L7.30389 48.205C6.30727 49.2016 5.96018 50.6743 6.40643 52.0081C6.85268 53.3468 8.01293 54.3137 9.40622 54.512L25.6844 56.8474L48.3242 31.4855C48.7952 30.9351 49.2762 30.3848 49.7671 29.8394Z" fill="#C94039"/>
<path d="M113.972 0C91.3223 0 66.0547 11.7959 49.7665 29.8393C49.2757 30.3847 48.7947 30.9301 48.3187 31.4854L25.6839 56.8473L24.9897 57.6258C23.6758 59.0984 23.7402 61.3395 25.1335 62.7328L40.7027 78.302L76.1845 42.8202C71.3551 37.9858 71.3551 30.1219 76.1845 25.2875C78.5993 22.8728 81.7775 21.663 84.9509 21.663C88.1242 21.663 91.3025 22.8728 93.7172 25.2875L117.899 1.10571C117.245 0.451208 116.347 0.0396667 115.355 0.014875C114.894 0.00495833 114.433 0 113.972 0V0Z" fill="#FEED7F"/>
<path d="M84.9509 21.6631C81.7776 21.6631 78.5993 22.8729 76.1846 25.2876C71.3551 30.122 71.3551 37.9859 76.1846 42.8203L93.7123 25.2876C91.2976 22.868 88.1242 21.6631 84.9509 21.6631Z" fill="#F6BE4A"/>
<path d="M24.0228 79.4824C19.9669 79.4824 15.9159 80.96 12.9558 83.9152C7.89331 88.9776 1.40285 110.046 0.153351 114.211C-0.238358 115.52 0.118642 116.943 1.08552 117.91L35.0799 83.9152C32.1296 80.96 28.0787 79.4824 24.0228 79.4824Z" fill="#FE9923"/>
</g>
<defs>
<clipPath id="clip0_805_5782">
<rect width="119" height="119" fill="white"/>
</clipPath>
</defs>
</svg>
