<svg width="28" height="28" viewBox="0 0 28 28" fill="none" xmlns="http://www.w3.org/2000/svg">
<path fill-rule="evenodd" clip-rule="evenodd" d="M21 14C24.866 14 28 10.866 28 7C28 3.13401 24.866 0 21 0C17.134 0 14 3.13401 14 7C14 10.866 17.134 14 21 14ZM13.384 18.662C12.908 19.04 12.6 19.642 12.6 20.3V28H22.4C23.94 28 25.2 26.74 25.2 25.2V16.828C23.884 16.366 22.47 16.1 21 16.1C18.158 16.1 15.498 17.08 13.384 18.662ZM12.936 2.8C12.278 4.06 11.9 5.488 11.9 7C11.9 9.52 12.922 11.788 14.574 13.426L0.826 27.174C0.322 26.67 0 25.97 0 25.2V5.6C0 4.06 1.26 2.8 2.8 2.8H12.936Z" fill="#F4C8FF"/>
</svg>
