<svg width="17" height="14" viewBox="0 0 17 14" fill="none" xmlns="http://www.w3.org/2000/svg">
<mask id="mask0_805_5082" style="mask-type:alpha" maskUnits="userSpaceOnUse" x="0" y="0" width="17" height="14">
<path d="M17 1.63381C16.3743 1.91106 15.7029 2.09908 14.9975 2.18303C15.7178 1.75172 16.2691 1.06761 16.5304 0.254944C15.8548 0.654361 15.1091 0.944389 14.3144 1.10161C13.6781 0.422806 12.7731 0 11.7692 0C9.84322 0 8.28164 1.56158 8.28164 3.48647C8.28164 3.75947 8.31244 4.02611 8.37194 4.28108C5.474 4.13553 2.90431 2.74711 1.18444 0.637361C0.883806 1.15153 0.712778 1.75064 0.712778 2.39017C0.712778 3.60014 1.32892 4.66775 2.26375 5.29236C1.69222 5.27325 1.15469 5.11603 0.684111 4.85469V4.89825C0.684111 6.58731 1.88664 7.99697 3.48114 8.31781C3.189 8.39642 2.88094 8.43997 2.56225 8.43997C2.33706 8.43997 2.11928 8.41767 1.90575 8.37517C2.34978 9.76147 3.63731 10.7696 5.16278 10.7972C3.96981 11.7321 2.46558 12.2876 0.831778 12.2876C0.550278 12.2876 0.273 12.2706 0 12.2398C1.54353 13.231 3.376 13.8089 5.3455 13.8089C11.7607 13.8089 15.2674 8.49522 15.2674 3.88697L15.2557 3.4355C15.9409 2.94681 16.5336 2.33281 17 1.63381Z" fill="white"/>
</mask>
<g mask="url(#mask0_805_5082)">
<path d="M17 1.63381C16.3743 1.91106 15.7029 2.09908 14.9975 2.18303C15.7178 1.75172 16.2691 1.06761 16.5304 0.254944C15.8548 0.654361 15.1091 0.944389 14.3144 1.10161C13.6781 0.422806 12.7731 0 11.7692 0C9.84322 0 8.28164 1.56158 8.28164 3.48647C8.28164 3.75947 8.31244 4.02611 8.37194 4.28108C5.474 4.13553 2.90431 2.74711 1.18444 0.637361C0.883806 1.15153 0.712778 1.75064 0.712778 2.39017C0.712778 3.60014 1.32892 4.66775 2.26375 5.29236C1.69222 5.27325 1.15469 5.11603 0.684111 4.85469V4.89825C0.684111 6.58731 1.88664 7.99697 3.48114 8.31781C3.189 8.39642 2.88094 8.43997 2.56225 8.43997C2.33706 8.43997 2.11928 8.41767 1.90575 8.37517C2.34978 9.76147 3.63731 10.7696 5.16278 10.7972C3.96981 11.7321 2.46558 12.2876 0.831778 12.2876C0.550278 12.2876 0.273 12.2706 0 12.2398C1.54353 13.231 3.376 13.8089 5.3455 13.8089C11.7607 13.8089 15.2674 8.49522 15.2674 3.88697L15.2557 3.4355C15.9409 2.94681 16.5336 2.33281 17 1.63381Z" fill="#A26EB8"/>
</g>
</svg>
