<svg width="243" height="41" viewBox="0 0 243 41" fill="none" xmlns="http://www.w3.org/2000/svg">
<g opacity="0.4">
<path d="M25.724 40.9973V10.8268L0.78125 40.9973H25.724Z" fill="#746D63"/>
<path d="M22.0712 8.83522C24.4101 6.49197 25.724 3.31385 25.724 0H0.78125C0.78125 3.31385 2.0952 6.49197 4.43404 8.83522C6.77288 11.1785 9.94502 12.4949 13.2526 12.4949C16.5603 12.4949 19.7324 11.1785 22.0712 8.83522Z" fill="#746D63"/>
<path d="M33.4859 32.1648C31.1471 34.508 29.8331 37.6861 29.8331 41H54.7759C54.7759 37.6861 53.462 34.508 51.1231 32.1648C48.7843 29.8215 45.6121 28.5051 42.3045 28.5051C38.9969 28.5051 35.8248 29.8215 33.4859 32.1648Z" fill="#746D63"/>
<path d="M29.8331 0V30.1706L54.7812 0H29.8331Z" fill="#746D63"/>
</g>
<path opacity="0.4" d="M184.207 28.969C186.524 29.0208 188.769 28.1544 190.45 26.5585L193.545 29.8995C191.501 32.0014 188.666 33.5634 184.26 33.5634C176.705 33.5634 171.822 28.5496 171.822 21.7713C171.791 20.2178 172.074 18.6741 172.653 17.2321C173.232 15.7902 174.095 14.4797 175.192 13.3787C176.288 12.2778 177.595 11.4089 179.035 10.8241C180.474 10.2392 182.017 9.95026 183.571 9.97452C191.072 9.97452 195.324 15.6825 194.948 23.5985H177.217C177.843 26.8864 180.157 28.9835 184.192 28.9835L184.207 28.969ZM189.592 19.8237C189.11 16.7528 187.278 14.4917 183.614 14.4917C180.205 14.4917 177.829 16.4201 177.217 19.8237H189.597H189.592ZM67.7812 28.7135L81.4245 14.8485H68.1043V10.5H87.7544V14.9353L74.1111 28.7955H87.9472V33.1488H67.7812V28.7135ZM103.263 28.9642C105.581 29.016 107.825 28.1496 109.506 26.5537L112.601 29.8946C110.557 31.9966 107.723 33.5585 103.316 33.5585C95.762 33.5585 90.8784 28.5448 90.8784 21.7665C90.8477 20.213 91.1303 18.6692 91.7093 17.2273C92.2883 15.7854 93.1518 14.4749 94.2482 13.3739C95.3447 12.2729 96.6517 11.4041 98.0912 10.8192C99.5308 10.2344 101.073 9.94544 102.627 9.9697C110.128 9.9697 114.38 15.6777 114.004 23.5937H96.2826C96.9093 26.8815 99.2234 28.9786 103.259 28.9786L103.263 28.9642ZM108.658 19.8189C108.176 16.7479 106.344 14.4869 102.68 14.4869C99.2716 14.4869 96.8949 16.4153 96.2826 19.8189H108.663H108.658ZM143.48 21.7617C143.48 14.5303 148.894 9.97934 154.857 9.97934C156.288 9.9603 157.706 10.2547 159.011 10.8418C160.316 11.429 161.477 12.2947 162.411 13.3781V0.0144577H167.232V33.0861H162.411V29.9669C161.494 31.0949 160.335 32.0021 159.02 32.6213C157.705 33.2405 156.267 33.5559 154.814 33.5441C149.028 33.5441 143.484 28.9642 143.484 21.7665L143.48 21.7617ZM162.681 21.7183C162.643 20.3043 162.189 18.9329 161.376 17.7756C160.563 16.6183 159.426 15.7264 158.109 15.2116C156.792 14.6968 155.352 14.5819 153.969 14.8812C152.587 15.1805 151.323 15.8808 150.337 16.8945C149.35 17.9082 148.684 19.1902 148.422 20.5803C148.161 21.9704 148.315 23.4067 148.865 24.7098C149.415 26.0128 150.338 27.1246 151.517 27.9062C152.696 28.6878 154.079 29.1044 155.493 29.104C159.639 29.104 162.677 25.7968 162.677 21.7183H162.681ZM198.101 28.2748L202.469 26.0089C203.046 27.0383 203.894 27.8905 204.92 28.4733C205.946 29.0562 207.112 29.3476 208.292 29.3161C211.021 29.3161 212.438 27.918 212.438 26.3271C212.438 24.5145 209.801 24.1095 206.933 23.5165C203.076 22.697 199.06 21.4291 199.06 16.7672C199.06 13.1853 202.469 9.87328 207.834 9.92149C212.062 9.92149 215.21 11.5992 216.994 14.3085L212.944 16.5262C212.385 15.6976 211.623 15.0254 210.732 14.5732C209.84 14.1211 208.848 13.9038 207.849 13.9421C205.255 13.9421 203.934 15.2101 203.934 16.6612C203.934 18.2906 206.026 18.7438 209.305 19.4718C213.036 20.2913 217.259 21.511 217.259 26.2211C217.259 29.345 214.531 33.5585 208.071 33.5151C203.346 33.5151 200.02 31.6109 198.106 28.2603L198.101 28.2748ZM230.358 23.02L226.535 27.1901V33.0716H221.714V0H226.535V21.6605L236.77 10.4277H242.641L233.771 20.1178L242.873 33.0765H237.416L230.363 23.02H230.358ZM128.911 9.97452C123.174 9.97452 118.377 13.6866 118.377 19.8574V33.0909H123.294V20.4697C123.294 16.7576 125.43 14.5303 129.079 14.5303C132.729 14.5303 134.542 16.7479 134.542 20.4697V33.0909H139.43V19.8574C139.43 13.6963 134.609 9.97452 128.896 9.97452" fill="#746D63"/>
</svg>
